<?xml version="1.0"?>
<svg width="424" height="420" viewBox="0 0 424 420"
    xmlns="http://www.w3.org/2000/svg" version="1.1">
	<text x="28" y="50" font-family="MS Gothic, monospace" font-weight="normal" font-size="16px" fill="#000" dominant-baseline="central" text-anchor="middle">C</text>
	<text x="36" y="50" font-family="MS Gothic, monospace" font-weight="normal" font-size="16px" fill="#000" dominant-baseline="central" text-anchor="middle">a</text>
	<text x="44" y="50" font-family="MS Gothic, monospace" font-weight="normal" font-size="16px" fill="#000" dominant-baseline="central" text-anchor="middle">n</text>
	<text x="52" y="50" font-family="MS Gothic, monospace" font-weight="normal" font-size="16px" fill="#000" dominant-baseline="central" text-anchor="middle">v</text>
	<text x="60" y="50" font-family="MS Gothic, monospace" font-weight="normal" font-size="16px" fill="#000" dominant-baseline="central" text-anchor="middle">a</text>
	<text x="68" y="50" font-family="MS Gothic, monospace" font-weight="normal" font-size="16px" fill="#000" dominant-baseline="central" text-anchor="middle">s</text>
	<text x="252" y="50" font-family="MS Gothic, monospace" font-weight="normal" font-size="16px" fill="#000" dominant-baseline="central" text-anchor="middle">2</text>
	<text x="260" y="50" font-family="MS Gothic, monospace" font-weight="normal" font-size="16px" fill="#000" dominant-baseline="central" text-anchor="middle">D</text>
	<text x="276" y="50" font-family="MS Gothic, monospace" font-weight="normal" font-size="16px" fill="#000" dominant-baseline="central" text-anchor="middle">C</text>
	<text x="284" y="50" font-family="MS Gothic, monospace" font-weight="normal" font-size="16px" fill="#000" dominant-baseline="central" text-anchor="middle">o</text>
	<text x="292" y="50" font-family="MS Gothic, monospace" font-weight="normal" font-size="16px" fill="#000" dominant-baseline="central" text-anchor="middle">n</text>
	<text x="300" y="50" font-family="MS Gothic, monospace" font-weight="normal" font-size="16px" fill="#000" dominant-baseline="central" text-anchor="middle">t</text>
	<text x="308" y="50" font-family="MS Gothic, monospace" font-weight="normal" font-size="16px" fill="#000" dominant-baseline="central" text-anchor="middle">e</text>
	<text x="316" y="50" font-family="MS Gothic, monospace" font-weight="normal" font-size="16px" fill="#000" dominant-baseline="central" text-anchor="middle">x</text>
	<text x="324" y="50" font-family="MS Gothic, monospace" font-weight="normal" font-size="16px" fill="#000" dominant-baseline="central" text-anchor="middle">t</text>
	<text x="336" y="230" font-family="Meiryo, sans-serif" font-weight="normal" font-size="16px" fill="#000" dominant-baseline="central" text-anchor="middle">描</text>
	<text x="352" y="230" font-family="Meiryo, sans-serif" font-weight="normal" font-size="16px" fill="#000" dominant-baseline="central" text-anchor="middle">画</text>
	<text x="360" y="270" font-family="Meiryo, sans-serif" font-weight="normal" font-size="16px" fill="#000" dominant-baseline="central" text-anchor="middle">○</text>
	<path d="M219,29 L219,31 L221,31 L221,29 Z M219,30 L219,40 L221,40 L221,30 Z M220,29 L220,31 L224,31 L224,29 Z M224,29 L224,31 L232,31 L232,29 Z M232,29 L232,31 L240,31 L240,29 Z M240,29 L240,31 L248,31 L248,29 Z M248,29 L248,31 L256,31 L256,29 Z M256,29 L256,31 L264,31 L264,29 Z M264,29 L264,31 L272,31 L272,29 Z M272,29 L272,31 L280,31 L280,29 Z M280,29 L280,31 L288,31 L288,29 Z M288,29 L288,31 L296,31 L296,29 Z M296,29 L296,31 L304,31 L304,29 Z M304,29 L304,31 L312,31 L312,29 Z M312,29 L312,31 L320,31 L320,29 Z M320,29 L320,31 L328,31 L328,29 Z M328,29 L328,31 L336,31 L336,29 Z M336,29 L336,31 L344,31 L344,29 Z M344,29 L344,31 L352,31 L352,29 Z M352,29 L352,31 L360,31 L360,29 Z M360,29 L360,31 L368,31 L368,29 Z M368,29 L368,31 L376,31 L376,29 Z M376,29 L376,31 L384,31 L384,29 Z M384,29 L384,31 L392,31 L392,29 Z M392,29 L392,31 L400,31 L400,29 Z M403,29 L403,31 L405,31 L405,29 Z M403,30 L403,40 L405,40 L405,30 Z M400,29 L400,31 L404,31 L404,29 Z M219,40 L219,60 L221,60 L221,40 Z M403,40 L403,60 L405,60 L405,40 Z M19,69 L19,71 L21,71 L21,69 Z M19,70 L19,80 L21,80 L21,70 Z M20,69 L20,71 L24,71 L24,69 Z M24,69 L24,71 L32,71 L32,69 Z M32,69 L32,71 L40,71 L40,69 Z M40,69 L40,71 L48,71 L48,69 Z M48,69 L48,71 L56,71 L56,69 Z M56,69 L56,71 L64,71 L64,69 Z M64,69 L64,71 L72,71 L72,69 Z M72,69 L72,71 L80,71 L80,69 Z M80,69 L80,71 L88,71 L88,69 Z M88,69 L88,71 L96,71 L96,69 Z M96,69 L96,71 L104,71 L104,69 Z M104,69 L104,71 L112,71 L112,69 Z M112,69 L112,71 L120,71 L120,69 Z M120,69 L120,71 L128,71 L128,69 Z M128,69 L128,71 L136,71 L136,69 Z M136,69 L136,71 L144,71 L144,69 Z M144,69 L144,71 L152,71 L152,69 Z M155,69 L155,71 L157,71 L157,69 Z M155,70 L155,80 L157,80 L157,70 Z M152,69 L152,71 L156,71 L156,69 Z M219,60 L219,80 L221,80 L221,60 Z M243,69 L243,71 L245,71 L245,69 Z M243,70 L243,80 L245,80 L245,70 Z M244,69 L244,71 L248,71 L248,69 Z M248,69 L248,71 L256,71 L256,69 Z M256,69 L256,71 L264,71 L264,69 Z M264,69 L264,71 L272,71 L272,69 Z M272,69 L272,71 L280,71 L280,69 Z M280,69 L280,71 L288,71 L288,69 Z M288,69 L288,71 L296,71 L296,69 Z M296,69 L296,71 L304,71 L304,69 Z M304,69 L304,71 L312,71 L312,69 Z M312,69 L312,71 L320,71 L320,69 Z M320,69 L320,71 L328,71 L328,69 Z M328,69 L328,71 L336,71 L336,69 Z M336,69 L336,71 L344,71 L344,69 Z M344,69 L344,71 L352,71 L352,69 Z M352,69 L352,71 L360,71 L360,69 Z M360,69 L360,71 L368,71 L368,69 Z M368,69 L368,71 L376,71 L376,69 Z M379,69 L379,71 L381,71 L381,69 Z M379,70 L379,80 L381,80 L381,70 Z M376,69 L376,71 L380,71 L380,69 Z M403,60 L403,80 L405,80 L405,60 Z M19,80 L19,100 L21,100 L21,80 Z M155,80 L155,100 L157,100 L157,80 Z M219,80 L219,100 L221,100 L221,80 Z M243,80 L243,100 L245,100 L245,80 Z M379,80 L379,100 L381,100 L381,80 Z M403,80 L403,100 L405,100 L405,80 Z M19,100 L19,120 L21,120 L21,100 Z M155,100 L155,120 L157,120 L157,100 Z M219,100 L219,120 L221,120 L221,100 Z M243,100 L243,120 L245,120 L245,100 Z M379,100 L379,120 L381,120 L381,100 Z M403,100 L403,120 L405,120 L405,100 Z M19,120 L19,140 L21,140 L21,120 Z M155,120 L155,140 L157,140 L157,120 Z M160,129 L160,131 L168,131 L168,129 Z M168,129 L168,131 L176,131 L176,129 Z M176,129 L176,131 L184,131 L184,129 Z M184,129 L184,131 L192,131 L192,129 Z M192,129 L192,131 L200,131 L200,129 Z M200,129 L200,131 L208,131 L208,129 Z M208,129 L208,131 L216,131 L216,129 Z M216,129 L216,131 L224,131 L224,129 Z M224,129 L224,131 L232,131 L232,129 Z M240,130 L232,135 L232,125 Z M243,120 L243,140 L245,140 L245,120 Z M379,120 L379,140 L381,140 L381,120 Z M403,120 L403,140 L405,140 L405,120 Z M19,140 L19,160 L21,160 L21,140 Z M155,140 L155,160 L157,160 L157,140 Z M219,140 L219,160 L221,160 L221,140 Z M243,140 L243,160 L245,160 L245,140 Z M379,140 L379,160 L381,160 L381,140 Z M403,140 L403,160 L405,160 L405,140 Z M19,160 L19,180 L21,180 L21,160 Z M155,160 L155,180 L157,180 L157,160 Z M219,160 L219,180 L221,180 L221,160 Z M243,160 L243,180 L245,180 L245,160 Z M379,160 L379,180 L381,180 L381,160 Z M403,160 L403,180 L405,180 L405,160 Z M19,189 L19,191 L21,191 L21,189 Z M19,180 L19,190 L21,190 L21,180 Z M20,189 L20,191 L24,191 L24,189 Z M24,189 L24,191 L32,191 L32,189 Z M32,189 L32,191 L40,191 L40,189 Z M40,189 L40,191 L48,191 L48,189 Z M48,189 L48,191 L56,191 L56,189 Z M56,189 L56,191 L64,191 L64,189 Z M64,189 L64,191 L72,191 L72,189 Z M72,189 L72,191 L80,191 L80,189 Z M80,189 L80,191 L88,191 L88,189 Z M88,189 L88,191 L96,191 L96,189 Z M96,189 L96,191 L104,191 L104,189 Z M104,189 L104,191 L112,191 L112,189 Z M112,189 L112,191 L120,191 L120,189 Z M120,189 L120,191 L128,191 L128,189 Z M128,189 L128,191 L136,191 L136,189 Z M136,189 L136,191 L144,191 L144,189 Z M144,189 L144,191 L152,191 L152,189 Z M155,189 L155,191 L157,191 L157,189 Z M155,180 L155,190 L157,190 L157,180 Z M152,189 L152,191 L156,191 L156,189 Z M219,180 L219,200 L221,200 L221,180 Z M243,189 L243,191 L245,191 L245,189 Z M243,180 L243,190 L245,190 L245,180 Z M244,189 L244,191 L248,191 L248,189 Z M248,189 L248,191 L256,191 L256,189 Z M256,189 L256,191 L264,191 L264,189 Z M264,189 L264,191 L272,191 L272,189 Z M272,189 L272,191 L280,191 L280,189 Z M280,189 L280,191 L288,191 L288,189 Z M288,189 L288,191 L296,191 L296,189 Z M296,189 L296,191 L304,191 L304,189 Z M304,189 L304,191 L312,191 L312,189 Z M312,189 L312,191 L320,191 L320,189 Z M320,189 L320,191 L328,191 L328,189 Z M328,189 L328,191 L336,191 L336,189 Z M336,189 L336,191 L344,191 L344,189 Z M344,189 L344,191 L352,191 L352,189 Z M352,189 L352,191 L360,191 L360,189 Z M360,189 L360,191 L368,191 L368,189 Z M368,189 L368,191 L376,191 L376,189 Z M379,189 L379,191 L381,191 L381,189 Z M379,180 L379,190 L381,190 L381,180 Z M376,189 L376,191 L380,191 L380,189 Z M403,180 L403,200 L405,200 L405,180 Z M219,200 L219,220 L221,220 L221,200 Z M315,200 L315,220 L317,220 L317,200 Z M403,200 L403,220 L405,220 L405,200 Z M219,220 L219,240 L221,240 L221,220 Z M316,240 L312,230 L320,230 Z M315,220 L315,230 L317,230 L317,220 Z M403,220 L403,240 L405,240 L405,220 Z M219,240 L219,260 L221,260 L221,240 Z M243,249 L243,251 L245,251 L245,249 Z M243,250 L243,260 L245,260 L245,250 Z M244,249 L244,251 L248,251 L248,249 Z M248,249 L248,251 L256,251 L256,249 Z M256,249 L256,251 L264,251 L264,249 Z M264,249 L264,251 L272,251 L272,249 Z M272,249 L272,251 L280,251 L280,249 Z M280,249 L280,251 L288,251 L288,249 Z M288,249 L288,251 L296,251 L296,249 Z M296,249 L296,251 L304,251 L304,249 Z M304,249 L304,251 L312,251 L312,249 Z M312,249 L312,251 L320,251 L320,249 Z M320,249 L320,251 L328,251 L328,249 Z M328,249 L328,251 L336,251 L336,249 Z M336,249 L336,251 L344,251 L344,249 Z M344,249 L344,251 L352,251 L352,249 Z M352,249 L352,251 L360,251 L360,249 Z M360,249 L360,251 L368,251 L368,249 Z M368,249 L368,251 L376,251 L376,249 Z M379,249 L379,251 L381,251 L381,249 Z M379,250 L379,260 L381,260 L381,250 Z M376,249 L376,251 L380,251 L380,249 Z M403,240 L403,260 L405,260 L405,240 Z M219,260 L219,280 L221,280 L221,260 Z M243,260 L243,280 L245,280 L245,260 Z M379,260 L379,280 L381,280 L381,260 Z M403,260 L403,280 L405,280 L405,260 Z M219,280 L219,300 L221,300 L221,280 Z M243,280 L243,300 L245,300 L245,280 Z M295,280 L297,280 L281,300 L279,300 Z M295,280 L297,280 L313,300 L311,300 Z M379,280 L379,300 L381,300 L381,280 Z M403,280 L403,300 L405,300 L405,280 Z M219,300 L219,320 L221,320 L221,300 Z M243,300 L243,320 L245,320 L245,300 Z M279,300 L281,300 L265,320 L263,320 Z M311,300 L313,300 L329,320 L327,320 Z M375,300 L377,300 L361,320 L359,320 Z M379,300 L379,320 L381,320 L381,300 Z M403,300 L403,320 L405,320 L405,300 Z M219,320 L219,340 L221,340 L221,320 Z M243,320 L243,340 L245,340 L245,320 Z M263,320 L265,320 L249,340 L247,340 Z M327,320 L329,320 L345,340 L343,340 Z M359,320 L361,320 L345,340 L343,340 Z M379,320 L379,340 L381,340 L381,320 Z M403,320 L403,340 L405,340 L405,320 Z M219,340 L219,360 L221,360 L221,340 Z M243,340 L243,360 L245,360 L245,340 Z M343,340 L345,340 L361,360 L359,360 Z M379,340 L379,360 L381,360 L381,340 Z M403,340 L403,360 L405,360 L405,340 Z M219,360 L219,380 L221,380 L221,360 Z M243,369 L243,371 L245,371 L245,369 Z M243,360 L243,370 L245,370 L245,360 Z M244,369 L244,371 L248,371 L248,369 Z M248,369 L248,371 L256,371 L256,369 Z M256,369 L256,371 L264,371 L264,369 Z M264,369 L264,371 L272,371 L272,369 Z M272,369 L272,371 L280,371 L280,369 Z M280,369 L280,371 L288,371 L288,369 Z M288,369 L288,371 L296,371 L296,369 Z M296,369 L296,371 L304,371 L304,369 Z M304,369 L304,371 L312,371 L312,369 Z M312,369 L312,371 L320,371 L320,369 Z M320,369 L320,371 L328,371 L328,369 Z M328,369 L328,371 L336,371 L336,369 Z M336,369 L336,371 L344,371 L344,369 Z M344,369 L344,371 L352,371 L352,369 Z M352,369 L352,371 L360,371 L360,369 Z M360,369 L360,371 L368,371 L368,369 Z M368,369 L368,371 L376,371 L376,369 Z M379,369 L379,371 L381,371 L381,369 Z M379,360 L379,370 L381,370 L381,360 Z M376,369 L376,371 L380,371 L380,369 Z M403,360 L403,380 L405,380 L405,360 Z M219,389 L219,391 L221,391 L221,389 Z M219,380 L219,390 L221,390 L221,380 Z M220,389 L220,391 L224,391 L224,389 Z M224,389 L224,391 L232,391 L232,389 Z M232,389 L232,391 L240,391 L240,389 Z M240,389 L240,391 L248,391 L248,389 Z M248,389 L248,391 L256,391 L256,389 Z M256,389 L256,391 L264,391 L264,389 Z M264,389 L264,391 L272,391 L272,389 Z M272,389 L272,391 L280,391 L280,389 Z M280,389 L280,391 L288,391 L288,389 Z M288,389 L288,391 L296,391 L296,389 Z M296,389 L296,391 L304,391 L304,389 Z M304,389 L304,391 L312,391 L312,389 Z M312,389 L312,391 L320,391 L320,389 Z M320,389 L320,391 L328,391 L328,389 Z M328,389 L328,391 L336,391 L336,389 Z M336,389 L336,391 L344,391 L344,389 Z M344,389 L344,391 L352,391 L352,389 Z M352,389 L352,391 L360,391 L360,389 Z M360,389 L360,391 L368,391 L368,389 Z M368,389 L368,391 L376,391 L376,389 Z M376,389 L376,391 L384,391 L384,389 Z M384,389 L384,391 L392,391 L392,389 Z M392,389 L392,391 L400,391 L400,389 Z M403,389 L403,391 L405,391 L405,389 Z M403,380 L403,390 L405,390 L405,380 Z M400,389 L400,391 L404,391 L404,389 Z " fill="#000" stroke="#000" stroke-width="0.1px" />
</svg>