<?xml version="1.0"?>
<svg width="368" height="920" viewBox="0 0 368 920"
    xmlns="http://www.w3.org/2000/svg" version="1.1">
	<text x="40" y="50" font-family="メイリオ, sans-serif" font-weight="normal" font-size="16px" fill="#000" alignment-baseline="middle" text-anchor="middle">始</text>
	<text x="56" y="50" font-family="メイリオ, sans-serif" font-weight="normal" font-size="16px" fill="#000" alignment-baseline="middle" text-anchor="middle">点</text>
	<text x="72" y="50" font-family="メイリオ, sans-serif" font-weight="normal" font-size="16px" fill="#000" alignment-baseline="middle" text-anchor="middle">●</text>
	<text x="176" y="230" font-family="メイリオ, sans-serif" font-weight="normal" font-size="16px" fill="#000" alignment-baseline="middle" text-anchor="middle">▼</text>
	<text x="152" y="270" font-family="メイリオ, sans-serif" font-weight="normal" font-size="16px" fill="#000" alignment-baseline="middle" text-anchor="middle">次</text>
	<text x="168" y="270" font-family="メイリオ, sans-serif" font-weight="normal" font-size="16px" fill="#000" alignment-baseline="middle" text-anchor="middle">の</text>
	<text x="184" y="270" font-family="メイリオ, sans-serif" font-weight="normal" font-size="16px" fill="#000" alignment-baseline="middle" text-anchor="middle">点</text>
	<text x="40" y="290" font-family="メイリオ, sans-serif" font-weight="normal" font-size="16px" fill="#000" alignment-baseline="middle" text-anchor="middle">始</text>
	<text x="56" y="290" font-family="メイリオ, sans-serif" font-weight="normal" font-size="16px" fill="#000" alignment-baseline="middle" text-anchor="middle">点</text>
	<text x="168" y="290" font-family="メイリオ, sans-serif" font-weight="normal" font-size="16px" fill="#000" alignment-baseline="middle" text-anchor="middle">●</text>
	<text x="176" y="470" font-family="メイリオ, sans-serif" font-weight="normal" font-size="16px" fill="#000" alignment-baseline="middle" text-anchor="middle">▼</text>
	<text x="40" y="550" font-family="メイリオ, sans-serif" font-weight="normal" font-size="16px" fill="#000" alignment-baseline="middle" text-anchor="middle">始</text>
	<text x="56" y="550" font-family="メイリオ, sans-serif" font-weight="normal" font-size="16px" fill="#000" alignment-baseline="middle" text-anchor="middle">点</text>
	<text x="208" y="650" font-family="メイリオ, sans-serif" font-weight="normal" font-size="16px" fill="#000" alignment-baseline="middle" text-anchor="middle">●</text>
	<text x="192" y="670" font-family="メイリオ, sans-serif" font-weight="normal" font-size="16px" fill="#000" alignment-baseline="middle" text-anchor="middle">次</text>
	<text x="208" y="670" font-family="メイリオ, sans-serif" font-weight="normal" font-size="16px" fill="#000" alignment-baseline="middle" text-anchor="middle">の</text>
	<text x="224" y="670" font-family="メイリオ, sans-serif" font-weight="normal" font-size="16px" fill="#000" alignment-baseline="middle" text-anchor="middle">点</text>
	<text x="176" y="710" font-family="メイリオ, sans-serif" font-weight="normal" font-size="16px" fill="#000" alignment-baseline="middle" text-anchor="middle">▼</text>
	<text x="40" y="770" font-family="メイリオ, sans-serif" font-weight="normal" font-size="16px" fill="#000" alignment-baseline="middle" text-anchor="middle">始</text>
	<text x="56" y="770" font-family="メイリオ, sans-serif" font-weight="normal" font-size="16px" fill="#000" alignment-baseline="middle" text-anchor="middle">点</text>
	<text x="312" y="870" font-family="メイリオ, sans-serif" font-weight="normal" font-size="16px" fill="#000" alignment-baseline="middle" text-anchor="middle">●</text>
	<text x="296" y="890" font-family="メイリオ, sans-serif" font-weight="normal" font-size="16px" fill="#000" alignment-baseline="middle" text-anchor="middle">次</text>
	<text x="312" y="890" font-family="メイリオ, sans-serif" font-weight="normal" font-size="16px" fill="#000" alignment-baseline="middle" text-anchor="middle">の</text>
	<text x="328" y="890" font-family="メイリオ, sans-serif" font-weight="normal" font-size="16px" fill="#000" alignment-baseline="middle" text-anchor="middle">点</text>
	<path d="M11,9 L11,11 L13,11 L13,9 Z M11,10 L11,20 L13,20 L13,10 Z M12,9 L12,11 L16,11 L16,9 Z M16,9 L16,11 L24,11 L24,9 Z M24,9 L24,11 L32,11 L32,9 Z M32,9 L32,11 L40,11 L40,9 Z M40,9 L40,11 L48,11 L48,9 Z M48,9 L48,11 L56,11 L56,9 Z M56,9 L56,11 L64,11 L64,9 Z M64,9 L64,11 L72,11 L72,9 Z M72,9 L72,11 L80,11 L80,9 Z M80,9 L80,11 L88,11 L88,9 Z M88,9 L88,11 L96,11 L96,9 Z M96,9 L96,11 L104,11 L104,9 Z M104,9 L104,11 L112,11 L112,9 Z M112,9 L112,11 L120,11 L120,9 Z M120,9 L120,11 L128,11 L128,9 Z M128,9 L128,11 L136,11 L136,9 Z M136,9 L136,11 L144,11 L144,9 Z M144,9 L144,11 L152,11 L152,9 Z M152,9 L152,11 L160,11 L160,9 Z M160,9 L160,11 L168,11 L168,9 Z M168,9 L168,11 L176,11 L176,9 Z M176,9 L176,11 L184,11 L184,9 Z M184,9 L184,11 L192,11 L192,9 Z M192,9 L192,11 L200,11 L200,9 Z M200,9 L200,11 L208,11 L208,9 Z M208,9 L208,11 L216,11 L216,9 Z M216,9 L216,11 L224,11 L224,9 Z M224,9 L224,11 L232,11 L232,9 Z M232,9 L232,11 L240,11 L240,9 Z M240,9 L240,11 L248,11 L248,9 Z M248,9 L248,11 L256,11 L256,9 Z M256,9 L256,11 L264,11 L264,9 Z M264,9 L264,11 L272,11 L272,9 Z M272,9 L272,11 L280,11 L280,9 Z M280,9 L280,11 L288,11 L288,9 Z M288,9 L288,11 L296,11 L296,9 Z M296,9 L296,11 L304,11 L304,9 Z M304,9 L304,11 L312,11 L312,9 Z M312,9 L312,11 L320,11 L320,9 Z M320,9 L320,11 L328,11 L328,9 Z M328,9 L328,11 L336,11 L336,9 Z M336,9 L336,11 L344,11 L344,9 Z M344,9 L344,11 L352,11 L352,9 Z M355,9 L355,11 L357,11 L357,9 Z M355,10 L355,20 L357,20 L357,10 Z M352,9 L352,11 L356,11 L356,9 Z M11,20 L11,40 L13,40 L13,20 Z M355,20 L355,40 L357,40 L357,20 Z M11,40 L11,60 L13,60 L13,40 Z M355,40 L355,60 L357,60 L357,40 Z M11,60 L11,80 L13,80 L13,60 Z M355,60 L355,80 L357,80 L357,60 Z M11,80 L11,100 L13,100 L13,80 Z M355,80 L355,100 L357,100 L357,80 Z M11,100 L11,120 L13,120 L13,100 Z M355,100 L355,120 L357,120 L357,100 Z M11,120 L11,140 L13,140 L13,120 Z M355,120 L355,140 L357,140 L357,120 Z M11,140 L11,160 L13,160 L13,140 Z M355,140 L355,160 L357,160 L357,140 Z M11,160 L11,180 L13,180 L13,160 Z M355,160 L355,180 L357,180 L357,160 Z M11,189 L11,191 L13,191 L13,189 Z M11,180 L11,190 L13,190 L13,180 Z M12,189 L12,191 L16,191 L16,189 Z M16,189 L16,191 L24,191 L24,189 Z M24,189 L24,191 L32,191 L32,189 Z M32,189 L32,191 L40,191 L40,189 Z M40,189 L40,191 L48,191 L48,189 Z M48,189 L48,191 L56,191 L56,189 Z M56,189 L56,191 L64,191 L64,189 Z M64,189 L64,191 L72,191 L72,189 Z M72,189 L72,191 L80,191 L80,189 Z M80,189 L80,191 L88,191 L88,189 Z M88,189 L88,191 L96,191 L96,189 Z M96,189 L96,191 L104,191 L104,189 Z M104,189 L104,191 L112,191 L112,189 Z M112,189 L112,191 L120,191 L120,189 Z M120,189 L120,191 L128,191 L128,189 Z M128,189 L128,191 L136,191 L136,189 Z M136,189 L136,191 L144,191 L144,189 Z M144,189 L144,191 L152,191 L152,189 Z M152,189 L152,191 L160,191 L160,189 Z M160,189 L160,191 L168,191 L168,189 Z M168,189 L168,191 L176,191 L176,189 Z M176,189 L176,191 L184,191 L184,189 Z M184,189 L184,191 L192,191 L192,189 Z M192,189 L192,191 L200,191 L200,189 Z M200,189 L200,191 L208,191 L208,189 Z M208,189 L208,191 L216,191 L216,189 Z M216,189 L216,191 L224,191 L224,189 Z M224,189 L224,191 L232,191 L232,189 Z M232,189 L232,191 L240,191 L240,189 Z M240,189 L240,191 L248,191 L248,189 Z M248,189 L248,191 L256,191 L256,189 Z M256,189 L256,191 L264,191 L264,189 Z M264,189 L264,191 L272,191 L272,189 Z M272,189 L272,191 L280,191 L280,189 Z M280,189 L280,191 L288,191 L288,189 Z M288,189 L288,191 L296,191 L296,189 Z M296,189 L296,191 L304,191 L304,189 Z M304,189 L304,191 L312,191 L312,189 Z M312,189 L312,191 L320,191 L320,189 Z M320,189 L320,191 L328,191 L328,189 Z M328,189 L328,191 L336,191 L336,189 Z M336,189 L336,191 L344,191 L344,189 Z M344,189 L344,191 L352,191 L352,189 Z M355,189 L355,191 L357,191 L357,189 Z M355,180 L355,190 L357,190 L357,180 Z M352,189 L352,191 L356,191 L356,189 Z M11,249 L11,251 L13,251 L13,249 Z M11,250 L11,260 L13,260 L13,250 Z M12,249 L12,251 L16,251 L16,249 Z M16,249 L16,251 L24,251 L24,249 Z M24,249 L24,251 L32,251 L32,249 Z M32,249 L32,251 L40,251 L40,249 Z M40,249 L40,251 L48,251 L48,249 Z M48,249 L48,251 L56,251 L56,249 Z M56,249 L56,251 L64,251 L64,249 Z M64,249 L64,251 L72,251 L72,249 Z M72,249 L72,251 L80,251 L80,249 Z M80,249 L80,251 L88,251 L88,249 Z M88,249 L88,251 L96,251 L96,249 Z M96,249 L96,251 L104,251 L104,249 Z M104,249 L104,251 L112,251 L112,249 Z M112,249 L112,251 L120,251 L120,249 Z M120,249 L120,251 L128,251 L128,249 Z M128,249 L128,251 L136,251 L136,249 Z M136,249 L136,251 L144,251 L144,249 Z M144,249 L144,251 L152,251 L152,249 Z M152,249 L152,251 L160,251 L160,249 Z M160,249 L160,251 L168,251 L168,249 Z M168,249 L168,251 L176,251 L176,249 Z M176,249 L176,251 L184,251 L184,249 Z M184,249 L184,251 L192,251 L192,249 Z M192,249 L192,251 L200,251 L200,249 Z M200,249 L200,251 L208,251 L208,249 Z M208,249 L208,251 L216,251 L216,249 Z M216,249 L216,251 L224,251 L224,249 Z M224,249 L224,251 L232,251 L232,249 Z M232,249 L232,251 L240,251 L240,249 Z M240,249 L240,251 L248,251 L248,249 Z M248,249 L248,251 L256,251 L256,249 Z M256,249 L256,251 L264,251 L264,249 Z M264,249 L264,251 L272,251 L272,249 Z M272,249 L272,251 L280,251 L280,249 Z M280,249 L280,251 L288,251 L288,249 Z M288,249 L288,251 L296,251 L296,249 Z M296,249 L296,251 L304,251 L304,249 Z M304,249 L304,251 L312,251 L312,249 Z M312,249 L312,251 L320,251 L320,249 Z M320,249 L320,251 L328,251 L328,249 Z M328,249 L328,251 L336,251 L336,249 Z M336,249 L336,251 L344,251 L344,249 Z M344,249 L344,251 L352,251 L352,249 Z M355,249 L355,251 L357,251 L357,249 Z M355,250 L355,260 L357,260 L357,250 Z M352,249 L352,251 L356,251 L356,249 Z M11,260 L11,280 L13,280 L13,260 Z M355,260 L355,280 L357,280 L357,260 Z M11,280 L11,300 L13,300 L13,280 Z M72,289 L72,291 L80,291 L80,289 Z M80,289 L80,291 L88,291 L88,289 Z M88,289 L88,291 L96,291 L96,289 Z M96,289 L96,291 L104,291 L104,289 Z M104,289 L104,291 L112,291 L112,289 Z M112,289 L112,291 L120,291 L120,289 Z M120,289 L120,291 L128,291 L128,289 Z M128,289 L128,291 L136,291 L136,289 Z M136,289 L136,291 L144,291 L144,289 Z M144,289 L144,291 L152,291 L152,289 Z M152,289 L152,291 L160,291 L160,289 Z M355,280 L355,300 L357,300 L357,280 Z M11,300 L11,320 L13,320 L13,300 Z M355,300 L355,320 L357,320 L357,300 Z M11,320 L11,340 L13,340 L13,320 Z M355,320 L355,340 L357,340 L357,320 Z M11,340 L11,360 L13,360 L13,340 Z M355,340 L355,360 L357,360 L357,340 Z M11,360 L11,380 L13,380 L13,360 Z M355,360 L355,380 L357,380 L357,360 Z M11,380 L11,400 L13,400 L13,380 Z M355,380 L355,400 L357,400 L357,380 Z M11,400 L11,420 L13,420 L13,400 Z M355,400 L355,420 L357,420 L357,400 Z M11,429 L11,431 L13,431 L13,429 Z M11,420 L11,430 L13,430 L13,420 Z M12,429 L12,431 L16,431 L16,429 Z M16,429 L16,431 L24,431 L24,429 Z M24,429 L24,431 L32,431 L32,429 Z M32,429 L32,431 L40,431 L40,429 Z M40,429 L40,431 L48,431 L48,429 Z M48,429 L48,431 L56,431 L56,429 Z M56,429 L56,431 L64,431 L64,429 Z M64,429 L64,431 L72,431 L72,429 Z M72,429 L72,431 L80,431 L80,429 Z M80,429 L80,431 L88,431 L88,429 Z M88,429 L88,431 L96,431 L96,429 Z M96,429 L96,431 L104,431 L104,429 Z M104,429 L104,431 L112,431 L112,429 Z M112,429 L112,431 L120,431 L120,429 Z M120,429 L120,431 L128,431 L128,429 Z M128,429 L128,431 L136,431 L136,429 Z M136,429 L136,431 L144,431 L144,429 Z M144,429 L144,431 L152,431 L152,429 Z M152,429 L152,431 L160,431 L160,429 Z M160,429 L160,431 L168,431 L168,429 Z M168,429 L168,431 L176,431 L176,429 Z M176,429 L176,431 L184,431 L184,429 Z M184,429 L184,431 L192,431 L192,429 Z M192,429 L192,431 L200,431 L200,429 Z M200,429 L200,431 L208,431 L208,429 Z M208,429 L208,431 L216,431 L216,429 Z M216,429 L216,431 L224,431 L224,429 Z M224,429 L224,431 L232,431 L232,429 Z M232,429 L232,431 L240,431 L240,429 Z M240,429 L240,431 L248,431 L248,429 Z M248,429 L248,431 L256,431 L256,429 Z M256,429 L256,431 L264,431 L264,429 Z M264,429 L264,431 L272,431 L272,429 Z M272,429 L272,431 L280,431 L280,429 Z M280,429 L280,431 L288,431 L288,429 Z M288,429 L288,431 L296,431 L296,429 Z M296,429 L296,431 L304,431 L304,429 Z M304,429 L304,431 L312,431 L312,429 Z M312,429 L312,431 L320,431 L320,429 Z M320,429 L320,431 L328,431 L328,429 Z M328,429 L328,431 L336,431 L336,429 Z M336,429 L336,431 L344,431 L344,429 Z M344,429 L344,431 L352,431 L352,429 Z M355,429 L355,431 L357,431 L357,429 Z M355,420 L355,430 L357,430 L357,420 Z M352,429 L352,431 L356,431 L356,429 Z M11,509 L11,511 L13,511 L13,509 Z M11,510 L11,520 L13,520 L13,510 Z M12,509 L12,511 L16,511 L16,509 Z M16,509 L16,511 L24,511 L24,509 Z M24,509 L24,511 L32,511 L32,509 Z M32,509 L32,511 L40,511 L40,509 Z M40,509 L40,511 L48,511 L48,509 Z M48,509 L48,511 L56,511 L56,509 Z M56,509 L56,511 L64,511 L64,509 Z M64,509 L64,511 L72,511 L72,509 Z M72,509 L72,511 L80,511 L80,509 Z M80,509 L80,511 L88,511 L88,509 Z M88,509 L88,511 L96,511 L96,509 Z M96,509 L96,511 L104,511 L104,509 Z M104,509 L104,511 L112,511 L112,509 Z M112,509 L112,511 L120,511 L120,509 Z M120,509 L120,511 L128,511 L128,509 Z M128,509 L128,511 L136,511 L136,509 Z M136,509 L136,511 L144,511 L144,509 Z M144,509 L144,511 L152,511 L152,509 Z M152,509 L152,511 L160,511 L160,509 Z M160,509 L160,511 L168,511 L168,509 Z M168,509 L168,511 L176,511 L176,509 Z M176,509 L176,511 L184,511 L184,509 Z M184,509 L184,511 L192,511 L192,509 Z M192,509 L192,511 L200,511 L200,509 Z M200,509 L200,511 L208,511 L208,509 Z M208,509 L208,511 L216,511 L216,509 Z M216,509 L216,511 L224,511 L224,509 Z M224,509 L224,511 L232,511 L232,509 Z M232,509 L232,511 L240,511 L240,509 Z M240,509 L240,511 L248,511 L248,509 Z M248,509 L248,511 L256,511 L256,509 Z M256,509 L256,511 L264,511 L264,509 Z M264,509 L264,511 L272,511 L272,509 Z M272,509 L272,511 L280,511 L280,509 Z M280,509 L280,511 L288,511 L288,509 Z M288,509 L288,511 L296,511 L296,509 Z M296,509 L296,511 L304,511 L304,509 Z M304,509 L304,511 L312,511 L312,509 Z M312,509 L312,511 L320,511 L320,509 Z M320,509 L320,511 L328,511 L328,509 Z M328,509 L328,511 L336,511 L336,509 Z M336,509 L336,511 L344,511 L344,509 Z M344,509 L344,511 L352,511 L352,509 Z M355,509 L355,511 L357,511 L357,509 Z M355,510 L355,520 L357,520 L357,510 Z M352,509 L352,511 L356,511 L356,509 Z M11,520 L11,540 L13,540 L13,520 Z M355,520 L355,540 L357,540 L357,520 Z M11,540 L11,560 L13,560 L13,540 Z M72,549 L72,551 L80,551 L80,549 Z M80,549 L80,551 L88,551 L88,549 Z M88,549 L88,551 L96,551 L96,549 Z M96,549 L96,551 L104,551 L104,549 Z M104,549 L104,551 L112,551 L112,549 Z M112,549 L112,551 L120,551 L120,549 Z M120,549 L120,551 L128,551 L128,549 Z M128,549 L128,551 L136,551 L136,549 Z M136,549 L136,551 L144,551 L144,549 Z M144,549 L144,551 L152,551 L152,549 Z M152,549 L152,551 L160,551 L160,549 Z M160,549 L160,551 L168,551 L168,549 Z M172,549 L171,550 L172,551 L173,550 Z M168,549 L168,551 L172,551 L172,549 Z M171,550 L175,560 L177,560 L173,550 Z M355,540 L355,560 L357,560 L357,540 Z M11,560 L11,580 L13,580 L13,560 Z M175,560 L177,560 L185,580 L183,580 Z M355,560 L355,580 L357,580 L357,560 Z M11,580 L11,600 L13,600 L13,580 Z M183,580 L185,580 L193,600 L191,600 Z M355,580 L355,600 L357,600 L357,580 Z M11,600 L11,620 L13,620 L13,600 Z M191,600 L193,600 L201,620 L199,620 Z M355,600 L355,620 L357,620 L357,600 Z M11,620 L11,640 L13,640 L13,620 Z M199,620 L201,620 L209,640 L207,640 Z M355,620 L355,640 L357,640 L357,620 Z M11,640 L11,660 L13,660 L13,640 Z M355,640 L355,660 L357,660 L357,640 Z M11,660 L11,680 L13,680 L13,660 Z M355,660 L355,680 L357,680 L357,660 Z M11,689 L11,691 L13,691 L13,689 Z M11,680 L11,690 L13,690 L13,680 Z M12,689 L12,691 L16,691 L16,689 Z M16,689 L16,691 L24,691 L24,689 Z M24,689 L24,691 L32,691 L32,689 Z M32,689 L32,691 L40,691 L40,689 Z M40,689 L40,691 L48,691 L48,689 Z M48,689 L48,691 L56,691 L56,689 Z M56,689 L56,691 L64,691 L64,689 Z M64,689 L64,691 L72,691 L72,689 Z M72,689 L72,691 L80,691 L80,689 Z M80,689 L80,691 L88,691 L88,689 Z M88,689 L88,691 L96,691 L96,689 Z M96,689 L96,691 L104,691 L104,689 Z M104,689 L104,691 L112,691 L112,689 Z M112,689 L112,691 L120,691 L120,689 Z M120,689 L120,691 L128,691 L128,689 Z M128,689 L128,691 L136,691 L136,689 Z M136,689 L136,691 L144,691 L144,689 Z M144,689 L144,691 L152,691 L152,689 Z M152,689 L152,691 L160,691 L160,689 Z M160,689 L160,691 L168,691 L168,689 Z M168,689 L168,691 L176,691 L176,689 Z M176,689 L176,691 L184,691 L184,689 Z M184,689 L184,691 L192,691 L192,689 Z M192,689 L192,691 L200,691 L200,689 Z M200,689 L200,691 L208,691 L208,689 Z M208,689 L208,691 L216,691 L216,689 Z M216,689 L216,691 L224,691 L224,689 Z M224,689 L224,691 L232,691 L232,689 Z M232,689 L232,691 L240,691 L240,689 Z M240,689 L240,691 L248,691 L248,689 Z M248,689 L248,691 L256,691 L256,689 Z M256,689 L256,691 L264,691 L264,689 Z M264,689 L264,691 L272,691 L272,689 Z M272,689 L272,691 L280,691 L280,689 Z M280,689 L280,691 L288,691 L288,689 Z M288,689 L288,691 L296,691 L296,689 Z M296,689 L296,691 L304,691 L304,689 Z M304,689 L304,691 L312,691 L312,689 Z M312,689 L312,691 L320,691 L320,689 Z M320,689 L320,691 L328,691 L328,689 Z M328,689 L328,691 L336,691 L336,689 Z M336,689 L336,691 L344,691 L344,689 Z M344,689 L344,691 L352,691 L352,689 Z M355,689 L355,691 L357,691 L357,689 Z M355,680 L355,690 L357,690 L357,680 Z M352,689 L352,691 L356,691 L356,689 Z M11,729 L11,731 L13,731 L13,729 Z M11,730 L11,740 L13,740 L13,730 Z M12,729 L12,731 L16,731 L16,729 Z M16,729 L16,731 L24,731 L24,729 Z M24,729 L24,731 L32,731 L32,729 Z M32,729 L32,731 L40,731 L40,729 Z M40,729 L40,731 L48,731 L48,729 Z M48,729 L48,731 L56,731 L56,729 Z M56,729 L56,731 L64,731 L64,729 Z M64,729 L64,731 L72,731 L72,729 Z M72,729 L72,731 L80,731 L80,729 Z M80,729 L80,731 L88,731 L88,729 Z M88,729 L88,731 L96,731 L96,729 Z M96,729 L96,731 L104,731 L104,729 Z M104,729 L104,731 L112,731 L112,729 Z M112,729 L112,731 L120,731 L120,729 Z M120,729 L120,731 L128,731 L128,729 Z M128,729 L128,731 L136,731 L136,729 Z M136,729 L136,731 L144,731 L144,729 Z M144,729 L144,731 L152,731 L152,729 Z M152,729 L152,731 L160,731 L160,729 Z M160,729 L160,731 L168,731 L168,729 Z M168,729 L168,731 L176,731 L176,729 Z M176,729 L176,731 L184,731 L184,729 Z M184,729 L184,731 L192,731 L192,729 Z M192,729 L192,731 L200,731 L200,729 Z M200,729 L200,731 L208,731 L208,729 Z M208,729 L208,731 L216,731 L216,729 Z M216,729 L216,731 L224,731 L224,729 Z M224,729 L224,731 L232,731 L232,729 Z M232,729 L232,731 L240,731 L240,729 Z M240,729 L240,731 L248,731 L248,729 Z M248,729 L248,731 L256,731 L256,729 Z M256,729 L256,731 L264,731 L264,729 Z M264,729 L264,731 L272,731 L272,729 Z M272,729 L272,731 L280,731 L280,729 Z M280,729 L280,731 L288,731 L288,729 Z M288,729 L288,731 L296,731 L296,729 Z M296,729 L296,731 L304,731 L304,729 Z M304,729 L304,731 L312,731 L312,729 Z M312,729 L312,731 L320,731 L320,729 Z M320,729 L320,731 L328,731 L328,729 Z M328,729 L328,731 L336,731 L336,729 Z M336,729 L336,731 L344,731 L344,729 Z M344,729 L344,731 L352,731 L352,729 Z M355,729 L355,731 L357,731 L357,729 Z M355,730 L355,740 L357,740 L357,730 Z M352,729 L352,731 L356,731 L356,729 Z M11,740 L11,760 L13,760 L13,740 Z M355,740 L355,760 L357,760 L357,740 Z M11,760 L11,780 L13,780 L13,760 Z M72,769 L72,771 L80,771 L80,769 Z M80,769 L80,771 L88,771 L88,769 Z M88,769 L88,771 L96,771 L96,769 Z M96,769 L96,771 L104,771 L104,769 Z M104,769 L104,771 L112,771 L112,769 Z M112,769 L112,771 L120,771 L120,769 Z M120,769 L120,771 L128,771 L128,769 Z M128,769 L128,771 L136,771 L136,769 Z M136,769 L136,771 L144,771 L144,769 Z M144,769 L144,771 L152,771 L152,769 Z M152,769 L152,771 L160,771 L160,769 Z M160,769 L160,771 L168,771 L168,769 Z M172,769 L171,770 L172,771 L173,770 Z M168,769 L168,771 L172,771 L172,769 Z M171,770 L175,780 L177,780 L173,770 Z M355,760 L355,780 L357,780 L357,760 Z M11,780 L11,800 L13,800 L13,780 Z M175,780 L177,780 L185,800 L183,800 Z M355,780 L355,800 L357,800 L357,780 Z M11,800 L11,820 L13,820 L13,800 Z M183,800 L185,800 L193,820 L191,820 Z M355,800 L355,820 L357,820 L357,800 Z M11,820 L11,840 L13,840 L13,820 Z M191,820 L193,820 L201,840 L199,840 Z M355,820 L355,840 L357,840 L357,820 Z M11,840 L11,860 L13,860 L13,840 Z M199,840 L201,840 L209,860 L207,860 Z M355,840 L355,860 L357,860 L357,840 Z M11,860 L11,880 L13,880 L13,860 Z M212,869 L211,870 L212,871 L213,870 Z M212,869 L212,871 L216,871 L216,869 Z M207,860 L211,870 L213,870 L209,860 Z M216,869 L216,871 L224,871 L224,869 Z M224,869 L224,871 L232,871 L232,869 Z M232,869 L232,871 L240,871 L240,869 Z M240,869 L240,871 L248,871 L248,869 Z M248,869 L248,871 L256,871 L256,869 Z M256,869 L256,871 L264,871 L264,869 Z M264,869 L264,871 L272,871 L272,869 Z M272,869 L272,871 L280,871 L280,869 Z M280,869 L280,871 L288,871 L288,869 Z M288,869 L288,871 L296,871 L296,869 Z M296,869 L296,871 L304,871 L304,869 Z M355,860 L355,880 L357,880 L357,860 Z M11,880 L11,900 L13,900 L13,880 Z M355,880 L355,900 L357,900 L357,880 Z M11,909 L11,911 L13,911 L13,909 Z M11,900 L11,910 L13,910 L13,900 Z M12,909 L12,911 L16,911 L16,909 Z M16,909 L16,911 L24,911 L24,909 Z M24,909 L24,911 L32,911 L32,909 Z M32,909 L32,911 L40,911 L40,909 Z M40,909 L40,911 L48,911 L48,909 Z M48,909 L48,911 L56,911 L56,909 Z M56,909 L56,911 L64,911 L64,909 Z M64,909 L64,911 L72,911 L72,909 Z M72,909 L72,911 L80,911 L80,909 Z M80,909 L80,911 L88,911 L88,909 Z M88,909 L88,911 L96,911 L96,909 Z M96,909 L96,911 L104,911 L104,909 Z M104,909 L104,911 L112,911 L112,909 Z M112,909 L112,911 L120,911 L120,909 Z M120,909 L120,911 L128,911 L128,909 Z M128,909 L128,911 L136,911 L136,909 Z M136,909 L136,911 L144,911 L144,909 Z M144,909 L144,911 L152,911 L152,909 Z M152,909 L152,911 L160,911 L160,909 Z M160,909 L160,911 L168,911 L168,909 Z M168,909 L168,911 L176,911 L176,909 Z M176,909 L176,911 L184,911 L184,909 Z M184,909 L184,911 L192,911 L192,909 Z M192,909 L192,911 L200,911 L200,909 Z M200,909 L200,911 L208,911 L208,909 Z M208,909 L208,911 L216,911 L216,909 Z M216,909 L216,911 L224,911 L224,909 Z M224,909 L224,911 L232,911 L232,909 Z M232,909 L232,911 L240,911 L240,909 Z M240,909 L240,911 L248,911 L248,909 Z M248,909 L248,911 L256,911 L256,909 Z M256,909 L256,911 L264,911 L264,909 Z M264,909 L264,911 L272,911 L272,909 Z M272,909 L272,911 L280,911 L280,909 Z M280,909 L280,911 L288,911 L288,909 Z M288,909 L288,911 L296,911 L296,909 Z M296,909 L296,911 L304,911 L304,909 Z M304,909 L304,911 L312,911 L312,909 Z M312,909 L312,911 L320,911 L320,909 Z M320,909 L320,911 L328,911 L328,909 Z M328,909 L328,911 L336,911 L336,909 Z M336,909 L336,911 L344,911 L344,909 Z M344,909 L344,911 L352,911 L352,909 Z M355,909 L355,911 L357,911 L357,909 Z M355,900 L355,910 L357,910 L357,900 Z M352,909 L352,911 L356,911 L356,909 Z " fill="#000" stroke="#000" stroke-width="0.1px" />
</svg>