<?xml version="1.0"?>
<svg width="328" height="280" viewBox="0 0 328 280"
    xmlns="http://www.w3.org/2000/svg" version="1.1">
	<text x="28" y="30" font-family="ＭＳ ゴシック, monospace" font-weight="normal" font-size="16px" fill="#000" alignment-baseline="middle" text-anchor="middle" dy="1.5px">(</text>
	<text x="36" y="30" font-family="ＭＳ ゴシック, monospace" font-weight="normal" font-size="16px" fill="#000" alignment-baseline="middle" text-anchor="middle" dy="1.5px">0</text>
	<text x="44" y="30" font-family="ＭＳ ゴシック, monospace" font-weight="normal" font-size="16px" fill="#000" alignment-baseline="middle" text-anchor="middle" dy="1.5px">,</text>
	<text x="60" y="30" font-family="ＭＳ ゴシック, monospace" font-weight="normal" font-size="16px" fill="#000" alignment-baseline="middle" text-anchor="middle" dy="1.5px">0</text>
	<text x="68" y="30" font-family="ＭＳ ゴシック, monospace" font-weight="normal" font-size="16px" fill="#000" alignment-baseline="middle" text-anchor="middle" dy="1.5px">)</text>
	<text x="244" y="30" font-family="ＭＳ ゴシック, monospace" font-weight="normal" font-size="16px" fill="#000" alignment-baseline="middle" text-anchor="middle" dy="1.5px">(</text>
	<text x="252" y="30" font-family="ＭＳ ゴシック, monospace" font-weight="normal" font-size="16px" fill="#000" alignment-baseline="middle" text-anchor="middle" dy="1.5px">3</text>
	<text x="260" y="30" font-family="ＭＳ ゴシック, monospace" font-weight="normal" font-size="16px" fill="#000" alignment-baseline="middle" text-anchor="middle" dy="1.5px">0</text>
	<text x="268" y="30" font-family="ＭＳ ゴシック, monospace" font-weight="normal" font-size="16px" fill="#000" alignment-baseline="middle" text-anchor="middle" dy="1.5px">0</text>
	<text x="276" y="30" font-family="ＭＳ ゴシック, monospace" font-weight="normal" font-size="16px" fill="#000" alignment-baseline="middle" text-anchor="middle" dy="1.5px">,</text>
	<text x="292" y="30" font-family="ＭＳ ゴシック, monospace" font-weight="normal" font-size="16px" fill="#000" alignment-baseline="middle" text-anchor="middle" dy="1.5px">0</text>
	<text x="300" y="30" font-family="ＭＳ ゴシック, monospace" font-weight="normal" font-size="16px" fill="#000" alignment-baseline="middle" text-anchor="middle" dy="1.5px">)</text>
	<text x="136" y="90" font-family="メイリオ, sans-serif" font-weight="normal" font-size="16px" fill="#000" alignment-baseline="middle" text-anchor="middle">点</text>
	<text x="148" y="90" font-family="ＭＳ ゴシック, monospace" font-weight="normal" font-size="16px" fill="#000" alignment-baseline="middle" text-anchor="middle" dy="1.5px">1</text>
	<text x="180" y="90" font-family="ＭＳ ゴシック, monospace" font-weight="normal" font-size="16px" fill="#000" alignment-baseline="middle" text-anchor="middle" dy="1.5px">(</text>
	<text x="188" y="90" font-family="ＭＳ ゴシック, monospace" font-weight="normal" font-size="16px" fill="#000" alignment-baseline="middle" text-anchor="middle" dy="1.5px">1</text>
	<text x="196" y="90" font-family="ＭＳ ゴシック, monospace" font-weight="normal" font-size="16px" fill="#000" alignment-baseline="middle" text-anchor="middle" dy="1.5px">5</text>
	<text x="204" y="90" font-family="ＭＳ ゴシック, monospace" font-weight="normal" font-size="16px" fill="#000" alignment-baseline="middle" text-anchor="middle" dy="1.5px">0</text>
	<text x="212" y="90" font-family="ＭＳ ゴシック, monospace" font-weight="normal" font-size="16px" fill="#000" alignment-baseline="middle" text-anchor="middle" dy="1.5px">,</text>
	<text x="228" y="90" font-family="ＭＳ ゴシック, monospace" font-weight="normal" font-size="16px" fill="#000" alignment-baseline="middle" text-anchor="middle" dy="1.5px">2</text>
	<text x="236" y="90" font-family="ＭＳ ゴシック, monospace" font-weight="normal" font-size="16px" fill="#000" alignment-baseline="middle" text-anchor="middle" dy="1.5px">5</text>
	<text x="244" y="90" font-family="ＭＳ ゴシック, monospace" font-weight="normal" font-size="16px" fill="#000" alignment-baseline="middle" text-anchor="middle" dy="1.5px">)</text>
	<text x="104" y="170" font-family="メイリオ, sans-serif" font-weight="normal" font-size="16px" fill="#000" alignment-baseline="middle" text-anchor="middle">点</text>
	<text x="116" y="170" font-family="ＭＳ ゴシック, monospace" font-weight="normal" font-size="16px" fill="#000" alignment-baseline="middle" text-anchor="middle" dy="1.5px">2</text>
	<text x="216" y="170" font-family="メイリオ, sans-serif" font-weight="normal" font-size="16px" fill="#000" alignment-baseline="middle" text-anchor="middle">点</text>
	<text x="228" y="170" font-family="ＭＳ ゴシック, monospace" font-weight="normal" font-size="16px" fill="#000" alignment-baseline="middle" text-anchor="middle" dy="1.5px">3</text>
	<text x="84" y="190" font-family="ＭＳ ゴシック, monospace" font-weight="normal" font-size="16px" fill="#000" alignment-baseline="middle" text-anchor="middle" dy="1.5px">(</text>
	<text x="92" y="190" font-family="ＭＳ ゴシック, monospace" font-weight="normal" font-size="16px" fill="#000" alignment-baseline="middle" text-anchor="middle" dy="1.5px">8</text>
	<text x="100" y="190" font-family="ＭＳ ゴシック, monospace" font-weight="normal" font-size="16px" fill="#000" alignment-baseline="middle" text-anchor="middle" dy="1.5px">0</text>
	<text x="108" y="190" font-family="ＭＳ ゴシック, monospace" font-weight="normal" font-size="16px" fill="#000" alignment-baseline="middle" text-anchor="middle" dy="1.5px">,</text>
	<text x="124" y="190" font-family="ＭＳ ゴシック, monospace" font-weight="normal" font-size="16px" fill="#000" alignment-baseline="middle" text-anchor="middle" dy="1.5px">1</text>
	<text x="132" y="190" font-family="ＭＳ ゴシック, monospace" font-weight="normal" font-size="16px" fill="#000" alignment-baseline="middle" text-anchor="middle" dy="1.5px">7</text>
	<text x="140" y="190" font-family="ＭＳ ゴシック, monospace" font-weight="normal" font-size="16px" fill="#000" alignment-baseline="middle" text-anchor="middle" dy="1.5px">5</text>
	<text x="148" y="190" font-family="ＭＳ ゴシック, monospace" font-weight="normal" font-size="16px" fill="#000" alignment-baseline="middle" text-anchor="middle" dy="1.5px">)</text>
	<text x="180" y="190" font-family="ＭＳ ゴシック, monospace" font-weight="normal" font-size="16px" fill="#000" alignment-baseline="middle" text-anchor="middle" dy="1.5px">(</text>
	<text x="188" y="190" font-family="ＭＳ ゴシック, monospace" font-weight="normal" font-size="16px" fill="#000" alignment-baseline="middle" text-anchor="middle" dy="1.5px">2</text>
	<text x="196" y="190" font-family="ＭＳ ゴシック, monospace" font-weight="normal" font-size="16px" fill="#000" alignment-baseline="middle" text-anchor="middle" dy="1.5px">2</text>
	<text x="204" y="190" font-family="ＭＳ ゴシック, monospace" font-weight="normal" font-size="16px" fill="#000" alignment-baseline="middle" text-anchor="middle" dy="1.5px">0</text>
	<text x="212" y="190" font-family="ＭＳ ゴシック, monospace" font-weight="normal" font-size="16px" fill="#000" alignment-baseline="middle" text-anchor="middle" dy="1.5px">,</text>
	<text x="228" y="190" font-family="ＭＳ ゴシック, monospace" font-weight="normal" font-size="16px" fill="#000" alignment-baseline="middle" text-anchor="middle" dy="1.5px">1</text>
	<text x="236" y="190" font-family="ＭＳ ゴシック, monospace" font-weight="normal" font-size="16px" fill="#000" alignment-baseline="middle" text-anchor="middle" dy="1.5px">7</text>
	<text x="244" y="190" font-family="ＭＳ ゴシック, monospace" font-weight="normal" font-size="16px" fill="#000" alignment-baseline="middle" text-anchor="middle" dy="1.5px">5</text>
	<text x="252" y="190" font-family="ＭＳ ゴシック, monospace" font-weight="normal" font-size="16px" fill="#000" alignment-baseline="middle" text-anchor="middle" dy="1.5px">)</text>
	<text x="20" y="250" font-family="ＭＳ ゴシック, monospace" font-weight="normal" font-size="16px" fill="#000" alignment-baseline="middle" text-anchor="middle" dy="1.5px">(</text>
	<text x="28" y="250" font-family="ＭＳ ゴシック, monospace" font-weight="normal" font-size="16px" fill="#000" alignment-baseline="middle" text-anchor="middle" dy="1.5px">0</text>
	<text x="36" y="250" font-family="ＭＳ ゴシック, monospace" font-weight="normal" font-size="16px" fill="#000" alignment-baseline="middle" text-anchor="middle" dy="1.5px">,</text>
	<text x="52" y="250" font-family="ＭＳ ゴシック, monospace" font-weight="normal" font-size="16px" fill="#000" alignment-baseline="middle" text-anchor="middle" dy="1.5px">2</text>
	<text x="60" y="250" font-family="ＭＳ ゴシック, monospace" font-weight="normal" font-size="16px" fill="#000" alignment-baseline="middle" text-anchor="middle" dy="1.5px">0</text>
	<text x="68" y="250" font-family="ＭＳ ゴシック, monospace" font-weight="normal" font-size="16px" fill="#000" alignment-baseline="middle" text-anchor="middle" dy="1.5px">0</text>
	<text x="76" y="250" font-family="ＭＳ ゴシック, monospace" font-weight="normal" font-size="16px" fill="#000" alignment-baseline="middle" text-anchor="middle" dy="1.5px">)</text>
	<text x="236" y="250" font-family="ＭＳ ゴシック, monospace" font-weight="normal" font-size="16px" fill="#000" alignment-baseline="middle" text-anchor="middle" dy="1.5px">(</text>
	<text x="244" y="250" font-family="ＭＳ ゴシック, monospace" font-weight="normal" font-size="16px" fill="#000" alignment-baseline="middle" text-anchor="middle" dy="1.5px">3</text>
	<text x="252" y="250" font-family="ＭＳ ゴシック, monospace" font-weight="normal" font-size="16px" fill="#000" alignment-baseline="middle" text-anchor="middle" dy="1.5px">0</text>
	<text x="260" y="250" font-family="ＭＳ ゴシック, monospace" font-weight="normal" font-size="16px" fill="#000" alignment-baseline="middle" text-anchor="middle" dy="1.5px">0</text>
	<text x="268" y="250" font-family="ＭＳ ゴシック, monospace" font-weight="normal" font-size="16px" fill="#000" alignment-baseline="middle" text-anchor="middle" dy="1.5px">,</text>
	<text x="284" y="250" font-family="ＭＳ ゴシック, monospace" font-weight="normal" font-size="16px" fill="#000" alignment-baseline="middle" text-anchor="middle" dy="1.5px">2</text>
	<text x="292" y="250" font-family="ＭＳ ゴシック, monospace" font-weight="normal" font-size="16px" fill="#000" alignment-baseline="middle" text-anchor="middle" dy="1.5px">0</text>
	<text x="300" y="250" font-family="ＭＳ ゴシック, monospace" font-weight="normal" font-size="16px" fill="#000" alignment-baseline="middle" text-anchor="middle" dy="1.5px">0</text>
	<text x="308" y="250" font-family="ＭＳ ゴシック, monospace" font-weight="normal" font-size="16px" fill="#000" alignment-baseline="middle" text-anchor="middle" dy="1.5px">)</text>
	<path d="M51,49 L51,51 L53,51 L53,49 Z M51,50 L51,60 L53,60 L53,50 Z M52,49 L52,51 L56,51 L56,49 Z M56,49 L56,51 L64,51 L64,49 Z M64,49 L64,51 L72,51 L72,49 Z M72,49 L72,51 L80,51 L80,49 Z M80,49 L80,51 L88,51 L88,49 Z M88,49 L88,51 L96,51 L96,49 Z M96,49 L96,51 L104,51 L104,49 Z M104,49 L104,51 L112,51 L112,49 Z M112,49 L112,51 L120,51 L120,49 Z M120,49 L120,51 L128,51 L128,49 Z M128,49 L128,51 L136,51 L136,49 Z M136,49 L136,51 L144,51 L144,49 Z M144,49 L144,51 L152,51 L152,49 Z M152,49 L152,51 L160,51 L160,49 Z M160,49 L160,51 L168,51 L168,49 Z M168,49 L168,51 L176,51 L176,49 Z M176,49 L176,51 L184,51 L184,49 Z M184,49 L184,51 L192,51 L192,49 Z M192,49 L192,51 L200,51 L200,49 Z M200,49 L200,51 L208,51 L208,49 Z M208,49 L208,51 L216,51 L216,49 Z M216,49 L216,51 L224,51 L224,49 Z M224,49 L224,51 L232,51 L232,49 Z M232,49 L232,51 L240,51 L240,49 Z M240,49 L240,51 L248,51 L248,49 Z M248,49 L248,51 L256,51 L256,49 Z M256,49 L256,51 L264,51 L264,49 Z M264,49 L264,51 L272,51 L272,49 Z M275,49 L275,51 L277,51 L277,49 Z M275,50 L275,60 L277,60 L277,50 Z M272,49 L272,51 L276,51 L276,49 Z M51,60 L51,80 L53,80 L53,60 Z M275,60 L275,80 L277,80 L277,60 Z M51,80 L51,100 L53,100 L53,80 Z M164,89 L163,90 L164,91 L165,90 Z M163,90 L159,100 L161,100 L165,90 Z M163,90 L167,100 L169,100 L165,90 Z M275,80 L275,100 L277,100 L277,80 Z M51,100 L51,120 L53,120 L53,100 Z M159,100 L161,100 L153,120 L151,120 Z M167,100 L169,100 L177,120 L175,120 Z M275,100 L275,120 L277,120 L277,100 Z M51,120 L51,140 L53,140 L53,120 Z M151,120 L153,120 L145,140 L143,140 Z M175,120 L177,120 L185,140 L183,140 Z M275,120 L275,140 L277,140 L277,120 Z M51,140 L51,160 L53,160 L53,140 Z M143,140 L145,140 L137,160 L135,160 Z M183,140 L185,140 L193,160 L191,160 Z M275,140 L275,160 L277,160 L277,140 Z M51,160 L51,180 L53,180 L53,160 Z M132,169 L131,170 L132,171 L133,170 Z M132,169 L132,171 L136,171 L136,169 Z M135,160 L131,170 L133,170 L137,160 Z M136,169 L136,171 L144,171 L144,169 Z M144,169 L144,171 L152,171 L152,169 Z M152,169 L152,171 L160,171 L160,169 Z M160,169 L160,171 L168,171 L168,169 Z M168,169 L168,171 L176,171 L176,169 Z M176,169 L176,171 L184,171 L184,169 Z M184,169 L184,171 L192,171 L192,169 Z M196,169 L195,170 L196,171 L197,170 Z M192,169 L192,171 L196,171 L196,169 Z M191,160 L195,170 L197,170 L193,160 Z M275,160 L275,180 L277,180 L277,160 Z M51,180 L51,200 L53,200 L53,180 Z M275,180 L275,200 L277,200 L277,180 Z M51,200 L51,220 L53,220 L53,200 Z M275,200 L275,220 L277,220 L277,200 Z M51,229 L51,231 L53,231 L53,229 Z M51,220 L51,230 L53,230 L53,220 Z M52,229 L52,231 L56,231 L56,229 Z M56,229 L56,231 L64,231 L64,229 Z M64,229 L64,231 L72,231 L72,229 Z M72,229 L72,231 L80,231 L80,229 Z M80,229 L80,231 L88,231 L88,229 Z M88,229 L88,231 L96,231 L96,229 Z M96,229 L96,231 L104,231 L104,229 Z M104,229 L104,231 L112,231 L112,229 Z M112,229 L112,231 L120,231 L120,229 Z M120,229 L120,231 L128,231 L128,229 Z M128,229 L128,231 L136,231 L136,229 Z M136,229 L136,231 L144,231 L144,229 Z M144,229 L144,231 L152,231 L152,229 Z M152,229 L152,231 L160,231 L160,229 Z M160,229 L160,231 L168,231 L168,229 Z M168,229 L168,231 L176,231 L176,229 Z M176,229 L176,231 L184,231 L184,229 Z M184,229 L184,231 L192,231 L192,229 Z M192,229 L192,231 L200,231 L200,229 Z M200,229 L200,231 L208,231 L208,229 Z M208,229 L208,231 L216,231 L216,229 Z M216,229 L216,231 L224,231 L224,229 Z M224,229 L224,231 L232,231 L232,229 Z M232,229 L232,231 L240,231 L240,229 Z M240,229 L240,231 L248,231 L248,229 Z M248,229 L248,231 L256,231 L256,229 Z M256,229 L256,231 L264,231 L264,229 Z M264,229 L264,231 L272,231 L272,229 Z M275,229 L275,231 L277,231 L277,229 Z M275,220 L275,230 L277,230 L277,220 Z M272,229 L272,231 L276,231 L276,229 Z " fill="#000" stroke="#000" stroke-width="0.1px" />
</svg>