<?xml version="1.0"?>
<svg width="344" height="320" viewBox="0 0 344 320"
    xmlns="http://www.w3.org/2000/svg" version="1.1">
	<text x="36" y="30" font-family="ＭＳ ゴシック, monospace" font-weight="normal" font-size="16px" fill="#000" alignment-baseline="middle" text-anchor="middle" dy="1.5px">X</text>
	<text x="60" y="30" font-family="ＭＳ ゴシック, monospace" font-weight="normal" font-size="16px" fill="#000" alignment-baseline="middle" text-anchor="middle" dy="1.5px">Y</text>
	<text x="252" y="30" font-family="ＭＳ ゴシック, monospace" font-weight="normal" font-size="16px" fill="#000" alignment-baseline="middle" text-anchor="middle" dy="1.5px">X</text>
	<text x="292" y="30" font-family="ＭＳ ゴシック, monospace" font-weight="normal" font-size="16px" fill="#000" alignment-baseline="middle" text-anchor="middle" dy="1.5px">Y</text>
	<text x="28" y="50" font-family="ＭＳ ゴシック, monospace" font-weight="normal" font-size="16px" fill="#000" alignment-baseline="middle" text-anchor="middle" dy="1.5px">(</text>
	<text x="36" y="50" font-family="ＭＳ ゴシック, monospace" font-weight="normal" font-size="16px" fill="#000" alignment-baseline="middle" text-anchor="middle" dy="1.5px">0</text>
	<text x="44" y="50" font-family="ＭＳ ゴシック, monospace" font-weight="normal" font-size="16px" fill="#000" alignment-baseline="middle" text-anchor="middle" dy="1.5px">,</text>
	<text x="60" y="50" font-family="ＭＳ ゴシック, monospace" font-weight="normal" font-size="16px" fill="#000" alignment-baseline="middle" text-anchor="middle" dy="1.5px">0</text>
	<text x="68" y="50" font-family="ＭＳ ゴシック, monospace" font-weight="normal" font-size="16px" fill="#000" alignment-baseline="middle" text-anchor="middle" dy="1.5px">)</text>
	<text x="136" y="50" font-family="メイリオ, sans-serif" font-weight="normal" font-size="16px" fill="#000" alignment-baseline="middle" text-anchor="middle">Ｘ</text>
	<text x="152" y="50" font-family="メイリオ, sans-serif" font-weight="normal" font-size="16px" fill="#000" alignment-baseline="middle" text-anchor="middle">軸</text>
	<text x="236" y="50" font-family="ＭＳ ゴシック, monospace" font-weight="normal" font-size="16px" fill="#000" alignment-baseline="middle" text-anchor="middle" dy="1.5px">(</text>
	<text x="248" y="50" font-family="メイリオ, sans-serif" font-weight="normal" font-size="16px" fill="#000" alignment-baseline="middle" text-anchor="middle">横</text>
	<text x="264" y="50" font-family="メイリオ, sans-serif" font-weight="normal" font-size="16px" fill="#000" alignment-baseline="middle" text-anchor="middle">幅</text>
	<text x="276" y="50" font-family="ＭＳ ゴシック, monospace" font-weight="normal" font-size="16px" fill="#000" alignment-baseline="middle" text-anchor="middle" dy="1.5px">,</text>
	<text x="292" y="50" font-family="ＭＳ ゴシック, monospace" font-weight="normal" font-size="16px" fill="#000" alignment-baseline="middle" text-anchor="middle" dy="1.5px">0</text>
	<text x="300" y="50" font-family="ＭＳ ゴシック, monospace" font-weight="normal" font-size="16px" fill="#000" alignment-baseline="middle" text-anchor="middle" dy="1.5px">)</text>
	<text x="32" y="130" font-family="メイリオ, sans-serif" font-weight="normal" font-size="16px" fill="#000" alignment-baseline="middle" text-anchor="middle">Ｙ</text>
	<text x="32" y="150" font-family="メイリオ, sans-serif" font-weight="normal" font-size="16px" fill="#000" alignment-baseline="middle" text-anchor="middle">軸</text>
	<text x="28" y="270" font-family="ＭＳ ゴシック, monospace" font-weight="normal" font-size="16px" fill="#000" alignment-baseline="middle" text-anchor="middle" dy="1.5px">X</text>
	<text x="60" y="270" font-family="ＭＳ ゴシック, monospace" font-weight="normal" font-size="16px" fill="#000" alignment-baseline="middle" text-anchor="middle" dy="1.5px">Y</text>
	<text x="252" y="270" font-family="ＭＳ ゴシック, monospace" font-weight="normal" font-size="16px" fill="#000" alignment-baseline="middle" text-anchor="middle" dy="1.5px">X</text>
	<text x="300" y="270" font-family="ＭＳ ゴシック, monospace" font-weight="normal" font-size="16px" fill="#000" alignment-baseline="middle" text-anchor="middle" dy="1.5px">Y</text>
	<text x="20" y="290" font-family="ＭＳ ゴシック, monospace" font-weight="normal" font-size="16px" fill="#000" alignment-baseline="middle" text-anchor="middle" dy="1.5px">(</text>
	<text x="28" y="290" font-family="ＭＳ ゴシック, monospace" font-weight="normal" font-size="16px" fill="#000" alignment-baseline="middle" text-anchor="middle" dy="1.5px">0</text>
	<text x="36" y="290" font-family="ＭＳ ゴシック, monospace" font-weight="normal" font-size="16px" fill="#000" alignment-baseline="middle" text-anchor="middle" dy="1.5px">,</text>
	<text x="56" y="290" font-family="メイリオ, sans-serif" font-weight="normal" font-size="16px" fill="#000" alignment-baseline="middle" text-anchor="middle">高</text>
	<text x="72" y="290" font-family="メイリオ, sans-serif" font-weight="normal" font-size="16px" fill="#000" alignment-baseline="middle" text-anchor="middle">さ</text>
	<text x="84" y="290" font-family="ＭＳ ゴシック, monospace" font-weight="normal" font-size="16px" fill="#000" alignment-baseline="middle" text-anchor="middle" dy="1.5px">)</text>
	<text x="236" y="290" font-family="ＭＳ ゴシック, monospace" font-weight="normal" font-size="16px" fill="#000" alignment-baseline="middle" text-anchor="middle" dy="1.5px">(</text>
	<text x="248" y="290" font-family="メイリオ, sans-serif" font-weight="normal" font-size="16px" fill="#000" alignment-baseline="middle" text-anchor="middle">横</text>
	<text x="264" y="290" font-family="メイリオ, sans-serif" font-weight="normal" font-size="16px" fill="#000" alignment-baseline="middle" text-anchor="middle">幅</text>
	<text x="276" y="290" font-family="ＭＳ ゴシック, monospace" font-weight="normal" font-size="16px" fill="#000" alignment-baseline="middle" text-anchor="middle" dy="1.5px">,</text>
	<text x="296" y="290" font-family="メイリオ, sans-serif" font-weight="normal" font-size="16px" fill="#000" alignment-baseline="middle" text-anchor="middle">高</text>
	<text x="312" y="290" font-family="メイリオ, sans-serif" font-weight="normal" font-size="16px" fill="#000" alignment-baseline="middle" text-anchor="middle">さ</text>
	<text x="324" y="290" font-family="ＭＳ ゴシック, monospace" font-weight="normal" font-size="16px" fill="#000" alignment-baseline="middle" text-anchor="middle" dy="1.5px">)</text>
	<path d="M88,49 L88,51 L96,51 L96,49 Z M96,49 L96,51 L104,51 L104,49 Z M104,49 L104,51 L112,51 L112,49 Z M112,49 L112,51 L120,51 L120,49 Z M168,49 L168,51 L176,51 L176,49 Z M176,49 L176,51 L184,51 L184,49 Z M184,49 L184,51 L192,51 L192,49 Z M200,50 L192,55 L192,45 Z M51,69 L51,71 L53,71 L53,69 Z M51,70 L51,80 L53,80 L53,70 Z M52,69 L52,71 L56,71 L56,69 Z M56,69 L56,71 L64,71 L64,69 Z M64,69 L64,71 L72,71 L72,69 Z M72,69 L72,71 L80,71 L80,69 Z M80,69 L80,71 L88,71 L88,69 Z M88,69 L88,71 L96,71 L96,69 Z M96,69 L96,71 L104,71 L104,69 Z M104,69 L104,71 L112,71 L112,69 Z M112,69 L112,71 L120,71 L120,69 Z M120,69 L120,71 L128,71 L128,69 Z M128,69 L128,71 L136,71 L136,69 Z M136,69 L136,71 L144,71 L144,69 Z M144,69 L144,71 L152,71 L152,69 Z M152,69 L152,71 L160,71 L160,69 Z M160,69 L160,71 L168,71 L168,69 Z M168,69 L168,71 L176,71 L176,69 Z M176,69 L176,71 L184,71 L184,69 Z M184,69 L184,71 L192,71 L192,69 Z M192,69 L192,71 L200,71 L200,69 Z M200,69 L200,71 L208,71 L208,69 Z M208,69 L208,71 L216,71 L216,69 Z M216,69 L216,71 L224,71 L224,69 Z M224,69 L224,71 L232,71 L232,69 Z M232,69 L232,71 L240,71 L240,69 Z M240,69 L240,71 L248,71 L248,69 Z M248,69 L248,71 L256,71 L256,69 Z M256,69 L256,71 L264,71 L264,69 Z M264,69 L264,71 L272,71 L272,69 Z M275,69 L275,71 L277,71 L277,69 Z M275,70 L275,80 L277,80 L277,70 Z M272,69 L272,71 L276,71 L276,69 Z M31,80 L31,100 L33,100 L33,80 Z M51,80 L51,100 L53,100 L53,80 Z M275,80 L275,100 L277,100 L277,80 Z M31,100 L31,120 L33,120 L33,100 Z M51,100 L51,120 L53,120 L53,100 Z M275,100 L275,120 L277,120 L277,100 Z M51,120 L51,140 L53,140 L53,120 Z M275,120 L275,140 L277,140 L277,120 Z M51,140 L51,160 L53,160 L53,140 Z M275,140 L275,160 L277,160 L277,140 Z M31,160 L31,180 L33,180 L33,160 Z M51,160 L51,180 L53,180 L53,160 Z M275,160 L275,180 L277,180 L277,160 Z M32,200 L24,190 L40,190 Z M31,180 L31,190 L33,190 L33,180 Z M51,180 L51,200 L53,200 L53,180 Z M275,180 L275,200 L277,200 L277,180 Z M51,200 L51,220 L53,220 L53,200 Z M275,200 L275,220 L277,220 L277,200 Z M51,220 L51,240 L53,240 L53,220 Z M275,220 L275,240 L277,240 L277,220 Z M51,249 L51,251 L53,251 L53,249 Z M51,240 L51,250 L53,250 L53,240 Z M52,249 L52,251 L56,251 L56,249 Z M56,249 L56,251 L64,251 L64,249 Z M64,249 L64,251 L72,251 L72,249 Z M72,249 L72,251 L80,251 L80,249 Z M80,249 L80,251 L88,251 L88,249 Z M88,249 L88,251 L96,251 L96,249 Z M96,249 L96,251 L104,251 L104,249 Z M104,249 L104,251 L112,251 L112,249 Z M112,249 L112,251 L120,251 L120,249 Z M120,249 L120,251 L128,251 L128,249 Z M128,249 L128,251 L136,251 L136,249 Z M136,249 L136,251 L144,251 L144,249 Z M144,249 L144,251 L152,251 L152,249 Z M152,249 L152,251 L160,251 L160,249 Z M160,249 L160,251 L168,251 L168,249 Z M168,249 L168,251 L176,251 L176,249 Z M176,249 L176,251 L184,251 L184,249 Z M184,249 L184,251 L192,251 L192,249 Z M192,249 L192,251 L200,251 L200,249 Z M200,249 L200,251 L208,251 L208,249 Z M208,249 L208,251 L216,251 L216,249 Z M216,249 L216,251 L224,251 L224,249 Z M224,249 L224,251 L232,251 L232,249 Z M232,249 L232,251 L240,251 L240,249 Z M240,249 L240,251 L248,251 L248,249 Z M248,249 L248,251 L256,251 L256,249 Z M256,249 L256,251 L264,251 L264,249 Z M264,249 L264,251 L272,251 L272,249 Z M275,249 L275,251 L277,251 L277,249 Z M275,240 L275,250 L277,250 L277,240 Z M272,249 L272,251 L276,251 L276,249 Z " fill="#000" stroke="#000" stroke-width="0.1px" />
</svg>