<?xml version="1.0"?>
<svg width="680" height="420" viewBox="0 0 680 420"
    xmlns="http://www.w3.org/2000/svg" version="1.1">
	<text x="20" y="30" font-family="ＭＳ ゴシック, monospace" font-weight="normal" font-size="16px" fill="#000" alignment-baseline="middle" text-anchor="middle" dy="1.5px">2</text>
	<text x="28" y="30" font-family="ＭＳ ゴシック, monospace" font-weight="normal" font-size="16px" fill="#000" alignment-baseline="middle" text-anchor="middle" dy="1.5px">D</text>
	<text x="40" y="30" font-family="メイリオ, sans-serif" font-weight="normal" font-size="16px" fill="#000" alignment-baseline="middle" text-anchor="middle">コ</text>
	<text x="56" y="30" font-family="メイリオ, sans-serif" font-weight="normal" font-size="16px" fill="#000" alignment-baseline="middle" text-anchor="middle">ン</text>
	<text x="72" y="30" font-family="メイリオ, sans-serif" font-weight="normal" font-size="16px" fill="#000" alignment-baseline="middle" text-anchor="middle">テ</text>
	<text x="88" y="30" font-family="メイリオ, sans-serif" font-weight="normal" font-size="16px" fill="#000" alignment-baseline="middle" text-anchor="middle">キ</text>
	<text x="104" y="30" font-family="メイリオ, sans-serif" font-weight="normal" font-size="16px" fill="#000" alignment-baseline="middle" text-anchor="middle">ス</text>
	<text x="120" y="30" font-family="メイリオ, sans-serif" font-weight="normal" font-size="16px" fill="#000" alignment-baseline="middle" text-anchor="middle">ト</text>
	<text x="132" y="30" font-family="ＭＳ ゴシック, monospace" font-weight="normal" font-size="16px" fill="#000" alignment-baseline="middle" text-anchor="middle" dy="1.5px">.</text>
	<text x="140" y="30" font-family="ＭＳ ゴシック, monospace" font-weight="normal" font-size="16px" fill="#000" alignment-baseline="middle" text-anchor="middle" dy="1.5px">d</text>
	<text x="148" y="30" font-family="ＭＳ ゴシック, monospace" font-weight="normal" font-size="16px" fill="#000" alignment-baseline="middle" text-anchor="middle" dy="1.5px">r</text>
	<text x="156" y="30" font-family="ＭＳ ゴシック, monospace" font-weight="normal" font-size="16px" fill="#000" alignment-baseline="middle" text-anchor="middle" dy="1.5px">a</text>
	<text x="164" y="30" font-family="ＭＳ ゴシック, monospace" font-weight="normal" font-size="16px" fill="#000" alignment-baseline="middle" text-anchor="middle" dy="1.5px">w</text>
	<text x="172" y="30" font-family="ＭＳ ゴシック, monospace" font-weight="normal" font-size="16px" fill="#000" alignment-baseline="middle" text-anchor="middle" dy="1.5px">I</text>
	<text x="180" y="30" font-family="ＭＳ ゴシック, monospace" font-weight="normal" font-size="16px" fill="#000" alignment-baseline="middle" text-anchor="middle" dy="1.5px">m</text>
	<text x="188" y="30" font-family="ＭＳ ゴシック, monospace" font-weight="normal" font-size="16px" fill="#000" alignment-baseline="middle" text-anchor="middle" dy="1.5px">a</text>
	<text x="196" y="30" font-family="ＭＳ ゴシック, monospace" font-weight="normal" font-size="16px" fill="#000" alignment-baseline="middle" text-anchor="middle" dy="1.5px">g</text>
	<text x="204" y="30" font-family="ＭＳ ゴシック, monospace" font-weight="normal" font-size="16px" fill="#000" alignment-baseline="middle" text-anchor="middle" dy="1.5px">e</text>
	<text x="212" y="30" font-family="ＭＳ ゴシック, monospace" font-weight="normal" font-size="16px" fill="#000" alignment-baseline="middle" text-anchor="middle" dy="1.5px">(</text>
	<text x="220" y="30" font-family="ＭＳ ゴシック, monospace" font-weight="normal" font-size="16px" fill="#000" alignment-baseline="middle" text-anchor="middle" dy="1.5px">s</text>
	<text x="228" y="30" font-family="ＭＳ ゴシック, monospace" font-weight="normal" font-size="16px" fill="#000" alignment-baseline="middle" text-anchor="middle" dy="1.5px">r</text>
	<text x="236" y="30" font-family="ＭＳ ゴシック, monospace" font-weight="normal" font-size="16px" fill="#000" alignment-baseline="middle" text-anchor="middle" dy="1.5px">c</text>
	<text x="244" y="30" font-family="ＭＳ ゴシック, monospace" font-weight="normal" font-size="16px" fill="#000" alignment-baseline="middle" text-anchor="middle" dy="1.5px">I</text>
	<text x="252" y="30" font-family="ＭＳ ゴシック, monospace" font-weight="normal" font-size="16px" fill="#000" alignment-baseline="middle" text-anchor="middle" dy="1.5px">m</text>
	<text x="260" y="30" font-family="ＭＳ ゴシック, monospace" font-weight="normal" font-size="16px" fill="#000" alignment-baseline="middle" text-anchor="middle" dy="1.5px">g</text>
	<text x="268" y="30" font-family="ＭＳ ゴシック, monospace" font-weight="normal" font-size="16px" fill="#000" alignment-baseline="middle" text-anchor="middle" dy="1.5px">,</text>
	<text x="284" y="30" font-family="ＭＳ ゴシック, monospace" font-weight="normal" font-size="16px" fill="#000" alignment-baseline="middle" text-anchor="middle" dy="1.5px">s</text>
	<text x="292" y="30" font-family="ＭＳ ゴシック, monospace" font-weight="normal" font-size="16px" fill="#000" alignment-baseline="middle" text-anchor="middle" dy="1.5px">r</text>
	<text x="300" y="30" font-family="ＭＳ ゴシック, monospace" font-weight="normal" font-size="16px" fill="#000" alignment-baseline="middle" text-anchor="middle" dy="1.5px">c</text>
	<text x="308" y="30" font-family="ＭＳ ゴシック, monospace" font-weight="normal" font-size="16px" fill="#000" alignment-baseline="middle" text-anchor="middle" dy="1.5px">X</text>
	<text x="316" y="30" font-family="ＭＳ ゴシック, monospace" font-weight="normal" font-size="16px" fill="#000" alignment-baseline="middle" text-anchor="middle" dy="1.5px">,</text>
	<text x="332" y="30" font-family="ＭＳ ゴシック, monospace" font-weight="normal" font-size="16px" fill="#000" alignment-baseline="middle" text-anchor="middle" dy="1.5px">s</text>
	<text x="340" y="30" font-family="ＭＳ ゴシック, monospace" font-weight="normal" font-size="16px" fill="#000" alignment-baseline="middle" text-anchor="middle" dy="1.5px">r</text>
	<text x="348" y="30" font-family="ＭＳ ゴシック, monospace" font-weight="normal" font-size="16px" fill="#000" alignment-baseline="middle" text-anchor="middle" dy="1.5px">c</text>
	<text x="356" y="30" font-family="ＭＳ ゴシック, monospace" font-weight="normal" font-size="16px" fill="#000" alignment-baseline="middle" text-anchor="middle" dy="1.5px">Y</text>
	<text x="364" y="30" font-family="ＭＳ ゴシック, monospace" font-weight="normal" font-size="16px" fill="#000" alignment-baseline="middle" text-anchor="middle" dy="1.5px">,</text>
	<text x="380" y="30" font-family="ＭＳ ゴシック, monospace" font-weight="normal" font-size="16px" fill="#000" alignment-baseline="middle" text-anchor="middle" dy="1.5px">s</text>
	<text x="388" y="30" font-family="ＭＳ ゴシック, monospace" font-weight="normal" font-size="16px" fill="#000" alignment-baseline="middle" text-anchor="middle" dy="1.5px">r</text>
	<text x="396" y="30" font-family="ＭＳ ゴシック, monospace" font-weight="normal" font-size="16px" fill="#000" alignment-baseline="middle" text-anchor="middle" dy="1.5px">c</text>
	<text x="404" y="30" font-family="ＭＳ ゴシック, monospace" font-weight="normal" font-size="16px" fill="#000" alignment-baseline="middle" text-anchor="middle" dy="1.5px">W</text>
	<text x="412" y="30" font-family="ＭＳ ゴシック, monospace" font-weight="normal" font-size="16px" fill="#000" alignment-baseline="middle" text-anchor="middle" dy="1.5px">,</text>
	<text x="428" y="30" font-family="ＭＳ ゴシック, monospace" font-weight="normal" font-size="16px" fill="#000" alignment-baseline="middle" text-anchor="middle" dy="1.5px">s</text>
	<text x="436" y="30" font-family="ＭＳ ゴシック, monospace" font-weight="normal" font-size="16px" fill="#000" alignment-baseline="middle" text-anchor="middle" dy="1.5px">r</text>
	<text x="444" y="30" font-family="ＭＳ ゴシック, monospace" font-weight="normal" font-size="16px" fill="#000" alignment-baseline="middle" text-anchor="middle" dy="1.5px">c</text>
	<text x="452" y="30" font-family="ＭＳ ゴシック, monospace" font-weight="normal" font-size="16px" fill="#000" alignment-baseline="middle" text-anchor="middle" dy="1.5px">H</text>
	<text x="460" y="30" font-family="ＭＳ ゴシック, monospace" font-weight="normal" font-size="16px" fill="#000" alignment-baseline="middle" text-anchor="middle" dy="1.5px">,</text>
	<text x="476" y="30" font-family="ＭＳ ゴシック, monospace" font-weight="normal" font-size="16px" fill="#000" alignment-baseline="middle" text-anchor="middle" dy="1.5px">d</text>
	<text x="484" y="30" font-family="ＭＳ ゴシック, monospace" font-weight="normal" font-size="16px" fill="#000" alignment-baseline="middle" text-anchor="middle" dy="1.5px">s</text>
	<text x="492" y="30" font-family="ＭＳ ゴシック, monospace" font-weight="normal" font-size="16px" fill="#000" alignment-baseline="middle" text-anchor="middle" dy="1.5px">t</text>
	<text x="500" y="30" font-family="ＭＳ ゴシック, monospace" font-weight="normal" font-size="16px" fill="#000" alignment-baseline="middle" text-anchor="middle" dy="1.5px">X</text>
	<text x="508" y="30" font-family="ＭＳ ゴシック, monospace" font-weight="normal" font-size="16px" fill="#000" alignment-baseline="middle" text-anchor="middle" dy="1.5px">,</text>
	<text x="524" y="30" font-family="ＭＳ ゴシック, monospace" font-weight="normal" font-size="16px" fill="#000" alignment-baseline="middle" text-anchor="middle" dy="1.5px">d</text>
	<text x="532" y="30" font-family="ＭＳ ゴシック, monospace" font-weight="normal" font-size="16px" fill="#000" alignment-baseline="middle" text-anchor="middle" dy="1.5px">s</text>
	<text x="540" y="30" font-family="ＭＳ ゴシック, monospace" font-weight="normal" font-size="16px" fill="#000" alignment-baseline="middle" text-anchor="middle" dy="1.5px">t</text>
	<text x="548" y="30" font-family="ＭＳ ゴシック, monospace" font-weight="normal" font-size="16px" fill="#000" alignment-baseline="middle" text-anchor="middle" dy="1.5px">Y</text>
	<text x="556" y="30" font-family="ＭＳ ゴシック, monospace" font-weight="normal" font-size="16px" fill="#000" alignment-baseline="middle" text-anchor="middle" dy="1.5px">,</text>
	<text x="572" y="30" font-family="ＭＳ ゴシック, monospace" font-weight="normal" font-size="16px" fill="#000" alignment-baseline="middle" text-anchor="middle" dy="1.5px">d</text>
	<text x="580" y="30" font-family="ＭＳ ゴシック, monospace" font-weight="normal" font-size="16px" fill="#000" alignment-baseline="middle" text-anchor="middle" dy="1.5px">s</text>
	<text x="588" y="30" font-family="ＭＳ ゴシック, monospace" font-weight="normal" font-size="16px" fill="#000" alignment-baseline="middle" text-anchor="middle" dy="1.5px">t</text>
	<text x="596" y="30" font-family="ＭＳ ゴシック, monospace" font-weight="normal" font-size="16px" fill="#000" alignment-baseline="middle" text-anchor="middle" dy="1.5px">W</text>
	<text x="604" y="30" font-family="ＭＳ ゴシック, monospace" font-weight="normal" font-size="16px" fill="#000" alignment-baseline="middle" text-anchor="middle" dy="1.5px">,</text>
	<text x="620" y="30" font-family="ＭＳ ゴシック, monospace" font-weight="normal" font-size="16px" fill="#000" alignment-baseline="middle" text-anchor="middle" dy="1.5px">d</text>
	<text x="628" y="30" font-family="ＭＳ ゴシック, monospace" font-weight="normal" font-size="16px" fill="#000" alignment-baseline="middle" text-anchor="middle" dy="1.5px">s</text>
	<text x="636" y="30" font-family="ＭＳ ゴシック, monospace" font-weight="normal" font-size="16px" fill="#000" alignment-baseline="middle" text-anchor="middle" dy="1.5px">t</text>
	<text x="644" y="30" font-family="ＭＳ ゴシック, monospace" font-weight="normal" font-size="16px" fill="#000" alignment-baseline="middle" text-anchor="middle" dy="1.5px">W</text>
	<text x="652" y="30" font-family="ＭＳ ゴシック, monospace" font-weight="normal" font-size="16px" fill="#000" alignment-baseline="middle" text-anchor="middle" dy="1.5px">)</text>
	<text x="56" y="90" font-family="メイリオ, sans-serif" font-weight="normal" font-size="16px" fill="#000" alignment-baseline="middle" text-anchor="middle">描</text>
	<text x="72" y="90" font-family="メイリオ, sans-serif" font-weight="normal" font-size="16px" fill="#000" alignment-baseline="middle" text-anchor="middle">画</text>
	<text x="88" y="90" font-family="メイリオ, sans-serif" font-weight="normal" font-size="16px" fill="#000" alignment-baseline="middle" text-anchor="middle">元</text>
	<text x="104" y="90" font-family="メイリオ, sans-serif" font-weight="normal" font-size="16px" fill="#000" alignment-baseline="middle" text-anchor="middle">の</text>
	<text x="120" y="90" font-family="メイリオ, sans-serif" font-weight="normal" font-size="16px" fill="#000" alignment-baseline="middle" text-anchor="middle">画</text>
	<text x="136" y="90" font-family="メイリオ, sans-serif" font-weight="normal" font-size="16px" fill="#000" alignment-baseline="middle" text-anchor="middle">像</text>
	<text x="232" y="110" font-family="メイリオ, sans-serif" font-weight="normal" font-size="16px" fill="#000" alignment-baseline="middle" text-anchor="middle">描</text>
	<text x="248" y="110" font-family="メイリオ, sans-serif" font-weight="normal" font-size="16px" fill="#000" alignment-baseline="middle" text-anchor="middle">画</text>
	<text x="264" y="110" font-family="メイリオ, sans-serif" font-weight="normal" font-size="16px" fill="#000" alignment-baseline="middle" text-anchor="middle">元</text>
	<text x="280" y="110" font-family="メイリオ, sans-serif" font-weight="normal" font-size="16px" fill="#000" alignment-baseline="middle" text-anchor="middle">の</text>
	<text x="296" y="110" font-family="メイリオ, sans-serif" font-weight="normal" font-size="16px" fill="#000" alignment-baseline="middle" text-anchor="middle">矩</text>
	<text x="312" y="110" font-family="メイリオ, sans-serif" font-weight="normal" font-size="16px" fill="#000" alignment-baseline="middle" text-anchor="middle">形</text>
	<text x="544" y="110" font-family="メイリオ, sans-serif" font-weight="normal" font-size="16px" fill="#000" alignment-baseline="middle" text-anchor="middle">描</text>
	<text x="560" y="110" font-family="メイリオ, sans-serif" font-weight="normal" font-size="16px" fill="#000" alignment-baseline="middle" text-anchor="middle">画</text>
	<text x="576" y="110" font-family="メイリオ, sans-serif" font-weight="normal" font-size="16px" fill="#000" alignment-baseline="middle" text-anchor="middle">先</text>
	<text x="592" y="110" font-family="メイリオ, sans-serif" font-weight="normal" font-size="16px" fill="#000" alignment-baseline="middle" text-anchor="middle">の</text>
	<text x="608" y="110" font-family="メイリオ, sans-serif" font-weight="normal" font-size="16px" fill="#000" alignment-baseline="middle" text-anchor="middle">矩</text>
	<text x="624" y="110" font-family="メイリオ, sans-serif" font-weight="normal" font-size="16px" fill="#000" alignment-baseline="middle" text-anchor="middle">形</text>
	<text x="20" y="130" font-family="ＭＳ ゴシック, monospace" font-weight="normal" font-size="16px" fill="#000" alignment-baseline="middle" text-anchor="middle" dy="1.5px">s</text>
	<text x="28" y="130" font-family="ＭＳ ゴシック, monospace" font-weight="normal" font-size="16px" fill="#000" alignment-baseline="middle" text-anchor="middle" dy="1.5px">r</text>
	<text x="36" y="130" font-family="ＭＳ ゴシック, monospace" font-weight="normal" font-size="16px" fill="#000" alignment-baseline="middle" text-anchor="middle" dy="1.5px">c</text>
	<text x="44" y="130" font-family="ＭＳ ゴシック, monospace" font-weight="normal" font-size="16px" fill="#000" alignment-baseline="middle" text-anchor="middle" dy="1.5px">I</text>
	<text x="52" y="130" font-family="ＭＳ ゴシック, monospace" font-weight="normal" font-size="16px" fill="#000" alignment-baseline="middle" text-anchor="middle" dy="1.5px">m</text>
	<text x="60" y="130" font-family="ＭＳ ゴシック, monospace" font-weight="normal" font-size="16px" fill="#000" alignment-baseline="middle" text-anchor="middle" dy="1.5px">g</text>
	<text x="372" y="130" font-family="ＭＳ ゴシック, monospace" font-weight="normal" font-size="16px" fill="#000" alignment-baseline="middle" text-anchor="middle" dy="1.5px">C</text>
	<text x="380" y="130" font-family="ＭＳ ゴシック, monospace" font-weight="normal" font-size="16px" fill="#000" alignment-baseline="middle" text-anchor="middle" dy="1.5px">a</text>
	<text x="388" y="130" font-family="ＭＳ ゴシック, monospace" font-weight="normal" font-size="16px" fill="#000" alignment-baseline="middle" text-anchor="middle" dy="1.5px">n</text>
	<text x="396" y="130" font-family="ＭＳ ゴシック, monospace" font-weight="normal" font-size="16px" fill="#000" alignment-baseline="middle" text-anchor="middle" dy="1.5px">v</text>
	<text x="404" y="130" font-family="ＭＳ ゴシック, monospace" font-weight="normal" font-size="16px" fill="#000" alignment-baseline="middle" text-anchor="middle" dy="1.5px">a</text>
	<text x="412" y="130" font-family="ＭＳ ゴシック, monospace" font-weight="normal" font-size="16px" fill="#000" alignment-baseline="middle" text-anchor="middle" dy="1.5px">s</text>
	<text x="404" y="170" font-family="ＭＳ ゴシック, monospace" font-weight="normal" font-size="16px" fill="#000" alignment-baseline="middle" text-anchor="middle" dy="1.5px">(</text>
	<text x="412" y="170" font-family="ＭＳ ゴシック, monospace" font-weight="normal" font-size="16px" fill="#000" alignment-baseline="middle" text-anchor="middle" dy="1.5px">d</text>
	<text x="420" y="170" font-family="ＭＳ ゴシック, monospace" font-weight="normal" font-size="16px" fill="#000" alignment-baseline="middle" text-anchor="middle" dy="1.5px">s</text>
	<text x="428" y="170" font-family="ＭＳ ゴシック, monospace" font-weight="normal" font-size="16px" fill="#000" alignment-baseline="middle" text-anchor="middle" dy="1.5px">t</text>
	<text x="436" y="170" font-family="ＭＳ ゴシック, monospace" font-weight="normal" font-size="16px" fill="#000" alignment-baseline="middle" text-anchor="middle" dy="1.5px">X</text>
	<text x="444" y="170" font-family="ＭＳ ゴシック, monospace" font-weight="normal" font-size="16px" fill="#000" alignment-baseline="middle" text-anchor="middle" dy="1.5px">,</text>
	<text x="460" y="170" font-family="ＭＳ ゴシック, monospace" font-weight="normal" font-size="16px" fill="#000" alignment-baseline="middle" text-anchor="middle" dy="1.5px">d</text>
	<text x="468" y="170" font-family="ＭＳ ゴシック, monospace" font-weight="normal" font-size="16px" fill="#000" alignment-baseline="middle" text-anchor="middle" dy="1.5px">s</text>
	<text x="476" y="170" font-family="ＭＳ ゴシック, monospace" font-weight="normal" font-size="16px" fill="#000" alignment-baseline="middle" text-anchor="middle" dy="1.5px">t</text>
	<text x="484" y="170" font-family="ＭＳ ゴシック, monospace" font-weight="normal" font-size="16px" fill="#000" alignment-baseline="middle" text-anchor="middle" dy="1.5px">Y</text>
	<text x="492" y="170" font-family="ＭＳ ゴシック, monospace" font-weight="normal" font-size="16px" fill="#000" alignment-baseline="middle" text-anchor="middle" dy="1.5px">)</text>
	<text x="604" y="170" font-family="ＭＳ ゴシック, monospace" font-weight="normal" font-size="16px" fill="#000" alignment-baseline="middle" text-anchor="middle" dy="1.5px">d</text>
	<text x="612" y="170" font-family="ＭＳ ゴシック, monospace" font-weight="normal" font-size="16px" fill="#000" alignment-baseline="middle" text-anchor="middle" dy="1.5px">s</text>
	<text x="620" y="170" font-family="ＭＳ ゴシック, monospace" font-weight="normal" font-size="16px" fill="#000" alignment-baseline="middle" text-anchor="middle" dy="1.5px">t</text>
	<text x="628" y="170" font-family="ＭＳ ゴシック, monospace" font-weight="normal" font-size="16px" fill="#000" alignment-baseline="middle" text-anchor="middle" dy="1.5px">W</text>
	<text x="60" y="210" font-family="ＭＳ ゴシック, monospace" font-weight="normal" font-size="16px" fill="#000" alignment-baseline="middle" text-anchor="middle" dy="1.5px">(</text>
	<text x="68" y="210" font-family="ＭＳ ゴシック, monospace" font-weight="normal" font-size="16px" fill="#000" alignment-baseline="middle" text-anchor="middle" dy="1.5px">s</text>
	<text x="76" y="210" font-family="ＭＳ ゴシック, monospace" font-weight="normal" font-size="16px" fill="#000" alignment-baseline="middle" text-anchor="middle" dy="1.5px">r</text>
	<text x="84" y="210" font-family="ＭＳ ゴシック, monospace" font-weight="normal" font-size="16px" fill="#000" alignment-baseline="middle" text-anchor="middle" dy="1.5px">c</text>
	<text x="92" y="210" font-family="ＭＳ ゴシック, monospace" font-weight="normal" font-size="16px" fill="#000" alignment-baseline="middle" text-anchor="middle" dy="1.5px">X</text>
	<text x="100" y="210" font-family="ＭＳ ゴシック, monospace" font-weight="normal" font-size="16px" fill="#000" alignment-baseline="middle" text-anchor="middle" dy="1.5px">,</text>
	<text x="116" y="210" font-family="ＭＳ ゴシック, monospace" font-weight="normal" font-size="16px" fill="#000" alignment-baseline="middle" text-anchor="middle" dy="1.5px">s</text>
	<text x="124" y="210" font-family="ＭＳ ゴシック, monospace" font-weight="normal" font-size="16px" fill="#000" alignment-baseline="middle" text-anchor="middle" dy="1.5px">r</text>
	<text x="132" y="210" font-family="ＭＳ ゴシック, monospace" font-weight="normal" font-size="16px" fill="#000" alignment-baseline="middle" text-anchor="middle" dy="1.5px">c</text>
	<text x="140" y="210" font-family="ＭＳ ゴシック, monospace" font-weight="normal" font-size="16px" fill="#000" alignment-baseline="middle" text-anchor="middle" dy="1.5px">Y</text>
	<text x="148" y="210" font-family="ＭＳ ゴシック, monospace" font-weight="normal" font-size="16px" fill="#000" alignment-baseline="middle" text-anchor="middle" dy="1.5px">)</text>
	<text x="220" y="210" font-family="ＭＳ ゴシック, monospace" font-weight="normal" font-size="16px" fill="#000" alignment-baseline="middle" text-anchor="middle" dy="1.5px">s</text>
	<text x="228" y="210" font-family="ＭＳ ゴシック, monospace" font-weight="normal" font-size="16px" fill="#000" alignment-baseline="middle" text-anchor="middle" dy="1.5px">r</text>
	<text x="236" y="210" font-family="ＭＳ ゴシック, monospace" font-weight="normal" font-size="16px" fill="#000" alignment-baseline="middle" text-anchor="middle" dy="1.5px">c</text>
	<text x="244" y="210" font-family="ＭＳ ゴシック, monospace" font-weight="normal" font-size="16px" fill="#000" alignment-baseline="middle" text-anchor="middle" dy="1.5px">W</text>
	<text x="152" y="270" font-family="メイリオ, sans-serif" font-weight="normal" font-size="16px" fill="#000" alignment-baseline="middle" text-anchor="middle">描</text>
	<text x="168" y="270" font-family="メイリオ, sans-serif" font-weight="normal" font-size="16px" fill="#000" alignment-baseline="middle" text-anchor="middle">画</text>
	<text x="184" y="270" font-family="メイリオ, sans-serif" font-weight="normal" font-size="16px" fill="#000" alignment-baseline="middle" text-anchor="middle">元</text>
	<text x="504" y="270" font-family="メイリオ, sans-serif" font-weight="normal" font-size="16px" fill="#000" alignment-baseline="middle" text-anchor="middle">描</text>
	<text x="520" y="270" font-family="メイリオ, sans-serif" font-weight="normal" font-size="16px" fill="#000" alignment-baseline="middle" text-anchor="middle">画</text>
	<text x="536" y="270" font-family="メイリオ, sans-serif" font-weight="normal" font-size="16px" fill="#000" alignment-baseline="middle" text-anchor="middle">先</text>
	<text x="68" y="310" font-family="ＭＳ ゴシック, monospace" font-weight="normal" font-size="16px" fill="#000" alignment-baseline="middle" text-anchor="middle" dy="1.5px">s</text>
	<text x="76" y="310" font-family="ＭＳ ゴシック, monospace" font-weight="normal" font-size="16px" fill="#000" alignment-baseline="middle" text-anchor="middle" dy="1.5px">r</text>
	<text x="84" y="310" font-family="ＭＳ ゴシック, monospace" font-weight="normal" font-size="16px" fill="#000" alignment-baseline="middle" text-anchor="middle" dy="1.5px">c</text>
	<text x="92" y="310" font-family="ＭＳ ゴシック, monospace" font-weight="normal" font-size="16px" fill="#000" alignment-baseline="middle" text-anchor="middle" dy="1.5px">H</text>
	<text x="404" y="350" font-family="ＭＳ ゴシック, monospace" font-weight="normal" font-size="16px" fill="#000" alignment-baseline="middle" text-anchor="middle" dy="1.5px">d</text>
	<text x="412" y="350" font-family="ＭＳ ゴシック, monospace" font-weight="normal" font-size="16px" fill="#000" alignment-baseline="middle" text-anchor="middle" dy="1.5px">s</text>
	<text x="420" y="350" font-family="ＭＳ ゴシック, monospace" font-weight="normal" font-size="16px" fill="#000" alignment-baseline="middle" text-anchor="middle" dy="1.5px">t</text>
	<text x="428" y="350" font-family="ＭＳ ゴシック, monospace" font-weight="normal" font-size="16px" fill="#000" alignment-baseline="middle" text-anchor="middle" dy="1.5px">H</text>
	<path d="M216,49 L216,51 L224,51 L224,49 Z M224,49 L224,51 L232,51 L232,49 Z M235,49 L235,51 L237,51 L237,49 Z M235,50 L235,60 L237,60 L237,50 Z M232,49 L232,51 L236,51 L236,49 Z M236,49 L236,51 L240,51 L240,49 Z M240,49 L240,51 L248,51 L248,49 Z M248,49 L248,51 L256,51 L256,49 Z M256,49 L256,51 L264,51 L264,49 Z M280,49 L280,51 L288,51 L288,49 Z M288,49 L288,51 L296,51 L296,49 Z M296,49 L296,51 L304,51 L304,49 Z M304,49 L304,51 L312,51 L312,49 Z M312,49 L312,51 L320,51 L320,49 Z M320,49 L320,51 L328,51 L328,49 Z M328,49 L328,51 L336,51 L336,49 Z M336,49 L336,51 L344,51 L344,49 Z M344,49 L344,51 L352,51 L352,49 Z M352,49 L352,51 L360,51 L360,49 Z M360,49 L360,51 L368,51 L368,49 Z M371,49 L371,51 L373,51 L373,49 Z M371,50 L371,60 L373,60 L373,50 Z M368,49 L368,51 L372,51 L372,49 Z M372,49 L372,51 L376,51 L376,49 Z M376,49 L376,51 L384,51 L384,49 Z M384,49 L384,51 L392,51 L392,49 Z M392,49 L392,51 L400,51 L400,49 Z M400,49 L400,51 L408,51 L408,49 Z M408,49 L408,51 L416,51 L416,49 Z M416,49 L416,51 L424,51 L424,49 Z M424,49 L424,51 L432,51 L432,49 Z M432,49 L432,51 L440,51 L440,49 Z M440,49 L440,51 L448,51 L448,49 Z M448,49 L448,51 L456,51 L456,49 Z M472,49 L472,51 L480,51 L480,49 Z M480,49 L480,51 L488,51 L488,49 Z M488,49 L488,51 L496,51 L496,49 Z M496,49 L496,51 L504,51 L504,49 Z M504,49 L504,51 L512,51 L512,49 Z M512,49 L512,51 L520,51 L520,49 Z M520,49 L520,51 L528,51 L528,49 Z M528,49 L528,51 L536,51 L536,49 Z M536,49 L536,51 L544,51 L544,49 Z M544,49 L544,51 L552,51 L552,49 Z M552,49 L552,51 L560,51 L560,49 Z M563,49 L563,51 L565,51 L565,49 Z M563,50 L563,60 L565,60 L565,50 Z M560,49 L560,51 L564,51 L564,49 Z M564,49 L564,51 L568,51 L568,49 Z M568,49 L568,51 L576,51 L576,49 Z M576,49 L576,51 L584,51 L584,49 Z M584,49 L584,51 L592,51 L592,49 Z M592,49 L592,51 L600,51 L600,49 Z M600,49 L600,51 L608,51 L608,49 Z M608,49 L608,51 L616,51 L616,49 Z M616,49 L616,51 L624,51 L624,49 Z M624,49 L624,51 L632,51 L632,49 Z M632,49 L632,51 L640,51 L640,49 Z M640,49 L640,51 L648,51 L648,49 Z M35,69 L35,71 L37,71 L37,69 Z M35,70 L35,80 L37,80 L37,70 Z M36,69 L36,71 L40,71 L40,69 Z M40,69 L40,71 L48,71 L48,69 Z M48,69 L48,71 L56,71 L56,69 Z M56,69 L56,71 L64,71 L64,69 Z M64,69 L64,71 L72,71 L72,69 Z M72,69 L72,71 L80,71 L80,69 Z M80,69 L80,71 L88,71 L88,69 Z M88,69 L88,71 L96,71 L96,69 Z M96,69 L96,71 L104,71 L104,69 Z M104,69 L104,71 L112,71 L112,69 Z M112,69 L112,71 L120,71 L120,69 Z M120,69 L120,71 L128,71 L128,69 Z M128,69 L128,71 L136,71 L136,69 Z M136,69 L136,71 L144,71 L144,69 Z M144,69 L144,71 L152,71 L152,69 Z M152,69 L152,71 L160,71 L160,69 Z M160,69 L160,71 L168,71 L168,69 Z M168,69 L168,71 L176,71 L176,69 Z M176,69 L176,71 L184,71 L184,69 Z M184,69 L184,71 L192,71 L192,69 Z M192,69 L192,71 L200,71 L200,69 Z M200,69 L200,71 L208,71 L208,69 Z M208,69 L208,71 L216,71 L216,69 Z M216,69 L216,71 L224,71 L224,69 Z M224,69 L224,71 L232,71 L232,69 Z M235,69 L235,71 L237,71 L237,69 Z M235,60 L235,70 L237,70 L237,60 Z M232,69 L232,71 L236,71 L236,69 Z M371,60 L371,80 L373,80 L373,60 Z M563,60 L563,80 L565,80 L565,60 Z M35,80 L35,100 L37,100 L37,80 Z M163,89 L163,91 L165,91 L165,89 Z M163,90 L163,100 L165,100 L165,90 Z M164,89 L164,91 L168,91 L168,89 Z M168,89 L168,91 L176,91 L176,89 Z M176,89 L176,91 L184,91 L184,89 Z M184,89 L184,91 L192,91 L192,89 Z M192,89 L192,91 L200,91 L200,89 Z M200,89 L200,91 L208,91 L208,89 Z M208,89 L208,91 L216,91 L216,89 Z M216,89 L216,91 L224,91 L224,89 Z M224,89 L224,91 L232,91 L232,89 Z M232,89 L232,91 L240,91 L240,89 Z M240,89 L240,91 L248,91 L248,89 Z M248,89 L248,91 L256,91 L256,89 Z M256,89 L256,91 L264,91 L264,89 Z M264,89 L264,91 L272,91 L272,89 Z M272,89 L272,91 L280,91 L280,89 Z M280,89 L280,91 L288,91 L288,89 Z M288,89 L288,91 L296,91 L296,89 Z M296,89 L296,91 L304,91 L304,89 Z M304,89 L304,91 L312,91 L312,89 Z M312,89 L312,91 L320,91 L320,89 Z M320,89 L320,91 L328,91 L328,89 Z M328,89 L328,91 L336,91 L336,89 Z M336,89 L336,91 L344,91 L344,89 Z M344,89 L344,91 L352,91 L352,89 Z M352,89 L352,91 L360,91 L360,89 Z M360,89 L360,91 L368,91 L368,89 Z M371,89 L371,91 L373,91 L373,89 Z M371,80 L371,90 L373,90 L373,80 Z M368,89 L368,91 L372,91 L372,89 Z M515,89 L515,91 L517,91 L517,89 Z M515,90 L515,100 L517,100 L517,90 Z M516,89 L516,91 L520,91 L520,89 Z M520,89 L520,91 L528,91 L528,89 Z M528,89 L528,91 L536,91 L536,89 Z M536,89 L536,91 L544,91 L544,89 Z M544,89 L544,91 L552,91 L552,89 Z M552,89 L552,91 L560,91 L560,89 Z M563,89 L563,91 L565,91 L565,89 Z M563,80 L563,90 L565,90 L565,80 Z M560,89 L560,91 L564,91 L564,89 Z M36,120 L32,110 L40,110 Z M35,100 L35,110 L37,110 L37,100 Z M163,100 L163,120 L165,120 L165,100 Z M515,100 L515,120 L517,120 L517,100 Z M164,140 L160,130 L168,130 Z M163,120 L163,130 L165,130 L165,120 Z M516,140 L512,130 L520,130 Z M515,120 L515,130 L517,130 L517,120 Z M19,149 L19,151 L21,151 L21,149 Z M19,150 L19,160 L21,160 L21,150 Z M20,149 L20,151 L24,151 L24,149 Z M24,149 L24,151 L32,151 L32,149 Z M32,149 L32,151 L40,151 L40,149 Z M40,149 L40,151 L48,151 L48,149 Z M48,149 L48,151 L56,151 L56,149 Z M56,149 L56,151 L64,151 L64,149 Z M64,149 L64,151 L72,151 L72,149 Z M72,149 L72,151 L80,151 L80,149 Z M80,149 L80,151 L88,151 L88,149 Z M88,149 L88,151 L96,151 L96,149 Z M96,149 L96,151 L104,151 L104,149 Z M104,149 L104,151 L112,151 L112,149 Z M112,149 L112,151 L120,151 L120,149 Z M120,149 L120,151 L128,151 L128,149 Z M128,149 L128,151 L136,151 L136,149 Z M136,149 L136,151 L144,151 L144,149 Z M144,149 L144,151 L152,151 L152,149 Z M152,149 L152,151 L160,151 L160,149 Z M160,149 L160,151 L168,151 L168,149 Z M168,149 L168,151 L176,151 L176,149 Z M176,149 L176,151 L184,151 L184,149 Z M184,149 L184,151 L192,151 L192,149 Z M192,149 L192,151 L200,151 L200,149 Z M200,149 L200,151 L208,151 L208,149 Z M208,149 L208,151 L216,151 L216,149 Z M216,149 L216,151 L224,151 L224,149 Z M224,149 L224,151 L232,151 L232,149 Z M232,149 L232,151 L240,151 L240,149 Z M240,149 L240,151 L248,151 L248,149 Z M248,149 L248,151 L256,151 L256,149 Z M256,149 L256,151 L264,151 L264,149 Z M264,149 L264,151 L272,151 L272,149 Z M272,149 L272,151 L280,151 L280,149 Z M280,149 L280,151 L288,151 L288,149 Z M288,149 L288,151 L296,151 L296,149 Z M296,149 L296,151 L304,151 L304,149 Z M307,149 L307,151 L309,151 L309,149 Z M307,150 L307,160 L309,160 L309,150 Z M304,149 L304,151 L308,151 L308,149 Z M371,149 L371,151 L373,151 L373,149 Z M371,150 L371,160 L373,160 L373,150 Z M372,149 L372,151 L376,151 L376,149 Z M376,149 L376,151 L384,151 L384,149 Z M384,149 L384,151 L392,151 L392,149 Z M392,149 L392,151 L400,151 L400,149 Z M400,149 L400,151 L408,151 L408,149 Z M408,149 L408,151 L416,151 L416,149 Z M416,149 L416,151 L424,151 L424,149 Z M424,149 L424,151 L432,151 L432,149 Z M432,149 L432,151 L440,151 L440,149 Z M440,149 L440,151 L448,151 L448,149 Z M448,149 L448,151 L456,151 L456,149 Z M456,149 L456,151 L464,151 L464,149 Z M464,149 L464,151 L472,151 L472,149 Z M472,149 L472,151 L480,151 L480,149 Z M480,149 L480,151 L488,151 L488,149 Z M488,149 L488,151 L496,151 L496,149 Z M496,149 L496,151 L504,151 L504,149 Z M504,149 L504,151 L512,151 L512,149 Z M512,149 L512,151 L520,151 L520,149 Z M520,149 L520,151 L528,151 L528,149 Z M528,149 L528,151 L536,151 L536,149 Z M536,149 L536,151 L544,151 L544,149 Z M544,149 L544,151 L552,151 L552,149 Z M552,149 L552,151 L560,151 L560,149 Z M560,149 L560,151 L568,151 L568,149 Z M568,149 L568,151 L576,151 L576,149 Z M576,149 L576,151 L584,151 L584,149 Z M584,149 L584,151 L592,151 L592,149 Z M592,149 L592,151 L600,151 L600,149 Z M600,149 L600,151 L608,151 L608,149 Z M608,149 L608,151 L616,151 L616,149 Z M616,149 L616,151 L624,151 L624,149 Z M624,149 L624,151 L632,151 L632,149 Z M632,149 L632,151 L640,151 L640,149 Z M640,149 L640,151 L648,151 L648,149 Z M648,149 L648,151 L656,151 L656,149 Z M659,149 L659,151 L661,151 L661,149 Z M659,150 L659,160 L661,160 L661,150 Z M656,149 L656,151 L660,151 L660,149 Z M19,160 L19,180 L21,180 L21,160 Z M307,160 L307,180 L309,180 L309,160 Z M371,160 L371,180 L373,180 L373,160 Z M504,169 L504,171 L512,171 L512,169 Z M512,169 L512,171 L520,171 L520,169 Z M520,169 L520,171 L528,171 L528,169 Z M528,169 L528,171 L536,171 L536,169 Z M536,169 L536,171 L544,171 L544,169 Z M544,169 L544,171 L552,171 L552,169 Z M552,169 L552,171 L560,171 L560,169 Z M560,169 L560,171 L568,171 L568,169 Z M568,169 L568,171 L576,171 L576,169 Z M576,169 L576,171 L584,171 L584,169 Z M592,170 L584,175 L584,165 Z M659,160 L659,180 L661,180 L661,160 Z M19,180 L19,200 L21,200 L21,180 Z M307,180 L307,200 L309,200 L309,180 Z M371,180 L371,200 L373,200 L373,180 Z M443,189 L443,191 L445,191 L445,189 Z M443,190 L443,200 L445,200 L445,190 Z M444,189 L444,191 L448,191 L448,189 Z M448,189 L448,191 L456,191 L456,189 Z M456,189 L456,191 L464,191 L464,189 Z M464,189 L464,191 L472,191 L472,189 Z M472,189 L472,191 L480,191 L480,189 Z M480,189 L480,191 L488,191 L488,189 Z M488,189 L488,191 L496,191 L496,189 Z M496,189 L496,191 L504,191 L504,189 Z M504,189 L504,191 L512,191 L512,189 Z M512,189 L512,191 L520,191 L520,189 Z M520,189 L520,191 L528,191 L528,189 Z M528,189 L528,191 L536,191 L536,189 Z M536,189 L536,191 L544,191 L544,189 Z M544,189 L544,191 L552,191 L552,189 Z M552,189 L552,191 L560,191 L560,189 Z M560,189 L560,191 L568,191 L568,189 Z M568,189 L568,191 L576,191 L576,189 Z M576,189 L576,191 L584,191 L584,189 Z M584,189 L584,191 L592,191 L592,189 Z M592,189 L592,191 L600,191 L600,189 Z M600,189 L600,191 L608,191 L608,189 Z M611,189 L611,191 L613,191 L613,189 Z M611,190 L611,200 L613,200 L613,190 Z M608,189 L608,191 L612,191 L612,189 Z M659,180 L659,200 L661,200 L661,180 Z M19,200 L19,220 L21,220 L21,200 Z M160,209 L160,211 L168,211 L168,209 Z M168,209 L168,211 L176,211 L176,209 Z M176,209 L176,211 L184,211 L184,209 Z M184,209 L184,211 L192,211 L192,209 Z M192,209 L192,211 L200,211 L200,209 Z M208,210 L200,215 L200,205 Z M307,200 L307,220 L309,220 L309,200 Z M371,200 L371,220 L373,220 L373,200 Z M427,200 L427,220 L429,220 L429,200 Z M443,200 L443,220 L445,220 L445,200 Z M611,200 L611,220 L613,220 L613,200 Z M659,200 L659,220 L661,220 L661,200 Z M19,220 L19,240 L21,240 L21,220 Z M107,229 L107,231 L109,231 L109,229 Z M107,230 L107,240 L109,240 L109,230 Z M108,229 L108,231 L112,231 L112,229 Z M112,229 L112,231 L120,231 L120,229 Z M120,229 L120,231 L128,231 L128,229 Z M128,229 L128,231 L136,231 L136,229 Z M136,229 L136,231 L144,231 L144,229 Z M144,229 L144,231 L152,231 L152,229 Z M152,229 L152,231 L160,231 L160,229 Z M160,229 L160,231 L168,231 L168,229 Z M168,229 L168,231 L176,231 L176,229 Z M176,229 L176,231 L184,231 L184,229 Z M184,229 L184,231 L192,231 L192,229 Z M192,229 L192,231 L200,231 L200,229 Z M200,229 L200,231 L208,231 L208,229 Z M208,229 L208,231 L216,231 L216,229 Z M216,229 L216,231 L224,231 L224,229 Z M227,229 L227,231 L229,231 L229,229 Z M227,230 L227,240 L229,240 L229,230 Z M224,229 L224,231 L228,231 L228,229 Z M307,220 L307,240 L309,240 L309,220 Z M371,220 L371,240 L373,240 L373,220 Z M427,220 L427,240 L429,240 L429,220 Z M443,220 L443,240 L445,240 L445,220 Z M611,220 L611,240 L613,240 L613,220 Z M659,220 L659,240 L661,240 L661,220 Z M19,240 L19,260 L21,260 L21,240 Z M91,240 L91,260 L93,260 L93,240 Z M107,240 L107,260 L109,260 L109,240 Z M227,240 L227,260 L229,260 L229,240 Z M307,240 L307,260 L309,260 L309,240 Z M371,240 L371,260 L373,260 L373,240 Z M427,240 L427,260 L429,260 L429,240 Z M443,240 L443,260 L445,260 L445,240 Z M611,240 L611,260 L613,260 L613,240 Z M659,240 L659,260 L661,260 L661,240 Z M19,260 L19,280 L21,280 L21,260 Z M91,260 L91,280 L93,280 L93,260 Z M107,260 L107,280 L109,280 L109,260 Z M227,260 L227,280 L229,280 L229,260 Z M307,260 L307,280 L309,280 L309,260 Z M320,269 L320,271 L328,271 L328,269 Z M328,269 L328,271 L336,271 L336,269 Z M336,269 L336,271 L344,271 L344,269 Z M352,270 L344,275 L344,265 Z M371,260 L371,280 L373,280 L373,260 Z M427,260 L427,280 L429,280 L429,260 Z M443,260 L443,280 L445,280 L445,260 Z M611,260 L611,280 L613,280 L613,260 Z M659,260 L659,280 L661,280 L661,260 Z M19,280 L19,300 L21,300 L21,280 Z M92,300 L88,290 L96,290 Z M91,280 L91,290 L93,290 L93,280 Z M107,280 L107,300 L109,300 L109,280 Z M227,280 L227,300 L229,300 L229,280 Z M307,280 L307,300 L309,300 L309,280 Z M371,280 L371,300 L373,300 L373,280 Z M427,280 L427,300 L429,300 L429,280 Z M443,280 L443,300 L445,300 L445,280 Z M611,280 L611,300 L613,300 L613,280 Z M659,280 L659,300 L661,300 L661,280 Z M19,300 L19,320 L21,320 L21,300 Z M107,309 L107,311 L109,311 L109,309 Z M107,300 L107,310 L109,310 L109,300 Z M108,309 L108,311 L112,311 L112,309 Z M112,309 L112,311 L120,311 L120,309 Z M120,309 L120,311 L128,311 L128,309 Z M128,309 L128,311 L136,311 L136,309 Z M136,309 L136,311 L144,311 L144,309 Z M144,309 L144,311 L152,311 L152,309 Z M152,309 L152,311 L160,311 L160,309 Z M160,309 L160,311 L168,311 L168,309 Z M168,309 L168,311 L176,311 L176,309 Z M176,309 L176,311 L184,311 L184,309 Z M184,309 L184,311 L192,311 L192,309 Z M192,309 L192,311 L200,311 L200,309 Z M200,309 L200,311 L208,311 L208,309 Z M208,309 L208,311 L216,311 L216,309 Z M216,309 L216,311 L224,311 L224,309 Z M227,309 L227,311 L229,311 L229,309 Z M227,300 L227,310 L229,310 L229,300 Z M224,309 L224,311 L228,311 L228,309 Z M307,300 L307,320 L309,320 L309,300 Z M371,300 L371,320 L373,320 L373,300 Z M427,300 L427,320 L429,320 L429,300 Z M443,300 L443,320 L445,320 L445,300 Z M611,300 L611,320 L613,320 L613,300 Z M659,300 L659,320 L661,320 L661,300 Z M19,320 L19,340 L21,340 L21,320 Z M307,320 L307,340 L309,340 L309,320 Z M371,320 L371,340 L373,340 L373,320 Z M428,340 L424,330 L432,330 Z M427,320 L427,330 L429,330 L429,320 Z M443,320 L443,340 L445,340 L445,320 Z M611,320 L611,340 L613,340 L613,320 Z M659,320 L659,340 L661,340 L661,320 Z M19,340 L19,360 L21,360 L21,340 Z M307,340 L307,360 L309,360 L309,340 Z M371,340 L371,360 L373,360 L373,340 Z M443,349 L443,351 L445,351 L445,349 Z M443,340 L443,350 L445,350 L445,340 Z M444,349 L444,351 L448,351 L448,349 Z M448,349 L448,351 L456,351 L456,349 Z M456,349 L456,351 L464,351 L464,349 Z M464,349 L464,351 L472,351 L472,349 Z M472,349 L472,351 L480,351 L480,349 Z M480,349 L480,351 L488,351 L488,349 Z M488,349 L488,351 L496,351 L496,349 Z M496,349 L496,351 L504,351 L504,349 Z M504,349 L504,351 L512,351 L512,349 Z M512,349 L512,351 L520,351 L520,349 Z M520,349 L520,351 L528,351 L528,349 Z M528,349 L528,351 L536,351 L536,349 Z M536,349 L536,351 L544,351 L544,349 Z M544,349 L544,351 L552,351 L552,349 Z M552,349 L552,351 L560,351 L560,349 Z M560,349 L560,351 L568,351 L568,349 Z M568,349 L568,351 L576,351 L576,349 Z M576,349 L576,351 L584,351 L584,349 Z M584,349 L584,351 L592,351 L592,349 Z M592,349 L592,351 L600,351 L600,349 Z M600,349 L600,351 L608,351 L608,349 Z M611,349 L611,351 L613,351 L613,349 Z M611,340 L611,350 L613,350 L613,340 Z M608,349 L608,351 L612,351 L612,349 Z M659,340 L659,360 L661,360 L661,340 Z M19,360 L19,380 L21,380 L21,360 Z M307,360 L307,380 L309,380 L309,360 Z M371,360 L371,380 L373,380 L373,360 Z M659,360 L659,380 L661,380 L661,360 Z M19,389 L19,391 L21,391 L21,389 Z M19,380 L19,390 L21,390 L21,380 Z M20,389 L20,391 L24,391 L24,389 Z M24,389 L24,391 L32,391 L32,389 Z M32,389 L32,391 L40,391 L40,389 Z M40,389 L40,391 L48,391 L48,389 Z M48,389 L48,391 L56,391 L56,389 Z M56,389 L56,391 L64,391 L64,389 Z M64,389 L64,391 L72,391 L72,389 Z M72,389 L72,391 L80,391 L80,389 Z M80,389 L80,391 L88,391 L88,389 Z M88,389 L88,391 L96,391 L96,389 Z M96,389 L96,391 L104,391 L104,389 Z M104,389 L104,391 L112,391 L112,389 Z M112,389 L112,391 L120,391 L120,389 Z M120,389 L120,391 L128,391 L128,389 Z M128,389 L128,391 L136,391 L136,389 Z M136,389 L136,391 L144,391 L144,389 Z M144,389 L144,391 L152,391 L152,389 Z M152,389 L152,391 L160,391 L160,389 Z M160,389 L160,391 L168,391 L168,389 Z M168,389 L168,391 L176,391 L176,389 Z M176,389 L176,391 L184,391 L184,389 Z M184,389 L184,391 L192,391 L192,389 Z M192,389 L192,391 L200,391 L200,389 Z M200,389 L200,391 L208,391 L208,389 Z M208,389 L208,391 L216,391 L216,389 Z M216,389 L216,391 L224,391 L224,389 Z M224,389 L224,391 L232,391 L232,389 Z M232,389 L232,391 L240,391 L240,389 Z M240,389 L240,391 L248,391 L248,389 Z M248,389 L248,391 L256,391 L256,389 Z M256,389 L256,391 L264,391 L264,389 Z M264,389 L264,391 L272,391 L272,389 Z M272,389 L272,391 L280,391 L280,389 Z M280,389 L280,391 L288,391 L288,389 Z M288,389 L288,391 L296,391 L296,389 Z M296,389 L296,391 L304,391 L304,389 Z M307,389 L307,391 L309,391 L309,389 Z M307,380 L307,390 L309,390 L309,380 Z M304,389 L304,391 L308,391 L308,389 Z M371,389 L371,391 L373,391 L373,389 Z M371,380 L371,390 L373,390 L373,380 Z M372,389 L372,391 L376,391 L376,389 Z M376,389 L376,391 L384,391 L384,389 Z M384,389 L384,391 L392,391 L392,389 Z M392,389 L392,391 L400,391 L400,389 Z M400,389 L400,391 L408,391 L408,389 Z M408,389 L408,391 L416,391 L416,389 Z M416,389 L416,391 L424,391 L424,389 Z M424,389 L424,391 L432,391 L432,389 Z M432,389 L432,391 L440,391 L440,389 Z M440,389 L440,391 L448,391 L448,389 Z M448,389 L448,391 L456,391 L456,389 Z M456,389 L456,391 L464,391 L464,389 Z M464,389 L464,391 L472,391 L472,389 Z M472,389 L472,391 L480,391 L480,389 Z M480,389 L480,391 L488,391 L488,389 Z M488,389 L488,391 L496,391 L496,389 Z M496,389 L496,391 L504,391 L504,389 Z M504,389 L504,391 L512,391 L512,389 Z M512,389 L512,391 L520,391 L520,389 Z M520,389 L520,391 L528,391 L528,389 Z M528,389 L528,391 L536,391 L536,389 Z M536,389 L536,391 L544,391 L544,389 Z M544,389 L544,391 L552,391 L552,389 Z M552,389 L552,391 L560,391 L560,389 Z M560,389 L560,391 L568,391 L568,389 Z M568,389 L568,391 L576,391 L576,389 Z M576,389 L576,391 L584,391 L584,389 Z M584,389 L584,391 L592,391 L592,389 Z M592,389 L592,391 L600,391 L600,389 Z M600,389 L600,391 L608,391 L608,389 Z M608,389 L608,391 L616,391 L616,389 Z M616,389 L616,391 L624,391 L624,389 Z M624,389 L624,391 L632,391 L632,389 Z M632,389 L632,391 L640,391 L640,389 Z M640,389 L640,391 L648,391 L648,389 Z M648,389 L648,391 L656,391 L656,389 Z M659,389 L659,391 L661,391 L661,389 Z M659,380 L659,390 L661,390 L661,380 Z M656,389 L656,391 L660,391 L660,389 Z " fill="#000" stroke="#000" stroke-width="0.1px" />
</svg>