<?xml version="1.0"?>
<svg width="512" height="420" viewBox="0 0 512 420"
    xmlns="http://www.w3.org/2000/svg" version="1.1">
	<text x="184" y="30" font-family="Meiryo, sans-serif" font-weight="normal" font-size="16px" fill="#000" dominant-baseline="central" text-anchor="middle">広</text>
	<text x="200" y="30" font-family="Meiryo, sans-serif" font-weight="normal" font-size="16px" fill="#000" dominant-baseline="central" text-anchor="middle">い</text>
	<text x="216" y="30" font-family="Meiryo, sans-serif" font-weight="normal" font-size="16px" fill="#000" dominant-baseline="central" text-anchor="middle">意</text>
	<text x="232" y="30" font-family="Meiryo, sans-serif" font-weight="normal" font-size="16px" fill="#000" dominant-baseline="central" text-anchor="middle">味</text>
	<text x="248" y="30" font-family="Meiryo, sans-serif" font-weight="normal" font-size="16px" fill="#000" dominant-baseline="central" text-anchor="middle">の</text>
	<text x="264" y="30" font-family="Meiryo, sans-serif" font-weight="normal" font-size="16px" fill="#000" dominant-baseline="central" text-anchor="middle">Ｈ</text>
	<text x="280" y="30" font-family="Meiryo, sans-serif" font-weight="normal" font-size="16px" fill="#000" dominant-baseline="central" text-anchor="middle">Ｔ</text>
	<text x="296" y="30" font-family="Meiryo, sans-serif" font-weight="normal" font-size="16px" fill="#000" dominant-baseline="central" text-anchor="middle">Ｍ</text>
	<text x="312" y="30" font-family="Meiryo, sans-serif" font-weight="normal" font-size="16px" fill="#000" dominant-baseline="central" text-anchor="middle">Ｌ</text>
	<text x="328" y="30" font-family="Meiryo, sans-serif" font-weight="normal" font-size="16px" fill="#000" dominant-baseline="central" text-anchor="middle">５</text>
	<text x="84" y="70" font-family="MS Gothic, monospace" font-weight="normal" font-size="16px" fill="#000" dominant-baseline="central" text-anchor="middle">C</text>
	<text x="92" y="70" font-family="MS Gothic, monospace" font-weight="normal" font-size="16px" fill="#000" dominant-baseline="central" text-anchor="middle">S</text>
	<text x="100" y="70" font-family="MS Gothic, monospace" font-weight="normal" font-size="16px" fill="#000" dominant-baseline="central" text-anchor="middle">S</text>
	<text x="108" y="70" font-family="MS Gothic, monospace" font-weight="normal" font-size="16px" fill="#000" dominant-baseline="central" text-anchor="middle">3</text>
	<text x="180" y="70" font-family="MS Gothic, monospace" font-weight="normal" font-size="16px" fill="#000" dominant-baseline="central" text-anchor="middle">F</text>
	<text x="188" y="70" font-family="MS Gothic, monospace" font-weight="normal" font-size="16px" fill="#000" dominant-baseline="central" text-anchor="middle">i</text>
	<text x="196" y="70" font-family="MS Gothic, monospace" font-weight="normal" font-size="16px" fill="#000" dominant-baseline="central" text-anchor="middle">l</text>
	<text x="204" y="70" font-family="MS Gothic, monospace" font-weight="normal" font-size="16px" fill="#000" dominant-baseline="central" text-anchor="middle">e</text>
	<text x="220" y="70" font-family="MS Gothic, monospace" font-weight="normal" font-size="16px" fill="#000" dominant-baseline="central" text-anchor="middle">A</text>
	<text x="228" y="70" font-family="MS Gothic, monospace" font-weight="normal" font-size="16px" fill="#000" dominant-baseline="central" text-anchor="middle">P</text>
	<text x="236" y="70" font-family="MS Gothic, monospace" font-weight="normal" font-size="16px" fill="#000" dominant-baseline="central" text-anchor="middle">I</text>
	<text x="308" y="70" font-family="MS Gothic, monospace" font-weight="normal" font-size="16px" fill="#000" dominant-baseline="central" text-anchor="middle">G</text>
	<text x="316" y="70" font-family="MS Gothic, monospace" font-weight="normal" font-size="16px" fill="#000" dominant-baseline="central" text-anchor="middle">e</text>
	<text x="324" y="70" font-family="MS Gothic, monospace" font-weight="normal" font-size="16px" fill="#000" dominant-baseline="central" text-anchor="middle">o</text>
	<text x="332" y="70" font-family="MS Gothic, monospace" font-weight="normal" font-size="16px" fill="#000" dominant-baseline="central" text-anchor="middle">l</text>
	<text x="340" y="70" font-family="MS Gothic, monospace" font-weight="normal" font-size="16px" fill="#000" dominant-baseline="central" text-anchor="middle">o</text>
	<text x="348" y="70" font-family="MS Gothic, monospace" font-weight="normal" font-size="16px" fill="#000" dominant-baseline="central" text-anchor="middle">c</text>
	<text x="356" y="70" font-family="MS Gothic, monospace" font-weight="normal" font-size="16px" fill="#000" dominant-baseline="central" text-anchor="middle">a</text>
	<text x="364" y="70" font-family="MS Gothic, monospace" font-weight="normal" font-size="16px" fill="#000" dominant-baseline="central" text-anchor="middle">t</text>
	<text x="372" y="70" font-family="MS Gothic, monospace" font-weight="normal" font-size="16px" fill="#000" dominant-baseline="central" text-anchor="middle">i</text>
	<text x="380" y="70" font-family="MS Gothic, monospace" font-weight="normal" font-size="16px" fill="#000" dominant-baseline="central" text-anchor="middle">o</text>
	<text x="388" y="70" font-family="MS Gothic, monospace" font-weight="normal" font-size="16px" fill="#000" dominant-baseline="central" text-anchor="middle">n</text>
	<text x="404" y="70" font-family="MS Gothic, monospace" font-weight="normal" font-size="16px" fill="#000" dominant-baseline="central" text-anchor="middle">A</text>
	<text x="412" y="70" font-family="MS Gothic, monospace" font-weight="normal" font-size="16px" fill="#000" dominant-baseline="central" text-anchor="middle">P</text>
	<text x="420" y="70" font-family="MS Gothic, monospace" font-weight="normal" font-size="16px" fill="#000" dominant-baseline="central" text-anchor="middle">I</text>
	<text x="148" y="130" font-family="MS Gothic, monospace" font-weight="normal" font-size="16px" fill="#000" dominant-baseline="central" text-anchor="middle">W</text>
	<text x="156" y="130" font-family="MS Gothic, monospace" font-weight="normal" font-size="16px" fill="#000" dominant-baseline="central" text-anchor="middle">e</text>
	<text x="164" y="130" font-family="MS Gothic, monospace" font-weight="normal" font-size="16px" fill="#000" dominant-baseline="central" text-anchor="middle">b</text>
	<text x="180" y="130" font-family="MS Gothic, monospace" font-weight="normal" font-size="16px" fill="#000" dominant-baseline="central" text-anchor="middle">S</text>
	<text x="188" y="130" font-family="MS Gothic, monospace" font-weight="normal" font-size="16px" fill="#000" dominant-baseline="central" text-anchor="middle">o</text>
	<text x="196" y="130" font-family="MS Gothic, monospace" font-weight="normal" font-size="16px" fill="#000" dominant-baseline="central" text-anchor="middle">c</text>
	<text x="204" y="130" font-family="MS Gothic, monospace" font-weight="normal" font-size="16px" fill="#000" dominant-baseline="central" text-anchor="middle">k</text>
	<text x="212" y="130" font-family="MS Gothic, monospace" font-weight="normal" font-size="16px" fill="#000" dominant-baseline="central" text-anchor="middle">e</text>
	<text x="220" y="130" font-family="MS Gothic, monospace" font-weight="normal" font-size="16px" fill="#000" dominant-baseline="central" text-anchor="middle">t</text>
	<text x="292" y="130" font-family="MS Gothic, monospace" font-weight="normal" font-size="16px" fill="#000" dominant-baseline="central" text-anchor="middle">W</text>
	<text x="300" y="130" font-family="MS Gothic, monospace" font-weight="normal" font-size="16px" fill="#000" dominant-baseline="central" text-anchor="middle">e</text>
	<text x="308" y="130" font-family="MS Gothic, monospace" font-weight="normal" font-size="16px" fill="#000" dominant-baseline="central" text-anchor="middle">b</text>
	<text x="324" y="130" font-family="MS Gothic, monospace" font-weight="normal" font-size="16px" fill="#000" dominant-baseline="central" text-anchor="middle">W</text>
	<text x="332" y="130" font-family="MS Gothic, monospace" font-weight="normal" font-size="16px" fill="#000" dominant-baseline="central" text-anchor="middle">o</text>
	<text x="340" y="130" font-family="MS Gothic, monospace" font-weight="normal" font-size="16px" fill="#000" dominant-baseline="central" text-anchor="middle">r</text>
	<text x="348" y="130" font-family="MS Gothic, monospace" font-weight="normal" font-size="16px" fill="#000" dominant-baseline="central" text-anchor="middle">k</text>
	<text x="356" y="130" font-family="MS Gothic, monospace" font-weight="normal" font-size="16px" fill="#000" dominant-baseline="central" text-anchor="middle">e</text>
	<text x="364" y="130" font-family="MS Gothic, monospace" font-weight="normal" font-size="16px" fill="#000" dominant-baseline="central" text-anchor="middle">r</text>
	<text x="372" y="130" font-family="MS Gothic, monospace" font-weight="normal" font-size="16px" fill="#000" dominant-baseline="central" text-anchor="middle">s</text>
	<text x="236" y="210" font-family="MS Gothic, monospace" font-weight="normal" font-size="16px" fill="#000" dominant-baseline="central" text-anchor="middle">C</text>
	<text x="244" y="210" font-family="MS Gothic, monospace" font-weight="normal" font-size="16px" fill="#000" dominant-baseline="central" text-anchor="middle">a</text>
	<text x="252" y="210" font-family="MS Gothic, monospace" font-weight="normal" font-size="16px" fill="#000" dominant-baseline="central" text-anchor="middle">n</text>
	<text x="260" y="210" font-family="MS Gothic, monospace" font-weight="normal" font-size="16px" fill="#000" dominant-baseline="central" text-anchor="middle">v</text>
	<text x="268" y="210" font-family="MS Gothic, monospace" font-weight="normal" font-size="16px" fill="#000" dominant-baseline="central" text-anchor="middle">a</text>
	<text x="276" y="210" font-family="MS Gothic, monospace" font-weight="normal" font-size="16px" fill="#000" dominant-baseline="central" text-anchor="middle">s</text>
	<text x="104" y="270" font-family="Meiryo, sans-serif" font-weight="normal" font-size="16px" fill="#000" dominant-baseline="central" text-anchor="middle">ド</text>
	<text x="120" y="270" font-family="Meiryo, sans-serif" font-weight="normal" font-size="16px" fill="#000" dominant-baseline="central" text-anchor="middle">ラ</text>
	<text x="136" y="270" font-family="Meiryo, sans-serif" font-weight="normal" font-size="16px" fill="#000" dominant-baseline="central" text-anchor="middle">ッ</text>
	<text x="152" y="270" font-family="Meiryo, sans-serif" font-weight="normal" font-size="16px" fill="#000" dominant-baseline="central" text-anchor="middle">グ</text>
	<text x="168" y="270" font-family="Meiryo, sans-serif" font-weight="normal" font-size="16px" fill="#000" dominant-baseline="central" text-anchor="middle">＆</text>
	<text x="184" y="270" font-family="Meiryo, sans-serif" font-weight="normal" font-size="16px" fill="#000" dominant-baseline="central" text-anchor="middle">ド</text>
	<text x="200" y="270" font-family="Meiryo, sans-serif" font-weight="normal" font-size="16px" fill="#000" dominant-baseline="central" text-anchor="middle">ロ</text>
	<text x="216" y="270" font-family="Meiryo, sans-serif" font-weight="normal" font-size="16px" fill="#000" dominant-baseline="central" text-anchor="middle">ッ</text>
	<text x="232" y="270" font-family="Meiryo, sans-serif" font-weight="normal" font-size="16px" fill="#000" dominant-baseline="central" text-anchor="middle">プ</text>
	<text x="312" y="270" font-family="Meiryo, sans-serif" font-weight="normal" font-size="16px" fill="#000" dominant-baseline="central" text-anchor="middle">フ</text>
	<text x="328" y="270" font-family="Meiryo, sans-serif" font-weight="normal" font-size="16px" fill="#000" dominant-baseline="central" text-anchor="middle">ォ</text>
	<text x="344" y="270" font-family="Meiryo, sans-serif" font-weight="normal" font-size="16px" fill="#000" dominant-baseline="central" text-anchor="middle">ー</text>
	<text x="360" y="270" font-family="Meiryo, sans-serif" font-weight="normal" font-size="16px" fill="#000" dominant-baseline="central" text-anchor="middle">ム</text>
	<text x="376" y="270" font-family="Meiryo, sans-serif" font-weight="normal" font-size="16px" fill="#000" dominant-baseline="central" text-anchor="middle">要</text>
	<text x="392" y="270" font-family="Meiryo, sans-serif" font-weight="normal" font-size="16px" fill="#000" dominant-baseline="central" text-anchor="middle">素</text>
	<text x="88" y="330" font-family="Meiryo, sans-serif" font-weight="normal" font-size="16px" fill="#000" dominant-baseline="central" text-anchor="middle">マ</text>
	<text x="104" y="330" font-family="Meiryo, sans-serif" font-weight="normal" font-size="16px" fill="#000" dominant-baseline="central" text-anchor="middle">ル</text>
	<text x="120" y="330" font-family="Meiryo, sans-serif" font-weight="normal" font-size="16px" fill="#000" dominant-baseline="central" text-anchor="middle">チ</text>
	<text x="136" y="330" font-family="Meiryo, sans-serif" font-weight="normal" font-size="16px" fill="#000" dominant-baseline="central" text-anchor="middle">メ</text>
	<text x="152" y="330" font-family="Meiryo, sans-serif" font-weight="normal" font-size="16px" fill="#000" dominant-baseline="central" text-anchor="middle">デ</text>
	<text x="168" y="330" font-family="Meiryo, sans-serif" font-weight="normal" font-size="16px" fill="#000" dominant-baseline="central" text-anchor="middle">ィ</text>
	<text x="184" y="330" font-family="Meiryo, sans-serif" font-weight="normal" font-size="16px" fill="#000" dominant-baseline="central" text-anchor="middle">ア</text>
	<text x="200" y="330" font-family="Meiryo, sans-serif" font-weight="normal" font-size="16px" fill="#000" dominant-baseline="central" text-anchor="middle">要</text>
	<text x="216" y="330" font-family="Meiryo, sans-serif" font-weight="normal" font-size="16px" fill="#000" dominant-baseline="central" text-anchor="middle">素</text>
	<text x="296" y="330" font-family="Meiryo, sans-serif" font-weight="normal" font-size="16px" fill="#000" dominant-baseline="central" text-anchor="middle">セ</text>
	<text x="312" y="330" font-family="Meiryo, sans-serif" font-weight="normal" font-size="16px" fill="#000" dominant-baseline="central" text-anchor="middle">マ</text>
	<text x="328" y="330" font-family="Meiryo, sans-serif" font-weight="normal" font-size="16px" fill="#000" dominant-baseline="central" text-anchor="middle">ン</text>
	<text x="344" y="330" font-family="Meiryo, sans-serif" font-weight="normal" font-size="16px" fill="#000" dominant-baseline="central" text-anchor="middle">テ</text>
	<text x="360" y="330" font-family="Meiryo, sans-serif" font-weight="normal" font-size="16px" fill="#000" dominant-baseline="central" text-anchor="middle">ィ</text>
	<text x="376" y="330" font-family="Meiryo, sans-serif" font-weight="normal" font-size="16px" fill="#000" dominant-baseline="central" text-anchor="middle">ッ</text>
	<text x="392" y="330" font-family="Meiryo, sans-serif" font-weight="normal" font-size="16px" fill="#000" dominant-baseline="central" text-anchor="middle">ク</text>
	<text x="408" y="330" font-family="Meiryo, sans-serif" font-weight="normal" font-size="16px" fill="#000" dominant-baseline="central" text-anchor="middle">要</text>
	<text x="424" y="330" font-family="Meiryo, sans-serif" font-weight="normal" font-size="16px" fill="#000" dominant-baseline="central" text-anchor="middle">素</text>
	<text x="176" y="370" font-family="Meiryo, sans-serif" font-weight="normal" font-size="16px" fill="#000" dominant-baseline="central" text-anchor="middle">せ</text>
	<text x="192" y="370" font-family="Meiryo, sans-serif" font-weight="normal" font-size="16px" fill="#000" dominant-baseline="central" text-anchor="middle">ま</text>
	<text x="208" y="370" font-family="Meiryo, sans-serif" font-weight="normal" font-size="16px" fill="#000" dominant-baseline="central" text-anchor="middle">い</text>
	<text x="224" y="370" font-family="Meiryo, sans-serif" font-weight="normal" font-size="16px" fill="#000" dominant-baseline="central" text-anchor="middle">意</text>
	<text x="240" y="370" font-family="Meiryo, sans-serif" font-weight="normal" font-size="16px" fill="#000" dominant-baseline="central" text-anchor="middle">味</text>
	<text x="256" y="370" font-family="Meiryo, sans-serif" font-weight="normal" font-size="16px" fill="#000" dominant-baseline="central" text-anchor="middle">の</text>
	<text x="272" y="370" font-family="Meiryo, sans-serif" font-weight="normal" font-size="16px" fill="#000" dominant-baseline="central" text-anchor="middle">Ｈ</text>
	<text x="288" y="370" font-family="Meiryo, sans-serif" font-weight="normal" font-size="16px" fill="#000" dominant-baseline="central" text-anchor="middle">Ｔ</text>
	<text x="304" y="370" font-family="Meiryo, sans-serif" font-weight="normal" font-size="16px" fill="#000" dominant-baseline="central" text-anchor="middle">Ｍ</text>
	<text x="320" y="370" font-family="Meiryo, sans-serif" font-weight="normal" font-size="16px" fill="#000" dominant-baseline="central" text-anchor="middle">Ｌ</text>
	<text x="336" y="370" font-family="Meiryo, sans-serif" font-weight="normal" font-size="16px" fill="#000" dominant-baseline="central" text-anchor="middle">５</text>
	<path d="M11,9 L11,11 L13,11 L13,9 Z M11,10 L11,20 L13,20 L13,10 Z M12,9 L12,11 L16,11 L16,9 Z M16,9 L16,11 L24,11 L24,9 Z M24,9 L24,11 L32,11 L32,9 Z M32,9 L32,11 L40,11 L40,9 Z M40,9 L40,11 L48,11 L48,9 Z M48,9 L48,11 L56,11 L56,9 Z M56,9 L56,11 L64,11 L64,9 Z M64,9 L64,11 L72,11 L72,9 Z M72,9 L72,11 L80,11 L80,9 Z M80,9 L80,11 L88,11 L88,9 Z M88,9 L88,11 L96,11 L96,9 Z M96,9 L96,11 L104,11 L104,9 Z M104,9 L104,11 L112,11 L112,9 Z M112,9 L112,11 L120,11 L120,9 Z M120,9 L120,11 L128,11 L128,9 Z M128,9 L128,11 L136,11 L136,9 Z M136,9 L136,11 L144,11 L144,9 Z M144,9 L144,11 L152,11 L152,9 Z M152,9 L152,11 L160,11 L160,9 Z M160,9 L160,11 L168,11 L168,9 Z M168,9 L168,11 L176,11 L176,9 Z M176,9 L176,11 L184,11 L184,9 Z M184,9 L184,11 L192,11 L192,9 Z M192,9 L192,11 L200,11 L200,9 Z M200,9 L200,11 L208,11 L208,9 Z M208,9 L208,11 L216,11 L216,9 Z M216,9 L216,11 L224,11 L224,9 Z M224,9 L224,11 L232,11 L232,9 Z M232,9 L232,11 L240,11 L240,9 Z M240,9 L240,11 L248,11 L248,9 Z M248,9 L248,11 L256,11 L256,9 Z M256,9 L256,11 L264,11 L264,9 Z M264,9 L264,11 L272,11 L272,9 Z M272,9 L272,11 L280,11 L280,9 Z M280,9 L280,11 L288,11 L288,9 Z M288,9 L288,11 L296,11 L296,9 Z M296,9 L296,11 L304,11 L304,9 Z M304,9 L304,11 L312,11 L312,9 Z M312,9 L312,11 L320,11 L320,9 Z M320,9 L320,11 L328,11 L328,9 Z M328,9 L328,11 L336,11 L336,9 Z M336,9 L336,11 L344,11 L344,9 Z M344,9 L344,11 L352,11 L352,9 Z M352,9 L352,11 L360,11 L360,9 Z M360,9 L360,11 L368,11 L368,9 Z M368,9 L368,11 L376,11 L376,9 Z M376,9 L376,11 L384,11 L384,9 Z M384,9 L384,11 L392,11 L392,9 Z M392,9 L392,11 L400,11 L400,9 Z M400,9 L400,11 L408,11 L408,9 Z M408,9 L408,11 L416,11 L416,9 Z M416,9 L416,11 L424,11 L424,9 Z M424,9 L424,11 L432,11 L432,9 Z M432,9 L432,11 L440,11 L440,9 Z M440,9 L440,11 L448,11 L448,9 Z M448,9 L448,11 L456,11 L456,9 Z M456,9 L456,11 L464,11 L464,9 Z M464,9 L464,11 L472,11 L472,9 Z M472,9 L472,11 L480,11 L480,9 Z M480,9 L480,11 L488,11 L488,9 Z M488,9 L488,11 L496,11 L496,9 Z M499,9 L499,11 L501,11 L501,9 Z M499,10 L499,20 L501,20 L501,10 Z M496,9 L496,11 L500,11 L500,9 Z M11,20 L11,40 L13,40 L13,20 Z M499,20 L499,40 L501,40 L501,20 Z M11,40 L11,60 L13,60 L13,40 Z M59,49 L59,51 L61,51 L61,49 Z M59,50 L59,60 L61,60 L61,50 Z M60,49 L60,51 L64,51 L64,49 Z M64,49 L64,51 L72,51 L72,49 Z M72,49 L72,51 L80,51 L80,49 Z M80,49 L80,51 L88,51 L88,49 Z M88,49 L88,51 L96,51 L96,49 Z M96,49 L96,51 L104,51 L104,49 Z M104,49 L104,51 L112,51 L112,49 Z M112,49 L112,51 L120,51 L120,49 Z M120,49 L120,51 L128,51 L128,49 Z M131,49 L131,51 L133,51 L133,49 Z M131,50 L131,60 L133,60 L133,50 Z M128,49 L128,51 L132,51 L132,49 Z M155,49 L155,51 L157,51 L157,49 Z M155,50 L155,60 L157,60 L157,50 Z M156,49 L156,51 L160,51 L160,49 Z M160,49 L160,51 L168,51 L168,49 Z M168,49 L168,51 L176,51 L176,49 Z M176,49 L176,51 L184,51 L184,49 Z M184,49 L184,51 L192,51 L192,49 Z M192,49 L192,51 L200,51 L200,49 Z M200,49 L200,51 L208,51 L208,49 Z M208,49 L208,51 L216,51 L216,49 Z M216,49 L216,51 L224,51 L224,49 Z M224,49 L224,51 L232,51 L232,49 Z M232,49 L232,51 L240,51 L240,49 Z M240,49 L240,51 L248,51 L248,49 Z M248,49 L248,51 L256,51 L256,49 Z M259,49 L259,51 L261,51 L261,49 Z M259,50 L259,60 L261,60 L261,50 Z M256,49 L256,51 L260,51 L260,49 Z M283,49 L283,51 L285,51 L285,49 Z M283,50 L283,60 L285,60 L285,50 Z M284,49 L284,51 L288,51 L288,49 Z M288,49 L288,51 L296,51 L296,49 Z M296,49 L296,51 L304,51 L304,49 Z M304,49 L304,51 L312,51 L312,49 Z M312,49 L312,51 L320,51 L320,49 Z M320,49 L320,51 L328,51 L328,49 Z M328,49 L328,51 L336,51 L336,49 Z M336,49 L336,51 L344,51 L344,49 Z M344,49 L344,51 L352,51 L352,49 Z M352,49 L352,51 L360,51 L360,49 Z M360,49 L360,51 L368,51 L368,49 Z M368,49 L368,51 L376,51 L376,49 Z M376,49 L376,51 L384,51 L384,49 Z M384,49 L384,51 L392,51 L392,49 Z M392,49 L392,51 L400,51 L400,49 Z M400,49 L400,51 L408,51 L408,49 Z M408,49 L408,51 L416,51 L416,49 Z M416,49 L416,51 L424,51 L424,49 Z M424,49 L424,51 L432,51 L432,49 Z M432,49 L432,51 L440,51 L440,49 Z M443,49 L443,51 L445,51 L445,49 Z M443,50 L443,60 L445,60 L445,50 Z M440,49 L440,51 L444,51 L444,49 Z M499,40 L499,60 L501,60 L501,40 Z M11,60 L11,80 L13,80 L13,60 Z M59,60 L59,80 L61,80 L61,60 Z M131,60 L131,80 L133,80 L133,60 Z M155,60 L155,80 L157,80 L157,60 Z M259,60 L259,80 L261,80 L261,60 Z M283,60 L283,80 L285,80 L285,60 Z M443,60 L443,80 L445,80 L445,60 Z M499,60 L499,80 L501,80 L501,60 Z M11,80 L11,100 L13,100 L13,80 Z M59,89 L59,91 L61,91 L61,89 Z M59,80 L59,90 L61,90 L61,80 Z M60,89 L60,91 L64,91 L64,89 Z M64,89 L64,91 L72,91 L72,89 Z M72,89 L72,91 L80,91 L80,89 Z M80,89 L80,91 L88,91 L88,89 Z M88,89 L88,91 L96,91 L96,89 Z M96,89 L96,91 L104,91 L104,89 Z M104,89 L104,91 L112,91 L112,89 Z M112,89 L112,91 L120,91 L120,89 Z M120,89 L120,91 L128,91 L128,89 Z M131,89 L131,91 L133,91 L133,89 Z M131,80 L131,90 L133,90 L133,80 Z M128,89 L128,91 L132,91 L132,89 Z M155,89 L155,91 L157,91 L157,89 Z M155,80 L155,90 L157,90 L157,80 Z M156,89 L156,91 L160,91 L160,89 Z M160,89 L160,91 L168,91 L168,89 Z M168,89 L168,91 L176,91 L176,89 Z M176,89 L176,91 L184,91 L184,89 Z M184,89 L184,91 L192,91 L192,89 Z M192,89 L192,91 L200,91 L200,89 Z M200,89 L200,91 L208,91 L208,89 Z M208,89 L208,91 L216,91 L216,89 Z M216,89 L216,91 L224,91 L224,89 Z M224,89 L224,91 L232,91 L232,89 Z M232,89 L232,91 L240,91 L240,89 Z M240,89 L240,91 L248,91 L248,89 Z M248,89 L248,91 L256,91 L256,89 Z M259,89 L259,91 L261,91 L261,89 Z M259,80 L259,90 L261,90 L261,80 Z M256,89 L256,91 L260,91 L260,89 Z M283,89 L283,91 L285,91 L285,89 Z M283,80 L283,90 L285,90 L285,80 Z M284,89 L284,91 L288,91 L288,89 Z M288,89 L288,91 L296,91 L296,89 Z M296,89 L296,91 L304,91 L304,89 Z M304,89 L304,91 L312,91 L312,89 Z M312,89 L312,91 L320,91 L320,89 Z M320,89 L320,91 L328,91 L328,89 Z M328,89 L328,91 L336,91 L336,89 Z M336,89 L336,91 L344,91 L344,89 Z M344,89 L344,91 L352,91 L352,89 Z M352,89 L352,91 L360,91 L360,89 Z M360,89 L360,91 L368,91 L368,89 Z M368,89 L368,91 L376,91 L376,89 Z M376,89 L376,91 L384,91 L384,89 Z M384,89 L384,91 L392,91 L392,89 Z M392,89 L392,91 L400,91 L400,89 Z M400,89 L400,91 L408,91 L408,89 Z M408,89 L408,91 L416,91 L416,89 Z M416,89 L416,91 L424,91 L424,89 Z M424,89 L424,91 L432,91 L432,89 Z M432,89 L432,91 L440,91 L440,89 Z M443,89 L443,91 L445,91 L445,89 Z M443,80 L443,90 L445,90 L445,80 Z M440,89 L440,91 L444,91 L444,89 Z M499,80 L499,100 L501,100 L501,80 Z M11,100 L11,120 L13,120 L13,100 Z M123,109 L123,111 L125,111 L125,109 Z M123,110 L123,120 L125,120 L125,110 Z M124,109 L124,111 L128,111 L128,109 Z M128,109 L128,111 L136,111 L136,109 Z M136,109 L136,111 L144,111 L144,109 Z M144,109 L144,111 L152,111 L152,109 Z M152,109 L152,111 L160,111 L160,109 Z M160,109 L160,111 L168,111 L168,109 Z M168,109 L168,111 L176,111 L176,109 Z M176,109 L176,111 L184,111 L184,109 Z M184,109 L184,111 L192,111 L192,109 Z M192,109 L192,111 L200,111 L200,109 Z M200,109 L200,111 L208,111 L208,109 Z M208,109 L208,111 L216,111 L216,109 Z M216,109 L216,111 L224,111 L224,109 Z M224,109 L224,111 L232,111 L232,109 Z M232,109 L232,111 L240,111 L240,109 Z M243,109 L243,111 L245,111 L245,109 Z M243,110 L243,120 L245,120 L245,110 Z M240,109 L240,111 L244,111 L244,109 Z M267,109 L267,111 L269,111 L269,109 Z M267,110 L267,120 L269,120 L269,110 Z M268,109 L268,111 L272,111 L272,109 Z M272,109 L272,111 L280,111 L280,109 Z M280,109 L280,111 L288,111 L288,109 Z M288,109 L288,111 L296,111 L296,109 Z M296,109 L296,111 L304,111 L304,109 Z M304,109 L304,111 L312,111 L312,109 Z M312,109 L312,111 L320,111 L320,109 Z M320,109 L320,111 L328,111 L328,109 Z M328,109 L328,111 L336,111 L336,109 Z M336,109 L336,111 L344,111 L344,109 Z M344,109 L344,111 L352,111 L352,109 Z M352,109 L352,111 L360,111 L360,109 Z M360,109 L360,111 L368,111 L368,109 Z M368,109 L368,111 L376,111 L376,109 Z M376,109 L376,111 L384,111 L384,109 Z M384,109 L384,111 L392,111 L392,109 Z M395,109 L395,111 L397,111 L397,109 Z M395,110 L395,120 L397,120 L397,110 Z M392,109 L392,111 L396,111 L396,109 Z M499,100 L499,120 L501,120 L501,100 Z M11,120 L11,140 L13,140 L13,120 Z M123,120 L123,140 L125,140 L125,120 Z M243,120 L243,140 L245,140 L245,120 Z M267,120 L267,140 L269,140 L269,120 Z M395,120 L395,140 L397,140 L397,120 Z M499,120 L499,140 L501,140 L501,120 Z M11,140 L11,160 L13,160 L13,140 Z M123,149 L123,151 L125,151 L125,149 Z M123,140 L123,150 L125,150 L125,140 Z M124,149 L124,151 L128,151 L128,149 Z M128,149 L128,151 L136,151 L136,149 Z M136,149 L136,151 L144,151 L144,149 Z M144,149 L144,151 L152,151 L152,149 Z M152,149 L152,151 L160,151 L160,149 Z M160,149 L160,151 L168,151 L168,149 Z M168,149 L168,151 L176,151 L176,149 Z M176,149 L176,151 L184,151 L184,149 Z M184,149 L184,151 L192,151 L192,149 Z M192,149 L192,151 L200,151 L200,149 Z M200,149 L200,151 L208,151 L208,149 Z M208,149 L208,151 L216,151 L216,149 Z M216,149 L216,151 L224,151 L224,149 Z M224,149 L224,151 L232,151 L232,149 Z M232,149 L232,151 L240,151 L240,149 Z M243,149 L243,151 L245,151 L245,149 Z M243,140 L243,150 L245,150 L245,140 Z M240,149 L240,151 L244,151 L244,149 Z M267,149 L267,151 L269,151 L269,149 Z M267,140 L267,150 L269,150 L269,140 Z M268,149 L268,151 L272,151 L272,149 Z M272,149 L272,151 L280,151 L280,149 Z M280,149 L280,151 L288,151 L288,149 Z M288,149 L288,151 L296,151 L296,149 Z M296,149 L296,151 L304,151 L304,149 Z M304,149 L304,151 L312,151 L312,149 Z M312,149 L312,151 L320,151 L320,149 Z M320,149 L320,151 L328,151 L328,149 Z M328,149 L328,151 L336,151 L336,149 Z M336,149 L336,151 L344,151 L344,149 Z M344,149 L344,151 L352,151 L352,149 Z M352,149 L352,151 L360,151 L360,149 Z M360,149 L360,151 L368,151 L368,149 Z M368,149 L368,151 L376,151 L376,149 Z M376,149 L376,151 L384,151 L384,149 Z M384,149 L384,151 L392,151 L392,149 Z M395,149 L395,151 L397,151 L397,149 Z M395,140 L395,150 L397,150 L397,140 Z M392,149 L392,151 L396,151 L396,149 Z M499,140 L499,160 L501,160 L501,140 Z M11,160 L11,180 L13,180 L13,160 Z M35,169 L35,171 L37,171 L37,169 Z M35,170 L35,180 L37,180 L37,170 Z M36,169 L36,171 L40,171 L40,169 Z M40,169 L40,171 L48,171 L48,169 Z M48,169 L48,171 L56,171 L56,169 Z M56,169 L56,171 L64,171 L64,169 Z M64,169 L64,171 L72,171 L72,169 Z M72,169 L72,171 L80,171 L80,169 Z M80,169 L80,171 L88,171 L88,169 Z M88,169 L88,171 L96,171 L96,169 Z M96,169 L96,171 L104,171 L104,169 Z M104,169 L104,171 L112,171 L112,169 Z M112,169 L112,171 L120,171 L120,169 Z M120,169 L120,171 L128,171 L128,169 Z M128,169 L128,171 L136,171 L136,169 Z M136,169 L136,171 L144,171 L144,169 Z M144,169 L144,171 L152,171 L152,169 Z M152,169 L152,171 L160,171 L160,169 Z M160,169 L160,171 L168,171 L168,169 Z M168,169 L168,171 L176,171 L176,169 Z M176,169 L176,171 L184,171 L184,169 Z M184,169 L184,171 L192,171 L192,169 Z M192,169 L192,171 L200,171 L200,169 Z M200,169 L200,171 L208,171 L208,169 Z M208,169 L208,171 L216,171 L216,169 Z M216,169 L216,171 L224,171 L224,169 Z M224,169 L224,171 L232,171 L232,169 Z M232,169 L232,171 L240,171 L240,169 Z M240,169 L240,171 L248,171 L248,169 Z M248,169 L248,171 L256,171 L256,169 Z M256,169 L256,171 L264,171 L264,169 Z M264,169 L264,171 L272,171 L272,169 Z M272,169 L272,171 L280,171 L280,169 Z M280,169 L280,171 L288,171 L288,169 Z M288,169 L288,171 L296,171 L296,169 Z M296,169 L296,171 L304,171 L304,169 Z M304,169 L304,171 L312,171 L312,169 Z M312,169 L312,171 L320,171 L320,169 Z M320,169 L320,171 L328,171 L328,169 Z M328,169 L328,171 L336,171 L336,169 Z M336,169 L336,171 L344,171 L344,169 Z M344,169 L344,171 L352,171 L352,169 Z M352,169 L352,171 L360,171 L360,169 Z M360,169 L360,171 L368,171 L368,169 Z M368,169 L368,171 L376,171 L376,169 Z M376,169 L376,171 L384,171 L384,169 Z M384,169 L384,171 L392,171 L392,169 Z M392,169 L392,171 L400,171 L400,169 Z M400,169 L400,171 L408,171 L408,169 Z M408,169 L408,171 L416,171 L416,169 Z M416,169 L416,171 L424,171 L424,169 Z M424,169 L424,171 L432,171 L432,169 Z M432,169 L432,171 L440,171 L440,169 Z M440,169 L440,171 L448,171 L448,169 Z M448,169 L448,171 L456,171 L456,169 Z M456,169 L456,171 L464,171 L464,169 Z M464,169 L464,171 L472,171 L472,169 Z M475,169 L475,171 L477,171 L477,169 Z M475,170 L475,180 L477,180 L477,170 Z M472,169 L472,171 L476,171 L476,169 Z M499,160 L499,180 L501,180 L501,160 Z M11,180 L11,200 L13,200 L13,180 Z M35,180 L35,200 L37,200 L37,180 Z M211,189 L211,191 L213,191 L213,189 Z M211,190 L211,200 L213,200 L213,190 Z M212,189 L212,191 L216,191 L216,189 Z M216,189 L216,191 L224,191 L224,189 Z M224,189 L224,191 L232,191 L232,189 Z M232,189 L232,191 L240,191 L240,189 Z M240,189 L240,191 L248,191 L248,189 Z M248,189 L248,191 L256,191 L256,189 Z M256,189 L256,191 L264,191 L264,189 Z M264,189 L264,191 L272,191 L272,189 Z M272,189 L272,191 L280,191 L280,189 Z M280,189 L280,191 L288,191 L288,189 Z M288,189 L288,191 L296,191 L296,189 Z M299,189 L299,191 L301,191 L301,189 Z M299,190 L299,200 L301,200 L301,190 Z M296,189 L296,191 L300,191 L300,189 Z M475,180 L475,200 L477,200 L477,180 Z M499,180 L499,200 L501,200 L501,180 Z M11,200 L11,220 L13,220 L13,200 Z M35,200 L35,220 L37,220 L37,200 Z M211,200 L211,220 L213,220 L213,200 Z M299,200 L299,220 L301,220 L301,200 Z M475,200 L475,220 L477,220 L477,200 Z M499,200 L499,220 L501,220 L501,200 Z M11,220 L11,240 L13,240 L13,220 Z M35,220 L35,240 L37,240 L37,220 Z M211,229 L211,231 L213,231 L213,229 Z M211,220 L211,230 L213,230 L213,220 Z M212,229 L212,231 L216,231 L216,229 Z M216,229 L216,231 L224,231 L224,229 Z M224,229 L224,231 L232,231 L232,229 Z M232,229 L232,231 L240,231 L240,229 Z M240,229 L240,231 L248,231 L248,229 Z M248,229 L248,231 L256,231 L256,229 Z M256,229 L256,231 L264,231 L264,229 Z M264,229 L264,231 L272,231 L272,229 Z M272,229 L272,231 L280,231 L280,229 Z M280,229 L280,231 L288,231 L288,229 Z M288,229 L288,231 L296,231 L296,229 Z M299,229 L299,231 L301,231 L301,229 Z M299,220 L299,230 L301,230 L301,220 Z M296,229 L296,231 L300,231 L300,229 Z M475,220 L475,240 L477,240 L477,220 Z M499,220 L499,240 L501,240 L501,220 Z M11,240 L11,260 L13,260 L13,240 Z M35,240 L35,260 L37,260 L37,240 Z M75,249 L75,251 L77,251 L77,249 Z M75,250 L75,260 L77,260 L77,250 Z M76,249 L76,251 L80,251 L80,249 Z M80,249 L80,251 L88,251 L88,249 Z M88,249 L88,251 L96,251 L96,249 Z M96,249 L96,251 L104,251 L104,249 Z M104,249 L104,251 L112,251 L112,249 Z M112,249 L112,251 L120,251 L120,249 Z M120,249 L120,251 L128,251 L128,249 Z M128,249 L128,251 L136,251 L136,249 Z M136,249 L136,251 L144,251 L144,249 Z M144,249 L144,251 L152,251 L152,249 Z M152,249 L152,251 L160,251 L160,249 Z M160,249 L160,251 L168,251 L168,249 Z M168,249 L168,251 L176,251 L176,249 Z M176,249 L176,251 L184,251 L184,249 Z M184,249 L184,251 L192,251 L192,249 Z M192,249 L192,251 L200,251 L200,249 Z M200,249 L200,251 L208,251 L208,249 Z M208,249 L208,251 L216,251 L216,249 Z M216,249 L216,251 L224,251 L224,249 Z M224,249 L224,251 L232,251 L232,249 Z M232,249 L232,251 L240,251 L240,249 Z M240,249 L240,251 L248,251 L248,249 Z M248,249 L248,251 L256,251 L256,249 Z M259,249 L259,251 L261,251 L261,249 Z M259,250 L259,260 L261,260 L261,250 Z M256,249 L256,251 L260,251 L260,249 Z M283,249 L283,251 L285,251 L285,249 Z M283,250 L283,260 L285,260 L285,250 Z M284,249 L284,251 L288,251 L288,249 Z M288,249 L288,251 L296,251 L296,249 Z M296,249 L296,251 L304,251 L304,249 Z M304,249 L304,251 L312,251 L312,249 Z M312,249 L312,251 L320,251 L320,249 Z M320,249 L320,251 L328,251 L328,249 Z M328,249 L328,251 L336,251 L336,249 Z M336,249 L336,251 L344,251 L344,249 Z M344,249 L344,251 L352,251 L352,249 Z M352,249 L352,251 L360,251 L360,249 Z M360,249 L360,251 L368,251 L368,249 Z M368,249 L368,251 L376,251 L376,249 Z M376,249 L376,251 L384,251 L384,249 Z M384,249 L384,251 L392,251 L392,249 Z M392,249 L392,251 L400,251 L400,249 Z M400,249 L400,251 L408,251 L408,249 Z M408,249 L408,251 L416,251 L416,249 Z M419,249 L419,251 L421,251 L421,249 Z M419,250 L419,260 L421,260 L421,250 Z M416,249 L416,251 L420,251 L420,249 Z M475,240 L475,260 L477,260 L477,240 Z M499,240 L499,260 L501,260 L501,240 Z M11,260 L11,280 L13,280 L13,260 Z M35,260 L35,280 L37,280 L37,260 Z M75,260 L75,280 L77,280 L77,260 Z M259,260 L259,280 L261,280 L261,260 Z M283,260 L283,280 L285,280 L285,260 Z M419,260 L419,280 L421,280 L421,260 Z M475,260 L475,280 L477,280 L477,260 Z M499,260 L499,280 L501,280 L501,260 Z M11,280 L11,300 L13,300 L13,280 Z M35,280 L35,300 L37,300 L37,280 Z M75,289 L75,291 L77,291 L77,289 Z M75,280 L75,290 L77,290 L77,280 Z M76,289 L76,291 L80,291 L80,289 Z M80,289 L80,291 L88,291 L88,289 Z M88,289 L88,291 L96,291 L96,289 Z M96,289 L96,291 L104,291 L104,289 Z M104,289 L104,291 L112,291 L112,289 Z M112,289 L112,291 L120,291 L120,289 Z M120,289 L120,291 L128,291 L128,289 Z M128,289 L128,291 L136,291 L136,289 Z M136,289 L136,291 L144,291 L144,289 Z M144,289 L144,291 L152,291 L152,289 Z M152,289 L152,291 L160,291 L160,289 Z M160,289 L160,291 L168,291 L168,289 Z M168,289 L168,291 L176,291 L176,289 Z M176,289 L176,291 L184,291 L184,289 Z M184,289 L184,291 L192,291 L192,289 Z M192,289 L192,291 L200,291 L200,289 Z M200,289 L200,291 L208,291 L208,289 Z M208,289 L208,291 L216,291 L216,289 Z M216,289 L216,291 L224,291 L224,289 Z M224,289 L224,291 L232,291 L232,289 Z M232,289 L232,291 L240,291 L240,289 Z M240,289 L240,291 L248,291 L248,289 Z M248,289 L248,291 L256,291 L256,289 Z M259,289 L259,291 L261,291 L261,289 Z M259,280 L259,290 L261,290 L261,280 Z M256,289 L256,291 L260,291 L260,289 Z M283,289 L283,291 L285,291 L285,289 Z M283,280 L283,290 L285,290 L285,280 Z M284,289 L284,291 L288,291 L288,289 Z M288,289 L288,291 L296,291 L296,289 Z M296,289 L296,291 L304,291 L304,289 Z M304,289 L304,291 L312,291 L312,289 Z M312,289 L312,291 L320,291 L320,289 Z M320,289 L320,291 L328,291 L328,289 Z M328,289 L328,291 L336,291 L336,289 Z M336,289 L336,291 L344,291 L344,289 Z M344,289 L344,291 L352,291 L352,289 Z M352,289 L352,291 L360,291 L360,289 Z M360,289 L360,291 L368,291 L368,289 Z M368,289 L368,291 L376,291 L376,289 Z M376,289 L376,291 L384,291 L384,289 Z M384,289 L384,291 L392,291 L392,289 Z M392,289 L392,291 L400,291 L400,289 Z M400,289 L400,291 L408,291 L408,289 Z M408,289 L408,291 L416,291 L416,289 Z M419,289 L419,291 L421,291 L421,289 Z M419,280 L419,290 L421,290 L421,280 Z M416,289 L416,291 L420,291 L420,289 Z M475,280 L475,300 L477,300 L477,280 Z M499,280 L499,300 L501,300 L501,280 Z M11,300 L11,320 L13,320 L13,300 Z M35,300 L35,320 L37,320 L37,300 Z M59,309 L59,311 L61,311 L61,309 Z M59,310 L59,320 L61,320 L61,310 Z M60,309 L60,311 L64,311 L64,309 Z M64,309 L64,311 L72,311 L72,309 Z M72,309 L72,311 L80,311 L80,309 Z M80,309 L80,311 L88,311 L88,309 Z M88,309 L88,311 L96,311 L96,309 Z M96,309 L96,311 L104,311 L104,309 Z M104,309 L104,311 L112,311 L112,309 Z M112,309 L112,311 L120,311 L120,309 Z M120,309 L120,311 L128,311 L128,309 Z M128,309 L128,311 L136,311 L136,309 Z M136,309 L136,311 L144,311 L144,309 Z M144,309 L144,311 L152,311 L152,309 Z M152,309 L152,311 L160,311 L160,309 Z M160,309 L160,311 L168,311 L168,309 Z M168,309 L168,311 L176,311 L176,309 Z M176,309 L176,311 L184,311 L184,309 Z M184,309 L184,311 L192,311 L192,309 Z M192,309 L192,311 L200,311 L200,309 Z M200,309 L200,311 L208,311 L208,309 Z M208,309 L208,311 L216,311 L216,309 Z M216,309 L216,311 L224,311 L224,309 Z M224,309 L224,311 L232,311 L232,309 Z M232,309 L232,311 L240,311 L240,309 Z M243,309 L243,311 L245,311 L245,309 Z M243,310 L243,320 L245,320 L245,310 Z M240,309 L240,311 L244,311 L244,309 Z M267,309 L267,311 L269,311 L269,309 Z M267,310 L267,320 L269,320 L269,310 Z M268,309 L268,311 L272,311 L272,309 Z M272,309 L272,311 L280,311 L280,309 Z M280,309 L280,311 L288,311 L288,309 Z M288,309 L288,311 L296,311 L296,309 Z M296,309 L296,311 L304,311 L304,309 Z M304,309 L304,311 L312,311 L312,309 Z M312,309 L312,311 L320,311 L320,309 Z M320,309 L320,311 L328,311 L328,309 Z M328,309 L328,311 L336,311 L336,309 Z M336,309 L336,311 L344,311 L344,309 Z M344,309 L344,311 L352,311 L352,309 Z M352,309 L352,311 L360,311 L360,309 Z M360,309 L360,311 L368,311 L368,309 Z M368,309 L368,311 L376,311 L376,309 Z M376,309 L376,311 L384,311 L384,309 Z M384,309 L384,311 L392,311 L392,309 Z M392,309 L392,311 L400,311 L400,309 Z M400,309 L400,311 L408,311 L408,309 Z M408,309 L408,311 L416,311 L416,309 Z M416,309 L416,311 L424,311 L424,309 Z M424,309 L424,311 L432,311 L432,309 Z M432,309 L432,311 L440,311 L440,309 Z M440,309 L440,311 L448,311 L448,309 Z M451,309 L451,311 L453,311 L453,309 Z M451,310 L451,320 L453,320 L453,310 Z M448,309 L448,311 L452,311 L452,309 Z M475,300 L475,320 L477,320 L477,300 Z M499,300 L499,320 L501,320 L501,300 Z M11,320 L11,340 L13,340 L13,320 Z M35,320 L35,340 L37,340 L37,320 Z M59,320 L59,340 L61,340 L61,320 Z M243,320 L243,340 L245,340 L245,320 Z M267,320 L267,340 L269,340 L269,320 Z M451,320 L451,340 L453,340 L453,320 Z M475,320 L475,340 L477,340 L477,320 Z M499,320 L499,340 L501,340 L501,320 Z M11,340 L11,360 L13,360 L13,340 Z M35,340 L35,360 L37,360 L37,340 Z M59,349 L59,351 L61,351 L61,349 Z M59,340 L59,350 L61,350 L61,340 Z M60,349 L60,351 L64,351 L64,349 Z M64,349 L64,351 L72,351 L72,349 Z M72,349 L72,351 L80,351 L80,349 Z M80,349 L80,351 L88,351 L88,349 Z M88,349 L88,351 L96,351 L96,349 Z M96,349 L96,351 L104,351 L104,349 Z M104,349 L104,351 L112,351 L112,349 Z M112,349 L112,351 L120,351 L120,349 Z M120,349 L120,351 L128,351 L128,349 Z M128,349 L128,351 L136,351 L136,349 Z M136,349 L136,351 L144,351 L144,349 Z M144,349 L144,351 L152,351 L152,349 Z M152,349 L152,351 L160,351 L160,349 Z M160,349 L160,351 L168,351 L168,349 Z M168,349 L168,351 L176,351 L176,349 Z M176,349 L176,351 L184,351 L184,349 Z M184,349 L184,351 L192,351 L192,349 Z M192,349 L192,351 L200,351 L200,349 Z M200,349 L200,351 L208,351 L208,349 Z M208,349 L208,351 L216,351 L216,349 Z M216,349 L216,351 L224,351 L224,349 Z M224,349 L224,351 L232,351 L232,349 Z M232,349 L232,351 L240,351 L240,349 Z M243,349 L243,351 L245,351 L245,349 Z M243,340 L243,350 L245,350 L245,340 Z M240,349 L240,351 L244,351 L244,349 Z M267,349 L267,351 L269,351 L269,349 Z M267,340 L267,350 L269,350 L269,340 Z M268,349 L268,351 L272,351 L272,349 Z M272,349 L272,351 L280,351 L280,349 Z M280,349 L280,351 L288,351 L288,349 Z M288,349 L288,351 L296,351 L296,349 Z M296,349 L296,351 L304,351 L304,349 Z M304,349 L304,351 L312,351 L312,349 Z M312,349 L312,351 L320,351 L320,349 Z M320,349 L320,351 L328,351 L328,349 Z M328,349 L328,351 L336,351 L336,349 Z M336,349 L336,351 L344,351 L344,349 Z M344,349 L344,351 L352,351 L352,349 Z M352,349 L352,351 L360,351 L360,349 Z M360,349 L360,351 L368,351 L368,349 Z M368,349 L368,351 L376,351 L376,349 Z M376,349 L376,351 L384,351 L384,349 Z M384,349 L384,351 L392,351 L392,349 Z M392,349 L392,351 L400,351 L400,349 Z M400,349 L400,351 L408,351 L408,349 Z M408,349 L408,351 L416,351 L416,349 Z M416,349 L416,351 L424,351 L424,349 Z M424,349 L424,351 L432,351 L432,349 Z M432,349 L432,351 L440,351 L440,349 Z M440,349 L440,351 L448,351 L448,349 Z M451,349 L451,351 L453,351 L453,349 Z M451,340 L451,350 L453,350 L453,340 Z M448,349 L448,351 L452,351 L452,349 Z M475,340 L475,360 L477,360 L477,340 Z M499,340 L499,360 L501,360 L501,340 Z M11,360 L11,380 L13,380 L13,360 Z M35,360 L35,380 L37,380 L37,360 Z M475,360 L475,380 L477,380 L477,360 Z M499,360 L499,380 L501,380 L501,360 Z M11,380 L11,400 L13,400 L13,380 Z M35,389 L35,391 L37,391 L37,389 Z M35,380 L35,390 L37,390 L37,380 Z M36,389 L36,391 L40,391 L40,389 Z M40,389 L40,391 L48,391 L48,389 Z M48,389 L48,391 L56,391 L56,389 Z M56,389 L56,391 L64,391 L64,389 Z M64,389 L64,391 L72,391 L72,389 Z M72,389 L72,391 L80,391 L80,389 Z M80,389 L80,391 L88,391 L88,389 Z M88,389 L88,391 L96,391 L96,389 Z M96,389 L96,391 L104,391 L104,389 Z M104,389 L104,391 L112,391 L112,389 Z M112,389 L112,391 L120,391 L120,389 Z M120,389 L120,391 L128,391 L128,389 Z M128,389 L128,391 L136,391 L136,389 Z M136,389 L136,391 L144,391 L144,389 Z M144,389 L144,391 L152,391 L152,389 Z M152,389 L152,391 L160,391 L160,389 Z M160,389 L160,391 L168,391 L168,389 Z M168,389 L168,391 L176,391 L176,389 Z M176,389 L176,391 L184,391 L184,389 Z M184,389 L184,391 L192,391 L192,389 Z M192,389 L192,391 L200,391 L200,389 Z M200,389 L200,391 L208,391 L208,389 Z M208,389 L208,391 L216,391 L216,389 Z M216,389 L216,391 L224,391 L224,389 Z M224,389 L224,391 L232,391 L232,389 Z M232,389 L232,391 L240,391 L240,389 Z M240,389 L240,391 L248,391 L248,389 Z M248,389 L248,391 L256,391 L256,389 Z M256,389 L256,391 L264,391 L264,389 Z M264,389 L264,391 L272,391 L272,389 Z M272,389 L272,391 L280,391 L280,389 Z M280,389 L280,391 L288,391 L288,389 Z M288,389 L288,391 L296,391 L296,389 Z M296,389 L296,391 L304,391 L304,389 Z M304,389 L304,391 L312,391 L312,389 Z M312,389 L312,391 L320,391 L320,389 Z M320,389 L320,391 L328,391 L328,389 Z M328,389 L328,391 L336,391 L336,389 Z M336,389 L336,391 L344,391 L344,389 Z M344,389 L344,391 L352,391 L352,389 Z M352,389 L352,391 L360,391 L360,389 Z M360,389 L360,391 L368,391 L368,389 Z M368,389 L368,391 L376,391 L376,389 Z M376,389 L376,391 L384,391 L384,389 Z M384,389 L384,391 L392,391 L392,389 Z M392,389 L392,391 L400,391 L400,389 Z M400,389 L400,391 L408,391 L408,389 Z M408,389 L408,391 L416,391 L416,389 Z M416,389 L416,391 L424,391 L424,389 Z M424,389 L424,391 L432,391 L432,389 Z M432,389 L432,391 L440,391 L440,389 Z M440,389 L440,391 L448,391 L448,389 Z M448,389 L448,391 L456,391 L456,389 Z M456,389 L456,391 L464,391 L464,389 Z M464,389 L464,391 L472,391 L472,389 Z M475,389 L475,391 L477,391 L477,389 Z M475,380 L475,390 L477,390 L477,380 Z M472,389 L472,391 L476,391 L476,389 Z M499,380 L499,400 L501,400 L501,380 Z M11,409 L11,411 L13,411 L13,409 Z M11,400 L11,410 L13,410 L13,400 Z M12,409 L12,411 L16,411 L16,409 Z M16,409 L16,411 L24,411 L24,409 Z M24,409 L24,411 L32,411 L32,409 Z M32,409 L32,411 L40,411 L40,409 Z M40,409 L40,411 L48,411 L48,409 Z M48,409 L48,411 L56,411 L56,409 Z M56,409 L56,411 L64,411 L64,409 Z M64,409 L64,411 L72,411 L72,409 Z M72,409 L72,411 L80,411 L80,409 Z M80,409 L80,411 L88,411 L88,409 Z M88,409 L88,411 L96,411 L96,409 Z M96,409 L96,411 L104,411 L104,409 Z M104,409 L104,411 L112,411 L112,409 Z M112,409 L112,411 L120,411 L120,409 Z M120,409 L120,411 L128,411 L128,409 Z M128,409 L128,411 L136,411 L136,409 Z M136,409 L136,411 L144,411 L144,409 Z M144,409 L144,411 L152,411 L152,409 Z M152,409 L152,411 L160,411 L160,409 Z M160,409 L160,411 L168,411 L168,409 Z M168,409 L168,411 L176,411 L176,409 Z M176,409 L176,411 L184,411 L184,409 Z M184,409 L184,411 L192,411 L192,409 Z M192,409 L192,411 L200,411 L200,409 Z M200,409 L200,411 L208,411 L208,409 Z M208,409 L208,411 L216,411 L216,409 Z M216,409 L216,411 L224,411 L224,409 Z M224,409 L224,411 L232,411 L232,409 Z M232,409 L232,411 L240,411 L240,409 Z M240,409 L240,411 L248,411 L248,409 Z M248,409 L248,411 L256,411 L256,409 Z M256,409 L256,411 L264,411 L264,409 Z M264,409 L264,411 L272,411 L272,409 Z M272,409 L272,411 L280,411 L280,409 Z M280,409 L280,411 L288,411 L288,409 Z M288,409 L288,411 L296,411 L296,409 Z M296,409 L296,411 L304,411 L304,409 Z M304,409 L304,411 L312,411 L312,409 Z M312,409 L312,411 L320,411 L320,409 Z M320,409 L320,411 L328,411 L328,409 Z M328,409 L328,411 L336,411 L336,409 Z M336,409 L336,411 L344,411 L344,409 Z M344,409 L344,411 L352,411 L352,409 Z M352,409 L352,411 L360,411 L360,409 Z M360,409 L360,411 L368,411 L368,409 Z M368,409 L368,411 L376,411 L376,409 Z M376,409 L376,411 L384,411 L384,409 Z M384,409 L384,411 L392,411 L392,409 Z M392,409 L392,411 L400,411 L400,409 Z M400,409 L400,411 L408,411 L408,409 Z M408,409 L408,411 L416,411 L416,409 Z M416,409 L416,411 L424,411 L424,409 Z M424,409 L424,411 L432,411 L432,409 Z M432,409 L432,411 L440,411 L440,409 Z M440,409 L440,411 L448,411 L448,409 Z M448,409 L448,411 L456,411 L456,409 Z M456,409 L456,411 L464,411 L464,409 Z M464,409 L464,411 L472,411 L472,409 Z M472,409 L472,411 L480,411 L480,409 Z M480,409 L480,411 L488,411 L488,409 Z M488,409 L488,411 L496,411 L496,409 Z M499,409 L499,411 L501,411 L501,409 Z M499,400 L499,410 L501,410 L501,400 Z M496,409 L496,411 L500,411 L500,409 Z " fill="#000" stroke="#000" stroke-width="0.1px" />
</svg>