<?xml version="1.0" encoding="utf-8"?>
<!-- Generator: Adobe Illustrator 21.0.0, SVG Export Plug-In . SVG Version: 6.00 Build 0)  -->
<svg version="1.1" id="レイヤー_1" xmlns="http://www.w3.org/2000/svg" xmlns:xlink="http://www.w3.org/1999/xlink" x="0px"
	 y="0px" viewBox="0 0 200 200" style="enable-background:new 0 0 200 200;" xml:space="preserve">
<style type="text/css">
	.st0{fill:#FFFFFF;}
	.st1{fill:#939393;}
</style>
<path class="st0" d="M159.8,79.2C159.8,79.2,159.8,79.2,159.8,79.2c0.3-1.8,0.5-3.6,0.5-5.5c0-14.1-11.4-25.5-25.5-25.5
	c-7.7,0-14.7,3.5-19.3,8.9c-3.3-6.6-10.1-11.2-18-11.2c-8.8,0-16.2,5.6-18.9,13.4c-4.3-3.2-9.6-5.1-15.3-5.1
	c-14.1,0-25.5,11.4-25.5,25.5c0,1.7,0.2,3.3,0.5,4.9c-10.5,0.6-18.9,9.3-18.9,20c0,11.1,9,20,20,20c0.4,0,0.7,0,1.1,0
	c-0.6,2-1,4.1-1,6.3c0,11.1,9,20,20,20c5.6,0,10.6-2.3,14.3-6c4.4,7.7,12.6,12.9,22.1,12.9c8.7,0,16.3-4.3,20.9-10.9
	c3.7,2,7.9,3.2,12.4,3.2c14.1,0,25.5-11.4,25.5-25.5c0-2.2-0.3-4.3-0.8-6.3c1.8,0.6,3.8,0.9,5.8,0.9c11.1,0,20-9,20-20
	C179.9,88.2,170.9,79.2,159.8,79.2"/>
<path class="st1" d="M159.8,79.2C159.8,79.2,159.8,79.2,159.8,79.2c0.3-1.8,0.5-3.6,0.5-5.5c0-14.1-11.4-25.5-25.5-25.5
	c-7.7,0-14.7,3.5-19.3,8.9c-3.3-6.6-10.1-11.2-18-11.2c-8.8,0-16.2,5.6-18.9,13.4c-4.3-3.2-9.6-5.1-15.3-5.1
	c-14.1,0-25.5,11.4-25.5,25.5c0,1.7,0.2,3.3,0.5,4.9c-10.5,0.6-18.9,9.3-18.9,20c0,11.1,9,20,20,20c0.4,0,0.7,0,1.1,0
	c-0.6,2-1,4.1-1,6.3c0,11.1,9,20,20,20c5.6,0,10.6-2.3,14.3-6c4.4,7.7,12.6,12.9,22.1,12.9c8.7,0,16.3-4.3,20.9-10.9
	c3.7,2,7.9,3.2,12.4,3.2c14.1,0,25.5-11.4,25.5-25.5c0-2.2-0.3-4.3-0.8-6.3c1.8,0.6,3.8,0.9,5.8,0.9c11.1,0,20-9,20-20
	C179.9,88.2,170.9,79.2,159.8,79.2z"/>
</svg>
