<?xml version="1.0"?>
<svg width="760" height="300" viewBox="0 0 760 300"
    xmlns="http://www.w3.org/2000/svg" version="1.1">
	<text x="516" y="30" font-family="MS Gothic, monospace" font-weight="normal" font-size="16px" fill="#000" dominant-baseline="central" text-anchor="middle">&lt;</text>
	<text x="524" y="30" font-family="MS Gothic, monospace" font-weight="normal" font-size="16px" fill="#000" dominant-baseline="central" text-anchor="middle">a</text>
	<text x="532" y="30" font-family="MS Gothic, monospace" font-weight="normal" font-size="16px" fill="#000" dominant-baseline="central" text-anchor="middle">r</text>
	<text x="540" y="30" font-family="MS Gothic, monospace" font-weight="normal" font-size="16px" fill="#000" dominant-baseline="central" text-anchor="middle">t</text>
	<text x="548" y="30" font-family="MS Gothic, monospace" font-weight="normal" font-size="16px" fill="#000" dominant-baseline="central" text-anchor="middle">i</text>
	<text x="556" y="30" font-family="MS Gothic, monospace" font-weight="normal" font-size="16px" fill="#000" dominant-baseline="central" text-anchor="middle">c</text>
	<text x="564" y="30" font-family="MS Gothic, monospace" font-weight="normal" font-size="16px" fill="#000" dominant-baseline="central" text-anchor="middle">l</text>
	<text x="572" y="30" font-family="MS Gothic, monospace" font-weight="normal" font-size="16px" fill="#000" dominant-baseline="central" text-anchor="middle">e</text>
	<text x="580" y="30" font-family="MS Gothic, monospace" font-weight="normal" font-size="16px" fill="#000" dominant-baseline="central" text-anchor="middle">&gt;</text>
	<text x="296" y="50" font-family="Meiryo, sans-serif" font-weight="normal" font-size="16px" fill="#000" dominant-baseline="central" text-anchor="middle">選</text>
	<text x="312" y="50" font-family="Meiryo, sans-serif" font-weight="normal" font-size="16px" fill="#000" dominant-baseline="central" text-anchor="middle">択</text>
	<text x="532" y="50" font-family="MS Gothic, monospace" font-weight="normal" font-size="16px" fill="#000" dominant-baseline="central" text-anchor="middle">&lt;</text>
	<text x="540" y="50" font-family="MS Gothic, monospace" font-weight="normal" font-size="16px" fill="#000" dominant-baseline="central" text-anchor="middle">s</text>
	<text x="548" y="50" font-family="MS Gothic, monospace" font-weight="normal" font-size="16px" fill="#000" dominant-baseline="central" text-anchor="middle">e</text>
	<text x="556" y="50" font-family="MS Gothic, monospace" font-weight="normal" font-size="16px" fill="#000" dominant-baseline="central" text-anchor="middle">c</text>
	<text x="564" y="50" font-family="MS Gothic, monospace" font-weight="normal" font-size="16px" fill="#000" dominant-baseline="central" text-anchor="middle">t</text>
	<text x="572" y="50" font-family="MS Gothic, monospace" font-weight="normal" font-size="16px" fill="#000" dominant-baseline="central" text-anchor="middle">i</text>
	<text x="580" y="50" font-family="MS Gothic, monospace" font-weight="normal" font-size="16px" fill="#000" dominant-baseline="central" text-anchor="middle">o</text>
	<text x="588" y="50" font-family="MS Gothic, monospace" font-weight="normal" font-size="16px" fill="#000" dominant-baseline="central" text-anchor="middle">n</text>
	<text x="596" y="50" font-family="MS Gothic, monospace" font-weight="normal" font-size="16px" fill="#000" dominant-baseline="central" text-anchor="middle">&gt;</text>
	<text x="20" y="90" font-family="MS Gothic, monospace" font-weight="normal" font-size="16px" fill="#000" dominant-baseline="central" text-anchor="middle">d</text>
	<text x="28" y="90" font-family="MS Gothic, monospace" font-weight="normal" font-size="16px" fill="#000" dominant-baseline="central" text-anchor="middle">o</text>
	<text x="36" y="90" font-family="MS Gothic, monospace" font-weight="normal" font-size="16px" fill="#000" dominant-baseline="central" text-anchor="middle">c</text>
	<text x="44" y="90" font-family="MS Gothic, monospace" font-weight="normal" font-size="16px" fill="#000" dominant-baseline="central" text-anchor="middle">u</text>
	<text x="52" y="90" font-family="MS Gothic, monospace" font-weight="normal" font-size="16px" fill="#000" dominant-baseline="central" text-anchor="middle">m</text>
	<text x="60" y="90" font-family="MS Gothic, monospace" font-weight="normal" font-size="16px" fill="#000" dominant-baseline="central" text-anchor="middle">e</text>
	<text x="68" y="90" font-family="MS Gothic, monospace" font-weight="normal" font-size="16px" fill="#000" dominant-baseline="central" text-anchor="middle">n</text>
	<text x="76" y="90" font-family="MS Gothic, monospace" font-weight="normal" font-size="16px" fill="#000" dominant-baseline="central" text-anchor="middle">t</text>
	<text x="84" y="90" font-family="MS Gothic, monospace" font-weight="normal" font-size="16px" fill="#000" dominant-baseline="central" text-anchor="middle">.</text>
	<text x="92" y="90" font-family="MS Gothic, monospace" font-weight="normal" font-size="16px" fill="#000" dominant-baseline="central" text-anchor="middle">q</text>
	<text x="100" y="90" font-family="MS Gothic, monospace" font-weight="normal" font-size="16px" fill="#000" dominant-baseline="central" text-anchor="middle">u</text>
	<text x="108" y="90" font-family="MS Gothic, monospace" font-weight="normal" font-size="16px" fill="#000" dominant-baseline="central" text-anchor="middle">e</text>
	<text x="116" y="90" font-family="MS Gothic, monospace" font-weight="normal" font-size="16px" fill="#000" dominant-baseline="central" text-anchor="middle">r</text>
	<text x="124" y="90" font-family="MS Gothic, monospace" font-weight="normal" font-size="16px" fill="#000" dominant-baseline="central" text-anchor="middle">y</text>
	<text x="132" y="90" font-family="MS Gothic, monospace" font-weight="normal" font-size="16px" fill="#000" dominant-baseline="central" text-anchor="middle">S</text>
	<text x="140" y="90" font-family="MS Gothic, monospace" font-weight="normal" font-size="16px" fill="#000" dominant-baseline="central" text-anchor="middle">e</text>
	<text x="148" y="90" font-family="MS Gothic, monospace" font-weight="normal" font-size="16px" fill="#000" dominant-baseline="central" text-anchor="middle">l</text>
	<text x="156" y="90" font-family="MS Gothic, monospace" font-weight="normal" font-size="16px" fill="#000" dominant-baseline="central" text-anchor="middle">e</text>
	<text x="164" y="90" font-family="MS Gothic, monospace" font-weight="normal" font-size="16px" fill="#000" dominant-baseline="central" text-anchor="middle">c</text>
	<text x="172" y="90" font-family="MS Gothic, monospace" font-weight="normal" font-size="16px" fill="#000" dominant-baseline="central" text-anchor="middle">t</text>
	<text x="180" y="90" font-family="MS Gothic, monospace" font-weight="normal" font-size="16px" fill="#000" dominant-baseline="central" text-anchor="middle">o</text>
	<text x="188" y="90" font-family="MS Gothic, monospace" font-weight="normal" font-size="16px" fill="#000" dominant-baseline="central" text-anchor="middle">r</text>
	<text x="196" y="90" font-family="MS Gothic, monospace" font-weight="normal" font-size="16px" fill="#000" dominant-baseline="central" text-anchor="middle">(</text>
	<text x="204" y="90" font-family="MS Gothic, monospace" font-weight="normal" font-size="16px" fill="#000" dominant-baseline="central" text-anchor="middle">'</text>
	<text x="212" y="90" font-family="MS Gothic, monospace" font-weight="normal" font-size="16px" fill="#000" dominant-baseline="central" text-anchor="middle">C</text>
	<text x="220" y="90" font-family="MS Gothic, monospace" font-weight="normal" font-size="16px" fill="#000" dominant-baseline="central" text-anchor="middle">S</text>
	<text x="228" y="90" font-family="MS Gothic, monospace" font-weight="normal" font-size="16px" fill="#000" dominant-baseline="central" text-anchor="middle">S</text>
	<text x="240" y="90" font-family="Meiryo, sans-serif" font-weight="normal" font-size="16px" fill="#000" dominant-baseline="central" text-anchor="middle">セ</text>
	<text x="256" y="90" font-family="Meiryo, sans-serif" font-weight="normal" font-size="16px" fill="#000" dominant-baseline="central" text-anchor="middle">レ</text>
	<text x="272" y="90" font-family="Meiryo, sans-serif" font-weight="normal" font-size="16px" fill="#000" dominant-baseline="central" text-anchor="middle">ク</text>
	<text x="288" y="90" font-family="Meiryo, sans-serif" font-weight="normal" font-size="16px" fill="#000" dominant-baseline="central" text-anchor="middle">タ</text>
	<text x="304" y="90" font-family="Meiryo, sans-serif" font-weight="normal" font-size="16px" fill="#000" dominant-baseline="central" text-anchor="middle">ー</text>
	<text x="316" y="90" font-family="MS Gothic, monospace" font-weight="normal" font-size="16px" fill="#000" dominant-baseline="central" text-anchor="middle">'</text>
	<text x="324" y="90" font-family="MS Gothic, monospace" font-weight="normal" font-size="16px" fill="#000" dominant-baseline="central" text-anchor="middle">)</text>
	<text x="332" y="90" font-family="MS Gothic, monospace" font-weight="normal" font-size="16px" fill="#000" dominant-baseline="central" text-anchor="middle">.</text>
	<text x="340" y="90" font-family="MS Gothic, monospace" font-weight="normal" font-size="16px" fill="#000" dominant-baseline="central" text-anchor="middle">i</text>
	<text x="348" y="90" font-family="MS Gothic, monospace" font-weight="normal" font-size="16px" fill="#000" dominant-baseline="central" text-anchor="middle">n</text>
	<text x="356" y="90" font-family="MS Gothic, monospace" font-weight="normal" font-size="16px" fill="#000" dominant-baseline="central" text-anchor="middle">n</text>
	<text x="364" y="90" font-family="MS Gothic, monospace" font-weight="normal" font-size="16px" fill="#000" dominant-baseline="central" text-anchor="middle">e</text>
	<text x="372" y="90" font-family="MS Gothic, monospace" font-weight="normal" font-size="16px" fill="#000" dominant-baseline="central" text-anchor="middle">r</text>
	<text x="380" y="90" font-family="MS Gothic, monospace" font-weight="normal" font-size="16px" fill="#000" dominant-baseline="central" text-anchor="middle">H</text>
	<text x="388" y="90" font-family="MS Gothic, monospace" font-weight="normal" font-size="16px" fill="#000" dominant-baseline="central" text-anchor="middle">T</text>
	<text x="396" y="90" font-family="MS Gothic, monospace" font-weight="normal" font-size="16px" fill="#000" dominant-baseline="central" text-anchor="middle">M</text>
	<text x="404" y="90" font-family="MS Gothic, monospace" font-weight="normal" font-size="16px" fill="#000" dominant-baseline="central" text-anchor="middle">L</text>
	<text x="548" y="90" font-family="MS Gothic, monospace" font-weight="normal" font-size="16px" fill="#000" dominant-baseline="central" text-anchor="middle">&lt;</text>
	<text x="556" y="90" font-family="MS Gothic, monospace" font-weight="normal" font-size="16px" fill="#000" dominant-baseline="central" text-anchor="middle">d</text>
	<text x="564" y="90" font-family="MS Gothic, monospace" font-weight="normal" font-size="16px" fill="#000" dominant-baseline="central" text-anchor="middle">i</text>
	<text x="572" y="90" font-family="MS Gothic, monospace" font-weight="normal" font-size="16px" fill="#000" dominant-baseline="central" text-anchor="middle">v</text>
	<text x="588" y="90" font-family="MS Gothic, monospace" font-weight="normal" font-size="16px" fill="#000" dominant-baseline="central" text-anchor="middle">c</text>
	<text x="596" y="90" font-family="MS Gothic, monospace" font-weight="normal" font-size="16px" fill="#000" dominant-baseline="central" text-anchor="middle">l</text>
	<text x="604" y="90" font-family="MS Gothic, monospace" font-weight="normal" font-size="16px" fill="#000" dominant-baseline="central" text-anchor="middle">a</text>
	<text x="612" y="90" font-family="MS Gothic, monospace" font-weight="normal" font-size="16px" fill="#000" dominant-baseline="central" text-anchor="middle">s</text>
	<text x="620" y="90" font-family="MS Gothic, monospace" font-weight="normal" font-size="16px" fill="#000" dominant-baseline="central" text-anchor="middle">s</text>
	<text x="628" y="90" font-family="MS Gothic, monospace" font-weight="normal" font-size="16px" fill="#000" dominant-baseline="central" text-anchor="middle">=</text>
	<text x="636" y="90" font-family="MS Gothic, monospace" font-weight="normal" font-size="16px" fill="#000" dominant-baseline="central" text-anchor="middle">"</text>
	<text x="644" y="90" font-family="MS Gothic, monospace" font-weight="normal" font-size="16px" fill="#000" dominant-baseline="central" text-anchor="middle">m</text>
	<text x="652" y="90" font-family="MS Gothic, monospace" font-weight="normal" font-size="16px" fill="#000" dominant-baseline="central" text-anchor="middle">e</text>
	<text x="660" y="90" font-family="MS Gothic, monospace" font-weight="normal" font-size="16px" fill="#000" dominant-baseline="central" text-anchor="middle">n</text>
	<text x="668" y="90" font-family="MS Gothic, monospace" font-weight="normal" font-size="16px" fill="#000" dominant-baseline="central" text-anchor="middle">u</text>
	<text x="676" y="90" font-family="MS Gothic, monospace" font-weight="normal" font-size="16px" fill="#000" dominant-baseline="central" text-anchor="middle">"</text>
	<text x="684" y="90" font-family="MS Gothic, monospace" font-weight="normal" font-size="16px" fill="#000" dominant-baseline="central" text-anchor="middle">&gt;</text>
	<text x="564" y="130" font-family="MS Gothic, monospace" font-weight="normal" font-size="16px" fill="#000" dominant-baseline="central" text-anchor="middle">&lt;</text>
	<text x="572" y="130" font-family="MS Gothic, monospace" font-weight="normal" font-size="16px" fill="#000" dominant-baseline="central" text-anchor="middle">s</text>
	<text x="580" y="130" font-family="MS Gothic, monospace" font-weight="normal" font-size="16px" fill="#000" dominant-baseline="central" text-anchor="middle">p</text>
	<text x="588" y="130" font-family="MS Gothic, monospace" font-weight="normal" font-size="16px" fill="#000" dominant-baseline="central" text-anchor="middle">a</text>
	<text x="596" y="130" font-family="MS Gothic, monospace" font-weight="normal" font-size="16px" fill="#000" dominant-baseline="central" text-anchor="middle">n</text>
	<text x="612" y="130" font-family="MS Gothic, monospace" font-weight="normal" font-size="16px" fill="#000" dominant-baseline="central" text-anchor="middle">c</text>
	<text x="620" y="130" font-family="MS Gothic, monospace" font-weight="normal" font-size="16px" fill="#000" dominant-baseline="central" text-anchor="middle">l</text>
	<text x="628" y="130" font-family="MS Gothic, monospace" font-weight="normal" font-size="16px" fill="#000" dominant-baseline="central" text-anchor="middle">a</text>
	<text x="636" y="130" font-family="MS Gothic, monospace" font-weight="normal" font-size="16px" fill="#000" dominant-baseline="central" text-anchor="middle">s</text>
	<text x="644" y="130" font-family="MS Gothic, monospace" font-weight="normal" font-size="16px" fill="#000" dominant-baseline="central" text-anchor="middle">s</text>
	<text x="652" y="130" font-family="MS Gothic, monospace" font-weight="normal" font-size="16px" fill="#000" dominant-baseline="central" text-anchor="middle">=</text>
	<text x="660" y="130" font-family="MS Gothic, monospace" font-weight="normal" font-size="16px" fill="#000" dominant-baseline="central" text-anchor="middle">"</text>
	<text x="668" y="130" font-family="MS Gothic, monospace" font-weight="normal" font-size="16px" fill="#000" dominant-baseline="central" text-anchor="middle">n</text>
	<text x="676" y="130" font-family="MS Gothic, monospace" font-weight="normal" font-size="16px" fill="#000" dominant-baseline="central" text-anchor="middle">a</text>
	<text x="684" y="130" font-family="MS Gothic, monospace" font-weight="normal" font-size="16px" fill="#000" dominant-baseline="central" text-anchor="middle">m</text>
	<text x="692" y="130" font-family="MS Gothic, monospace" font-weight="normal" font-size="16px" fill="#000" dominant-baseline="central" text-anchor="middle">e</text>
	<text x="700" y="130" font-family="MS Gothic, monospace" font-weight="normal" font-size="16px" fill="#000" dominant-baseline="central" text-anchor="middle">"</text>
	<text x="708" y="130" font-family="MS Gothic, monospace" font-weight="normal" font-size="16px" fill="#000" dominant-baseline="central" text-anchor="middle">&gt;</text>
	<text x="592" y="150" font-family="Meiryo, sans-serif" font-weight="normal" font-size="16px" fill="#000" dominant-baseline="central" text-anchor="middle">カ</text>
	<text x="608" y="150" font-family="Meiryo, sans-serif" font-weight="normal" font-size="16px" fill="#000" dominant-baseline="central" text-anchor="middle">ル</text>
	<text x="624" y="150" font-family="Meiryo, sans-serif" font-weight="normal" font-size="16px" fill="#000" dominant-baseline="central" text-anchor="middle">ボ</text>
	<text x="640" y="150" font-family="Meiryo, sans-serif" font-weight="normal" font-size="16px" fill="#000" dominant-baseline="central" text-anchor="middle">ナ</text>
	<text x="656" y="150" font-family="Meiryo, sans-serif" font-weight="normal" font-size="16px" fill="#000" dominant-baseline="central" text-anchor="middle">ー</text>
	<text x="672" y="150" font-family="Meiryo, sans-serif" font-weight="normal" font-size="16px" fill="#000" dominant-baseline="central" text-anchor="middle">ラ</text>
	<text x="564" y="170" font-family="MS Gothic, monospace" font-weight="normal" font-size="16px" fill="#000" dominant-baseline="central" text-anchor="middle">&lt;</text>
	<text x="572" y="170" font-family="MS Gothic, monospace" font-weight="normal" font-size="16px" fill="#000" dominant-baseline="central" text-anchor="middle">/</text>
	<text x="580" y="170" font-family="MS Gothic, monospace" font-weight="normal" font-size="16px" fill="#000" dominant-baseline="central" text-anchor="middle">s</text>
	<text x="588" y="170" font-family="MS Gothic, monospace" font-weight="normal" font-size="16px" fill="#000" dominant-baseline="central" text-anchor="middle">p</text>
	<text x="596" y="170" font-family="MS Gothic, monospace" font-weight="normal" font-size="16px" fill="#000" dominant-baseline="central" text-anchor="middle">a</text>
	<text x="604" y="170" font-family="MS Gothic, monospace" font-weight="normal" font-size="16px" fill="#000" dominant-baseline="central" text-anchor="middle">n</text>
	<text x="612" y="170" font-family="MS Gothic, monospace" font-weight="normal" font-size="16px" fill="#000" dominant-baseline="central" text-anchor="middle">&gt;</text>
	<text x="548" y="210" font-family="MS Gothic, monospace" font-weight="normal" font-size="16px" fill="#000" dominant-baseline="central" text-anchor="middle">&lt;</text>
	<text x="556" y="210" font-family="MS Gothic, monospace" font-weight="normal" font-size="16px" fill="#000" dominant-baseline="central" text-anchor="middle">/</text>
	<text x="564" y="210" font-family="MS Gothic, monospace" font-weight="normal" font-size="16px" fill="#000" dominant-baseline="central" text-anchor="middle">d</text>
	<text x="572" y="210" font-family="MS Gothic, monospace" font-weight="normal" font-size="16px" fill="#000" dominant-baseline="central" text-anchor="middle">i</text>
	<text x="580" y="210" font-family="MS Gothic, monospace" font-weight="normal" font-size="16px" fill="#000" dominant-baseline="central" text-anchor="middle">v</text>
	<text x="588" y="210" font-family="MS Gothic, monospace" font-weight="normal" font-size="16px" fill="#000" dominant-baseline="central" text-anchor="middle">&gt;</text>
	<text x="532" y="250" font-family="MS Gothic, monospace" font-weight="normal" font-size="16px" fill="#000" dominant-baseline="central" text-anchor="middle">&lt;</text>
	<text x="540" y="250" font-family="MS Gothic, monospace" font-weight="normal" font-size="16px" fill="#000" dominant-baseline="central" text-anchor="middle">/</text>
	<text x="548" y="250" font-family="MS Gothic, monospace" font-weight="normal" font-size="16px" fill="#000" dominant-baseline="central" text-anchor="middle">s</text>
	<text x="556" y="250" font-family="MS Gothic, monospace" font-weight="normal" font-size="16px" fill="#000" dominant-baseline="central" text-anchor="middle">e</text>
	<text x="564" y="250" font-family="MS Gothic, monospace" font-weight="normal" font-size="16px" fill="#000" dominant-baseline="central" text-anchor="middle">c</text>
	<text x="572" y="250" font-family="MS Gothic, monospace" font-weight="normal" font-size="16px" fill="#000" dominant-baseline="central" text-anchor="middle">t</text>
	<text x="580" y="250" font-family="MS Gothic, monospace" font-weight="normal" font-size="16px" fill="#000" dominant-baseline="central" text-anchor="middle">i</text>
	<text x="588" y="250" font-family="MS Gothic, monospace" font-weight="normal" font-size="16px" fill="#000" dominant-baseline="central" text-anchor="middle">o</text>
	<text x="596" y="250" font-family="MS Gothic, monospace" font-weight="normal" font-size="16px" fill="#000" dominant-baseline="central" text-anchor="middle">n</text>
	<text x="604" y="250" font-family="MS Gothic, monospace" font-weight="normal" font-size="16px" fill="#000" dominant-baseline="central" text-anchor="middle">&gt;</text>
	<text x="516" y="270" font-family="MS Gothic, monospace" font-weight="normal" font-size="16px" fill="#000" dominant-baseline="central" text-anchor="middle">&lt;</text>
	<text x="524" y="270" font-family="MS Gothic, monospace" font-weight="normal" font-size="16px" fill="#000" dominant-baseline="central" text-anchor="middle">/</text>
	<text x="532" y="270" font-family="MS Gothic, monospace" font-weight="normal" font-size="16px" fill="#000" dominant-baseline="central" text-anchor="middle">a</text>
	<text x="540" y="270" font-family="MS Gothic, monospace" font-weight="normal" font-size="16px" fill="#000" dominant-baseline="central" text-anchor="middle">r</text>
	<text x="548" y="270" font-family="MS Gothic, monospace" font-weight="normal" font-size="16px" fill="#000" dominant-baseline="central" text-anchor="middle">t</text>
	<text x="556" y="270" font-family="MS Gothic, monospace" font-weight="normal" font-size="16px" fill="#000" dominant-baseline="central" text-anchor="middle">i</text>
	<text x="564" y="270" font-family="MS Gothic, monospace" font-weight="normal" font-size="16px" fill="#000" dominant-baseline="central" text-anchor="middle">c</text>
	<text x="572" y="270" font-family="MS Gothic, monospace" font-weight="normal" font-size="16px" fill="#000" dominant-baseline="central" text-anchor="middle">l</text>
	<text x="580" y="270" font-family="MS Gothic, monospace" font-weight="normal" font-size="16px" fill="#000" dominant-baseline="central" text-anchor="middle">e</text>
	<text x="588" y="270" font-family="MS Gothic, monospace" font-weight="normal" font-size="16px" fill="#000" dominant-baseline="central" text-anchor="middle">&gt;</text>
	<path d="M267,49 L267,51 L269,51 L269,49 Z M267,50 L267,60 L269,60 L269,50 Z M268,49 L268,51 L272,51 L272,49 Z M272,49 L272,51 L280,51 L280,49 Z M280,49 L280,51 L288,51 L288,49 Z M320,49 L320,51 L328,51 L328,49 Z M328,49 L328,51 L336,51 L336,49 Z M336,49 L336,51 L344,51 L344,49 Z M344,49 L344,51 L352,51 L352,49 Z M352,49 L352,51 L360,51 L360,49 Z M360,49 L360,51 L368,51 L368,49 Z M368,49 L368,51 L376,51 L376,49 Z M376,49 L376,51 L384,51 L384,49 Z M384,49 L384,51 L392,51 L392,49 Z M392,49 L392,51 L400,51 L400,49 Z M400,49 L400,51 L408,51 L408,49 Z M408,49 L408,51 L416,51 L416,49 Z M416,49 L416,51 L424,51 L424,49 Z M424,49 L424,51 L432,51 L432,49 Z M432,49 L432,51 L440,51 L440,49 Z M440,49 L440,51 L448,51 L448,49 Z M451,49 L451,51 L453,51 L453,49 Z M451,50 L451,60 L453,60 L453,50 Z M448,49 L448,51 L452,51 L452,49 Z M267,60 L267,80 L269,80 L269,60 Z M451,60 L451,80 L453,80 L453,60 Z M531,69 L531,71 L533,71 L533,69 Z M531,70 L531,80 L533,80 L533,70 Z M532,69 L532,71 L536,71 L536,69 Z M536,69 L536,71 L544,71 L544,69 Z M544,69 L544,71 L552,71 L552,69 Z M552,69 L552,71 L560,71 L560,69 Z M560,69 L560,71 L568,71 L568,69 Z M568,69 L568,71 L576,71 L576,69 Z M576,69 L576,71 L584,71 L584,69 Z M584,69 L584,71 L592,71 L592,69 Z M592,69 L592,71 L600,71 L600,69 Z M600,69 L600,71 L608,71 L608,69 Z M608,69 L608,71 L616,71 L616,69 Z M616,69 L616,71 L624,71 L624,69 Z M624,69 L624,71 L632,71 L632,69 Z M632,69 L632,71 L640,71 L640,69 Z M640,69 L640,71 L648,71 L648,69 Z M648,69 L648,71 L656,71 L656,69 Z M656,69 L656,71 L664,71 L664,69 Z M664,69 L664,71 L672,71 L672,69 Z M672,69 L672,71 L680,71 L680,69 Z M680,69 L680,71 L688,71 L688,69 Z M688,69 L688,71 L696,71 L696,69 Z M696,69 L696,71 L704,71 L704,69 Z M704,69 L704,71 L712,71 L712,69 Z M712,69 L712,71 L720,71 L720,69 Z M720,69 L720,71 L728,71 L728,69 Z M728,69 L728,71 L736,71 L736,69 Z M739,69 L739,71 L741,71 L741,69 Z M739,70 L739,80 L741,80 L741,70 Z M736,69 L736,71 L740,71 L740,69 Z M451,89 L451,91 L453,91 L453,89 Z M451,80 L451,90 L453,90 L453,80 Z M452,89 L452,91 L456,91 L456,89 Z M456,89 L456,91 L464,91 L464,89 Z M464,89 L464,91 L472,91 L472,89 Z M472,89 L472,91 L480,91 L480,89 Z M480,89 L480,91 L488,91 L488,89 Z M488,89 L488,91 L496,91 L496,89 Z M496,89 L496,91 L504,91 L504,89 Z M504,89 L504,91 L512,91 L512,89 Z M512,89 L512,91 L520,91 L520,89 Z M528,90 L520,95 L520,85 Z M531,80 L531,100 L533,100 L533,80 Z M739,80 L739,100 L741,100 L741,80 Z M371,100 L371,120 L373,120 L373,100 Z M531,100 L531,120 L533,120 L533,100 Z M547,109 L547,111 L549,111 L549,109 Z M547,110 L547,120 L549,120 L549,110 Z M548,109 L548,111 L552,111 L552,109 Z M552,109 L552,111 L560,111 L560,109 Z M560,109 L560,111 L568,111 L568,109 Z M568,109 L568,111 L576,111 L576,109 Z M576,109 L576,111 L584,111 L584,109 Z M584,109 L584,111 L592,111 L592,109 Z M592,109 L592,111 L600,111 L600,109 Z M600,109 L600,111 L608,111 L608,109 Z M608,109 L608,111 L616,111 L616,109 Z M616,109 L616,111 L624,111 L624,109 Z M624,109 L624,111 L632,111 L632,109 Z M632,109 L632,111 L640,111 L640,109 Z M640,109 L640,111 L648,111 L648,109 Z M648,109 L648,111 L656,111 L656,109 Z M656,109 L656,111 L664,111 L664,109 Z M664,109 L664,111 L672,111 L672,109 Z M672,109 L672,111 L680,111 L680,109 Z M680,109 L680,111 L688,111 L688,109 Z M688,109 L688,111 L696,111 L696,109 Z M696,109 L696,111 L704,111 L704,109 Z M704,109 L704,111 L712,111 L712,109 Z M712,109 L712,111 L720,111 L720,109 Z M723,109 L723,111 L725,111 L725,109 Z M723,110 L723,120 L725,120 L725,110 Z M720,109 L720,111 L724,111 L724,109 Z M739,100 L739,120 L741,120 L741,100 Z M371,120 L371,140 L373,140 L373,120 Z M531,120 L531,140 L533,140 L533,120 Z M547,120 L547,140 L549,140 L549,120 Z M723,120 L723,140 L725,140 L725,120 Z M739,120 L739,140 L741,140 L741,120 Z M371,149 L371,151 L373,151 L373,149 Z M371,140 L371,150 L373,150 L373,140 Z M372,149 L372,151 L376,151 L376,149 Z M376,149 L376,151 L384,151 L384,149 Z M384,149 L384,151 L392,151 L392,149 Z M392,149 L392,151 L400,151 L400,149 Z M400,149 L400,151 L408,151 L408,149 Z M408,149 L408,151 L416,151 L416,149 Z M416,149 L416,151 L424,151 L424,149 Z M424,149 L424,151 L432,151 L432,149 Z M432,149 L432,151 L440,151 L440,149 Z M440,149 L440,151 L448,151 L448,149 Z M448,149 L448,151 L456,151 L456,149 Z M456,149 L456,151 L464,151 L464,149 Z M464,149 L464,151 L472,151 L472,149 Z M472,149 L472,151 L480,151 L480,149 Z M480,149 L480,151 L488,151 L488,149 Z M488,149 L488,151 L496,151 L496,149 Z M496,149 L496,151 L504,151 L504,149 Z M504,149 L504,151 L512,151 L512,149 Z M512,149 L512,151 L520,151 L520,149 Z M520,149 L520,151 L528,151 L528,149 Z M528,149 L528,151 L536,151 L536,149 Z M544,150 L536,155 L536,145 Z M547,140 L547,160 L549,160 L549,140 Z M723,140 L723,160 L725,160 L725,140 Z M739,140 L739,160 L741,160 L741,140 Z M531,160 L531,180 L533,180 L533,160 Z M547,160 L547,180 L549,180 L549,160 Z M723,160 L723,180 L725,180 L725,160 Z M739,160 L739,180 L741,180 L741,160 Z M531,180 L531,200 L533,200 L533,180 Z M547,189 L547,191 L549,191 L549,189 Z M547,180 L547,190 L549,190 L549,180 Z M548,189 L548,191 L552,191 L552,189 Z M552,189 L552,191 L560,191 L560,189 Z M560,189 L560,191 L568,191 L568,189 Z M568,189 L568,191 L576,191 L576,189 Z M576,189 L576,191 L584,191 L584,189 Z M584,189 L584,191 L592,191 L592,189 Z M592,189 L592,191 L600,191 L600,189 Z M600,189 L600,191 L608,191 L608,189 Z M608,189 L608,191 L616,191 L616,189 Z M616,189 L616,191 L624,191 L624,189 Z M624,189 L624,191 L632,191 L632,189 Z M632,189 L632,191 L640,191 L640,189 Z M640,189 L640,191 L648,191 L648,189 Z M648,189 L648,191 L656,191 L656,189 Z M656,189 L656,191 L664,191 L664,189 Z M664,189 L664,191 L672,191 L672,189 Z M672,189 L672,191 L680,191 L680,189 Z M680,189 L680,191 L688,191 L688,189 Z M688,189 L688,191 L696,191 L696,189 Z M696,189 L696,191 L704,191 L704,189 Z M704,189 L704,191 L712,191 L712,189 Z M712,189 L712,191 L720,191 L720,189 Z M723,189 L723,191 L725,191 L725,189 Z M723,180 L723,190 L725,190 L725,180 Z M720,189 L720,191 L724,191 L724,189 Z M739,180 L739,200 L741,200 L741,180 Z M531,200 L531,220 L533,220 L533,200 Z M739,200 L739,220 L741,220 L741,200 Z M531,229 L531,231 L533,231 L533,229 Z M531,220 L531,230 L533,230 L533,220 Z M532,229 L532,231 L536,231 L536,229 Z M536,229 L536,231 L544,231 L544,229 Z M544,229 L544,231 L552,231 L552,229 Z M552,229 L552,231 L560,231 L560,229 Z M560,229 L560,231 L568,231 L568,229 Z M568,229 L568,231 L576,231 L576,229 Z M576,229 L576,231 L584,231 L584,229 Z M584,229 L584,231 L592,231 L592,229 Z M592,229 L592,231 L600,231 L600,229 Z M600,229 L600,231 L608,231 L608,229 Z M608,229 L608,231 L616,231 L616,229 Z M616,229 L616,231 L624,231 L624,229 Z M624,229 L624,231 L632,231 L632,229 Z M632,229 L632,231 L640,231 L640,229 Z M640,229 L640,231 L648,231 L648,229 Z M648,229 L648,231 L656,231 L656,229 Z M656,229 L656,231 L664,231 L664,229 Z M664,229 L664,231 L672,231 L672,229 Z M672,229 L672,231 L680,231 L680,229 Z M680,229 L680,231 L688,231 L688,229 Z M688,229 L688,231 L696,231 L696,229 Z M696,229 L696,231 L704,231 L704,229 Z M704,229 L704,231 L712,231 L712,229 Z M712,229 L712,231 L720,231 L720,229 Z M720,229 L720,231 L728,231 L728,229 Z M728,229 L728,231 L736,231 L736,229 Z M739,229 L739,231 L741,231 L741,229 Z M739,220 L739,230 L741,230 L741,220 Z M736,229 L736,231 L740,231 L740,229 Z " fill="#000" stroke="#000" stroke-width="0.1px" />
</svg>