<?xml version="1.0"?>
<svg width="304" height="100" viewBox="0 0 304 100"
    xmlns="http://www.w3.org/2000/svg" version="1.1">
	<text x="24" y="30" font-family="'sans-serif'" font-weight="normal" font-size="16px" fill="#000" alignment-baseline="middle" text-anchor="middle">名</text>
	<text x="40" y="30" font-family="'sans-serif'" font-weight="normal" font-size="16px" fill="#000" alignment-baseline="middle" text-anchor="middle">前</text>
	<text x="56" y="30" font-family="'sans-serif'" font-weight="normal" font-size="16px" fill="#000" alignment-baseline="middle" text-anchor="middle">Ａ</text>
	<text x="80" y="30" font-family="'sans-serif'" font-weight="normal" font-size="16px" fill="#000" alignment-baseline="middle" text-anchor="middle">名</text>
	<text x="96" y="30" font-family="'sans-serif'" font-weight="normal" font-size="16px" fill="#000" alignment-baseline="middle" text-anchor="middle">前</text>
	<text x="112" y="30" font-family="'sans-serif'" font-weight="normal" font-size="16px" fill="#000" alignment-baseline="middle" text-anchor="middle">Ｂ</text>
	<text x="136" y="30" font-family="'sans-serif'" font-weight="normal" font-size="16px" fill="#000" alignment-baseline="middle" text-anchor="middle">名</text>
	<text x="152" y="30" font-family="'sans-serif'" font-weight="normal" font-size="16px" fill="#000" alignment-baseline="middle" text-anchor="middle">前</text>
	<text x="168" y="30" font-family="'sans-serif'" font-weight="normal" font-size="16px" fill="#000" alignment-baseline="middle" text-anchor="middle">Ｃ</text>
	<text x="200" y="30" font-family="'sans-serif'" font-weight="normal" font-size="16px" fill="#000" alignment-baseline="middle" text-anchor="middle">…</text>
	<text x="216" y="30" font-family="'sans-serif'" font-weight="normal" font-size="16px" fill="#000" alignment-baseline="middle" text-anchor="middle">…</text>
	<text x="256" y="30" font-family="'sans-serif'" font-weight="normal" font-size="16px" fill="#000" alignment-baseline="middle" text-anchor="middle">…</text>
	<text x="272" y="30" font-family="'sans-serif'" font-weight="normal" font-size="16px" fill="#000" alignment-baseline="middle" text-anchor="middle">…</text>
	<text x="32" y="70" font-family="'sans-serif'" font-weight="normal" font-size="16px" fill="#000" alignment-baseline="middle" text-anchor="middle">値</text>
	<text x="48" y="70" font-family="'sans-serif'" font-weight="normal" font-size="16px" fill="#000" alignment-baseline="middle" text-anchor="middle">Ａ</text>
	<text x="88" y="70" font-family="'sans-serif'" font-weight="normal" font-size="16px" fill="#000" alignment-baseline="middle" text-anchor="middle">値</text>
	<text x="104" y="70" font-family="'sans-serif'" font-weight="normal" font-size="16px" fill="#000" alignment-baseline="middle" text-anchor="middle">Ｂ</text>
	<text x="144" y="70" font-family="'sans-serif'" font-weight="normal" font-size="16px" fill="#000" alignment-baseline="middle" text-anchor="middle">値</text>
	<text x="160" y="70" font-family="'sans-serif'" font-weight="normal" font-size="16px" fill="#000" alignment-baseline="middle" text-anchor="middle">Ｃ</text>
	<text x="200" y="70" font-family="'sans-serif'" font-weight="normal" font-size="16px" fill="#000" alignment-baseline="middle" text-anchor="middle">…</text>
	<text x="216" y="70" font-family="'sans-serif'" font-weight="normal" font-size="16px" fill="#000" alignment-baseline="middle" text-anchor="middle">…</text>
	<text x="256" y="70" font-family="'sans-serif'" font-weight="normal" font-size="16px" fill="#000" alignment-baseline="middle" text-anchor="middle">…</text>
	<text x="272" y="70" font-family="'sans-serif'" font-weight="normal" font-size="16px" fill="#000" alignment-baseline="middle" text-anchor="middle">…</text>
	<path d="M11,9 L11,11 L13,11 L13,9 Z M11,10 L11,20 L13,20 L13,10 Z M12,9 L12,11 L16,11 L16,9 Z M16,9 L16,11 L24,11 L24,9 Z M24,9 L24,11 L32,11 L32,9 Z M32,9 L32,11 L40,11 L40,9 Z M40,9 L40,11 L48,11 L48,9 Z M48,9 L48,11 L56,11 L56,9 Z M56,9 L56,11 L64,11 L64,9 Z M67,9 L67,11 L69,11 L69,9 Z M67,10 L67,20 L69,20 L69,10 Z M64,9 L64,11 L68,11 L68,9 Z M68,9 L68,11 L72,11 L72,9 Z M72,9 L72,11 L80,11 L80,9 Z M80,9 L80,11 L88,11 L88,9 Z M88,9 L88,11 L96,11 L96,9 Z M96,9 L96,11 L104,11 L104,9 Z M104,9 L104,11 L112,11 L112,9 Z M112,9 L112,11 L120,11 L120,9 Z M123,9 L123,11 L125,11 L125,9 Z M123,10 L123,20 L125,20 L125,10 Z M120,9 L120,11 L124,11 L124,9 Z M124,9 L124,11 L128,11 L128,9 Z M128,9 L128,11 L136,11 L136,9 Z M136,9 L136,11 L144,11 L144,9 Z M144,9 L144,11 L152,11 L152,9 Z M152,9 L152,11 L160,11 L160,9 Z M160,9 L160,11 L168,11 L168,9 Z M168,9 L168,11 L176,11 L176,9 Z M179,9 L179,11 L181,11 L181,9 Z M179,10 L179,20 L181,20 L181,10 Z M176,9 L176,11 L180,11 L180,9 Z M180,9 L180,11 L184,11 L184,9 Z M184,9 L184,11 L192,11 L192,9 Z M192,9 L192,11 L200,11 L200,9 Z M200,9 L200,11 L208,11 L208,9 Z M208,9 L208,11 L216,11 L216,9 Z M216,9 L216,11 L224,11 L224,9 Z M224,9 L224,11 L232,11 L232,9 Z M235,9 L235,11 L237,11 L237,9 Z M235,10 L235,20 L237,20 L237,10 Z M232,9 L232,11 L236,11 L236,9 Z M236,9 L236,11 L240,11 L240,9 Z M240,9 L240,11 L248,11 L248,9 Z M248,9 L248,11 L256,11 L256,9 Z M256,9 L256,11 L264,11 L264,9 Z M264,9 L264,11 L272,11 L272,9 Z M272,9 L272,11 L280,11 L280,9 Z M280,9 L280,11 L288,11 L288,9 Z M291,9 L291,11 L293,11 L293,9 Z M291,10 L291,20 L293,20 L293,10 Z M288,9 L288,11 L292,11 L292,9 Z M11,20 L11,40 L13,40 L13,20 Z M67,20 L67,40 L69,40 L69,20 Z M123,20 L123,40 L125,40 L125,20 Z M179,20 L179,40 L181,40 L181,20 Z M235,20 L235,40 L237,40 L237,20 Z M291,20 L291,40 L293,40 L293,20 Z M11,49 L11,51 L13,51 L13,49 Z M11,40 L11,50 L13,50 L13,40 Z M11,50 L11,60 L13,60 L13,50 Z M12,49 L12,51 L16,51 L16,49 Z M16,49 L16,51 L24,51 L24,49 Z M24,49 L24,51 L32,51 L32,49 Z M32,49 L32,51 L40,51 L40,49 Z M40,49 L40,51 L48,51 L48,49 Z M48,49 L48,51 L56,51 L56,49 Z M56,49 L56,51 L64,51 L64,49 Z M67,49 L67,51 L69,51 L69,49 Z M67,40 L67,50 L69,50 L69,40 Z M67,50 L67,60 L69,60 L69,50 Z M64,49 L64,51 L68,51 L68,49 Z M68,49 L68,51 L72,51 L72,49 Z M72,49 L72,51 L80,51 L80,49 Z M80,49 L80,51 L88,51 L88,49 Z M88,49 L88,51 L96,51 L96,49 Z M96,49 L96,51 L104,51 L104,49 Z M104,49 L104,51 L112,51 L112,49 Z M112,49 L112,51 L120,51 L120,49 Z M123,49 L123,51 L125,51 L125,49 Z M123,40 L123,50 L125,50 L125,40 Z M123,50 L123,60 L125,60 L125,50 Z M120,49 L120,51 L124,51 L124,49 Z M124,49 L124,51 L128,51 L128,49 Z M128,49 L128,51 L136,51 L136,49 Z M136,49 L136,51 L144,51 L144,49 Z M144,49 L144,51 L152,51 L152,49 Z M152,49 L152,51 L160,51 L160,49 Z M160,49 L160,51 L168,51 L168,49 Z M168,49 L168,51 L176,51 L176,49 Z M179,49 L179,51 L181,51 L181,49 Z M179,40 L179,50 L181,50 L181,40 Z M179,50 L179,60 L181,60 L181,50 Z M176,49 L176,51 L180,51 L180,49 Z M180,49 L180,51 L184,51 L184,49 Z M184,49 L184,51 L192,51 L192,49 Z M192,49 L192,51 L200,51 L200,49 Z M200,49 L200,51 L208,51 L208,49 Z M208,49 L208,51 L216,51 L216,49 Z M216,49 L216,51 L224,51 L224,49 Z M224,49 L224,51 L232,51 L232,49 Z M235,49 L235,51 L237,51 L237,49 Z M235,40 L235,50 L237,50 L237,40 Z M235,50 L235,60 L237,60 L237,50 Z M232,49 L232,51 L236,51 L236,49 Z M236,49 L236,51 L240,51 L240,49 Z M240,49 L240,51 L248,51 L248,49 Z M248,49 L248,51 L256,51 L256,49 Z M256,49 L256,51 L264,51 L264,49 Z M264,49 L264,51 L272,51 L272,49 Z M272,49 L272,51 L280,51 L280,49 Z M280,49 L280,51 L288,51 L288,49 Z M291,49 L291,51 L293,51 L293,49 Z M291,40 L291,50 L293,50 L293,40 Z M291,50 L291,60 L293,60 L293,50 Z M288,49 L288,51 L292,51 L292,49 Z M11,60 L11,80 L13,80 L13,60 Z M67,60 L67,80 L69,80 L69,60 Z M123,60 L123,80 L125,80 L125,60 Z M179,60 L179,80 L181,80 L181,60 Z M235,60 L235,80 L237,80 L237,60 Z M291,60 L291,80 L293,80 L293,60 Z M11,89 L11,91 L13,91 L13,89 Z M11,80 L11,90 L13,90 L13,80 Z M12,89 L12,91 L16,91 L16,89 Z M16,89 L16,91 L24,91 L24,89 Z M24,89 L24,91 L32,91 L32,89 Z M32,89 L32,91 L40,91 L40,89 Z M40,89 L40,91 L48,91 L48,89 Z M48,89 L48,91 L56,91 L56,89 Z M56,89 L56,91 L64,91 L64,89 Z M67,89 L67,91 L69,91 L69,89 Z M67,80 L67,90 L69,90 L69,80 Z M64,89 L64,91 L68,91 L68,89 Z M68,89 L68,91 L72,91 L72,89 Z M72,89 L72,91 L80,91 L80,89 Z M80,89 L80,91 L88,91 L88,89 Z M88,89 L88,91 L96,91 L96,89 Z M96,89 L96,91 L104,91 L104,89 Z M104,89 L104,91 L112,91 L112,89 Z M112,89 L112,91 L120,91 L120,89 Z M123,89 L123,91 L125,91 L125,89 Z M123,80 L123,90 L125,90 L125,80 Z M120,89 L120,91 L124,91 L124,89 Z M124,89 L124,91 L128,91 L128,89 Z M128,89 L128,91 L136,91 L136,89 Z M136,89 L136,91 L144,91 L144,89 Z M144,89 L144,91 L152,91 L152,89 Z M152,89 L152,91 L160,91 L160,89 Z M160,89 L160,91 L168,91 L168,89 Z M168,89 L168,91 L176,91 L176,89 Z M179,89 L179,91 L181,91 L181,89 Z M179,80 L179,90 L181,90 L181,80 Z M176,89 L176,91 L180,91 L180,89 Z M180,89 L180,91 L184,91 L184,89 Z M184,89 L184,91 L192,91 L192,89 Z M192,89 L192,91 L200,91 L200,89 Z M200,89 L200,91 L208,91 L208,89 Z M208,89 L208,91 L216,91 L216,89 Z M216,89 L216,91 L224,91 L224,89 Z M224,89 L224,91 L232,91 L232,89 Z M235,89 L235,91 L237,91 L237,89 Z M235,80 L235,90 L237,90 L237,80 Z M232,89 L232,91 L236,91 L236,89 Z M236,89 L236,91 L240,91 L240,89 Z M240,89 L240,91 L248,91 L248,89 Z M248,89 L248,91 L256,91 L256,89 Z M256,89 L256,91 L264,91 L264,89 Z M264,89 L264,91 L272,91 L272,89 Z M272,89 L272,91 L280,91 L280,89 Z M280,89 L280,91 L288,91 L288,89 Z M291,89 L291,91 L293,91 L293,89 Z M291,80 L291,90 L293,90 L293,80 Z M288,89 L288,91 L292,91 L292,89 Z " fill="#000" stroke="#000" stroke-width="0.1px" />
</svg>