<?xml version="1.0"?>
<svg width="320" height="240" viewBox="0 0 320 240"
    xmlns="http://www.w3.org/2000/svg" version="1.1">
	<text x="24" y="30" font-family="Meiryo, sans-serif" font-weight="normal" font-size="16px" fill="#000" dominant-baseline="central" text-anchor="middle">○</text>
	<text x="40" y="30" font-family="Meiryo, sans-serif" font-weight="normal" font-size="16px" fill="#000" dominant-baseline="central" text-anchor="middle">○</text>
	<text x="52" y="30" font-family="MS Gothic, monospace" font-weight="normal" font-size="16px" fill="#000" dominant-baseline="central" text-anchor="middle">(</text>
	<text x="60" y="30" font-family="MS Gothic, monospace" font-weight="normal" font-size="16px" fill="#000" dominant-baseline="central" text-anchor="middle">)</text>
	<text x="76" y="30" font-family="MS Gothic, monospace" font-weight="normal" font-size="16px" fill="#000" dominant-baseline="central" text-anchor="middle">{</text>
	<text x="72" y="70" font-family="Meiryo, sans-serif" font-weight="normal" font-size="16px" fill="#000" dominant-baseline="central" text-anchor="middle">ス</text>
	<text x="88" y="70" font-family="Meiryo, sans-serif" font-weight="normal" font-size="16px" fill="#000" dominant-baseline="central" text-anchor="middle">コ</text>
	<text x="104" y="70" font-family="Meiryo, sans-serif" font-weight="normal" font-size="16px" fill="#000" dominant-baseline="central" text-anchor="middle">ー</text>
	<text x="120" y="70" font-family="Meiryo, sans-serif" font-weight="normal" font-size="16px" fill="#000" dominant-baseline="central" text-anchor="middle">プ</text>
	<text x="88" y="110" font-family="Meiryo, sans-serif" font-weight="normal" font-size="16px" fill="#000" dominant-baseline="central" text-anchor="middle">変</text>
	<text x="104" y="110" font-family="Meiryo, sans-serif" font-weight="normal" font-size="16px" fill="#000" dominant-baseline="central" text-anchor="middle">数</text>
	<text x="120" y="110" font-family="Meiryo, sans-serif" font-weight="normal" font-size="16px" fill="#000" dominant-baseline="central" text-anchor="middle">宣</text>
	<text x="136" y="110" font-family="Meiryo, sans-serif" font-weight="normal" font-size="16px" fill="#000" dominant-baseline="central" text-anchor="middle">言</text>
	<text x="152" y="110" font-family="Meiryo, sans-serif" font-weight="normal" font-size="16px" fill="#000" dominant-baseline="central" text-anchor="middle">ａ</text>
	<text x="20" y="170" font-family="MS Gothic, monospace" font-weight="normal" font-size="16px" fill="#000" dominant-baseline="central" text-anchor="middle">}</text>
	<text x="24" y="190" font-family="Meiryo, sans-serif" font-weight="normal" font-size="16px" fill="#000" dominant-baseline="central" text-anchor="middle">変</text>
	<text x="40" y="190" font-family="Meiryo, sans-serif" font-weight="normal" font-size="16px" fill="#000" dominant-baseline="central" text-anchor="middle">数</text>
	<text x="56" y="190" font-family="Meiryo, sans-serif" font-weight="normal" font-size="16px" fill="#000" dominant-baseline="central" text-anchor="middle">ａ</text>
	<text x="72" y="190" font-family="Meiryo, sans-serif" font-weight="normal" font-size="16px" fill="#000" dominant-baseline="central" text-anchor="middle">を</text>
	<text x="88" y="190" font-family="Meiryo, sans-serif" font-weight="normal" font-size="16px" fill="#000" dominant-baseline="central" text-anchor="middle">ス</text>
	<text x="104" y="190" font-family="Meiryo, sans-serif" font-weight="normal" font-size="16px" fill="#000" dominant-baseline="central" text-anchor="middle">コ</text>
	<text x="120" y="190" font-family="Meiryo, sans-serif" font-weight="normal" font-size="16px" fill="#000" dominant-baseline="central" text-anchor="middle">ー</text>
	<text x="136" y="190" font-family="Meiryo, sans-serif" font-weight="normal" font-size="16px" fill="#000" dominant-baseline="central" text-anchor="middle">プ</text>
	<text x="152" y="190" font-family="Meiryo, sans-serif" font-weight="normal" font-size="16px" fill="#000" dominant-baseline="central" text-anchor="middle">の</text>
	<text x="168" y="190" font-family="Meiryo, sans-serif" font-weight="normal" font-size="16px" fill="#000" dominant-baseline="central" text-anchor="middle">外</text>
	<text x="184" y="190" font-family="Meiryo, sans-serif" font-weight="normal" font-size="16px" fill="#000" dominant-baseline="central" text-anchor="middle">で</text>
	<text x="200" y="190" font-family="Meiryo, sans-serif" font-weight="normal" font-size="16px" fill="#000" dominant-baseline="central" text-anchor="middle">使</text>
	<text x="216" y="190" font-family="Meiryo, sans-serif" font-weight="normal" font-size="16px" fill="#000" dominant-baseline="central" text-anchor="middle">う</text>
	<text x="232" y="190" font-family="Meiryo, sans-serif" font-weight="normal" font-size="16px" fill="#000" dominant-baseline="central" text-anchor="middle">と</text>
	<text x="24" y="210" font-family="Meiryo, sans-serif" font-weight="normal" font-size="16px" fill="#000" dominant-baseline="central" text-anchor="middle">「</text>
	<text x="40" y="210" font-family="Meiryo, sans-serif" font-weight="normal" font-size="16px" fill="#000" dominant-baseline="central" text-anchor="middle">そ</text>
	<text x="56" y="210" font-family="Meiryo, sans-serif" font-weight="normal" font-size="16px" fill="#000" dominant-baseline="central" text-anchor="middle">の</text>
	<text x="72" y="210" font-family="Meiryo, sans-serif" font-weight="normal" font-size="16px" fill="#000" dominant-baseline="central" text-anchor="middle">変</text>
	<text x="88" y="210" font-family="Meiryo, sans-serif" font-weight="normal" font-size="16px" fill="#000" dominant-baseline="central" text-anchor="middle">数</text>
	<text x="104" y="210" font-family="Meiryo, sans-serif" font-weight="normal" font-size="16px" fill="#000" dominant-baseline="central" text-anchor="middle">は</text>
	<text x="120" y="210" font-family="Meiryo, sans-serif" font-weight="normal" font-size="16px" fill="#000" dominant-baseline="central" text-anchor="middle">使</text>
	<text x="136" y="210" font-family="Meiryo, sans-serif" font-weight="normal" font-size="16px" fill="#000" dominant-baseline="central" text-anchor="middle">え</text>
	<text x="152" y="210" font-family="Meiryo, sans-serif" font-weight="normal" font-size="16px" fill="#000" dominant-baseline="central" text-anchor="middle">な</text>
	<text x="168" y="210" font-family="Meiryo, sans-serif" font-weight="normal" font-size="16px" fill="#000" dominant-baseline="central" text-anchor="middle">い</text>
	<text x="184" y="210" font-family="Meiryo, sans-serif" font-weight="normal" font-size="16px" fill="#000" dominant-baseline="central" text-anchor="middle">」</text>
	<text x="200" y="210" font-family="Meiryo, sans-serif" font-weight="normal" font-size="16px" fill="#000" dominant-baseline="central" text-anchor="middle">と</text>
	<text x="216" y="210" font-family="Meiryo, sans-serif" font-weight="normal" font-size="16px" fill="#000" dominant-baseline="central" text-anchor="middle">エ</text>
	<text x="232" y="210" font-family="Meiryo, sans-serif" font-weight="normal" font-size="16px" fill="#000" dominant-baseline="central" text-anchor="middle">ラ</text>
	<text x="248" y="210" font-family="Meiryo, sans-serif" font-weight="normal" font-size="16px" fill="#000" dominant-baseline="central" text-anchor="middle">ー</text>
	<text x="264" y="210" font-family="Meiryo, sans-serif" font-weight="normal" font-size="16px" fill="#000" dominant-baseline="central" text-anchor="middle">に</text>
	<text x="280" y="210" font-family="Meiryo, sans-serif" font-weight="normal" font-size="16px" fill="#000" dominant-baseline="central" text-anchor="middle">な</text>
	<text x="296" y="210" font-family="Meiryo, sans-serif" font-weight="normal" font-size="16px" fill="#000" dominant-baseline="central" text-anchor="middle">る</text>
	<path d="M51,49 L51,51 L53,51 L53,49 Z M51,50 L51,60 L53,60 L53,50 Z M52,49 L52,51 L56,51 L56,49 Z M56,49 L56,51 L64,51 L64,49 Z M64,49 L64,51 L72,51 L72,49 Z M72,49 L72,51 L80,51 L80,49 Z M80,49 L80,51 L88,51 L88,49 Z M88,49 L88,51 L96,51 L96,49 Z M96,49 L96,51 L104,51 L104,49 Z M104,49 L104,51 L112,51 L112,49 Z M112,49 L112,51 L120,51 L120,49 Z M120,49 L120,51 L128,51 L128,49 Z M128,49 L128,51 L136,51 L136,49 Z M136,49 L136,51 L144,51 L144,49 Z M144,49 L144,51 L152,51 L152,49 Z M152,49 L152,51 L160,51 L160,49 Z M160,49 L160,51 L168,51 L168,49 Z M168,49 L168,51 L176,51 L176,49 Z M176,49 L176,51 L184,51 L184,49 Z M184,49 L184,51 L192,51 L192,49 Z M192,49 L192,51 L200,51 L200,49 Z M200,49 L200,51 L208,51 L208,49 Z M208,49 L208,51 L216,51 L216,49 Z M216,49 L216,51 L224,51 L224,49 Z M224,49 L224,51 L232,51 L232,49 Z M232,49 L232,51 L240,51 L240,49 Z M240,49 L240,51 L248,51 L248,49 Z M248,49 L248,51 L256,51 L256,49 Z M256,49 L256,51 L264,51 L264,49 Z M264,49 L264,51 L272,51 L272,49 Z M272,49 L272,51 L280,51 L280,49 Z M280,49 L280,51 L288,51 L288,49 Z M288,49 L288,51 L296,51 L296,49 Z M299,49 L299,51 L301,51 L301,49 Z M299,50 L299,60 L301,60 L301,50 Z M296,49 L296,51 L300,51 L300,49 Z M51,60 L51,80 L53,80 L53,60 Z M299,60 L299,80 L301,80 L301,60 Z M51,80 L51,100 L53,100 L53,80 Z M299,80 L299,100 L301,100 L301,80 Z M51,100 L51,120 L53,120 L53,100 Z M299,100 L299,120 L301,120 L301,100 Z M51,120 L51,140 L53,140 L53,120 Z M299,120 L299,140 L301,140 L301,120 Z M51,149 L51,151 L53,151 L53,149 Z M51,140 L51,150 L53,150 L53,140 Z M52,149 L52,151 L56,151 L56,149 Z M56,149 L56,151 L64,151 L64,149 Z M64,149 L64,151 L72,151 L72,149 Z M72,149 L72,151 L80,151 L80,149 Z M80,149 L80,151 L88,151 L88,149 Z M88,149 L88,151 L96,151 L96,149 Z M96,149 L96,151 L104,151 L104,149 Z M104,149 L104,151 L112,151 L112,149 Z M112,149 L112,151 L120,151 L120,149 Z M120,149 L120,151 L128,151 L128,149 Z M128,149 L128,151 L136,151 L136,149 Z M136,149 L136,151 L144,151 L144,149 Z M144,149 L144,151 L152,151 L152,149 Z M152,149 L152,151 L160,151 L160,149 Z M160,149 L160,151 L168,151 L168,149 Z M168,149 L168,151 L176,151 L176,149 Z M176,149 L176,151 L184,151 L184,149 Z M184,149 L184,151 L192,151 L192,149 Z M192,149 L192,151 L200,151 L200,149 Z M200,149 L200,151 L208,151 L208,149 Z M208,149 L208,151 L216,151 L216,149 Z M216,149 L216,151 L224,151 L224,149 Z M224,149 L224,151 L232,151 L232,149 Z M232,149 L232,151 L240,151 L240,149 Z M240,149 L240,151 L248,151 L248,149 Z M248,149 L248,151 L256,151 L256,149 Z M256,149 L256,151 L264,151 L264,149 Z M264,149 L264,151 L272,151 L272,149 Z M272,149 L272,151 L280,151 L280,149 Z M280,149 L280,151 L288,151 L288,149 Z M288,149 L288,151 L296,151 L296,149 Z M299,149 L299,151 L301,151 L301,149 Z M299,140 L299,150 L301,150 L301,140 Z M296,149 L296,151 L300,151 L300,149 Z " fill="#000" stroke="#000" stroke-width="0.1px" />
</svg>