<?xml version="1.0"?>
<svg width="488" height="460" viewBox="0 0 488 460"
    xmlns="http://www.w3.org/2000/svg" version="1.1">
	<text x="24" y="30" font-family="Meiryo, sans-serif" font-weight="normal" font-size="16px" fill="#000" dominant-baseline="central" text-anchor="middle">○</text>
	<text x="40" y="30" font-family="Meiryo, sans-serif" font-weight="normal" font-size="16px" fill="#000" dominant-baseline="central" text-anchor="middle">○</text>
	<text x="52" y="30" font-family="MS Gothic, monospace" font-weight="normal" font-size="16px" fill="#000" dominant-baseline="central" text-anchor="middle">(</text>
	<text x="60" y="30" font-family="MS Gothic, monospace" font-weight="normal" font-size="16px" fill="#000" dominant-baseline="central" text-anchor="middle">)</text>
	<text x="76" y="30" font-family="MS Gothic, monospace" font-weight="normal" font-size="16px" fill="#000" dominant-baseline="central" text-anchor="middle">{</text>
	<text x="72" y="70" font-family="Meiryo, sans-serif" font-weight="normal" font-size="16px" fill="#000" dominant-baseline="central" text-anchor="middle">ス</text>
	<text x="88" y="70" font-family="Meiryo, sans-serif" font-weight="normal" font-size="16px" fill="#000" dominant-baseline="central" text-anchor="middle">コ</text>
	<text x="104" y="70" font-family="Meiryo, sans-serif" font-weight="normal" font-size="16px" fill="#000" dominant-baseline="central" text-anchor="middle">ー</text>
	<text x="120" y="70" font-family="Meiryo, sans-serif" font-weight="normal" font-size="16px" fill="#000" dominant-baseline="central" text-anchor="middle">プ</text>
	<text x="88" y="110" font-family="Meiryo, sans-serif" font-weight="normal" font-size="16px" fill="#000" dominant-baseline="central" text-anchor="middle">変</text>
	<text x="104" y="110" font-family="Meiryo, sans-serif" font-weight="normal" font-size="16px" fill="#000" dominant-baseline="central" text-anchor="middle">数</text>
	<text x="120" y="110" font-family="Meiryo, sans-serif" font-weight="normal" font-size="16px" fill="#000" dominant-baseline="central" text-anchor="middle">宣</text>
	<text x="136" y="110" font-family="Meiryo, sans-serif" font-weight="normal" font-size="16px" fill="#000" dominant-baseline="central" text-anchor="middle">言</text>
	<text x="152" y="110" font-family="Meiryo, sans-serif" font-weight="normal" font-size="16px" fill="#000" dominant-baseline="central" text-anchor="middle">ａ</text>
	<text x="168" y="110" font-family="Meiryo, sans-serif" font-weight="normal" font-size="16px" fill="#000" dominant-baseline="central" text-anchor="middle">＝</text>
	<text x="184" y="110" font-family="Meiryo, sans-serif" font-weight="normal" font-size="16px" fill="#000" dominant-baseline="central" text-anchor="middle">２</text>
	<text x="88" y="130" font-family="Meiryo, sans-serif" font-weight="normal" font-size="16px" fill="#000" dominant-baseline="central" text-anchor="middle">こ</text>
	<text x="104" y="130" font-family="Meiryo, sans-serif" font-weight="normal" font-size="16px" fill="#000" dominant-baseline="central" text-anchor="middle">の</text>
	<text x="120" y="130" font-family="Meiryo, sans-serif" font-weight="normal" font-size="16px" fill="#000" dominant-baseline="central" text-anchor="middle">場</text>
	<text x="136" y="130" font-family="Meiryo, sans-serif" font-weight="normal" font-size="16px" fill="#000" dominant-baseline="central" text-anchor="middle">所</text>
	<text x="152" y="130" font-family="Meiryo, sans-serif" font-weight="normal" font-size="16px" fill="#000" dominant-baseline="central" text-anchor="middle">で</text>
	<text x="168" y="130" font-family="Meiryo, sans-serif" font-weight="normal" font-size="16px" fill="#000" dominant-baseline="central" text-anchor="middle">は</text>
	<text x="184" y="130" font-family="Meiryo, sans-serif" font-weight="normal" font-size="16px" fill="#000" dominant-baseline="central" text-anchor="middle">「</text>
	<text x="200" y="130" font-family="Meiryo, sans-serif" font-weight="normal" font-size="16px" fill="#000" dominant-baseline="central" text-anchor="middle">変</text>
	<text x="216" y="130" font-family="Meiryo, sans-serif" font-weight="normal" font-size="16px" fill="#000" dominant-baseline="central" text-anchor="middle">数</text>
	<text x="232" y="130" font-family="Meiryo, sans-serif" font-weight="normal" font-size="16px" fill="#000" dominant-baseline="central" text-anchor="middle">ａ</text>
	<text x="248" y="130" font-family="Meiryo, sans-serif" font-weight="normal" font-size="16px" fill="#000" dominant-baseline="central" text-anchor="middle">の</text>
	<text x="264" y="130" font-family="Meiryo, sans-serif" font-weight="normal" font-size="16px" fill="#000" dominant-baseline="central" text-anchor="middle">値</text>
	<text x="280" y="130" font-family="Meiryo, sans-serif" font-weight="normal" font-size="16px" fill="#000" dominant-baseline="central" text-anchor="middle">は</text>
	<text x="296" y="130" font-family="Meiryo, sans-serif" font-weight="normal" font-size="16px" fill="#000" dominant-baseline="central" text-anchor="middle">２</text>
	<text x="312" y="130" font-family="Meiryo, sans-serif" font-weight="normal" font-size="16px" fill="#000" dominant-baseline="central" text-anchor="middle">」</text>
	<text x="328" y="130" font-family="Meiryo, sans-serif" font-weight="normal" font-size="16px" fill="#000" dominant-baseline="central" text-anchor="middle">と</text>
	<text x="344" y="130" font-family="Meiryo, sans-serif" font-weight="normal" font-size="16px" fill="#000" dominant-baseline="central" text-anchor="middle">な</text>
	<text x="360" y="130" font-family="Meiryo, sans-serif" font-weight="normal" font-size="16px" fill="#000" dominant-baseline="central" text-anchor="middle">る</text>
	<text x="80" y="170" font-family="Meiryo, sans-serif" font-weight="normal" font-size="16px" fill="#000" dominant-baseline="central" text-anchor="middle">○</text>
	<text x="96" y="170" font-family="Meiryo, sans-serif" font-weight="normal" font-size="16px" fill="#000" dominant-baseline="central" text-anchor="middle">○</text>
	<text x="108" y="170" font-family="MS Gothic, monospace" font-weight="normal" font-size="16px" fill="#000" dominant-baseline="central" text-anchor="middle">(</text>
	<text x="116" y="170" font-family="MS Gothic, monospace" font-weight="normal" font-size="16px" fill="#000" dominant-baseline="central" text-anchor="middle">)</text>
	<text x="132" y="170" font-family="MS Gothic, monospace" font-weight="normal" font-size="16px" fill="#000" dominant-baseline="central" text-anchor="middle">{</text>
	<text x="128" y="210" font-family="Meiryo, sans-serif" font-weight="normal" font-size="16px" fill="#000" dominant-baseline="central" text-anchor="middle">ス</text>
	<text x="144" y="210" font-family="Meiryo, sans-serif" font-weight="normal" font-size="16px" fill="#000" dominant-baseline="central" text-anchor="middle">コ</text>
	<text x="160" y="210" font-family="Meiryo, sans-serif" font-weight="normal" font-size="16px" fill="#000" dominant-baseline="central" text-anchor="middle">ー</text>
	<text x="176" y="210" font-family="Meiryo, sans-serif" font-weight="normal" font-size="16px" fill="#000" dominant-baseline="central" text-anchor="middle">プ</text>
	<text x="144" y="250" font-family="Meiryo, sans-serif" font-weight="normal" font-size="16px" fill="#000" dominant-baseline="central" text-anchor="middle">変</text>
	<text x="160" y="250" font-family="Meiryo, sans-serif" font-weight="normal" font-size="16px" fill="#000" dominant-baseline="central" text-anchor="middle">数</text>
	<text x="176" y="250" font-family="Meiryo, sans-serif" font-weight="normal" font-size="16px" fill="#000" dominant-baseline="central" text-anchor="middle">宣</text>
	<text x="192" y="250" font-family="Meiryo, sans-serif" font-weight="normal" font-size="16px" fill="#000" dominant-baseline="central" text-anchor="middle">言</text>
	<text x="208" y="250" font-family="Meiryo, sans-serif" font-weight="normal" font-size="16px" fill="#000" dominant-baseline="central" text-anchor="middle">ａ</text>
	<text x="224" y="250" font-family="Meiryo, sans-serif" font-weight="normal" font-size="16px" fill="#000" dominant-baseline="central" text-anchor="middle">＝</text>
	<text x="240" y="250" font-family="Meiryo, sans-serif" font-weight="normal" font-size="16px" fill="#000" dominant-baseline="central" text-anchor="middle">３</text>
	<text x="144" y="270" font-family="Meiryo, sans-serif" font-weight="normal" font-size="16px" fill="#000" dominant-baseline="central" text-anchor="middle">こ</text>
	<text x="160" y="270" font-family="Meiryo, sans-serif" font-weight="normal" font-size="16px" fill="#000" dominant-baseline="central" text-anchor="middle">の</text>
	<text x="176" y="270" font-family="Meiryo, sans-serif" font-weight="normal" font-size="16px" fill="#000" dominant-baseline="central" text-anchor="middle">場</text>
	<text x="192" y="270" font-family="Meiryo, sans-serif" font-weight="normal" font-size="16px" fill="#000" dominant-baseline="central" text-anchor="middle">所</text>
	<text x="208" y="270" font-family="Meiryo, sans-serif" font-weight="normal" font-size="16px" fill="#000" dominant-baseline="central" text-anchor="middle">で</text>
	<text x="224" y="270" font-family="Meiryo, sans-serif" font-weight="normal" font-size="16px" fill="#000" dominant-baseline="central" text-anchor="middle">は</text>
	<text x="240" y="270" font-family="Meiryo, sans-serif" font-weight="normal" font-size="16px" fill="#000" dominant-baseline="central" text-anchor="middle">「</text>
	<text x="256" y="270" font-family="Meiryo, sans-serif" font-weight="normal" font-size="16px" fill="#000" dominant-baseline="central" text-anchor="middle">変</text>
	<text x="272" y="270" font-family="Meiryo, sans-serif" font-weight="normal" font-size="16px" fill="#000" dominant-baseline="central" text-anchor="middle">数</text>
	<text x="288" y="270" font-family="Meiryo, sans-serif" font-weight="normal" font-size="16px" fill="#000" dominant-baseline="central" text-anchor="middle">ａ</text>
	<text x="304" y="270" font-family="Meiryo, sans-serif" font-weight="normal" font-size="16px" fill="#000" dominant-baseline="central" text-anchor="middle">の</text>
	<text x="320" y="270" font-family="Meiryo, sans-serif" font-weight="normal" font-size="16px" fill="#000" dominant-baseline="central" text-anchor="middle">値</text>
	<text x="336" y="270" font-family="Meiryo, sans-serif" font-weight="normal" font-size="16px" fill="#000" dominant-baseline="central" text-anchor="middle">は</text>
	<text x="352" y="270" font-family="Meiryo, sans-serif" font-weight="normal" font-size="16px" fill="#000" dominant-baseline="central" text-anchor="middle">３</text>
	<text x="368" y="270" font-family="Meiryo, sans-serif" font-weight="normal" font-size="16px" fill="#000" dominant-baseline="central" text-anchor="middle">」</text>
	<text x="384" y="270" font-family="Meiryo, sans-serif" font-weight="normal" font-size="16px" fill="#000" dominant-baseline="central" text-anchor="middle">と</text>
	<text x="400" y="270" font-family="Meiryo, sans-serif" font-weight="normal" font-size="16px" fill="#000" dominant-baseline="central" text-anchor="middle">な</text>
	<text x="416" y="270" font-family="Meiryo, sans-serif" font-weight="normal" font-size="16px" fill="#000" dominant-baseline="central" text-anchor="middle">る</text>
	<text x="76" y="330" font-family="MS Gothic, monospace" font-weight="normal" font-size="16px" fill="#000" dominant-baseline="central" text-anchor="middle">}</text>
	<text x="88" y="370" font-family="Meiryo, sans-serif" font-weight="normal" font-size="16px" fill="#000" dominant-baseline="central" text-anchor="middle">こ</text>
	<text x="104" y="370" font-family="Meiryo, sans-serif" font-weight="normal" font-size="16px" fill="#000" dominant-baseline="central" text-anchor="middle">の</text>
	<text x="120" y="370" font-family="Meiryo, sans-serif" font-weight="normal" font-size="16px" fill="#000" dominant-baseline="central" text-anchor="middle">場</text>
	<text x="136" y="370" font-family="Meiryo, sans-serif" font-weight="normal" font-size="16px" fill="#000" dominant-baseline="central" text-anchor="middle">所</text>
	<text x="152" y="370" font-family="Meiryo, sans-serif" font-weight="normal" font-size="16px" fill="#000" dominant-baseline="central" text-anchor="middle">で</text>
	<text x="168" y="370" font-family="Meiryo, sans-serif" font-weight="normal" font-size="16px" fill="#000" dominant-baseline="central" text-anchor="middle">は</text>
	<text x="184" y="370" font-family="Meiryo, sans-serif" font-weight="normal" font-size="16px" fill="#000" dominant-baseline="central" text-anchor="middle">「</text>
	<text x="200" y="370" font-family="Meiryo, sans-serif" font-weight="normal" font-size="16px" fill="#000" dominant-baseline="central" text-anchor="middle">変</text>
	<text x="216" y="370" font-family="Meiryo, sans-serif" font-weight="normal" font-size="16px" fill="#000" dominant-baseline="central" text-anchor="middle">数</text>
	<text x="232" y="370" font-family="Meiryo, sans-serif" font-weight="normal" font-size="16px" fill="#000" dominant-baseline="central" text-anchor="middle">ａ</text>
	<text x="248" y="370" font-family="Meiryo, sans-serif" font-weight="normal" font-size="16px" fill="#000" dominant-baseline="central" text-anchor="middle">の</text>
	<text x="264" y="370" font-family="Meiryo, sans-serif" font-weight="normal" font-size="16px" fill="#000" dominant-baseline="central" text-anchor="middle">値</text>
	<text x="280" y="370" font-family="Meiryo, sans-serif" font-weight="normal" font-size="16px" fill="#000" dominant-baseline="central" text-anchor="middle">は</text>
	<text x="296" y="370" font-family="Meiryo, sans-serif" font-weight="normal" font-size="16px" fill="#000" dominant-baseline="central" text-anchor="middle">２</text>
	<text x="312" y="370" font-family="Meiryo, sans-serif" font-weight="normal" font-size="16px" fill="#000" dominant-baseline="central" text-anchor="middle">」</text>
	<text x="328" y="370" font-family="Meiryo, sans-serif" font-weight="normal" font-size="16px" fill="#000" dominant-baseline="central" text-anchor="middle">と</text>
	<text x="344" y="370" font-family="Meiryo, sans-serif" font-weight="normal" font-size="16px" fill="#000" dominant-baseline="central" text-anchor="middle">な</text>
	<text x="360" y="370" font-family="Meiryo, sans-serif" font-weight="normal" font-size="16px" fill="#000" dominant-baseline="central" text-anchor="middle">る</text>
	<text x="20" y="430" font-family="MS Gothic, monospace" font-weight="normal" font-size="16px" fill="#000" dominant-baseline="central" text-anchor="middle">}</text>
	<path d="M51,49 L51,51 L53,51 L53,49 Z M51,50 L51,60 L53,60 L53,50 Z M52,49 L52,51 L56,51 L56,49 Z M56,49 L56,51 L64,51 L64,49 Z M64,49 L64,51 L72,51 L72,49 Z M72,49 L72,51 L80,51 L80,49 Z M80,49 L80,51 L88,51 L88,49 Z M88,49 L88,51 L96,51 L96,49 Z M96,49 L96,51 L104,51 L104,49 Z M104,49 L104,51 L112,51 L112,49 Z M112,49 L112,51 L120,51 L120,49 Z M120,49 L120,51 L128,51 L128,49 Z M128,49 L128,51 L136,51 L136,49 Z M136,49 L136,51 L144,51 L144,49 Z M144,49 L144,51 L152,51 L152,49 Z M152,49 L152,51 L160,51 L160,49 Z M160,49 L160,51 L168,51 L168,49 Z M168,49 L168,51 L176,51 L176,49 Z M176,49 L176,51 L184,51 L184,49 Z M184,49 L184,51 L192,51 L192,49 Z M192,49 L192,51 L200,51 L200,49 Z M200,49 L200,51 L208,51 L208,49 Z M208,49 L208,51 L216,51 L216,49 Z M216,49 L216,51 L224,51 L224,49 Z M224,49 L224,51 L232,51 L232,49 Z M232,49 L232,51 L240,51 L240,49 Z M240,49 L240,51 L248,51 L248,49 Z M248,49 L248,51 L256,51 L256,49 Z M256,49 L256,51 L264,51 L264,49 Z M264,49 L264,51 L272,51 L272,49 Z M272,49 L272,51 L280,51 L280,49 Z M280,49 L280,51 L288,51 L288,49 Z M288,49 L288,51 L296,51 L296,49 Z M296,49 L296,51 L304,51 L304,49 Z M304,49 L304,51 L312,51 L312,49 Z M312,49 L312,51 L320,51 L320,49 Z M320,49 L320,51 L328,51 L328,49 Z M328,49 L328,51 L336,51 L336,49 Z M336,49 L336,51 L344,51 L344,49 Z M344,49 L344,51 L352,51 L352,49 Z M352,49 L352,51 L360,51 L360,49 Z M360,49 L360,51 L368,51 L368,49 Z M368,49 L368,51 L376,51 L376,49 Z M376,49 L376,51 L384,51 L384,49 Z M384,49 L384,51 L392,51 L392,49 Z M392,49 L392,51 L400,51 L400,49 Z M400,49 L400,51 L408,51 L408,49 Z M408,49 L408,51 L416,51 L416,49 Z M416,49 L416,51 L424,51 L424,49 Z M424,49 L424,51 L432,51 L432,49 Z M432,49 L432,51 L440,51 L440,49 Z M440,49 L440,51 L448,51 L448,49 Z M448,49 L448,51 L456,51 L456,49 Z M456,49 L456,51 L464,51 L464,49 Z M467,49 L467,51 L469,51 L469,49 Z M467,50 L467,60 L469,60 L469,50 Z M464,49 L464,51 L468,51 L468,49 Z M51,60 L51,80 L53,80 L53,60 Z M467,60 L467,80 L469,80 L469,60 Z M51,80 L51,100 L53,100 L53,80 Z M467,80 L467,100 L469,100 L469,80 Z M51,100 L51,120 L53,120 L53,100 Z M467,100 L467,120 L469,120 L469,100 Z M51,120 L51,140 L53,140 L53,120 Z M467,120 L467,140 L469,140 L469,120 Z M51,140 L51,160 L53,160 L53,140 Z M467,140 L467,160 L469,160 L469,140 Z M51,160 L51,180 L53,180 L53,160 Z M467,160 L467,180 L469,180 L469,160 Z M51,180 L51,200 L53,200 L53,180 Z M107,189 L107,191 L109,191 L109,189 Z M107,190 L107,200 L109,200 L109,190 Z M108,189 L108,191 L112,191 L112,189 Z M112,189 L112,191 L120,191 L120,189 Z M120,189 L120,191 L128,191 L128,189 Z M128,189 L128,191 L136,191 L136,189 Z M136,189 L136,191 L144,191 L144,189 Z M144,189 L144,191 L152,191 L152,189 Z M152,189 L152,191 L160,191 L160,189 Z M160,189 L160,191 L168,191 L168,189 Z M168,189 L168,191 L176,191 L176,189 Z M176,189 L176,191 L184,191 L184,189 Z M184,189 L184,191 L192,191 L192,189 Z M192,189 L192,191 L200,191 L200,189 Z M200,189 L200,191 L208,191 L208,189 Z M208,189 L208,191 L216,191 L216,189 Z M216,189 L216,191 L224,191 L224,189 Z M224,189 L224,191 L232,191 L232,189 Z M232,189 L232,191 L240,191 L240,189 Z M240,189 L240,191 L248,191 L248,189 Z M248,189 L248,191 L256,191 L256,189 Z M256,189 L256,191 L264,191 L264,189 Z M264,189 L264,191 L272,191 L272,189 Z M272,189 L272,191 L280,191 L280,189 Z M280,189 L280,191 L288,191 L288,189 Z M288,189 L288,191 L296,191 L296,189 Z M296,189 L296,191 L304,191 L304,189 Z M304,189 L304,191 L312,191 L312,189 Z M312,189 L312,191 L320,191 L320,189 Z M320,189 L320,191 L328,191 L328,189 Z M328,189 L328,191 L336,191 L336,189 Z M336,189 L336,191 L344,191 L344,189 Z M344,189 L344,191 L352,191 L352,189 Z M352,189 L352,191 L360,191 L360,189 Z M360,189 L360,191 L368,191 L368,189 Z M368,189 L368,191 L376,191 L376,189 Z M376,189 L376,191 L384,191 L384,189 Z M384,189 L384,191 L392,191 L392,189 Z M392,189 L392,191 L400,191 L400,189 Z M400,189 L400,191 L408,191 L408,189 Z M408,189 L408,191 L416,191 L416,189 Z M416,189 L416,191 L424,191 L424,189 Z M424,189 L424,191 L432,191 L432,189 Z M432,189 L432,191 L440,191 L440,189 Z M443,189 L443,191 L445,191 L445,189 Z M443,190 L443,200 L445,200 L445,190 Z M440,189 L440,191 L444,191 L444,189 Z M467,180 L467,200 L469,200 L469,180 Z M51,200 L51,220 L53,220 L53,200 Z M107,200 L107,220 L109,220 L109,200 Z M443,200 L443,220 L445,220 L445,200 Z M467,200 L467,220 L469,220 L469,200 Z M51,220 L51,240 L53,240 L53,220 Z M107,220 L107,240 L109,240 L109,220 Z M443,220 L443,240 L445,240 L445,220 Z M467,220 L467,240 L469,240 L469,220 Z M51,240 L51,260 L53,260 L53,240 Z M107,240 L107,260 L109,260 L109,240 Z M443,240 L443,260 L445,260 L445,240 Z M467,240 L467,260 L469,260 L469,240 Z M51,260 L51,280 L53,280 L53,260 Z M107,260 L107,280 L109,280 L109,260 Z M443,260 L443,280 L445,280 L445,260 Z M467,260 L467,280 L469,280 L469,260 Z M51,280 L51,300 L53,300 L53,280 Z M107,280 L107,300 L109,300 L109,280 Z M443,280 L443,300 L445,300 L445,280 Z M467,280 L467,300 L469,300 L469,280 Z M51,300 L51,320 L53,320 L53,300 Z M107,309 L107,311 L109,311 L109,309 Z M107,300 L107,310 L109,310 L109,300 Z M108,309 L108,311 L112,311 L112,309 Z M112,309 L112,311 L120,311 L120,309 Z M120,309 L120,311 L128,311 L128,309 Z M128,309 L128,311 L136,311 L136,309 Z M136,309 L136,311 L144,311 L144,309 Z M144,309 L144,311 L152,311 L152,309 Z M152,309 L152,311 L160,311 L160,309 Z M160,309 L160,311 L168,311 L168,309 Z M168,309 L168,311 L176,311 L176,309 Z M176,309 L176,311 L184,311 L184,309 Z M184,309 L184,311 L192,311 L192,309 Z M192,309 L192,311 L200,311 L200,309 Z M200,309 L200,311 L208,311 L208,309 Z M208,309 L208,311 L216,311 L216,309 Z M216,309 L216,311 L224,311 L224,309 Z M224,309 L224,311 L232,311 L232,309 Z M232,309 L232,311 L240,311 L240,309 Z M240,309 L240,311 L248,311 L248,309 Z M248,309 L248,311 L256,311 L256,309 Z M256,309 L256,311 L264,311 L264,309 Z M264,309 L264,311 L272,311 L272,309 Z M272,309 L272,311 L280,311 L280,309 Z M280,309 L280,311 L288,311 L288,309 Z M288,309 L288,311 L296,311 L296,309 Z M296,309 L296,311 L304,311 L304,309 Z M304,309 L304,311 L312,311 L312,309 Z M312,309 L312,311 L320,311 L320,309 Z M320,309 L320,311 L328,311 L328,309 Z M328,309 L328,311 L336,311 L336,309 Z M336,309 L336,311 L344,311 L344,309 Z M344,309 L344,311 L352,311 L352,309 Z M352,309 L352,311 L360,311 L360,309 Z M360,309 L360,311 L368,311 L368,309 Z M368,309 L368,311 L376,311 L376,309 Z M376,309 L376,311 L384,311 L384,309 Z M384,309 L384,311 L392,311 L392,309 Z M392,309 L392,311 L400,311 L400,309 Z M400,309 L400,311 L408,311 L408,309 Z M408,309 L408,311 L416,311 L416,309 Z M416,309 L416,311 L424,311 L424,309 Z M424,309 L424,311 L432,311 L432,309 Z M432,309 L432,311 L440,311 L440,309 Z M443,309 L443,311 L445,311 L445,309 Z M443,300 L443,310 L445,310 L445,300 Z M440,309 L440,311 L444,311 L444,309 Z M467,300 L467,320 L469,320 L469,300 Z M51,320 L51,340 L53,340 L53,320 Z M467,320 L467,340 L469,340 L469,320 Z M51,340 L51,360 L53,360 L53,340 Z M467,340 L467,360 L469,360 L469,340 Z M51,360 L51,380 L53,380 L53,360 Z M467,360 L467,380 L469,380 L469,360 Z M51,380 L51,400 L53,400 L53,380 Z M467,380 L467,400 L469,400 L469,380 Z M51,409 L51,411 L53,411 L53,409 Z M51,400 L51,410 L53,410 L53,400 Z M52,409 L52,411 L56,411 L56,409 Z M56,409 L56,411 L64,411 L64,409 Z M64,409 L64,411 L72,411 L72,409 Z M72,409 L72,411 L80,411 L80,409 Z M80,409 L80,411 L88,411 L88,409 Z M88,409 L88,411 L96,411 L96,409 Z M96,409 L96,411 L104,411 L104,409 Z M104,409 L104,411 L112,411 L112,409 Z M112,409 L112,411 L120,411 L120,409 Z M120,409 L120,411 L128,411 L128,409 Z M128,409 L128,411 L136,411 L136,409 Z M136,409 L136,411 L144,411 L144,409 Z M144,409 L144,411 L152,411 L152,409 Z M152,409 L152,411 L160,411 L160,409 Z M160,409 L160,411 L168,411 L168,409 Z M168,409 L168,411 L176,411 L176,409 Z M176,409 L176,411 L184,411 L184,409 Z M184,409 L184,411 L192,411 L192,409 Z M192,409 L192,411 L200,411 L200,409 Z M200,409 L200,411 L208,411 L208,409 Z M208,409 L208,411 L216,411 L216,409 Z M216,409 L216,411 L224,411 L224,409 Z M224,409 L224,411 L232,411 L232,409 Z M232,409 L232,411 L240,411 L240,409 Z M240,409 L240,411 L248,411 L248,409 Z M248,409 L248,411 L256,411 L256,409 Z M256,409 L256,411 L264,411 L264,409 Z M264,409 L264,411 L272,411 L272,409 Z M272,409 L272,411 L280,411 L280,409 Z M280,409 L280,411 L288,411 L288,409 Z M288,409 L288,411 L296,411 L296,409 Z M296,409 L296,411 L304,411 L304,409 Z M304,409 L304,411 L312,411 L312,409 Z M312,409 L312,411 L320,411 L320,409 Z M320,409 L320,411 L328,411 L328,409 Z M328,409 L328,411 L336,411 L336,409 Z M336,409 L336,411 L344,411 L344,409 Z M344,409 L344,411 L352,411 L352,409 Z M352,409 L352,411 L360,411 L360,409 Z M360,409 L360,411 L368,411 L368,409 Z M368,409 L368,411 L376,411 L376,409 Z M376,409 L376,411 L384,411 L384,409 Z M384,409 L384,411 L392,411 L392,409 Z M392,409 L392,411 L400,411 L400,409 Z M400,409 L400,411 L408,411 L408,409 Z M408,409 L408,411 L416,411 L416,409 Z M416,409 L416,411 L424,411 L424,409 Z M424,409 L424,411 L432,411 L432,409 Z M432,409 L432,411 L440,411 L440,409 Z M440,409 L440,411 L448,411 L448,409 Z M448,409 L448,411 L456,411 L456,409 Z M456,409 L456,411 L464,411 L464,409 Z M467,409 L467,411 L469,411 L469,409 Z M467,400 L467,410 L469,410 L469,400 Z M464,409 L464,411 L468,411 L468,409 Z " fill="#000" stroke="#000" stroke-width="0.1px" />
</svg>