<?xml version="1.0"?>
<svg width="424" height="660" viewBox="0 0 424 660"
    xmlns="http://www.w3.org/2000/svg" version="1.1">
	<text x="20" y="30" font-family="MS Gothic, monospace" font-weight="normal" font-size="16px" fill="#000" dominant-baseline="central" text-anchor="middle">f</text>
	<text x="28" y="30" font-family="MS Gothic, monospace" font-weight="normal" font-size="16px" fill="#000" dominant-baseline="central" text-anchor="middle">u</text>
	<text x="36" y="30" font-family="MS Gothic, monospace" font-weight="normal" font-size="16px" fill="#000" dominant-baseline="central" text-anchor="middle">n</text>
	<text x="44" y="30" font-family="MS Gothic, monospace" font-weight="normal" font-size="16px" fill="#000" dominant-baseline="central" text-anchor="middle">c</text>
	<text x="52" y="30" font-family="MS Gothic, monospace" font-weight="normal" font-size="16px" fill="#000" dominant-baseline="central" text-anchor="middle">t</text>
	<text x="60" y="30" font-family="MS Gothic, monospace" font-weight="normal" font-size="16px" fill="#000" dominant-baseline="central" text-anchor="middle">i</text>
	<text x="68" y="30" font-family="MS Gothic, monospace" font-weight="normal" font-size="16px" fill="#000" dominant-baseline="central" text-anchor="middle">o</text>
	<text x="76" y="30" font-family="MS Gothic, monospace" font-weight="normal" font-size="16px" fill="#000" dominant-baseline="central" text-anchor="middle">n</text>
	<text x="96" y="30" font-family="Meiryo, sans-serif" font-weight="normal" font-size="16px" fill="#000" dominant-baseline="central" text-anchor="middle">名</text>
	<text x="112" y="30" font-family="Meiryo, sans-serif" font-weight="normal" font-size="16px" fill="#000" dominant-baseline="central" text-anchor="middle">前</text>
	<text x="124" y="30" font-family="MS Gothic, monospace" font-weight="normal" font-size="16px" fill="#000" dominant-baseline="central" text-anchor="middle">(</text>
	<text x="136" y="30" font-family="Meiryo, sans-serif" font-weight="normal" font-size="16px" fill="#000" dominant-baseline="central" text-anchor="middle">引</text>
	<text x="152" y="30" font-family="Meiryo, sans-serif" font-weight="normal" font-size="16px" fill="#000" dominant-baseline="central" text-anchor="middle">数</text>
	<text x="164" y="30" font-family="MS Gothic, monospace" font-weight="normal" font-size="16px" fill="#000" dominant-baseline="central" text-anchor="middle">)</text>
	<text x="180" y="30" font-family="MS Gothic, monospace" font-weight="normal" font-size="16px" fill="#000" dominant-baseline="central" text-anchor="middle">{</text>
	<text x="72" y="90" font-family="Meiryo, sans-serif" font-weight="normal" font-size="16px" fill="#000" dominant-baseline="central" text-anchor="middle">ブ</text>
	<text x="88" y="90" font-family="Meiryo, sans-serif" font-weight="normal" font-size="16px" fill="#000" dominant-baseline="central" text-anchor="middle">ロ</text>
	<text x="104" y="90" font-family="Meiryo, sans-serif" font-weight="normal" font-size="16px" fill="#000" dominant-baseline="central" text-anchor="middle">ッ</text>
	<text x="120" y="90" font-family="Meiryo, sans-serif" font-weight="normal" font-size="16px" fill="#000" dominant-baseline="central" text-anchor="middle">ク</text>
	<text x="136" y="90" font-family="Meiryo, sans-serif" font-weight="normal" font-size="16px" fill="#000" dominant-baseline="central" text-anchor="middle">ス</text>
	<text x="152" y="90" font-family="Meiryo, sans-serif" font-weight="normal" font-size="16px" fill="#000" dominant-baseline="central" text-anchor="middle">コ</text>
	<text x="168" y="90" font-family="Meiryo, sans-serif" font-weight="normal" font-size="16px" fill="#000" dominant-baseline="central" text-anchor="middle">ー</text>
	<text x="184" y="90" font-family="Meiryo, sans-serif" font-weight="normal" font-size="16px" fill="#000" dominant-baseline="central" text-anchor="middle">プ</text>
	<text x="200" y="90" font-family="Meiryo, sans-serif" font-weight="normal" font-size="16px" fill="#000" dominant-baseline="central" text-anchor="middle">（</text>
	<text x="216" y="90" font-family="Meiryo, sans-serif" font-weight="normal" font-size="16px" fill="#000" dominant-baseline="central" text-anchor="middle">関</text>
	<text x="232" y="90" font-family="Meiryo, sans-serif" font-weight="normal" font-size="16px" fill="#000" dominant-baseline="central" text-anchor="middle">数</text>
	<text x="248" y="90" font-family="Meiryo, sans-serif" font-weight="normal" font-size="16px" fill="#000" dominant-baseline="central" text-anchor="middle">ス</text>
	<text x="264" y="90" font-family="Meiryo, sans-serif" font-weight="normal" font-size="16px" fill="#000" dominant-baseline="central" text-anchor="middle">コ</text>
	<text x="280" y="90" font-family="Meiryo, sans-serif" font-weight="normal" font-size="16px" fill="#000" dominant-baseline="central" text-anchor="middle">ー</text>
	<text x="296" y="90" font-family="Meiryo, sans-serif" font-weight="normal" font-size="16px" fill="#000" dominant-baseline="central" text-anchor="middle">プ</text>
	<text x="312" y="90" font-family="Meiryo, sans-serif" font-weight="normal" font-size="16px" fill="#000" dominant-baseline="central" text-anchor="middle">で</text>
	<text x="328" y="90" font-family="Meiryo, sans-serif" font-weight="normal" font-size="16px" fill="#000" dominant-baseline="central" text-anchor="middle">も</text>
	<text x="344" y="90" font-family="Meiryo, sans-serif" font-weight="normal" font-size="16px" fill="#000" dominant-baseline="central" text-anchor="middle">あ</text>
	<text x="360" y="90" font-family="Meiryo, sans-serif" font-weight="normal" font-size="16px" fill="#000" dominant-baseline="central" text-anchor="middle">る</text>
	<text x="376" y="90" font-family="Meiryo, sans-serif" font-weight="normal" font-size="16px" fill="#000" dominant-baseline="central" text-anchor="middle">）</text>
	<text x="20" y="150" font-family="MS Gothic, monospace" font-weight="normal" font-size="16px" fill="#000" dominant-baseline="central" text-anchor="middle">}</text>
	<text x="20" y="190" font-family="MS Gothic, monospace" font-weight="normal" font-size="16px" fill="#000" dominant-baseline="central" text-anchor="middle">i</text>
	<text x="28" y="190" font-family="MS Gothic, monospace" font-weight="normal" font-size="16px" fill="#000" dominant-baseline="central" text-anchor="middle">f</text>
	<text x="44" y="190" font-family="MS Gothic, monospace" font-weight="normal" font-size="16px" fill="#000" dominant-baseline="central" text-anchor="middle">(</text>
	<text x="56" y="190" font-family="Meiryo, sans-serif" font-weight="normal" font-size="16px" fill="#000" dominant-baseline="central" text-anchor="middle">式</text>
	<text x="68" y="190" font-family="MS Gothic, monospace" font-weight="normal" font-size="16px" fill="#000" dominant-baseline="central" text-anchor="middle">)</text>
	<text x="84" y="190" font-family="MS Gothic, monospace" font-weight="normal" font-size="16px" fill="#000" dominant-baseline="central" text-anchor="middle">{</text>
	<text x="72" y="250" font-family="Meiryo, sans-serif" font-weight="normal" font-size="16px" fill="#000" dominant-baseline="central" text-anchor="middle">ブ</text>
	<text x="88" y="250" font-family="Meiryo, sans-serif" font-weight="normal" font-size="16px" fill="#000" dominant-baseline="central" text-anchor="middle">ロ</text>
	<text x="104" y="250" font-family="Meiryo, sans-serif" font-weight="normal" font-size="16px" fill="#000" dominant-baseline="central" text-anchor="middle">ッ</text>
	<text x="120" y="250" font-family="Meiryo, sans-serif" font-weight="normal" font-size="16px" fill="#000" dominant-baseline="central" text-anchor="middle">ク</text>
	<text x="136" y="250" font-family="Meiryo, sans-serif" font-weight="normal" font-size="16px" fill="#000" dominant-baseline="central" text-anchor="middle">ス</text>
	<text x="152" y="250" font-family="Meiryo, sans-serif" font-weight="normal" font-size="16px" fill="#000" dominant-baseline="central" text-anchor="middle">コ</text>
	<text x="168" y="250" font-family="Meiryo, sans-serif" font-weight="normal" font-size="16px" fill="#000" dominant-baseline="central" text-anchor="middle">ー</text>
	<text x="184" y="250" font-family="Meiryo, sans-serif" font-weight="normal" font-size="16px" fill="#000" dominant-baseline="central" text-anchor="middle">プ</text>
	<text x="20" y="310" font-family="MS Gothic, monospace" font-weight="normal" font-size="16px" fill="#000" dominant-baseline="central" text-anchor="middle">}</text>
	<text x="20" y="350" font-family="MS Gothic, monospace" font-weight="normal" font-size="16px" fill="#000" dominant-baseline="central" text-anchor="middle">f</text>
	<text x="28" y="350" font-family="MS Gothic, monospace" font-weight="normal" font-size="16px" fill="#000" dominant-baseline="central" text-anchor="middle">o</text>
	<text x="36" y="350" font-family="MS Gothic, monospace" font-weight="normal" font-size="16px" fill="#000" dominant-baseline="central" text-anchor="middle">r</text>
	<text x="52" y="350" font-family="MS Gothic, monospace" font-weight="normal" font-size="16px" fill="#000" dominant-baseline="central" text-anchor="middle">(</text>
	<text x="64" y="350" font-family="Meiryo, sans-serif" font-weight="normal" font-size="16px" fill="#000" dominant-baseline="central" text-anchor="middle">式</text>
	<text x="76" y="350" font-family="MS Gothic, monospace" font-weight="normal" font-size="16px" fill="#000" dominant-baseline="central" text-anchor="middle">;</text>
	<text x="96" y="350" font-family="Meiryo, sans-serif" font-weight="normal" font-size="16px" fill="#000" dominant-baseline="central" text-anchor="middle">式</text>
	<text x="108" y="350" font-family="MS Gothic, monospace" font-weight="normal" font-size="16px" fill="#000" dominant-baseline="central" text-anchor="middle">;</text>
	<text x="128" y="350" font-family="Meiryo, sans-serif" font-weight="normal" font-size="16px" fill="#000" dominant-baseline="central" text-anchor="middle">式</text>
	<text x="140" y="350" font-family="MS Gothic, monospace" font-weight="normal" font-size="16px" fill="#000" dominant-baseline="central" text-anchor="middle">)</text>
	<text x="156" y="350" font-family="MS Gothic, monospace" font-weight="normal" font-size="16px" fill="#000" dominant-baseline="central" text-anchor="middle">{</text>
	<text x="72" y="410" font-family="Meiryo, sans-serif" font-weight="normal" font-size="16px" fill="#000" dominant-baseline="central" text-anchor="middle">ブ</text>
	<text x="88" y="410" font-family="Meiryo, sans-serif" font-weight="normal" font-size="16px" fill="#000" dominant-baseline="central" text-anchor="middle">ロ</text>
	<text x="104" y="410" font-family="Meiryo, sans-serif" font-weight="normal" font-size="16px" fill="#000" dominant-baseline="central" text-anchor="middle">ッ</text>
	<text x="120" y="410" font-family="Meiryo, sans-serif" font-weight="normal" font-size="16px" fill="#000" dominant-baseline="central" text-anchor="middle">ク</text>
	<text x="136" y="410" font-family="Meiryo, sans-serif" font-weight="normal" font-size="16px" fill="#000" dominant-baseline="central" text-anchor="middle">ス</text>
	<text x="152" y="410" font-family="Meiryo, sans-serif" font-weight="normal" font-size="16px" fill="#000" dominant-baseline="central" text-anchor="middle">コ</text>
	<text x="168" y="410" font-family="Meiryo, sans-serif" font-weight="normal" font-size="16px" fill="#000" dominant-baseline="central" text-anchor="middle">ー</text>
	<text x="184" y="410" font-family="Meiryo, sans-serif" font-weight="normal" font-size="16px" fill="#000" dominant-baseline="central" text-anchor="middle">プ</text>
	<text x="20" y="470" font-family="MS Gothic, monospace" font-weight="normal" font-size="16px" fill="#000" dominant-baseline="central" text-anchor="middle">}</text>
	<text x="20" y="510" font-family="MS Gothic, monospace" font-weight="normal" font-size="16px" fill="#000" dominant-baseline="central" text-anchor="middle">{</text>
	<text x="72" y="570" font-family="Meiryo, sans-serif" font-weight="normal" font-size="16px" fill="#000" dominant-baseline="central" text-anchor="middle">ブ</text>
	<text x="88" y="570" font-family="Meiryo, sans-serif" font-weight="normal" font-size="16px" fill="#000" dominant-baseline="central" text-anchor="middle">ロ</text>
	<text x="104" y="570" font-family="Meiryo, sans-serif" font-weight="normal" font-size="16px" fill="#000" dominant-baseline="central" text-anchor="middle">ッ</text>
	<text x="120" y="570" font-family="Meiryo, sans-serif" font-weight="normal" font-size="16px" fill="#000" dominant-baseline="central" text-anchor="middle">ク</text>
	<text x="136" y="570" font-family="Meiryo, sans-serif" font-weight="normal" font-size="16px" fill="#000" dominant-baseline="central" text-anchor="middle">ス</text>
	<text x="152" y="570" font-family="Meiryo, sans-serif" font-weight="normal" font-size="16px" fill="#000" dominant-baseline="central" text-anchor="middle">コ</text>
	<text x="168" y="570" font-family="Meiryo, sans-serif" font-weight="normal" font-size="16px" fill="#000" dominant-baseline="central" text-anchor="middle">ー</text>
	<text x="184" y="570" font-family="Meiryo, sans-serif" font-weight="normal" font-size="16px" fill="#000" dominant-baseline="central" text-anchor="middle">プ</text>
	<text x="20" y="630" font-family="MS Gothic, monospace" font-weight="normal" font-size="16px" fill="#000" dominant-baseline="central" text-anchor="middle">}</text>
	<path d="M51,49 L51,51 L53,51 L53,49 Z M51,50 L51,60 L53,60 L53,50 Z M52,49 L52,51 L56,51 L56,49 Z M56,49 L56,51 L64,51 L64,49 Z M64,49 L64,51 L72,51 L72,49 Z M72,49 L72,51 L80,51 L80,49 Z M80,49 L80,51 L88,51 L88,49 Z M88,49 L88,51 L96,51 L96,49 Z M96,49 L96,51 L104,51 L104,49 Z M104,49 L104,51 L112,51 L112,49 Z M112,49 L112,51 L120,51 L120,49 Z M120,49 L120,51 L128,51 L128,49 Z M128,49 L128,51 L136,51 L136,49 Z M136,49 L136,51 L144,51 L144,49 Z M144,49 L144,51 L152,51 L152,49 Z M152,49 L152,51 L160,51 L160,49 Z M160,49 L160,51 L168,51 L168,49 Z M168,49 L168,51 L176,51 L176,49 Z M176,49 L176,51 L184,51 L184,49 Z M184,49 L184,51 L192,51 L192,49 Z M192,49 L192,51 L200,51 L200,49 Z M200,49 L200,51 L208,51 L208,49 Z M208,49 L208,51 L216,51 L216,49 Z M216,49 L216,51 L224,51 L224,49 Z M224,49 L224,51 L232,51 L232,49 Z M232,49 L232,51 L240,51 L240,49 Z M240,49 L240,51 L248,51 L248,49 Z M248,49 L248,51 L256,51 L256,49 Z M256,49 L256,51 L264,51 L264,49 Z M264,49 L264,51 L272,51 L272,49 Z M272,49 L272,51 L280,51 L280,49 Z M280,49 L280,51 L288,51 L288,49 Z M288,49 L288,51 L296,51 L296,49 Z M296,49 L296,51 L304,51 L304,49 Z M304,49 L304,51 L312,51 L312,49 Z M312,49 L312,51 L320,51 L320,49 Z M320,49 L320,51 L328,51 L328,49 Z M328,49 L328,51 L336,51 L336,49 Z M336,49 L336,51 L344,51 L344,49 Z M344,49 L344,51 L352,51 L352,49 Z M352,49 L352,51 L360,51 L360,49 Z M360,49 L360,51 L368,51 L368,49 Z M368,49 L368,51 L376,51 L376,49 Z M376,49 L376,51 L384,51 L384,49 Z M384,49 L384,51 L392,51 L392,49 Z M392,49 L392,51 L400,51 L400,49 Z M403,49 L403,51 L405,51 L405,49 Z M403,50 L403,60 L405,60 L405,50 Z M400,49 L400,51 L404,51 L404,49 Z M51,60 L51,80 L53,80 L53,60 Z M403,60 L403,80 L405,80 L405,60 Z M51,80 L51,100 L53,100 L53,80 Z M403,80 L403,100 L405,100 L405,80 Z M51,100 L51,120 L53,120 L53,100 Z M403,100 L403,120 L405,120 L405,100 Z M51,129 L51,131 L53,131 L53,129 Z M51,120 L51,130 L53,130 L53,120 Z M52,129 L52,131 L56,131 L56,129 Z M56,129 L56,131 L64,131 L64,129 Z M64,129 L64,131 L72,131 L72,129 Z M72,129 L72,131 L80,131 L80,129 Z M80,129 L80,131 L88,131 L88,129 Z M88,129 L88,131 L96,131 L96,129 Z M96,129 L96,131 L104,131 L104,129 Z M104,129 L104,131 L112,131 L112,129 Z M112,129 L112,131 L120,131 L120,129 Z M120,129 L120,131 L128,131 L128,129 Z M128,129 L128,131 L136,131 L136,129 Z M136,129 L136,131 L144,131 L144,129 Z M144,129 L144,131 L152,131 L152,129 Z M152,129 L152,131 L160,131 L160,129 Z M160,129 L160,131 L168,131 L168,129 Z M168,129 L168,131 L176,131 L176,129 Z M176,129 L176,131 L184,131 L184,129 Z M184,129 L184,131 L192,131 L192,129 Z M192,129 L192,131 L200,131 L200,129 Z M200,129 L200,131 L208,131 L208,129 Z M208,129 L208,131 L216,131 L216,129 Z M216,129 L216,131 L224,131 L224,129 Z M224,129 L224,131 L232,131 L232,129 Z M232,129 L232,131 L240,131 L240,129 Z M240,129 L240,131 L248,131 L248,129 Z M248,129 L248,131 L256,131 L256,129 Z M256,129 L256,131 L264,131 L264,129 Z M264,129 L264,131 L272,131 L272,129 Z M272,129 L272,131 L280,131 L280,129 Z M280,129 L280,131 L288,131 L288,129 Z M288,129 L288,131 L296,131 L296,129 Z M296,129 L296,131 L304,131 L304,129 Z M304,129 L304,131 L312,131 L312,129 Z M312,129 L312,131 L320,131 L320,129 Z M320,129 L320,131 L328,131 L328,129 Z M328,129 L328,131 L336,131 L336,129 Z M336,129 L336,131 L344,131 L344,129 Z M344,129 L344,131 L352,131 L352,129 Z M352,129 L352,131 L360,131 L360,129 Z M360,129 L360,131 L368,131 L368,129 Z M368,129 L368,131 L376,131 L376,129 Z M376,129 L376,131 L384,131 L384,129 Z M384,129 L384,131 L392,131 L392,129 Z M392,129 L392,131 L400,131 L400,129 Z M403,129 L403,131 L405,131 L405,129 Z M403,120 L403,130 L405,130 L405,120 Z M400,129 L400,131 L404,131 L404,129 Z M51,209 L51,211 L53,211 L53,209 Z M51,210 L51,220 L53,220 L53,210 Z M52,209 L52,211 L56,211 L56,209 Z M56,209 L56,211 L64,211 L64,209 Z M64,209 L64,211 L72,211 L72,209 Z M72,209 L72,211 L80,211 L80,209 Z M80,209 L80,211 L88,211 L88,209 Z M88,209 L88,211 L96,211 L96,209 Z M96,209 L96,211 L104,211 L104,209 Z M104,209 L104,211 L112,211 L112,209 Z M112,209 L112,211 L120,211 L120,209 Z M120,209 L120,211 L128,211 L128,209 Z M128,209 L128,211 L136,211 L136,209 Z M136,209 L136,211 L144,211 L144,209 Z M144,209 L144,211 L152,211 L152,209 Z M152,209 L152,211 L160,211 L160,209 Z M160,209 L160,211 L168,211 L168,209 Z M168,209 L168,211 L176,211 L176,209 Z M176,209 L176,211 L184,211 L184,209 Z M184,209 L184,211 L192,211 L192,209 Z M192,209 L192,211 L200,211 L200,209 Z M200,209 L200,211 L208,211 L208,209 Z M208,209 L208,211 L216,211 L216,209 Z M216,209 L216,211 L224,211 L224,209 Z M224,209 L224,211 L232,211 L232,209 Z M232,209 L232,211 L240,211 L240,209 Z M240,209 L240,211 L248,211 L248,209 Z M248,209 L248,211 L256,211 L256,209 Z M256,209 L256,211 L264,211 L264,209 Z M264,209 L264,211 L272,211 L272,209 Z M272,209 L272,211 L280,211 L280,209 Z M280,209 L280,211 L288,211 L288,209 Z M288,209 L288,211 L296,211 L296,209 Z M296,209 L296,211 L304,211 L304,209 Z M304,209 L304,211 L312,211 L312,209 Z M312,209 L312,211 L320,211 L320,209 Z M320,209 L320,211 L328,211 L328,209 Z M328,209 L328,211 L336,211 L336,209 Z M336,209 L336,211 L344,211 L344,209 Z M344,209 L344,211 L352,211 L352,209 Z M352,209 L352,211 L360,211 L360,209 Z M360,209 L360,211 L368,211 L368,209 Z M368,209 L368,211 L376,211 L376,209 Z M376,209 L376,211 L384,211 L384,209 Z M384,209 L384,211 L392,211 L392,209 Z M395,209 L395,211 L397,211 L397,209 Z M395,210 L395,220 L397,220 L397,210 Z M392,209 L392,211 L396,211 L396,209 Z M51,220 L51,240 L53,240 L53,220 Z M395,220 L395,240 L397,240 L397,220 Z M51,240 L51,260 L53,260 L53,240 Z M395,240 L395,260 L397,260 L397,240 Z M51,260 L51,280 L53,280 L53,260 Z M395,260 L395,280 L397,280 L397,260 Z M51,289 L51,291 L53,291 L53,289 Z M51,280 L51,290 L53,290 L53,280 Z M52,289 L52,291 L56,291 L56,289 Z M56,289 L56,291 L64,291 L64,289 Z M64,289 L64,291 L72,291 L72,289 Z M72,289 L72,291 L80,291 L80,289 Z M80,289 L80,291 L88,291 L88,289 Z M88,289 L88,291 L96,291 L96,289 Z M96,289 L96,291 L104,291 L104,289 Z M104,289 L104,291 L112,291 L112,289 Z M112,289 L112,291 L120,291 L120,289 Z M120,289 L120,291 L128,291 L128,289 Z M128,289 L128,291 L136,291 L136,289 Z M136,289 L136,291 L144,291 L144,289 Z M144,289 L144,291 L152,291 L152,289 Z M152,289 L152,291 L160,291 L160,289 Z M160,289 L160,291 L168,291 L168,289 Z M168,289 L168,291 L176,291 L176,289 Z M176,289 L176,291 L184,291 L184,289 Z M184,289 L184,291 L192,291 L192,289 Z M192,289 L192,291 L200,291 L200,289 Z M200,289 L200,291 L208,291 L208,289 Z M208,289 L208,291 L216,291 L216,289 Z M216,289 L216,291 L224,291 L224,289 Z M224,289 L224,291 L232,291 L232,289 Z M232,289 L232,291 L240,291 L240,289 Z M240,289 L240,291 L248,291 L248,289 Z M248,289 L248,291 L256,291 L256,289 Z M256,289 L256,291 L264,291 L264,289 Z M264,289 L264,291 L272,291 L272,289 Z M272,289 L272,291 L280,291 L280,289 Z M280,289 L280,291 L288,291 L288,289 Z M288,289 L288,291 L296,291 L296,289 Z M296,289 L296,291 L304,291 L304,289 Z M304,289 L304,291 L312,291 L312,289 Z M312,289 L312,291 L320,291 L320,289 Z M320,289 L320,291 L328,291 L328,289 Z M328,289 L328,291 L336,291 L336,289 Z M336,289 L336,291 L344,291 L344,289 Z M344,289 L344,291 L352,291 L352,289 Z M352,289 L352,291 L360,291 L360,289 Z M360,289 L360,291 L368,291 L368,289 Z M368,289 L368,291 L376,291 L376,289 Z M376,289 L376,291 L384,291 L384,289 Z M384,289 L384,291 L392,291 L392,289 Z M395,289 L395,291 L397,291 L397,289 Z M395,280 L395,290 L397,290 L397,280 Z M392,289 L392,291 L396,291 L396,289 Z M51,369 L51,371 L53,371 L53,369 Z M51,370 L51,380 L53,380 L53,370 Z M52,369 L52,371 L56,371 L56,369 Z M56,369 L56,371 L64,371 L64,369 Z M64,369 L64,371 L72,371 L72,369 Z M72,369 L72,371 L80,371 L80,369 Z M80,369 L80,371 L88,371 L88,369 Z M88,369 L88,371 L96,371 L96,369 Z M96,369 L96,371 L104,371 L104,369 Z M104,369 L104,371 L112,371 L112,369 Z M112,369 L112,371 L120,371 L120,369 Z M120,369 L120,371 L128,371 L128,369 Z M128,369 L128,371 L136,371 L136,369 Z M136,369 L136,371 L144,371 L144,369 Z M144,369 L144,371 L152,371 L152,369 Z M152,369 L152,371 L160,371 L160,369 Z M160,369 L160,371 L168,371 L168,369 Z M168,369 L168,371 L176,371 L176,369 Z M176,369 L176,371 L184,371 L184,369 Z M184,369 L184,371 L192,371 L192,369 Z M192,369 L192,371 L200,371 L200,369 Z M200,369 L200,371 L208,371 L208,369 Z M208,369 L208,371 L216,371 L216,369 Z M216,369 L216,371 L224,371 L224,369 Z M224,369 L224,371 L232,371 L232,369 Z M232,369 L232,371 L240,371 L240,369 Z M240,369 L240,371 L248,371 L248,369 Z M248,369 L248,371 L256,371 L256,369 Z M256,369 L256,371 L264,371 L264,369 Z M264,369 L264,371 L272,371 L272,369 Z M272,369 L272,371 L280,371 L280,369 Z M280,369 L280,371 L288,371 L288,369 Z M288,369 L288,371 L296,371 L296,369 Z M296,369 L296,371 L304,371 L304,369 Z M304,369 L304,371 L312,371 L312,369 Z M312,369 L312,371 L320,371 L320,369 Z M320,369 L320,371 L328,371 L328,369 Z M328,369 L328,371 L336,371 L336,369 Z M336,369 L336,371 L344,371 L344,369 Z M344,369 L344,371 L352,371 L352,369 Z M352,369 L352,371 L360,371 L360,369 Z M360,369 L360,371 L368,371 L368,369 Z M368,369 L368,371 L376,371 L376,369 Z M376,369 L376,371 L384,371 L384,369 Z M384,369 L384,371 L392,371 L392,369 Z M395,369 L395,371 L397,371 L397,369 Z M395,370 L395,380 L397,380 L397,370 Z M392,369 L392,371 L396,371 L396,369 Z M51,380 L51,400 L53,400 L53,380 Z M395,380 L395,400 L397,400 L397,380 Z M51,400 L51,420 L53,420 L53,400 Z M395,400 L395,420 L397,420 L397,400 Z M51,420 L51,440 L53,440 L53,420 Z M395,420 L395,440 L397,440 L397,420 Z M51,449 L51,451 L53,451 L53,449 Z M51,440 L51,450 L53,450 L53,440 Z M52,449 L52,451 L56,451 L56,449 Z M56,449 L56,451 L64,451 L64,449 Z M64,449 L64,451 L72,451 L72,449 Z M72,449 L72,451 L80,451 L80,449 Z M80,449 L80,451 L88,451 L88,449 Z M88,449 L88,451 L96,451 L96,449 Z M96,449 L96,451 L104,451 L104,449 Z M104,449 L104,451 L112,451 L112,449 Z M112,449 L112,451 L120,451 L120,449 Z M120,449 L120,451 L128,451 L128,449 Z M128,449 L128,451 L136,451 L136,449 Z M136,449 L136,451 L144,451 L144,449 Z M144,449 L144,451 L152,451 L152,449 Z M152,449 L152,451 L160,451 L160,449 Z M160,449 L160,451 L168,451 L168,449 Z M168,449 L168,451 L176,451 L176,449 Z M176,449 L176,451 L184,451 L184,449 Z M184,449 L184,451 L192,451 L192,449 Z M192,449 L192,451 L200,451 L200,449 Z M200,449 L200,451 L208,451 L208,449 Z M208,449 L208,451 L216,451 L216,449 Z M216,449 L216,451 L224,451 L224,449 Z M224,449 L224,451 L232,451 L232,449 Z M232,449 L232,451 L240,451 L240,449 Z M240,449 L240,451 L248,451 L248,449 Z M248,449 L248,451 L256,451 L256,449 Z M256,449 L256,451 L264,451 L264,449 Z M264,449 L264,451 L272,451 L272,449 Z M272,449 L272,451 L280,451 L280,449 Z M280,449 L280,451 L288,451 L288,449 Z M288,449 L288,451 L296,451 L296,449 Z M296,449 L296,451 L304,451 L304,449 Z M304,449 L304,451 L312,451 L312,449 Z M312,449 L312,451 L320,451 L320,449 Z M320,449 L320,451 L328,451 L328,449 Z M328,449 L328,451 L336,451 L336,449 Z M336,449 L336,451 L344,451 L344,449 Z M344,449 L344,451 L352,451 L352,449 Z M352,449 L352,451 L360,451 L360,449 Z M360,449 L360,451 L368,451 L368,449 Z M368,449 L368,451 L376,451 L376,449 Z M376,449 L376,451 L384,451 L384,449 Z M384,449 L384,451 L392,451 L392,449 Z M395,449 L395,451 L397,451 L397,449 Z M395,440 L395,450 L397,450 L397,440 Z M392,449 L392,451 L396,451 L396,449 Z M51,529 L51,531 L53,531 L53,529 Z M51,530 L51,540 L53,540 L53,530 Z M52,529 L52,531 L56,531 L56,529 Z M56,529 L56,531 L64,531 L64,529 Z M64,529 L64,531 L72,531 L72,529 Z M72,529 L72,531 L80,531 L80,529 Z M80,529 L80,531 L88,531 L88,529 Z M88,529 L88,531 L96,531 L96,529 Z M96,529 L96,531 L104,531 L104,529 Z M104,529 L104,531 L112,531 L112,529 Z M112,529 L112,531 L120,531 L120,529 Z M120,529 L120,531 L128,531 L128,529 Z M128,529 L128,531 L136,531 L136,529 Z M136,529 L136,531 L144,531 L144,529 Z M144,529 L144,531 L152,531 L152,529 Z M152,529 L152,531 L160,531 L160,529 Z M160,529 L160,531 L168,531 L168,529 Z M168,529 L168,531 L176,531 L176,529 Z M176,529 L176,531 L184,531 L184,529 Z M184,529 L184,531 L192,531 L192,529 Z M192,529 L192,531 L200,531 L200,529 Z M200,529 L200,531 L208,531 L208,529 Z M208,529 L208,531 L216,531 L216,529 Z M216,529 L216,531 L224,531 L224,529 Z M224,529 L224,531 L232,531 L232,529 Z M232,529 L232,531 L240,531 L240,529 Z M240,529 L240,531 L248,531 L248,529 Z M248,529 L248,531 L256,531 L256,529 Z M256,529 L256,531 L264,531 L264,529 Z M264,529 L264,531 L272,531 L272,529 Z M272,529 L272,531 L280,531 L280,529 Z M280,529 L280,531 L288,531 L288,529 Z M288,529 L288,531 L296,531 L296,529 Z M296,529 L296,531 L304,531 L304,529 Z M304,529 L304,531 L312,531 L312,529 Z M312,529 L312,531 L320,531 L320,529 Z M320,529 L320,531 L328,531 L328,529 Z M328,529 L328,531 L336,531 L336,529 Z M336,529 L336,531 L344,531 L344,529 Z M344,529 L344,531 L352,531 L352,529 Z M352,529 L352,531 L360,531 L360,529 Z M360,529 L360,531 L368,531 L368,529 Z M368,529 L368,531 L376,531 L376,529 Z M376,529 L376,531 L384,531 L384,529 Z M384,529 L384,531 L392,531 L392,529 Z M395,529 L395,531 L397,531 L397,529 Z M395,530 L395,540 L397,540 L397,530 Z M392,529 L392,531 L396,531 L396,529 Z M51,540 L51,560 L53,560 L53,540 Z M395,540 L395,560 L397,560 L397,540 Z M51,560 L51,580 L53,580 L53,560 Z M395,560 L395,580 L397,580 L397,560 Z M51,580 L51,600 L53,600 L53,580 Z M395,580 L395,600 L397,600 L397,580 Z M51,609 L51,611 L53,611 L53,609 Z M51,600 L51,610 L53,610 L53,600 Z M52,609 L52,611 L56,611 L56,609 Z M56,609 L56,611 L64,611 L64,609 Z M64,609 L64,611 L72,611 L72,609 Z M72,609 L72,611 L80,611 L80,609 Z M80,609 L80,611 L88,611 L88,609 Z M88,609 L88,611 L96,611 L96,609 Z M96,609 L96,611 L104,611 L104,609 Z M104,609 L104,611 L112,611 L112,609 Z M112,609 L112,611 L120,611 L120,609 Z M120,609 L120,611 L128,611 L128,609 Z M128,609 L128,611 L136,611 L136,609 Z M136,609 L136,611 L144,611 L144,609 Z M144,609 L144,611 L152,611 L152,609 Z M152,609 L152,611 L160,611 L160,609 Z M160,609 L160,611 L168,611 L168,609 Z M168,609 L168,611 L176,611 L176,609 Z M176,609 L176,611 L184,611 L184,609 Z M184,609 L184,611 L192,611 L192,609 Z M192,609 L192,611 L200,611 L200,609 Z M200,609 L200,611 L208,611 L208,609 Z M208,609 L208,611 L216,611 L216,609 Z M216,609 L216,611 L224,611 L224,609 Z M224,609 L224,611 L232,611 L232,609 Z M232,609 L232,611 L240,611 L240,609 Z M240,609 L240,611 L248,611 L248,609 Z M248,609 L248,611 L256,611 L256,609 Z M256,609 L256,611 L264,611 L264,609 Z M264,609 L264,611 L272,611 L272,609 Z M272,609 L272,611 L280,611 L280,609 Z M280,609 L280,611 L288,611 L288,609 Z M288,609 L288,611 L296,611 L296,609 Z M296,609 L296,611 L304,611 L304,609 Z M304,609 L304,611 L312,611 L312,609 Z M312,609 L312,611 L320,611 L320,609 Z M320,609 L320,611 L328,611 L328,609 Z M328,609 L328,611 L336,611 L336,609 Z M336,609 L336,611 L344,611 L344,609 Z M344,609 L344,611 L352,611 L352,609 Z M352,609 L352,611 L360,611 L360,609 Z M360,609 L360,611 L368,611 L368,609 Z M368,609 L368,611 L376,611 L376,609 Z M376,609 L376,611 L384,611 L384,609 Z M384,609 L384,611 L392,611 L392,609 Z M395,609 L395,611 L397,611 L397,609 Z M395,600 L395,610 L397,610 L397,600 Z M392,609 L392,611 L396,611 L396,609 Z " fill="#000" stroke="#000" stroke-width="0.1px" />
</svg>