<?xml version="1.0"?>
<svg width="376" height="160" viewBox="0 0 376 160"
    xmlns="http://www.w3.org/2000/svg" version="1.1">
	<text x="20" y="30" font-family="MS Gothic, monospace" font-weight="normal" font-size="16px" fill="#000" dominant-baseline="central" text-anchor="middle">s</text>
	<text x="28" y="30" font-family="MS Gothic, monospace" font-weight="normal" font-size="16px" fill="#000" dominant-baseline="central" text-anchor="middle">e</text>
	<text x="36" y="30" font-family="MS Gothic, monospace" font-weight="normal" font-size="16px" fill="#000" dominant-baseline="central" text-anchor="middle">t</text>
	<text x="44" y="30" font-family="MS Gothic, monospace" font-weight="normal" font-size="16px" fill="#000" dominant-baseline="central" text-anchor="middle">T</text>
	<text x="52" y="30" font-family="MS Gothic, monospace" font-weight="normal" font-size="16px" fill="#000" dominant-baseline="central" text-anchor="middle">i</text>
	<text x="60" y="30" font-family="MS Gothic, monospace" font-weight="normal" font-size="16px" fill="#000" dominant-baseline="central" text-anchor="middle">m</text>
	<text x="68" y="30" font-family="MS Gothic, monospace" font-weight="normal" font-size="16px" fill="#000" dominant-baseline="central" text-anchor="middle">e</text>
	<text x="76" y="30" font-family="MS Gothic, monospace" font-weight="normal" font-size="16px" fill="#000" dominant-baseline="central" text-anchor="middle">o</text>
	<text x="84" y="30" font-family="MS Gothic, monospace" font-weight="normal" font-size="16px" fill="#000" dominant-baseline="central" text-anchor="middle">u</text>
	<text x="92" y="30" font-family="MS Gothic, monospace" font-weight="normal" font-size="16px" fill="#000" dominant-baseline="central" text-anchor="middle">t</text>
	<text x="100" y="30" font-family="MS Gothic, monospace" font-weight="normal" font-size="16px" fill="#000" dominant-baseline="central" text-anchor="middle">(</text>
	<text x="112" y="30" font-family="Meiryo, sans-serif" font-weight="normal" font-size="16px" fill="#000" dominant-baseline="central" text-anchor="middle">コ</text>
	<text x="128" y="30" font-family="Meiryo, sans-serif" font-weight="normal" font-size="16px" fill="#000" dominant-baseline="central" text-anchor="middle">ー</text>
	<text x="144" y="30" font-family="Meiryo, sans-serif" font-weight="normal" font-size="16px" fill="#000" dominant-baseline="central" text-anchor="middle">ル</text>
	<text x="160" y="30" font-family="Meiryo, sans-serif" font-weight="normal" font-size="16px" fill="#000" dominant-baseline="central" text-anchor="middle">バ</text>
	<text x="176" y="30" font-family="Meiryo, sans-serif" font-weight="normal" font-size="16px" fill="#000" dominant-baseline="central" text-anchor="middle">ッ</text>
	<text x="192" y="30" font-family="Meiryo, sans-serif" font-weight="normal" font-size="16px" fill="#000" dominant-baseline="central" text-anchor="middle">ク</text>
	<text x="208" y="30" font-family="Meiryo, sans-serif" font-weight="normal" font-size="16px" fill="#000" dominant-baseline="central" text-anchor="middle">関</text>
	<text x="224" y="30" font-family="Meiryo, sans-serif" font-weight="normal" font-size="16px" fill="#000" dominant-baseline="central" text-anchor="middle">数</text>
	<text x="236" y="30" font-family="MS Gothic, monospace" font-weight="normal" font-size="16px" fill="#000" dominant-baseline="central" text-anchor="middle">,</text>
	<text x="256" y="30" font-family="Meiryo, sans-serif" font-weight="normal" font-size="16px" fill="#000" dominant-baseline="central" text-anchor="middle">ミ</text>
	<text x="272" y="30" font-family="Meiryo, sans-serif" font-weight="normal" font-size="16px" fill="#000" dominant-baseline="central" text-anchor="middle">リ</text>
	<text x="288" y="30" font-family="Meiryo, sans-serif" font-weight="normal" font-size="16px" fill="#000" dominant-baseline="central" text-anchor="middle">秒</text>
	<text x="304" y="30" font-family="Meiryo, sans-serif" font-weight="normal" font-size="16px" fill="#000" dominant-baseline="central" text-anchor="middle">の</text>
	<text x="320" y="30" font-family="Meiryo, sans-serif" font-weight="normal" font-size="16px" fill="#000" dominant-baseline="central" text-anchor="middle">数</text>
	<text x="336" y="30" font-family="Meiryo, sans-serif" font-weight="normal" font-size="16px" fill="#000" dominant-baseline="central" text-anchor="middle">値</text>
	<text x="348" y="30" font-family="MS Gothic, monospace" font-weight="normal" font-size="16px" fill="#000" dominant-baseline="central" text-anchor="middle">)</text>
	<text x="144" y="90" font-family="Meiryo, sans-serif" font-weight="normal" font-size="16px" fill="#000" dominant-baseline="central" text-anchor="middle">実</text>
	<text x="160" y="90" font-family="Meiryo, sans-serif" font-weight="normal" font-size="16px" fill="#000" dominant-baseline="central" text-anchor="middle">行</text>
	<text x="176" y="90" font-family="Meiryo, sans-serif" font-weight="normal" font-size="16px" fill="#000" dominant-baseline="central" text-anchor="middle">す</text>
	<text x="192" y="90" font-family="Meiryo, sans-serif" font-weight="normal" font-size="16px" fill="#000" dominant-baseline="central" text-anchor="middle">る</text>
	<text x="208" y="90" font-family="Meiryo, sans-serif" font-weight="normal" font-size="16px" fill="#000" dominant-baseline="central" text-anchor="middle">！</text>
	<text x="256" y="90" font-family="Meiryo, sans-serif" font-weight="normal" font-size="16px" fill="#000" dominant-baseline="central" text-anchor="middle">時</text>
	<text x="272" y="90" font-family="Meiryo, sans-serif" font-weight="normal" font-size="16px" fill="#000" dominant-baseline="central" text-anchor="middle">間</text>
	<text x="288" y="90" font-family="Meiryo, sans-serif" font-weight="normal" font-size="16px" fill="#000" dominant-baseline="central" text-anchor="middle">が</text>
	<text x="304" y="90" font-family="Meiryo, sans-serif" font-weight="normal" font-size="16px" fill="#000" dominant-baseline="central" text-anchor="middle">経</text>
	<text x="320" y="90" font-family="Meiryo, sans-serif" font-weight="normal" font-size="16px" fill="#000" dominant-baseline="central" text-anchor="middle">っ</text>
	<text x="336" y="90" font-family="Meiryo, sans-serif" font-weight="normal" font-size="16px" fill="#000" dominant-baseline="central" text-anchor="middle">た</text>
	<text x="352" y="90" font-family="Meiryo, sans-serif" font-weight="normal" font-size="16px" fill="#000" dominant-baseline="central" text-anchor="middle">ら</text>
	<path d="M172,40 L168,50 L176,50 Z M171,50 L171,60 L173,60 L173,50 Z M299,40 L299,60 L301,60 L301,40 Z M171,60 L171,80 L173,80 L173,60 Z M299,60 L299,80 L301,80 L301,60 Z M171,100 L171,120 L173,120 L173,100 Z M299,100 L299,120 L301,120 L301,100 Z M171,129 L171,131 L173,131 L173,129 Z M171,120 L171,130 L173,130 L173,120 Z M172,129 L172,131 L176,131 L176,129 Z M176,129 L176,131 L184,131 L184,129 Z M184,129 L184,131 L192,131 L192,129 Z M192,129 L192,131 L200,131 L200,129 Z M200,129 L200,131 L208,131 L208,129 Z M208,129 L208,131 L216,131 L216,129 Z M216,129 L216,131 L224,131 L224,129 Z M224,129 L224,131 L232,131 L232,129 Z M232,129 L232,131 L240,131 L240,129 Z M240,129 L240,131 L248,131 L248,129 Z M248,129 L248,131 L256,131 L256,129 Z M256,129 L256,131 L264,131 L264,129 Z M264,129 L264,131 L272,131 L272,129 Z M272,129 L272,131 L280,131 L280,129 Z M280,129 L280,131 L288,131 L288,129 Z M288,129 L288,131 L296,131 L296,129 Z M299,129 L299,131 L301,131 L301,129 Z M299,120 L299,130 L301,130 L301,120 Z M296,129 L296,131 L300,131 L300,129 Z " fill="#000" stroke="#000" stroke-width="0.1px" />
</svg>