<?xml version="1.0"?>
<svg width="400" height="180" viewBox="0 0 400 180"
    xmlns="http://www.w3.org/2000/svg" version="1.1">
	<text x="20" y="30" font-family="MS Gothic, monospace" font-weight="normal" font-size="16px" fill="#000" dominant-baseline="central" text-anchor="middle">f</text>
	<text x="28" y="30" font-family="MS Gothic, monospace" font-weight="normal" font-size="16px" fill="#000" dominant-baseline="central" text-anchor="middle">u</text>
	<text x="36" y="30" font-family="MS Gothic, monospace" font-weight="normal" font-size="16px" fill="#000" dominant-baseline="central" text-anchor="middle">n</text>
	<text x="44" y="30" font-family="MS Gothic, monospace" font-weight="normal" font-size="16px" fill="#000" dominant-baseline="central" text-anchor="middle">c</text>
	<text x="52" y="30" font-family="MS Gothic, monospace" font-weight="normal" font-size="16px" fill="#000" dominant-baseline="central" text-anchor="middle">t</text>
	<text x="60" y="30" font-family="MS Gothic, monospace" font-weight="normal" font-size="16px" fill="#000" dominant-baseline="central" text-anchor="middle">i</text>
	<text x="68" y="30" font-family="MS Gothic, monospace" font-weight="normal" font-size="16px" fill="#000" dominant-baseline="central" text-anchor="middle">o</text>
	<text x="76" y="30" font-family="MS Gothic, monospace" font-weight="normal" font-size="16px" fill="#000" dominant-baseline="central" text-anchor="middle">n</text>
	<text x="96" y="30" font-family="Meiryo, sans-serif" font-weight="normal" font-size="16px" fill="#000" dominant-baseline="central" text-anchor="middle">名</text>
	<text x="112" y="30" font-family="Meiryo, sans-serif" font-weight="normal" font-size="16px" fill="#000" dominant-baseline="central" text-anchor="middle">前</text>
	<text x="124" y="30" font-family="MS Gothic, monospace" font-weight="normal" font-size="16px" fill="#000" dominant-baseline="central" text-anchor="middle">(</text>
	<text x="136" y="30" font-family="Meiryo, sans-serif" font-weight="normal" font-size="16px" fill="#000" dominant-baseline="central" text-anchor="middle">引</text>
	<text x="152" y="30" font-family="Meiryo, sans-serif" font-weight="normal" font-size="16px" fill="#000" dominant-baseline="central" text-anchor="middle">数</text>
	<text x="164" y="30" font-family="MS Gothic, monospace" font-weight="normal" font-size="16px" fill="#000" dominant-baseline="central" text-anchor="middle">)</text>
	<text x="180" y="30" font-family="MS Gothic, monospace" font-weight="normal" font-size="16px" fill="#000" dominant-baseline="central" text-anchor="middle">{</text>
	<text x="72" y="90" font-family="Meiryo, sans-serif" font-weight="normal" font-size="16px" fill="#000" dominant-baseline="central" text-anchor="middle">関</text>
	<text x="88" y="90" font-family="Meiryo, sans-serif" font-weight="normal" font-size="16px" fill="#000" dominant-baseline="central" text-anchor="middle">数</text>
	<text x="104" y="90" font-family="Meiryo, sans-serif" font-weight="normal" font-size="16px" fill="#000" dominant-baseline="central" text-anchor="middle">ス</text>
	<text x="120" y="90" font-family="Meiryo, sans-serif" font-weight="normal" font-size="16px" fill="#000" dominant-baseline="central" text-anchor="middle">コ</text>
	<text x="136" y="90" font-family="Meiryo, sans-serif" font-weight="normal" font-size="16px" fill="#000" dominant-baseline="central" text-anchor="middle">ー</text>
	<text x="152" y="90" font-family="Meiryo, sans-serif" font-weight="normal" font-size="16px" fill="#000" dominant-baseline="central" text-anchor="middle">プ</text>
	<text x="20" y="150" font-family="MS Gothic, monospace" font-weight="normal" font-size="16px" fill="#000" dominant-baseline="central" text-anchor="middle">}</text>
	<path d="M51,49 L51,51 L53,51 L53,49 Z M51,50 L51,60 L53,60 L53,50 Z M52,49 L52,51 L56,51 L56,49 Z M56,49 L56,51 L64,51 L64,49 Z M64,49 L64,51 L72,51 L72,49 Z M72,49 L72,51 L80,51 L80,49 Z M80,49 L80,51 L88,51 L88,49 Z M88,49 L88,51 L96,51 L96,49 Z M96,49 L96,51 L104,51 L104,49 Z M104,49 L104,51 L112,51 L112,49 Z M112,49 L112,51 L120,51 L120,49 Z M120,49 L120,51 L128,51 L128,49 Z M128,49 L128,51 L136,51 L136,49 Z M136,49 L136,51 L144,51 L144,49 Z M144,49 L144,51 L152,51 L152,49 Z M152,49 L152,51 L160,51 L160,49 Z M160,49 L160,51 L168,51 L168,49 Z M168,49 L168,51 L176,51 L176,49 Z M176,49 L176,51 L184,51 L184,49 Z M184,49 L184,51 L192,51 L192,49 Z M192,49 L192,51 L200,51 L200,49 Z M200,49 L200,51 L208,51 L208,49 Z M208,49 L208,51 L216,51 L216,49 Z M216,49 L216,51 L224,51 L224,49 Z M224,49 L224,51 L232,51 L232,49 Z M232,49 L232,51 L240,51 L240,49 Z M240,49 L240,51 L248,51 L248,49 Z M248,49 L248,51 L256,51 L256,49 Z M256,49 L256,51 L264,51 L264,49 Z M264,49 L264,51 L272,51 L272,49 Z M272,49 L272,51 L280,51 L280,49 Z M280,49 L280,51 L288,51 L288,49 Z M288,49 L288,51 L296,51 L296,49 Z M296,49 L296,51 L304,51 L304,49 Z M304,49 L304,51 L312,51 L312,49 Z M312,49 L312,51 L320,51 L320,49 Z M320,49 L320,51 L328,51 L328,49 Z M328,49 L328,51 L336,51 L336,49 Z M336,49 L336,51 L344,51 L344,49 Z M344,49 L344,51 L352,51 L352,49 Z M352,49 L352,51 L360,51 L360,49 Z M360,49 L360,51 L368,51 L368,49 Z M368,49 L368,51 L376,51 L376,49 Z M379,49 L379,51 L381,51 L381,49 Z M379,50 L379,60 L381,60 L381,50 Z M376,49 L376,51 L380,51 L380,49 Z M51,60 L51,80 L53,80 L53,60 Z M379,60 L379,80 L381,80 L381,60 Z M51,80 L51,100 L53,100 L53,80 Z M379,80 L379,100 L381,100 L381,80 Z M51,100 L51,120 L53,120 L53,100 Z M379,100 L379,120 L381,120 L381,100 Z M51,129 L51,131 L53,131 L53,129 Z M51,120 L51,130 L53,130 L53,120 Z M52,129 L52,131 L56,131 L56,129 Z M56,129 L56,131 L64,131 L64,129 Z M64,129 L64,131 L72,131 L72,129 Z M72,129 L72,131 L80,131 L80,129 Z M80,129 L80,131 L88,131 L88,129 Z M88,129 L88,131 L96,131 L96,129 Z M96,129 L96,131 L104,131 L104,129 Z M104,129 L104,131 L112,131 L112,129 Z M112,129 L112,131 L120,131 L120,129 Z M120,129 L120,131 L128,131 L128,129 Z M128,129 L128,131 L136,131 L136,129 Z M136,129 L136,131 L144,131 L144,129 Z M144,129 L144,131 L152,131 L152,129 Z M152,129 L152,131 L160,131 L160,129 Z M160,129 L160,131 L168,131 L168,129 Z M168,129 L168,131 L176,131 L176,129 Z M176,129 L176,131 L184,131 L184,129 Z M184,129 L184,131 L192,131 L192,129 Z M192,129 L192,131 L200,131 L200,129 Z M200,129 L200,131 L208,131 L208,129 Z M208,129 L208,131 L216,131 L216,129 Z M216,129 L216,131 L224,131 L224,129 Z M224,129 L224,131 L232,131 L232,129 Z M232,129 L232,131 L240,131 L240,129 Z M240,129 L240,131 L248,131 L248,129 Z M248,129 L248,131 L256,131 L256,129 Z M256,129 L256,131 L264,131 L264,129 Z M264,129 L264,131 L272,131 L272,129 Z M272,129 L272,131 L280,131 L280,129 Z M280,129 L280,131 L288,131 L288,129 Z M288,129 L288,131 L296,131 L296,129 Z M296,129 L296,131 L304,131 L304,129 Z M304,129 L304,131 L312,131 L312,129 Z M312,129 L312,131 L320,131 L320,129 Z M320,129 L320,131 L328,131 L328,129 Z M328,129 L328,131 L336,131 L336,129 Z M336,129 L336,131 L344,131 L344,129 Z M344,129 L344,131 L352,131 L352,129 Z M352,129 L352,131 L360,131 L360,129 Z M360,129 L360,131 L368,131 L368,129 Z M368,129 L368,131 L376,131 L376,129 Z M379,129 L379,131 L381,131 L381,129 Z M379,120 L379,130 L381,130 L381,120 Z M376,129 L376,131 L380,131 L380,129 Z " fill="#000" stroke="#000" stroke-width="0.1px" />
</svg>