<?xml version="1.0"?>
<svg width="328" height="240" viewBox="0 0 328 240"
    xmlns="http://www.w3.org/2000/svg" version="1.1">
	<text x="24" y="30" font-family="Meiryo, sans-serif" font-weight="normal" font-size="16px" fill="#000" dominant-baseline="central" text-anchor="middle">○</text>
	<text x="40" y="30" font-family="Meiryo, sans-serif" font-weight="normal" font-size="16px" fill="#000" dominant-baseline="central" text-anchor="middle">○</text>
	<text x="52" y="30" font-family="MS Gothic, monospace" font-weight="normal" font-size="16px" fill="#000" dominant-baseline="central" text-anchor="middle">(</text>
	<text x="60" y="30" font-family="MS Gothic, monospace" font-weight="normal" font-size="16px" fill="#000" dominant-baseline="central" text-anchor="middle">)</text>
	<text x="76" y="30" font-family="MS Gothic, monospace" font-weight="normal" font-size="16px" fill="#000" dominant-baseline="central" text-anchor="middle">{</text>
	<text x="72" y="70" font-family="Meiryo, sans-serif" font-weight="normal" font-size="16px" fill="#000" dominant-baseline="central" text-anchor="middle">ス</text>
	<text x="88" y="70" font-family="Meiryo, sans-serif" font-weight="normal" font-size="16px" fill="#000" dominant-baseline="central" text-anchor="middle">コ</text>
	<text x="104" y="70" font-family="Meiryo, sans-serif" font-weight="normal" font-size="16px" fill="#000" dominant-baseline="central" text-anchor="middle">ー</text>
	<text x="120" y="70" font-family="Meiryo, sans-serif" font-weight="normal" font-size="16px" fill="#000" dominant-baseline="central" text-anchor="middle">プ</text>
	<text x="88" y="110" font-family="Meiryo, sans-serif" font-weight="normal" font-size="16px" fill="#000" dominant-baseline="central" text-anchor="middle">変</text>
	<text x="104" y="110" font-family="Meiryo, sans-serif" font-weight="normal" font-size="16px" fill="#000" dominant-baseline="central" text-anchor="middle">数</text>
	<text x="120" y="110" font-family="Meiryo, sans-serif" font-weight="normal" font-size="16px" fill="#000" dominant-baseline="central" text-anchor="middle">宣</text>
	<text x="136" y="110" font-family="Meiryo, sans-serif" font-weight="normal" font-size="16px" fill="#000" dominant-baseline="central" text-anchor="middle">言</text>
	<text x="152" y="110" font-family="Meiryo, sans-serif" font-weight="normal" font-size="16px" fill="#000" dominant-baseline="central" text-anchor="middle">ａ</text>
	<text x="184" y="110" font-family="Meiryo, sans-serif" font-weight="normal" font-size="16px" fill="#000" dominant-baseline="central" text-anchor="middle">最</text>
	<text x="200" y="110" font-family="Meiryo, sans-serif" font-weight="normal" font-size="16px" fill="#000" dominant-baseline="central" text-anchor="middle">初</text>
	<text x="216" y="110" font-family="Meiryo, sans-serif" font-weight="normal" font-size="16px" fill="#000" dominant-baseline="central" text-anchor="middle">の</text>
	<text x="232" y="110" font-family="Meiryo, sans-serif" font-weight="normal" font-size="16px" fill="#000" dominant-baseline="central" text-anchor="middle">変</text>
	<text x="248" y="110" font-family="Meiryo, sans-serif" font-weight="normal" font-size="16px" fill="#000" dominant-baseline="central" text-anchor="middle">数</text>
	<text x="264" y="110" font-family="Meiryo, sans-serif" font-weight="normal" font-size="16px" fill="#000" dominant-baseline="central" text-anchor="middle">宣</text>
	<text x="280" y="110" font-family="Meiryo, sans-serif" font-weight="normal" font-size="16px" fill="#000" dominant-baseline="central" text-anchor="middle">言</text>
	<text x="88" y="150" font-family="Meiryo, sans-serif" font-weight="normal" font-size="16px" fill="#000" dominant-baseline="central" text-anchor="middle">変</text>
	<text x="104" y="150" font-family="Meiryo, sans-serif" font-weight="normal" font-size="16px" fill="#000" dominant-baseline="central" text-anchor="middle">数</text>
	<text x="120" y="150" font-family="Meiryo, sans-serif" font-weight="normal" font-size="16px" fill="#000" dominant-baseline="central" text-anchor="middle">宣</text>
	<text x="136" y="150" font-family="Meiryo, sans-serif" font-weight="normal" font-size="16px" fill="#000" dominant-baseline="central" text-anchor="middle">言</text>
	<text x="152" y="150" font-family="Meiryo, sans-serif" font-weight="normal" font-size="16px" fill="#000" dominant-baseline="central" text-anchor="middle">ａ</text>
	<text x="184" y="150" font-family="Meiryo, sans-serif" font-weight="normal" font-size="16px" fill="#000" dominant-baseline="central" text-anchor="middle">再</text>
	<text x="200" y="150" font-family="Meiryo, sans-serif" font-weight="normal" font-size="16px" fill="#000" dominant-baseline="central" text-anchor="middle">宣</text>
	<text x="216" y="150" font-family="Meiryo, sans-serif" font-weight="normal" font-size="16px" fill="#000" dominant-baseline="central" text-anchor="middle">言</text>
	<text x="20" y="210" font-family="MS Gothic, monospace" font-weight="normal" font-size="16px" fill="#000" dominant-baseline="central" text-anchor="middle">}</text>
	<path d="M51,49 L51,51 L53,51 L53,49 Z M51,50 L51,60 L53,60 L53,50 Z M52,49 L52,51 L56,51 L56,49 Z M56,49 L56,51 L64,51 L64,49 Z M64,49 L64,51 L72,51 L72,49 Z M72,49 L72,51 L80,51 L80,49 Z M80,49 L80,51 L88,51 L88,49 Z M88,49 L88,51 L96,51 L96,49 Z M96,49 L96,51 L104,51 L104,49 Z M104,49 L104,51 L112,51 L112,49 Z M112,49 L112,51 L120,51 L120,49 Z M120,49 L120,51 L128,51 L128,49 Z M128,49 L128,51 L136,51 L136,49 Z M136,49 L136,51 L144,51 L144,49 Z M144,49 L144,51 L152,51 L152,49 Z M152,49 L152,51 L160,51 L160,49 Z M160,49 L160,51 L168,51 L168,49 Z M168,49 L168,51 L176,51 L176,49 Z M176,49 L176,51 L184,51 L184,49 Z M184,49 L184,51 L192,51 L192,49 Z M192,49 L192,51 L200,51 L200,49 Z M200,49 L200,51 L208,51 L208,49 Z M208,49 L208,51 L216,51 L216,49 Z M216,49 L216,51 L224,51 L224,49 Z M224,49 L224,51 L232,51 L232,49 Z M232,49 L232,51 L240,51 L240,49 Z M240,49 L240,51 L248,51 L248,49 Z M248,49 L248,51 L256,51 L256,49 Z M256,49 L256,51 L264,51 L264,49 Z M264,49 L264,51 L272,51 L272,49 Z M272,49 L272,51 L280,51 L280,49 Z M280,49 L280,51 L288,51 L288,49 Z M288,49 L288,51 L296,51 L296,49 Z M296,49 L296,51 L304,51 L304,49 Z M307,49 L307,51 L309,51 L309,49 Z M307,50 L307,60 L309,60 L309,50 Z M304,49 L304,51 L308,51 L308,49 Z M51,60 L51,80 L53,80 L53,60 Z M307,60 L307,80 L309,80 L309,60 Z M51,80 L51,100 L53,100 L53,80 Z M307,80 L307,100 L309,100 L309,80 Z M51,100 L51,120 L53,120 L53,100 Z M307,100 L307,120 L309,120 L309,100 Z M51,120 L51,140 L53,140 L53,120 Z M307,120 L307,140 L309,140 L309,120 Z M51,140 L51,160 L53,160 L53,140 Z M307,140 L307,160 L309,160 L309,140 Z M51,160 L51,180 L53,180 L53,160 Z M307,160 L307,180 L309,180 L309,160 Z M51,189 L51,191 L53,191 L53,189 Z M51,180 L51,190 L53,190 L53,180 Z M52,189 L52,191 L56,191 L56,189 Z M56,189 L56,191 L64,191 L64,189 Z M64,189 L64,191 L72,191 L72,189 Z M72,189 L72,191 L80,191 L80,189 Z M80,189 L80,191 L88,191 L88,189 Z M88,189 L88,191 L96,191 L96,189 Z M96,189 L96,191 L104,191 L104,189 Z M104,189 L104,191 L112,191 L112,189 Z M112,189 L112,191 L120,191 L120,189 Z M120,189 L120,191 L128,191 L128,189 Z M128,189 L128,191 L136,191 L136,189 Z M136,189 L136,191 L144,191 L144,189 Z M144,189 L144,191 L152,191 L152,189 Z M152,189 L152,191 L160,191 L160,189 Z M160,189 L160,191 L168,191 L168,189 Z M168,189 L168,191 L176,191 L176,189 Z M176,189 L176,191 L184,191 L184,189 Z M184,189 L184,191 L192,191 L192,189 Z M192,189 L192,191 L200,191 L200,189 Z M200,189 L200,191 L208,191 L208,189 Z M208,189 L208,191 L216,191 L216,189 Z M216,189 L216,191 L224,191 L224,189 Z M224,189 L224,191 L232,191 L232,189 Z M232,189 L232,191 L240,191 L240,189 Z M240,189 L240,191 L248,191 L248,189 Z M248,189 L248,191 L256,191 L256,189 Z M256,189 L256,191 L264,191 L264,189 Z M264,189 L264,191 L272,191 L272,189 Z M272,189 L272,191 L280,191 L280,189 Z M280,189 L280,191 L288,191 L288,189 Z M288,189 L288,191 L296,191 L296,189 Z M296,189 L296,191 L304,191 L304,189 Z M307,189 L307,191 L309,191 L309,189 Z M307,180 L307,190 L309,190 L309,180 Z M304,189 L304,191 L308,191 L308,189 Z " fill="#000" stroke="#000" stroke-width="0.1px" />
</svg>