<?xml version="1.0"?>
<svg width="456" height="140" viewBox="0 0 456 140"
    xmlns="http://www.w3.org/2000/svg" version="1.1">
	<text x="24" y="30" font-family="Meiryo, sans-serif" font-weight="normal" font-size="16px" fill="#000" dominant-baseline="central" text-anchor="middle">変</text>
	<text x="40" y="30" font-family="Meiryo, sans-serif" font-weight="normal" font-size="16px" fill="#000" dominant-baseline="central" text-anchor="middle">数</text>
	<text x="60" y="30" font-family="MS Gothic, monospace" font-weight="normal" font-size="16px" fill="#000" dominant-baseline="central" text-anchor="middle">=</text>
	<text x="80" y="30" font-family="Meiryo, sans-serif" font-weight="normal" font-size="16px" fill="#000" dominant-baseline="central" text-anchor="middle">関</text>
	<text x="96" y="30" font-family="Meiryo, sans-serif" font-weight="normal" font-size="16px" fill="#000" dominant-baseline="central" text-anchor="middle">数</text>
	<text x="112" y="30" font-family="Meiryo, sans-serif" font-weight="normal" font-size="16px" fill="#000" dominant-baseline="central" text-anchor="middle">名</text>
	<text x="124" y="30" font-family="MS Gothic, monospace" font-weight="normal" font-size="16px" fill="#000" dominant-baseline="central" text-anchor="middle">(</text>
	<text x="136" y="30" font-family="Meiryo, sans-serif" font-weight="normal" font-size="16px" fill="#000" dominant-baseline="central" text-anchor="middle">引</text>
	<text x="152" y="30" font-family="Meiryo, sans-serif" font-weight="normal" font-size="16px" fill="#000" dominant-baseline="central" text-anchor="middle">数</text>
	<text x="164" y="30" font-family="MS Gothic, monospace" font-weight="normal" font-size="16px" fill="#000" dominant-baseline="central" text-anchor="middle">)</text>
	<text x="172" y="30" font-family="MS Gothic, monospace" font-weight="normal" font-size="16px" fill="#000" dominant-baseline="central" text-anchor="middle">;</text>
	<text x="260" y="30" font-family="MS Gothic, monospace" font-weight="normal" font-size="16px" fill="#000" dominant-baseline="central" text-anchor="middle">f</text>
	<text x="268" y="30" font-family="MS Gothic, monospace" font-weight="normal" font-size="16px" fill="#000" dominant-baseline="central" text-anchor="middle">u</text>
	<text x="276" y="30" font-family="MS Gothic, monospace" font-weight="normal" font-size="16px" fill="#000" dominant-baseline="central" text-anchor="middle">n</text>
	<text x="284" y="30" font-family="MS Gothic, monospace" font-weight="normal" font-size="16px" fill="#000" dominant-baseline="central" text-anchor="middle">c</text>
	<text x="292" y="30" font-family="MS Gothic, monospace" font-weight="normal" font-size="16px" fill="#000" dominant-baseline="central" text-anchor="middle">t</text>
	<text x="300" y="30" font-family="MS Gothic, monospace" font-weight="normal" font-size="16px" fill="#000" dominant-baseline="central" text-anchor="middle">i</text>
	<text x="308" y="30" font-family="MS Gothic, monospace" font-weight="normal" font-size="16px" fill="#000" dominant-baseline="central" text-anchor="middle">o</text>
	<text x="316" y="30" font-family="MS Gothic, monospace" font-weight="normal" font-size="16px" fill="#000" dominant-baseline="central" text-anchor="middle">n</text>
	<text x="336" y="30" font-family="Meiryo, sans-serif" font-weight="normal" font-size="16px" fill="#000" dominant-baseline="central" text-anchor="middle">関</text>
	<text x="352" y="30" font-family="Meiryo, sans-serif" font-weight="normal" font-size="16px" fill="#000" dominant-baseline="central" text-anchor="middle">数</text>
	<text x="368" y="30" font-family="Meiryo, sans-serif" font-weight="normal" font-size="16px" fill="#000" dominant-baseline="central" text-anchor="middle">名</text>
	<text x="380" y="30" font-family="MS Gothic, monospace" font-weight="normal" font-size="16px" fill="#000" dominant-baseline="central" text-anchor="middle">(</text>
	<text x="392" y="30" font-family="Meiryo, sans-serif" font-weight="normal" font-size="16px" fill="#000" dominant-baseline="central" text-anchor="middle">引</text>
	<text x="408" y="30" font-family="Meiryo, sans-serif" font-weight="normal" font-size="16px" fill="#000" dominant-baseline="central" text-anchor="middle">数</text>
	<text x="420" y="30" font-family="MS Gothic, monospace" font-weight="normal" font-size="16px" fill="#000" dominant-baseline="central" text-anchor="middle">)</text>
	<text x="436" y="30" font-family="MS Gothic, monospace" font-weight="normal" font-size="16px" fill="#000" dominant-baseline="central" text-anchor="middle">{</text>
	<text x="296" y="50" font-family="Meiryo, sans-serif" font-weight="normal" font-size="16px" fill="#000" dominant-baseline="central" text-anchor="middle">処</text>
	<text x="312" y="50" font-family="Meiryo, sans-serif" font-weight="normal" font-size="16px" fill="#000" dominant-baseline="central" text-anchor="middle">理</text>
	<text x="80" y="70" font-family="Meiryo, sans-serif" font-weight="normal" font-size="16px" fill="#000" dominant-baseline="central" text-anchor="middle">▼</text>
	<text x="292" y="70" font-family="MS Gothic, monospace" font-weight="normal" font-size="16px" fill="#000" dominant-baseline="central" text-anchor="middle">r</text>
	<text x="300" y="70" font-family="MS Gothic, monospace" font-weight="normal" font-size="16px" fill="#000" dominant-baseline="central" text-anchor="middle">e</text>
	<text x="308" y="70" font-family="MS Gothic, monospace" font-weight="normal" font-size="16px" fill="#000" dominant-baseline="central" text-anchor="middle">t</text>
	<text x="316" y="70" font-family="MS Gothic, monospace" font-weight="normal" font-size="16px" fill="#000" dominant-baseline="central" text-anchor="middle">u</text>
	<text x="324" y="70" font-family="MS Gothic, monospace" font-weight="normal" font-size="16px" fill="#000" dominant-baseline="central" text-anchor="middle">r</text>
	<text x="332" y="70" font-family="MS Gothic, monospace" font-weight="normal" font-size="16px" fill="#000" dominant-baseline="central" text-anchor="middle">n</text>
	<text x="352" y="70" font-family="Meiryo, sans-serif" font-weight="normal" font-size="16px" fill="#000" dominant-baseline="central" text-anchor="middle">返</text>
	<text x="368" y="70" font-family="Meiryo, sans-serif" font-weight="normal" font-size="16px" fill="#000" dominant-baseline="central" text-anchor="middle">り</text>
	<text x="384" y="70" font-family="Meiryo, sans-serif" font-weight="normal" font-size="16px" fill="#000" dominant-baseline="central" text-anchor="middle">値</text>
	<text x="396" y="70" font-family="MS Gothic, monospace" font-weight="normal" font-size="16px" fill="#000" dominant-baseline="central" text-anchor="middle">;</text>
	<text x="260" y="90" font-family="MS Gothic, monospace" font-weight="normal" font-size="16px" fill="#000" dominant-baseline="central" text-anchor="middle">}</text>
	<text x="24" y="110" font-family="Meiryo, sans-serif" font-weight="normal" font-size="16px" fill="#000" dominant-baseline="central" text-anchor="middle">変</text>
	<text x="40" y="110" font-family="Meiryo, sans-serif" font-weight="normal" font-size="16px" fill="#000" dominant-baseline="central" text-anchor="middle">数</text>
	<text x="60" y="110" font-family="MS Gothic, monospace" font-weight="normal" font-size="16px" fill="#000" dominant-baseline="central" text-anchor="middle">=</text>
	<text x="80" y="110" font-family="Meiryo, sans-serif" font-weight="normal" font-size="16px" fill="#000" dominant-baseline="central" text-anchor="middle">返</text>
	<text x="96" y="110" font-family="Meiryo, sans-serif" font-weight="normal" font-size="16px" fill="#000" dominant-baseline="central" text-anchor="middle">り</text>
	<text x="112" y="110" font-family="Meiryo, sans-serif" font-weight="normal" font-size="16px" fill="#000" dominant-baseline="central" text-anchor="middle">値</text>
	<text x="124" y="110" font-family="MS Gothic, monospace" font-weight="normal" font-size="16px" fill="#000" dominant-baseline="central" text-anchor="middle">;</text>
	<path d="M184,29 L184,31 L192,31 L192,29 Z M192,29 L192,31 L200,31 L200,29 Z M200,29 L200,31 L208,31 L208,29 Z M208,29 L208,31 L216,31 L216,29 Z M216,29 L216,31 L224,31 L224,29 Z M224,29 L224,31 L232,31 L232,29 Z M232,29 L232,31 L240,31 L240,29 Z M248,30 L240,35 L240,25 Z M363,80 L363,100 L365,100 L365,80 Z M136,110 L144,115 L144,105 Z M144,109 L144,111 L152,111 L152,109 Z M152,109 L152,111 L160,111 L160,109 Z M160,109 L160,111 L168,111 L168,109 Z M168,109 L168,111 L176,111 L176,109 Z M176,109 L176,111 L184,111 L184,109 Z M184,109 L184,111 L192,111 L192,109 Z M192,109 L192,111 L200,111 L200,109 Z M200,109 L200,111 L208,111 L208,109 Z M208,109 L208,111 L216,111 L216,109 Z M216,109 L216,111 L224,111 L224,109 Z M224,109 L224,111 L232,111 L232,109 Z M232,109 L232,111 L240,111 L240,109 Z M240,109 L240,111 L248,111 L248,109 Z M248,109 L248,111 L256,111 L256,109 Z M256,109 L256,111 L264,111 L264,109 Z M264,109 L264,111 L272,111 L272,109 Z M272,109 L272,111 L280,111 L280,109 Z M280,109 L280,111 L288,111 L288,109 Z M288,109 L288,111 L296,111 L296,109 Z M296,109 L296,111 L304,111 L304,109 Z M304,109 L304,111 L312,111 L312,109 Z M312,109 L312,111 L320,111 L320,109 Z M320,109 L320,111 L328,111 L328,109 Z M328,109 L328,111 L336,111 L336,109 Z M336,109 L336,111 L344,111 L344,109 Z M344,109 L344,111 L352,111 L352,109 Z M352,109 L352,111 L360,111 L360,109 Z M363,109 L363,111 L365,111 L365,109 Z M363,100 L363,110 L365,110 L365,100 Z M360,109 L360,111 L364,111 L364,109 Z " fill="#000" stroke="#000" stroke-width="0.1px" />
</svg>