<?xml version="1.0"?>
<svg width="664" height="260" viewBox="0 0 664 260"
    xmlns="http://www.w3.org/2000/svg" version="1.1">
	<text x="436" y="30" font-family="MS Gothic, monospace" font-weight="normal" font-size="16px" fill="#000" dominant-baseline="central" text-anchor="middle">&lt;</text>
	<text x="444" y="30" font-family="MS Gothic, monospace" font-weight="normal" font-size="16px" fill="#000" dominant-baseline="central" text-anchor="middle">a</text>
	<text x="452" y="30" font-family="MS Gothic, monospace" font-weight="normal" font-size="16px" fill="#000" dominant-baseline="central" text-anchor="middle">r</text>
	<text x="460" y="30" font-family="MS Gothic, monospace" font-weight="normal" font-size="16px" fill="#000" dominant-baseline="central" text-anchor="middle">t</text>
	<text x="468" y="30" font-family="MS Gothic, monospace" font-weight="normal" font-size="16px" fill="#000" dominant-baseline="central" text-anchor="middle">i</text>
	<text x="476" y="30" font-family="MS Gothic, monospace" font-weight="normal" font-size="16px" fill="#000" dominant-baseline="central" text-anchor="middle">c</text>
	<text x="484" y="30" font-family="MS Gothic, monospace" font-weight="normal" font-size="16px" fill="#000" dominant-baseline="central" text-anchor="middle">l</text>
	<text x="492" y="30" font-family="MS Gothic, monospace" font-weight="normal" font-size="16px" fill="#000" dominant-baseline="central" text-anchor="middle">e</text>
	<text x="500" y="30" font-family="MS Gothic, monospace" font-weight="normal" font-size="16px" fill="#000" dominant-baseline="central" text-anchor="middle">&gt;</text>
	<text x="452" y="50" font-family="MS Gothic, monospace" font-weight="normal" font-size="16px" fill="#000" dominant-baseline="central" text-anchor="middle">&lt;</text>
	<text x="460" y="50" font-family="MS Gothic, monospace" font-weight="normal" font-size="16px" fill="#000" dominant-baseline="central" text-anchor="middle">s</text>
	<text x="468" y="50" font-family="MS Gothic, monospace" font-weight="normal" font-size="16px" fill="#000" dominant-baseline="central" text-anchor="middle">e</text>
	<text x="476" y="50" font-family="MS Gothic, monospace" font-weight="normal" font-size="16px" fill="#000" dominant-baseline="central" text-anchor="middle">c</text>
	<text x="484" y="50" font-family="MS Gothic, monospace" font-weight="normal" font-size="16px" fill="#000" dominant-baseline="central" text-anchor="middle">t</text>
	<text x="492" y="50" font-family="MS Gothic, monospace" font-weight="normal" font-size="16px" fill="#000" dominant-baseline="central" text-anchor="middle">i</text>
	<text x="500" y="50" font-family="MS Gothic, monospace" font-weight="normal" font-size="16px" fill="#000" dominant-baseline="central" text-anchor="middle">o</text>
	<text x="508" y="50" font-family="MS Gothic, monospace" font-weight="normal" font-size="16px" fill="#000" dominant-baseline="central" text-anchor="middle">n</text>
	<text x="516" y="50" font-family="MS Gothic, monospace" font-weight="normal" font-size="16px" fill="#000" dominant-baseline="central" text-anchor="middle">&gt;</text>
	<text x="20" y="90" font-family="MS Gothic, monospace" font-weight="normal" font-size="16px" fill="#000" dominant-baseline="central" text-anchor="middle">d</text>
	<text x="28" y="90" font-family="MS Gothic, monospace" font-weight="normal" font-size="16px" fill="#000" dominant-baseline="central" text-anchor="middle">o</text>
	<text x="36" y="90" font-family="MS Gothic, monospace" font-weight="normal" font-size="16px" fill="#000" dominant-baseline="central" text-anchor="middle">c</text>
	<text x="44" y="90" font-family="MS Gothic, monospace" font-weight="normal" font-size="16px" fill="#000" dominant-baseline="central" text-anchor="middle">u</text>
	<text x="52" y="90" font-family="MS Gothic, monospace" font-weight="normal" font-size="16px" fill="#000" dominant-baseline="central" text-anchor="middle">m</text>
	<text x="60" y="90" font-family="MS Gothic, monospace" font-weight="normal" font-size="16px" fill="#000" dominant-baseline="central" text-anchor="middle">e</text>
	<text x="68" y="90" font-family="MS Gothic, monospace" font-weight="normal" font-size="16px" fill="#000" dominant-baseline="central" text-anchor="middle">n</text>
	<text x="76" y="90" font-family="MS Gothic, monospace" font-weight="normal" font-size="16px" fill="#000" dominant-baseline="central" text-anchor="middle">t</text>
	<text x="84" y="90" font-family="MS Gothic, monospace" font-weight="normal" font-size="16px" fill="#000" dominant-baseline="central" text-anchor="middle">.</text>
	<text x="92" y="90" font-family="MS Gothic, monospace" font-weight="normal" font-size="16px" fill="#000" dominant-baseline="central" text-anchor="middle">q</text>
	<text x="100" y="90" font-family="MS Gothic, monospace" font-weight="normal" font-size="16px" fill="#000" dominant-baseline="central" text-anchor="middle">u</text>
	<text x="108" y="90" font-family="MS Gothic, monospace" font-weight="normal" font-size="16px" fill="#000" dominant-baseline="central" text-anchor="middle">e</text>
	<text x="116" y="90" font-family="MS Gothic, monospace" font-weight="normal" font-size="16px" fill="#000" dominant-baseline="central" text-anchor="middle">r</text>
	<text x="124" y="90" font-family="MS Gothic, monospace" font-weight="normal" font-size="16px" fill="#000" dominant-baseline="central" text-anchor="middle">y</text>
	<text x="132" y="90" font-family="MS Gothic, monospace" font-weight="normal" font-size="16px" fill="#000" dominant-baseline="central" text-anchor="middle">S</text>
	<text x="140" y="90" font-family="MS Gothic, monospace" font-weight="normal" font-size="16px" fill="#000" dominant-baseline="central" text-anchor="middle">e</text>
	<text x="148" y="90" font-family="MS Gothic, monospace" font-weight="normal" font-size="16px" fill="#000" dominant-baseline="central" text-anchor="middle">l</text>
	<text x="156" y="90" font-family="MS Gothic, monospace" font-weight="normal" font-size="16px" fill="#000" dominant-baseline="central" text-anchor="middle">e</text>
	<text x="164" y="90" font-family="MS Gothic, monospace" font-weight="normal" font-size="16px" fill="#000" dominant-baseline="central" text-anchor="middle">c</text>
	<text x="172" y="90" font-family="MS Gothic, monospace" font-weight="normal" font-size="16px" fill="#000" dominant-baseline="central" text-anchor="middle">t</text>
	<text x="180" y="90" font-family="MS Gothic, monospace" font-weight="normal" font-size="16px" fill="#000" dominant-baseline="central" text-anchor="middle">o</text>
	<text x="188" y="90" font-family="MS Gothic, monospace" font-weight="normal" font-size="16px" fill="#000" dominant-baseline="central" text-anchor="middle">r</text>
	<text x="196" y="90" font-family="MS Gothic, monospace" font-weight="normal" font-size="16px" fill="#000" dominant-baseline="central" text-anchor="middle">(</text>
	<text x="204" y="90" font-family="MS Gothic, monospace" font-weight="normal" font-size="16px" fill="#000" dominant-baseline="central" text-anchor="middle">'</text>
	<text x="212" y="90" font-family="MS Gothic, monospace" font-weight="normal" font-size="16px" fill="#000" dominant-baseline="central" text-anchor="middle">C</text>
	<text x="220" y="90" font-family="MS Gothic, monospace" font-weight="normal" font-size="16px" fill="#000" dominant-baseline="central" text-anchor="middle">S</text>
	<text x="228" y="90" font-family="MS Gothic, monospace" font-weight="normal" font-size="16px" fill="#000" dominant-baseline="central" text-anchor="middle">S</text>
	<text x="240" y="90" font-family="Meiryo, sans-serif" font-weight="normal" font-size="16px" fill="#000" dominant-baseline="central" text-anchor="middle">セ</text>
	<text x="256" y="90" font-family="Meiryo, sans-serif" font-weight="normal" font-size="16px" fill="#000" dominant-baseline="central" text-anchor="middle">レ</text>
	<text x="272" y="90" font-family="Meiryo, sans-serif" font-weight="normal" font-size="16px" fill="#000" dominant-baseline="central" text-anchor="middle">ク</text>
	<text x="288" y="90" font-family="Meiryo, sans-serif" font-weight="normal" font-size="16px" fill="#000" dominant-baseline="central" text-anchor="middle">タ</text>
	<text x="304" y="90" font-family="Meiryo, sans-serif" font-weight="normal" font-size="16px" fill="#000" dominant-baseline="central" text-anchor="middle">ー</text>
	<text x="316" y="90" font-family="MS Gothic, monospace" font-weight="normal" font-size="16px" fill="#000" dominant-baseline="central" text-anchor="middle">'</text>
	<text x="324" y="90" font-family="MS Gothic, monospace" font-weight="normal" font-size="16px" fill="#000" dominant-baseline="central" text-anchor="middle">)</text>
	<text x="360" y="90" font-family="Meiryo, sans-serif" font-weight="normal" font-size="16px" fill="#000" dominant-baseline="central" text-anchor="middle">選</text>
	<text x="376" y="90" font-family="Meiryo, sans-serif" font-weight="normal" font-size="16px" fill="#000" dominant-baseline="central" text-anchor="middle">択</text>
	<text x="468" y="90" font-family="MS Gothic, monospace" font-weight="normal" font-size="16px" fill="#000" dominant-baseline="central" text-anchor="middle">&lt;</text>
	<text x="476" y="90" font-family="MS Gothic, monospace" font-weight="normal" font-size="16px" fill="#000" dominant-baseline="central" text-anchor="middle">d</text>
	<text x="484" y="90" font-family="MS Gothic, monospace" font-weight="normal" font-size="16px" fill="#000" dominant-baseline="central" text-anchor="middle">i</text>
	<text x="492" y="90" font-family="MS Gothic, monospace" font-weight="normal" font-size="16px" fill="#000" dominant-baseline="central" text-anchor="middle">v</text>
	<text x="508" y="90" font-family="MS Gothic, monospace" font-weight="normal" font-size="16px" fill="#000" dominant-baseline="central" text-anchor="middle">c</text>
	<text x="516" y="90" font-family="MS Gothic, monospace" font-weight="normal" font-size="16px" fill="#000" dominant-baseline="central" text-anchor="middle">l</text>
	<text x="524" y="90" font-family="MS Gothic, monospace" font-weight="normal" font-size="16px" fill="#000" dominant-baseline="central" text-anchor="middle">a</text>
	<text x="532" y="90" font-family="MS Gothic, monospace" font-weight="normal" font-size="16px" fill="#000" dominant-baseline="central" text-anchor="middle">s</text>
	<text x="540" y="90" font-family="MS Gothic, monospace" font-weight="normal" font-size="16px" fill="#000" dominant-baseline="central" text-anchor="middle">s</text>
	<text x="548" y="90" font-family="MS Gothic, monospace" font-weight="normal" font-size="16px" fill="#000" dominant-baseline="central" text-anchor="middle">=</text>
	<text x="556" y="90" font-family="MS Gothic, monospace" font-weight="normal" font-size="16px" fill="#000" dominant-baseline="central" text-anchor="middle">"</text>
	<text x="564" y="90" font-family="MS Gothic, monospace" font-weight="normal" font-size="16px" fill="#000" dominant-baseline="central" text-anchor="middle">m</text>
	<text x="572" y="90" font-family="MS Gothic, monospace" font-weight="normal" font-size="16px" fill="#000" dominant-baseline="central" text-anchor="middle">e</text>
	<text x="580" y="90" font-family="MS Gothic, monospace" font-weight="normal" font-size="16px" fill="#000" dominant-baseline="central" text-anchor="middle">n</text>
	<text x="588" y="90" font-family="MS Gothic, monospace" font-weight="normal" font-size="16px" fill="#000" dominant-baseline="central" text-anchor="middle">u</text>
	<text x="596" y="90" font-family="MS Gothic, monospace" font-weight="normal" font-size="16px" fill="#000" dominant-baseline="central" text-anchor="middle">"</text>
	<text x="604" y="90" font-family="MS Gothic, monospace" font-weight="normal" font-size="16px" fill="#000" dominant-baseline="central" text-anchor="middle">&gt;</text>
	<text x="484" y="110" font-family="MS Gothic, monospace" font-weight="normal" font-size="16px" fill="#000" dominant-baseline="central" text-anchor="middle">&lt;</text>
	<text x="492" y="110" font-family="MS Gothic, monospace" font-weight="normal" font-size="16px" fill="#000" dominant-baseline="central" text-anchor="middle">s</text>
	<text x="500" y="110" font-family="MS Gothic, monospace" font-weight="normal" font-size="16px" fill="#000" dominant-baseline="central" text-anchor="middle">p</text>
	<text x="508" y="110" font-family="MS Gothic, monospace" font-weight="normal" font-size="16px" fill="#000" dominant-baseline="central" text-anchor="middle">a</text>
	<text x="516" y="110" font-family="MS Gothic, monospace" font-weight="normal" font-size="16px" fill="#000" dominant-baseline="central" text-anchor="middle">n</text>
	<text x="532" y="110" font-family="MS Gothic, monospace" font-weight="normal" font-size="16px" fill="#000" dominant-baseline="central" text-anchor="middle">c</text>
	<text x="540" y="110" font-family="MS Gothic, monospace" font-weight="normal" font-size="16px" fill="#000" dominant-baseline="central" text-anchor="middle">l</text>
	<text x="548" y="110" font-family="MS Gothic, monospace" font-weight="normal" font-size="16px" fill="#000" dominant-baseline="central" text-anchor="middle">a</text>
	<text x="556" y="110" font-family="MS Gothic, monospace" font-weight="normal" font-size="16px" fill="#000" dominant-baseline="central" text-anchor="middle">s</text>
	<text x="564" y="110" font-family="MS Gothic, monospace" font-weight="normal" font-size="16px" fill="#000" dominant-baseline="central" text-anchor="middle">s</text>
	<text x="572" y="110" font-family="MS Gothic, monospace" font-weight="normal" font-size="16px" fill="#000" dominant-baseline="central" text-anchor="middle">=</text>
	<text x="580" y="110" font-family="MS Gothic, monospace" font-weight="normal" font-size="16px" fill="#000" dominant-baseline="central" text-anchor="middle">"</text>
	<text x="588" y="110" font-family="MS Gothic, monospace" font-weight="normal" font-size="16px" fill="#000" dominant-baseline="central" text-anchor="middle">n</text>
	<text x="596" y="110" font-family="MS Gothic, monospace" font-weight="normal" font-size="16px" fill="#000" dominant-baseline="central" text-anchor="middle">a</text>
	<text x="604" y="110" font-family="MS Gothic, monospace" font-weight="normal" font-size="16px" fill="#000" dominant-baseline="central" text-anchor="middle">m</text>
	<text x="612" y="110" font-family="MS Gothic, monospace" font-weight="normal" font-size="16px" fill="#000" dominant-baseline="central" text-anchor="middle">e</text>
	<text x="620" y="110" font-family="MS Gothic, monospace" font-weight="normal" font-size="16px" fill="#000" dominant-baseline="central" text-anchor="middle">"</text>
	<text x="628" y="110" font-family="MS Gothic, monospace" font-weight="normal" font-size="16px" fill="#000" dominant-baseline="central" text-anchor="middle">&gt;</text>
	<text x="512" y="130" font-family="Meiryo, sans-serif" font-weight="normal" font-size="16px" fill="#000" dominant-baseline="central" text-anchor="middle">カ</text>
	<text x="528" y="130" font-family="Meiryo, sans-serif" font-weight="normal" font-size="16px" fill="#000" dominant-baseline="central" text-anchor="middle">ル</text>
	<text x="544" y="130" font-family="Meiryo, sans-serif" font-weight="normal" font-size="16px" fill="#000" dominant-baseline="central" text-anchor="middle">ボ</text>
	<text x="560" y="130" font-family="Meiryo, sans-serif" font-weight="normal" font-size="16px" fill="#000" dominant-baseline="central" text-anchor="middle">ナ</text>
	<text x="576" y="130" font-family="Meiryo, sans-serif" font-weight="normal" font-size="16px" fill="#000" dominant-baseline="central" text-anchor="middle">ー</text>
	<text x="592" y="130" font-family="Meiryo, sans-serif" font-weight="normal" font-size="16px" fill="#000" dominant-baseline="central" text-anchor="middle">ラ</text>
	<text x="484" y="150" font-family="MS Gothic, monospace" font-weight="normal" font-size="16px" fill="#000" dominant-baseline="central" text-anchor="middle">&lt;</text>
	<text x="492" y="150" font-family="MS Gothic, monospace" font-weight="normal" font-size="16px" fill="#000" dominant-baseline="central" text-anchor="middle">/</text>
	<text x="500" y="150" font-family="MS Gothic, monospace" font-weight="normal" font-size="16px" fill="#000" dominant-baseline="central" text-anchor="middle">s</text>
	<text x="508" y="150" font-family="MS Gothic, monospace" font-weight="normal" font-size="16px" fill="#000" dominant-baseline="central" text-anchor="middle">p</text>
	<text x="516" y="150" font-family="MS Gothic, monospace" font-weight="normal" font-size="16px" fill="#000" dominant-baseline="central" text-anchor="middle">a</text>
	<text x="524" y="150" font-family="MS Gothic, monospace" font-weight="normal" font-size="16px" fill="#000" dominant-baseline="central" text-anchor="middle">n</text>
	<text x="532" y="150" font-family="MS Gothic, monospace" font-weight="normal" font-size="16px" fill="#000" dominant-baseline="central" text-anchor="middle">&gt;</text>
	<text x="468" y="170" font-family="MS Gothic, monospace" font-weight="normal" font-size="16px" fill="#000" dominant-baseline="central" text-anchor="middle">&lt;</text>
	<text x="476" y="170" font-family="MS Gothic, monospace" font-weight="normal" font-size="16px" fill="#000" dominant-baseline="central" text-anchor="middle">/</text>
	<text x="484" y="170" font-family="MS Gothic, monospace" font-weight="normal" font-size="16px" fill="#000" dominant-baseline="central" text-anchor="middle">d</text>
	<text x="492" y="170" font-family="MS Gothic, monospace" font-weight="normal" font-size="16px" fill="#000" dominant-baseline="central" text-anchor="middle">i</text>
	<text x="500" y="170" font-family="MS Gothic, monospace" font-weight="normal" font-size="16px" fill="#000" dominant-baseline="central" text-anchor="middle">v</text>
	<text x="508" y="170" font-family="MS Gothic, monospace" font-weight="normal" font-size="16px" fill="#000" dominant-baseline="central" text-anchor="middle">&gt;</text>
	<text x="452" y="210" font-family="MS Gothic, monospace" font-weight="normal" font-size="16px" fill="#000" dominant-baseline="central" text-anchor="middle">&lt;</text>
	<text x="460" y="210" font-family="MS Gothic, monospace" font-weight="normal" font-size="16px" fill="#000" dominant-baseline="central" text-anchor="middle">/</text>
	<text x="468" y="210" font-family="MS Gothic, monospace" font-weight="normal" font-size="16px" fill="#000" dominant-baseline="central" text-anchor="middle">s</text>
	<text x="476" y="210" font-family="MS Gothic, monospace" font-weight="normal" font-size="16px" fill="#000" dominant-baseline="central" text-anchor="middle">e</text>
	<text x="484" y="210" font-family="MS Gothic, monospace" font-weight="normal" font-size="16px" fill="#000" dominant-baseline="central" text-anchor="middle">c</text>
	<text x="492" y="210" font-family="MS Gothic, monospace" font-weight="normal" font-size="16px" fill="#000" dominant-baseline="central" text-anchor="middle">t</text>
	<text x="500" y="210" font-family="MS Gothic, monospace" font-weight="normal" font-size="16px" fill="#000" dominant-baseline="central" text-anchor="middle">i</text>
	<text x="508" y="210" font-family="MS Gothic, monospace" font-weight="normal" font-size="16px" fill="#000" dominant-baseline="central" text-anchor="middle">o</text>
	<text x="516" y="210" font-family="MS Gothic, monospace" font-weight="normal" font-size="16px" fill="#000" dominant-baseline="central" text-anchor="middle">n</text>
	<text x="524" y="210" font-family="MS Gothic, monospace" font-weight="normal" font-size="16px" fill="#000" dominant-baseline="central" text-anchor="middle">&gt;</text>
	<text x="436" y="230" font-family="MS Gothic, monospace" font-weight="normal" font-size="16px" fill="#000" dominant-baseline="central" text-anchor="middle">&lt;</text>
	<text x="444" y="230" font-family="MS Gothic, monospace" font-weight="normal" font-size="16px" fill="#000" dominant-baseline="central" text-anchor="middle">/</text>
	<text x="452" y="230" font-family="MS Gothic, monospace" font-weight="normal" font-size="16px" fill="#000" dominant-baseline="central" text-anchor="middle">a</text>
	<text x="460" y="230" font-family="MS Gothic, monospace" font-weight="normal" font-size="16px" fill="#000" dominant-baseline="central" text-anchor="middle">r</text>
	<text x="468" y="230" font-family="MS Gothic, monospace" font-weight="normal" font-size="16px" fill="#000" dominant-baseline="central" text-anchor="middle">t</text>
	<text x="476" y="230" font-family="MS Gothic, monospace" font-weight="normal" font-size="16px" fill="#000" dominant-baseline="central" text-anchor="middle">i</text>
	<text x="484" y="230" font-family="MS Gothic, monospace" font-weight="normal" font-size="16px" fill="#000" dominant-baseline="central" text-anchor="middle">c</text>
	<text x="492" y="230" font-family="MS Gothic, monospace" font-weight="normal" font-size="16px" fill="#000" dominant-baseline="central" text-anchor="middle">l</text>
	<text x="500" y="230" font-family="MS Gothic, monospace" font-weight="normal" font-size="16px" fill="#000" dominant-baseline="central" text-anchor="middle">e</text>
	<text x="508" y="230" font-family="MS Gothic, monospace" font-weight="normal" font-size="16px" fill="#000" dominant-baseline="central" text-anchor="middle">&gt;</text>
	<path d="M451,69 L451,71 L453,71 L453,69 Z M451,70 L451,80 L453,80 L453,70 Z M452,69 L452,71 L456,71 L456,69 Z M456,69 L456,71 L464,71 L464,69 Z M464,69 L464,71 L472,71 L472,69 Z M472,69 L472,71 L480,71 L480,69 Z M480,69 L480,71 L488,71 L488,69 Z M488,69 L488,71 L496,71 L496,69 Z M496,69 L496,71 L504,71 L504,69 Z M504,69 L504,71 L512,71 L512,69 Z M512,69 L512,71 L520,71 L520,69 Z M520,69 L520,71 L528,71 L528,69 Z M528,69 L528,71 L536,71 L536,69 Z M536,69 L536,71 L544,71 L544,69 Z M544,69 L544,71 L552,71 L552,69 Z M552,69 L552,71 L560,71 L560,69 Z M560,69 L560,71 L568,71 L568,69 Z M568,69 L568,71 L576,71 L576,69 Z M576,69 L576,71 L584,71 L584,69 Z M584,69 L584,71 L592,71 L592,69 Z M592,69 L592,71 L600,71 L600,69 Z M600,69 L600,71 L608,71 L608,69 Z M608,69 L608,71 L616,71 L616,69 Z M616,69 L616,71 L624,71 L624,69 Z M624,69 L624,71 L632,71 L632,69 Z M632,69 L632,71 L640,71 L640,69 Z M643,69 L643,71 L645,71 L645,69 Z M643,70 L643,80 L645,80 L645,70 Z M640,69 L640,71 L644,71 L644,69 Z M336,89 L336,91 L344,91 L344,89 Z M344,89 L344,91 L352,91 L352,89 Z M384,89 L384,91 L392,91 L392,89 Z M392,89 L392,91 L400,91 L400,89 Z M400,89 L400,91 L408,91 L408,89 Z M408,89 L408,91 L416,91 L416,89 Z M416,89 L416,91 L424,91 L424,89 Z M424,89 L424,91 L432,91 L432,89 Z M432,89 L432,91 L440,91 L440,89 Z M448,90 L440,95 L440,85 Z M451,80 L451,100 L453,100 L453,80 Z M643,80 L643,100 L645,100 L645,80 Z M451,100 L451,120 L453,120 L453,100 Z M643,100 L643,120 L645,120 L645,100 Z M451,120 L451,140 L453,140 L453,120 Z M643,120 L643,140 L645,140 L645,120 Z M451,140 L451,160 L453,160 L453,140 Z M643,140 L643,160 L645,160 L645,140 Z M451,160 L451,180 L453,180 L453,160 Z M643,160 L643,180 L645,180 L645,160 Z M451,189 L451,191 L453,191 L453,189 Z M451,180 L451,190 L453,190 L453,180 Z M452,189 L452,191 L456,191 L456,189 Z M456,189 L456,191 L464,191 L464,189 Z M464,189 L464,191 L472,191 L472,189 Z M472,189 L472,191 L480,191 L480,189 Z M480,189 L480,191 L488,191 L488,189 Z M488,189 L488,191 L496,191 L496,189 Z M496,189 L496,191 L504,191 L504,189 Z M504,189 L504,191 L512,191 L512,189 Z M512,189 L512,191 L520,191 L520,189 Z M520,189 L520,191 L528,191 L528,189 Z M528,189 L528,191 L536,191 L536,189 Z M536,189 L536,191 L544,191 L544,189 Z M544,189 L544,191 L552,191 L552,189 Z M552,189 L552,191 L560,191 L560,189 Z M560,189 L560,191 L568,191 L568,189 Z M568,189 L568,191 L576,191 L576,189 Z M576,189 L576,191 L584,191 L584,189 Z M584,189 L584,191 L592,191 L592,189 Z M592,189 L592,191 L600,191 L600,189 Z M600,189 L600,191 L608,191 L608,189 Z M608,189 L608,191 L616,191 L616,189 Z M616,189 L616,191 L624,191 L624,189 Z M624,189 L624,191 L632,191 L632,189 Z M632,189 L632,191 L640,191 L640,189 Z M643,189 L643,191 L645,191 L645,189 Z M643,180 L643,190 L645,190 L645,180 Z M640,189 L640,191 L644,191 L644,189 Z " fill="#000" stroke="#000" stroke-width="0.1px" />
</svg>