<?xml version="1.0"?>
<svg width="584" height="380" viewBox="0 0 584 380"
    xmlns="http://www.w3.org/2000/svg" version="1.1">
	<text x="24" y="30" font-family="Meiryo, sans-serif" font-weight="normal" font-size="16px" fill="#000" dominant-baseline="central" text-anchor="middle">○</text>
	<text x="40" y="30" font-family="Meiryo, sans-serif" font-weight="normal" font-size="16px" fill="#000" dominant-baseline="central" text-anchor="middle">○</text>
	<text x="52" y="30" font-family="MS Gothic, monospace" font-weight="normal" font-size="16px" fill="#000" dominant-baseline="central" text-anchor="middle">(</text>
	<text x="60" y="30" font-family="MS Gothic, monospace" font-weight="normal" font-size="16px" fill="#000" dominant-baseline="central" text-anchor="middle">)</text>
	<text x="76" y="30" font-family="MS Gothic, monospace" font-weight="normal" font-size="16px" fill="#000" dominant-baseline="central" text-anchor="middle">{</text>
	<text x="72" y="70" font-family="Meiryo, sans-serif" font-weight="normal" font-size="16px" fill="#000" dominant-baseline="central" text-anchor="middle">ス</text>
	<text x="88" y="70" font-family="Meiryo, sans-serif" font-weight="normal" font-size="16px" fill="#000" dominant-baseline="central" text-anchor="middle">コ</text>
	<text x="104" y="70" font-family="Meiryo, sans-serif" font-weight="normal" font-size="16px" fill="#000" dominant-baseline="central" text-anchor="middle">ー</text>
	<text x="120" y="70" font-family="Meiryo, sans-serif" font-weight="normal" font-size="16px" fill="#000" dominant-baseline="central" text-anchor="middle">プ</text>
	<text x="88" y="110" font-family="Meiryo, sans-serif" font-weight="normal" font-size="16px" fill="#000" dominant-baseline="central" text-anchor="middle">変</text>
	<text x="104" y="110" font-family="Meiryo, sans-serif" font-weight="normal" font-size="16px" fill="#000" dominant-baseline="central" text-anchor="middle">数</text>
	<text x="120" y="110" font-family="Meiryo, sans-serif" font-weight="normal" font-size="16px" fill="#000" dominant-baseline="central" text-anchor="middle">宣</text>
	<text x="136" y="110" font-family="Meiryo, sans-serif" font-weight="normal" font-size="16px" fill="#000" dominant-baseline="central" text-anchor="middle">言</text>
	<text x="152" y="110" font-family="Meiryo, sans-serif" font-weight="normal" font-size="16px" fill="#000" dominant-baseline="central" text-anchor="middle">ａ</text>
	<text x="184" y="110" font-family="Meiryo, sans-serif" font-weight="normal" font-size="16px" fill="#000" dominant-baseline="central" text-anchor="middle">最</text>
	<text x="200" y="110" font-family="Meiryo, sans-serif" font-weight="normal" font-size="16px" fill="#000" dominant-baseline="central" text-anchor="middle">初</text>
	<text x="216" y="110" font-family="Meiryo, sans-serif" font-weight="normal" font-size="16px" fill="#000" dominant-baseline="central" text-anchor="middle">の</text>
	<text x="232" y="110" font-family="Meiryo, sans-serif" font-weight="normal" font-size="16px" fill="#000" dominant-baseline="central" text-anchor="middle">変</text>
	<text x="248" y="110" font-family="Meiryo, sans-serif" font-weight="normal" font-size="16px" fill="#000" dominant-baseline="central" text-anchor="middle">数</text>
	<text x="264" y="110" font-family="Meiryo, sans-serif" font-weight="normal" font-size="16px" fill="#000" dominant-baseline="central" text-anchor="middle">宣</text>
	<text x="280" y="110" font-family="Meiryo, sans-serif" font-weight="normal" font-size="16px" fill="#000" dominant-baseline="central" text-anchor="middle">言</text>
	<text x="80" y="150" font-family="Meiryo, sans-serif" font-weight="normal" font-size="16px" fill="#000" dominant-baseline="central" text-anchor="middle">○</text>
	<text x="96" y="150" font-family="Meiryo, sans-serif" font-weight="normal" font-size="16px" fill="#000" dominant-baseline="central" text-anchor="middle">○</text>
	<text x="108" y="150" font-family="MS Gothic, monospace" font-weight="normal" font-size="16px" fill="#000" dominant-baseline="central" text-anchor="middle">(</text>
	<text x="116" y="150" font-family="MS Gothic, monospace" font-weight="normal" font-size="16px" fill="#000" dominant-baseline="central" text-anchor="middle">)</text>
	<text x="132" y="150" font-family="MS Gothic, monospace" font-weight="normal" font-size="16px" fill="#000" dominant-baseline="central" text-anchor="middle">{</text>
	<text x="128" y="190" font-family="Meiryo, sans-serif" font-weight="normal" font-size="16px" fill="#000" dominant-baseline="central" text-anchor="middle">ス</text>
	<text x="144" y="190" font-family="Meiryo, sans-serif" font-weight="normal" font-size="16px" fill="#000" dominant-baseline="central" text-anchor="middle">コ</text>
	<text x="160" y="190" font-family="Meiryo, sans-serif" font-weight="normal" font-size="16px" fill="#000" dominant-baseline="central" text-anchor="middle">ー</text>
	<text x="176" y="190" font-family="Meiryo, sans-serif" font-weight="normal" font-size="16px" fill="#000" dominant-baseline="central" text-anchor="middle">プ</text>
	<text x="144" y="230" font-family="Meiryo, sans-serif" font-weight="normal" font-size="16px" fill="#000" dominant-baseline="central" text-anchor="middle">変</text>
	<text x="160" y="230" font-family="Meiryo, sans-serif" font-weight="normal" font-size="16px" fill="#000" dominant-baseline="central" text-anchor="middle">数</text>
	<text x="176" y="230" font-family="Meiryo, sans-serif" font-weight="normal" font-size="16px" fill="#000" dominant-baseline="central" text-anchor="middle">宣</text>
	<text x="192" y="230" font-family="Meiryo, sans-serif" font-weight="normal" font-size="16px" fill="#000" dominant-baseline="central" text-anchor="middle">言</text>
	<text x="208" y="230" font-family="Meiryo, sans-serif" font-weight="normal" font-size="16px" fill="#000" dominant-baseline="central" text-anchor="middle">ａ</text>
	<text x="240" y="230" font-family="Meiryo, sans-serif" font-weight="normal" font-size="16px" fill="#000" dominant-baseline="central" text-anchor="middle">入</text>
	<text x="256" y="230" font-family="Meiryo, sans-serif" font-weight="normal" font-size="16px" fill="#000" dominant-baseline="central" text-anchor="middle">れ</text>
	<text x="272" y="230" font-family="Meiryo, sans-serif" font-weight="normal" font-size="16px" fill="#000" dominant-baseline="central" text-anchor="middle">子</text>
	<text x="288" y="230" font-family="Meiryo, sans-serif" font-weight="normal" font-size="16px" fill="#000" dominant-baseline="central" text-anchor="middle">の</text>
	<text x="304" y="230" font-family="Meiryo, sans-serif" font-weight="normal" font-size="16px" fill="#000" dominant-baseline="central" text-anchor="middle">階</text>
	<text x="320" y="230" font-family="Meiryo, sans-serif" font-weight="normal" font-size="16px" fill="#000" dominant-baseline="central" text-anchor="middle">層</text>
	<text x="336" y="230" font-family="Meiryo, sans-serif" font-weight="normal" font-size="16px" fill="#000" dominant-baseline="central" text-anchor="middle">が</text>
	<text x="352" y="230" font-family="Meiryo, sans-serif" font-weight="normal" font-size="16px" fill="#000" dominant-baseline="central" text-anchor="middle">違</text>
	<text x="368" y="230" font-family="Meiryo, sans-serif" font-weight="normal" font-size="16px" fill="#000" dominant-baseline="central" text-anchor="middle">う</text>
	<text x="384" y="230" font-family="Meiryo, sans-serif" font-weight="normal" font-size="16px" fill="#000" dominant-baseline="central" text-anchor="middle">の</text>
	<text x="400" y="230" font-family="Meiryo, sans-serif" font-weight="normal" font-size="16px" fill="#000" dominant-baseline="central" text-anchor="middle">で</text>
	<text x="416" y="230" font-family="Meiryo, sans-serif" font-weight="normal" font-size="16px" fill="#000" dominant-baseline="central" text-anchor="middle">再</text>
	<text x="432" y="230" font-family="Meiryo, sans-serif" font-weight="normal" font-size="16px" fill="#000" dominant-baseline="central" text-anchor="middle">宣</text>
	<text x="448" y="230" font-family="Meiryo, sans-serif" font-weight="normal" font-size="16px" fill="#000" dominant-baseline="central" text-anchor="middle">言</text>
	<text x="464" y="230" font-family="Meiryo, sans-serif" font-weight="normal" font-size="16px" fill="#000" dominant-baseline="central" text-anchor="middle">で</text>
	<text x="480" y="230" font-family="Meiryo, sans-serif" font-weight="normal" font-size="16px" fill="#000" dominant-baseline="central" text-anchor="middle">は</text>
	<text x="496" y="230" font-family="Meiryo, sans-serif" font-weight="normal" font-size="16px" fill="#000" dominant-baseline="central" text-anchor="middle">な</text>
	<text x="512" y="230" font-family="Meiryo, sans-serif" font-weight="normal" font-size="16px" fill="#000" dominant-baseline="central" text-anchor="middle">い</text>
	<text x="76" y="290" font-family="MS Gothic, monospace" font-weight="normal" font-size="16px" fill="#000" dominant-baseline="central" text-anchor="middle">}</text>
	<text x="20" y="350" font-family="MS Gothic, monospace" font-weight="normal" font-size="16px" fill="#000" dominant-baseline="central" text-anchor="middle">}</text>
	<path d="M51,49 L51,51 L53,51 L53,49 Z M51,50 L51,60 L53,60 L53,50 Z M52,49 L52,51 L56,51 L56,49 Z M56,49 L56,51 L64,51 L64,49 Z M64,49 L64,51 L72,51 L72,49 Z M72,49 L72,51 L80,51 L80,49 Z M80,49 L80,51 L88,51 L88,49 Z M88,49 L88,51 L96,51 L96,49 Z M96,49 L96,51 L104,51 L104,49 Z M104,49 L104,51 L112,51 L112,49 Z M112,49 L112,51 L120,51 L120,49 Z M120,49 L120,51 L128,51 L128,49 Z M128,49 L128,51 L136,51 L136,49 Z M136,49 L136,51 L144,51 L144,49 Z M144,49 L144,51 L152,51 L152,49 Z M152,49 L152,51 L160,51 L160,49 Z M160,49 L160,51 L168,51 L168,49 Z M168,49 L168,51 L176,51 L176,49 Z M176,49 L176,51 L184,51 L184,49 Z M184,49 L184,51 L192,51 L192,49 Z M192,49 L192,51 L200,51 L200,49 Z M200,49 L200,51 L208,51 L208,49 Z M208,49 L208,51 L216,51 L216,49 Z M216,49 L216,51 L224,51 L224,49 Z M224,49 L224,51 L232,51 L232,49 Z M232,49 L232,51 L240,51 L240,49 Z M240,49 L240,51 L248,51 L248,49 Z M248,49 L248,51 L256,51 L256,49 Z M256,49 L256,51 L264,51 L264,49 Z M264,49 L264,51 L272,51 L272,49 Z M272,49 L272,51 L280,51 L280,49 Z M280,49 L280,51 L288,51 L288,49 Z M288,49 L288,51 L296,51 L296,49 Z M296,49 L296,51 L304,51 L304,49 Z M304,49 L304,51 L312,51 L312,49 Z M312,49 L312,51 L320,51 L320,49 Z M320,49 L320,51 L328,51 L328,49 Z M328,49 L328,51 L336,51 L336,49 Z M336,49 L336,51 L344,51 L344,49 Z M344,49 L344,51 L352,51 L352,49 Z M352,49 L352,51 L360,51 L360,49 Z M360,49 L360,51 L368,51 L368,49 Z M368,49 L368,51 L376,51 L376,49 Z M376,49 L376,51 L384,51 L384,49 Z M384,49 L384,51 L392,51 L392,49 Z M392,49 L392,51 L400,51 L400,49 Z M400,49 L400,51 L408,51 L408,49 Z M408,49 L408,51 L416,51 L416,49 Z M416,49 L416,51 L424,51 L424,49 Z M424,49 L424,51 L432,51 L432,49 Z M432,49 L432,51 L440,51 L440,49 Z M440,49 L440,51 L448,51 L448,49 Z M448,49 L448,51 L456,51 L456,49 Z M456,49 L456,51 L464,51 L464,49 Z M464,49 L464,51 L472,51 L472,49 Z M472,49 L472,51 L480,51 L480,49 Z M480,49 L480,51 L488,51 L488,49 Z M488,49 L488,51 L496,51 L496,49 Z M496,49 L496,51 L504,51 L504,49 Z M504,49 L504,51 L512,51 L512,49 Z M512,49 L512,51 L520,51 L520,49 Z M520,49 L520,51 L528,51 L528,49 Z M528,49 L528,51 L536,51 L536,49 Z M536,49 L536,51 L544,51 L544,49 Z M544,49 L544,51 L552,51 L552,49 Z M552,49 L552,51 L560,51 L560,49 Z M563,49 L563,51 L565,51 L565,49 Z M563,50 L563,60 L565,60 L565,50 Z M560,49 L560,51 L564,51 L564,49 Z M51,60 L51,80 L53,80 L53,60 Z M563,60 L563,80 L565,80 L565,60 Z M51,80 L51,100 L53,100 L53,80 Z M563,80 L563,100 L565,100 L565,80 Z M51,100 L51,120 L53,120 L53,100 Z M563,100 L563,120 L565,120 L565,100 Z M51,120 L51,140 L53,140 L53,120 Z M563,120 L563,140 L565,140 L565,120 Z M51,140 L51,160 L53,160 L53,140 Z M563,140 L563,160 L565,160 L565,140 Z M51,160 L51,180 L53,180 L53,160 Z M107,169 L107,171 L109,171 L109,169 Z M107,170 L107,180 L109,180 L109,170 Z M108,169 L108,171 L112,171 L112,169 Z M112,169 L112,171 L120,171 L120,169 Z M120,169 L120,171 L128,171 L128,169 Z M128,169 L128,171 L136,171 L136,169 Z M136,169 L136,171 L144,171 L144,169 Z M144,169 L144,171 L152,171 L152,169 Z M152,169 L152,171 L160,171 L160,169 Z M160,169 L160,171 L168,171 L168,169 Z M168,169 L168,171 L176,171 L176,169 Z M176,169 L176,171 L184,171 L184,169 Z M184,169 L184,171 L192,171 L192,169 Z M192,169 L192,171 L200,171 L200,169 Z M200,169 L200,171 L208,171 L208,169 Z M208,169 L208,171 L216,171 L216,169 Z M216,169 L216,171 L224,171 L224,169 Z M224,169 L224,171 L232,171 L232,169 Z M232,169 L232,171 L240,171 L240,169 Z M240,169 L240,171 L248,171 L248,169 Z M248,169 L248,171 L256,171 L256,169 Z M256,169 L256,171 L264,171 L264,169 Z M264,169 L264,171 L272,171 L272,169 Z M272,169 L272,171 L280,171 L280,169 Z M280,169 L280,171 L288,171 L288,169 Z M288,169 L288,171 L296,171 L296,169 Z M296,169 L296,171 L304,171 L304,169 Z M304,169 L304,171 L312,171 L312,169 Z M312,169 L312,171 L320,171 L320,169 Z M320,169 L320,171 L328,171 L328,169 Z M328,169 L328,171 L336,171 L336,169 Z M336,169 L336,171 L344,171 L344,169 Z M344,169 L344,171 L352,171 L352,169 Z M352,169 L352,171 L360,171 L360,169 Z M360,169 L360,171 L368,171 L368,169 Z M368,169 L368,171 L376,171 L376,169 Z M376,169 L376,171 L384,171 L384,169 Z M384,169 L384,171 L392,171 L392,169 Z M392,169 L392,171 L400,171 L400,169 Z M400,169 L400,171 L408,171 L408,169 Z M408,169 L408,171 L416,171 L416,169 Z M416,169 L416,171 L424,171 L424,169 Z M424,169 L424,171 L432,171 L432,169 Z M432,169 L432,171 L440,171 L440,169 Z M440,169 L440,171 L448,171 L448,169 Z M448,169 L448,171 L456,171 L456,169 Z M456,169 L456,171 L464,171 L464,169 Z M464,169 L464,171 L472,171 L472,169 Z M472,169 L472,171 L480,171 L480,169 Z M480,169 L480,171 L488,171 L488,169 Z M488,169 L488,171 L496,171 L496,169 Z M496,169 L496,171 L504,171 L504,169 Z M504,169 L504,171 L512,171 L512,169 Z M512,169 L512,171 L520,171 L520,169 Z M520,169 L520,171 L528,171 L528,169 Z M528,169 L528,171 L536,171 L536,169 Z M539,169 L539,171 L541,171 L541,169 Z M539,170 L539,180 L541,180 L541,170 Z M536,169 L536,171 L540,171 L540,169 Z M563,160 L563,180 L565,180 L565,160 Z M51,180 L51,200 L53,200 L53,180 Z M107,180 L107,200 L109,200 L109,180 Z M539,180 L539,200 L541,200 L541,180 Z M563,180 L563,200 L565,200 L565,180 Z M51,200 L51,220 L53,220 L53,200 Z M107,200 L107,220 L109,220 L109,200 Z M539,200 L539,220 L541,220 L541,200 Z M563,200 L563,220 L565,220 L565,200 Z M51,220 L51,240 L53,240 L53,220 Z M107,220 L107,240 L109,240 L109,220 Z M539,220 L539,240 L541,240 L541,220 Z M563,220 L563,240 L565,240 L565,220 Z M51,240 L51,260 L53,260 L53,240 Z M107,240 L107,260 L109,260 L109,240 Z M539,240 L539,260 L541,260 L541,240 Z M563,240 L563,260 L565,260 L565,240 Z M51,260 L51,280 L53,280 L53,260 Z M107,269 L107,271 L109,271 L109,269 Z M107,260 L107,270 L109,270 L109,260 Z M108,269 L108,271 L112,271 L112,269 Z M112,269 L112,271 L120,271 L120,269 Z M120,269 L120,271 L128,271 L128,269 Z M128,269 L128,271 L136,271 L136,269 Z M136,269 L136,271 L144,271 L144,269 Z M144,269 L144,271 L152,271 L152,269 Z M152,269 L152,271 L160,271 L160,269 Z M160,269 L160,271 L168,271 L168,269 Z M168,269 L168,271 L176,271 L176,269 Z M176,269 L176,271 L184,271 L184,269 Z M184,269 L184,271 L192,271 L192,269 Z M192,269 L192,271 L200,271 L200,269 Z M200,269 L200,271 L208,271 L208,269 Z M208,269 L208,271 L216,271 L216,269 Z M216,269 L216,271 L224,271 L224,269 Z M224,269 L224,271 L232,271 L232,269 Z M232,269 L232,271 L240,271 L240,269 Z M240,269 L240,271 L248,271 L248,269 Z M248,269 L248,271 L256,271 L256,269 Z M256,269 L256,271 L264,271 L264,269 Z M264,269 L264,271 L272,271 L272,269 Z M272,269 L272,271 L280,271 L280,269 Z M280,269 L280,271 L288,271 L288,269 Z M288,269 L288,271 L296,271 L296,269 Z M296,269 L296,271 L304,271 L304,269 Z M304,269 L304,271 L312,271 L312,269 Z M312,269 L312,271 L320,271 L320,269 Z M320,269 L320,271 L328,271 L328,269 Z M328,269 L328,271 L336,271 L336,269 Z M336,269 L336,271 L344,271 L344,269 Z M344,269 L344,271 L352,271 L352,269 Z M352,269 L352,271 L360,271 L360,269 Z M360,269 L360,271 L368,271 L368,269 Z M368,269 L368,271 L376,271 L376,269 Z M376,269 L376,271 L384,271 L384,269 Z M384,269 L384,271 L392,271 L392,269 Z M392,269 L392,271 L400,271 L400,269 Z M400,269 L400,271 L408,271 L408,269 Z M408,269 L408,271 L416,271 L416,269 Z M416,269 L416,271 L424,271 L424,269 Z M424,269 L424,271 L432,271 L432,269 Z M432,269 L432,271 L440,271 L440,269 Z M440,269 L440,271 L448,271 L448,269 Z M448,269 L448,271 L456,271 L456,269 Z M456,269 L456,271 L464,271 L464,269 Z M464,269 L464,271 L472,271 L472,269 Z M472,269 L472,271 L480,271 L480,269 Z M480,269 L480,271 L488,271 L488,269 Z M488,269 L488,271 L496,271 L496,269 Z M496,269 L496,271 L504,271 L504,269 Z M504,269 L504,271 L512,271 L512,269 Z M512,269 L512,271 L520,271 L520,269 Z M520,269 L520,271 L528,271 L528,269 Z M528,269 L528,271 L536,271 L536,269 Z M539,269 L539,271 L541,271 L541,269 Z M539,260 L539,270 L541,270 L541,260 Z M536,269 L536,271 L540,271 L540,269 Z M563,260 L563,280 L565,280 L565,260 Z M51,280 L51,300 L53,300 L53,280 Z M563,280 L563,300 L565,300 L565,280 Z M51,300 L51,320 L53,320 L53,300 Z M563,300 L563,320 L565,320 L565,300 Z M51,329 L51,331 L53,331 L53,329 Z M51,320 L51,330 L53,330 L53,320 Z M52,329 L52,331 L56,331 L56,329 Z M56,329 L56,331 L64,331 L64,329 Z M64,329 L64,331 L72,331 L72,329 Z M72,329 L72,331 L80,331 L80,329 Z M80,329 L80,331 L88,331 L88,329 Z M88,329 L88,331 L96,331 L96,329 Z M96,329 L96,331 L104,331 L104,329 Z M104,329 L104,331 L112,331 L112,329 Z M112,329 L112,331 L120,331 L120,329 Z M120,329 L120,331 L128,331 L128,329 Z M128,329 L128,331 L136,331 L136,329 Z M136,329 L136,331 L144,331 L144,329 Z M144,329 L144,331 L152,331 L152,329 Z M152,329 L152,331 L160,331 L160,329 Z M160,329 L160,331 L168,331 L168,329 Z M168,329 L168,331 L176,331 L176,329 Z M176,329 L176,331 L184,331 L184,329 Z M184,329 L184,331 L192,331 L192,329 Z M192,329 L192,331 L200,331 L200,329 Z M200,329 L200,331 L208,331 L208,329 Z M208,329 L208,331 L216,331 L216,329 Z M216,329 L216,331 L224,331 L224,329 Z M224,329 L224,331 L232,331 L232,329 Z M232,329 L232,331 L240,331 L240,329 Z M240,329 L240,331 L248,331 L248,329 Z M248,329 L248,331 L256,331 L256,329 Z M256,329 L256,331 L264,331 L264,329 Z M264,329 L264,331 L272,331 L272,329 Z M272,329 L272,331 L280,331 L280,329 Z M280,329 L280,331 L288,331 L288,329 Z M288,329 L288,331 L296,331 L296,329 Z M296,329 L296,331 L304,331 L304,329 Z M304,329 L304,331 L312,331 L312,329 Z M312,329 L312,331 L320,331 L320,329 Z M320,329 L320,331 L328,331 L328,329 Z M328,329 L328,331 L336,331 L336,329 Z M336,329 L336,331 L344,331 L344,329 Z M344,329 L344,331 L352,331 L352,329 Z M352,329 L352,331 L360,331 L360,329 Z M360,329 L360,331 L368,331 L368,329 Z M368,329 L368,331 L376,331 L376,329 Z M376,329 L376,331 L384,331 L384,329 Z M384,329 L384,331 L392,331 L392,329 Z M392,329 L392,331 L400,331 L400,329 Z M400,329 L400,331 L408,331 L408,329 Z M408,329 L408,331 L416,331 L416,329 Z M416,329 L416,331 L424,331 L424,329 Z M424,329 L424,331 L432,331 L432,329 Z M432,329 L432,331 L440,331 L440,329 Z M440,329 L440,331 L448,331 L448,329 Z M448,329 L448,331 L456,331 L456,329 Z M456,329 L456,331 L464,331 L464,329 Z M464,329 L464,331 L472,331 L472,329 Z M472,329 L472,331 L480,331 L480,329 Z M480,329 L480,331 L488,331 L488,329 Z M488,329 L488,331 L496,331 L496,329 Z M496,329 L496,331 L504,331 L504,329 Z M504,329 L504,331 L512,331 L512,329 Z M512,329 L512,331 L520,331 L520,329 Z M520,329 L520,331 L528,331 L528,329 Z M528,329 L528,331 L536,331 L536,329 Z M536,329 L536,331 L544,331 L544,329 Z M544,329 L544,331 L552,331 L552,329 Z M552,329 L552,331 L560,331 L560,329 Z M563,329 L563,331 L565,331 L565,329 Z M563,320 L563,330 L565,330 L565,320 Z M560,329 L560,331 L564,331 L564,329 Z " fill="#000" stroke="#000" stroke-width="0.1px" />
</svg>