<?xml version="1.0"?>
<svg width="808" height="560" viewBox="0 0 808 560"
    xmlns="http://www.w3.org/2000/svg" version="1.1">
	<text x="172" y="30" font-family="ＭＳ ゴシック, monospace" font-weight="normal" font-size="16px" fill="#000" alignment-baseline="middle" text-anchor="middle" dy="1.5px">c</text>
	<text x="180" y="30" font-family="ＭＳ ゴシック, monospace" font-weight="normal" font-size="16px" fill="#000" alignment-baseline="middle" text-anchor="middle" dy="1.5px">o</text>
	<text x="188" y="30" font-family="ＭＳ ゴシック, monospace" font-weight="normal" font-size="16px" fill="#000" alignment-baseline="middle" text-anchor="middle" dy="1.5px">n</text>
	<text x="196" y="30" font-family="ＭＳ ゴシック, monospace" font-weight="normal" font-size="16px" fill="#000" alignment-baseline="middle" text-anchor="middle" dy="1.5px">s</text>
	<text x="204" y="30" font-family="ＭＳ ゴシック, monospace" font-weight="normal" font-size="16px" fill="#000" alignment-baseline="middle" text-anchor="middle" dy="1.5px">t</text>
	<text x="212" y="30" font-family="ＭＳ ゴシック, monospace" font-weight="normal" font-size="16px" fill="#000" alignment-baseline="middle" text-anchor="middle" dy="1.5px">r</text>
	<text x="220" y="30" font-family="ＭＳ ゴシック, monospace" font-weight="normal" font-size="16px" fill="#000" alignment-baseline="middle" text-anchor="middle" dy="1.5px">u</text>
	<text x="228" y="30" font-family="ＭＳ ゴシック, monospace" font-weight="normal" font-size="16px" fill="#000" alignment-baseline="middle" text-anchor="middle" dy="1.5px">c</text>
	<text x="236" y="30" font-family="ＭＳ ゴシック, monospace" font-weight="normal" font-size="16px" fill="#000" alignment-baseline="middle" text-anchor="middle" dy="1.5px">t</text>
	<text x="244" y="30" font-family="ＭＳ ゴシック, monospace" font-weight="normal" font-size="16px" fill="#000" alignment-baseline="middle" text-anchor="middle" dy="1.5px">o</text>
	<text x="252" y="30" font-family="ＭＳ ゴシック, monospace" font-weight="normal" font-size="16px" fill="#000" alignment-baseline="middle" text-anchor="middle" dy="1.5px">r</text>
	<text x="260" y="30" font-family="ＭＳ ゴシック, monospace" font-weight="normal" font-size="16px" fill="#000" alignment-baseline="middle" text-anchor="middle" dy="1.5px">(</text>
	<text x="272" y="30" font-family="メイリオ, sans-serif" font-weight="normal" font-size="16px" fill="#000" alignment-baseline="middle" text-anchor="middle">引</text>
	<text x="288" y="30" font-family="メイリオ, sans-serif" font-weight="normal" font-size="16px" fill="#000" alignment-baseline="middle" text-anchor="middle">数</text>
	<text x="300" y="30" font-family="ＭＳ ゴシック, monospace" font-weight="normal" font-size="16px" fill="#000" alignment-baseline="middle" text-anchor="middle" dy="1.5px">)</text>
	<text x="316" y="30" font-family="ＭＳ ゴシック, monospace" font-weight="normal" font-size="16px" fill="#000" alignment-baseline="middle" text-anchor="middle" dy="1.5px">{</text>
	<text x="208" y="50" font-family="メイリオ, sans-serif" font-weight="normal" font-size="16px" fill="#000" alignment-baseline="middle" text-anchor="middle">プ</text>
	<text x="224" y="50" font-family="メイリオ, sans-serif" font-weight="normal" font-size="16px" fill="#000" alignment-baseline="middle" text-anchor="middle">ロ</text>
	<text x="240" y="50" font-family="メイリオ, sans-serif" font-weight="normal" font-size="16px" fill="#000" alignment-baseline="middle" text-anchor="middle">パ</text>
	<text x="256" y="50" font-family="メイリオ, sans-serif" font-weight="normal" font-size="16px" fill="#000" alignment-baseline="middle" text-anchor="middle">テ</text>
	<text x="272" y="50" font-family="メイリオ, sans-serif" font-weight="normal" font-size="16px" fill="#000" alignment-baseline="middle" text-anchor="middle">ィ</text>
	<text x="288" y="50" font-family="メイリオ, sans-serif" font-weight="normal" font-size="16px" fill="#000" alignment-baseline="middle" text-anchor="middle">な</text>
	<text x="304" y="50" font-family="メイリオ, sans-serif" font-weight="normal" font-size="16px" fill="#000" alignment-baseline="middle" text-anchor="middle">ど</text>
	<text x="320" y="50" font-family="メイリオ, sans-serif" font-weight="normal" font-size="16px" fill="#000" alignment-baseline="middle" text-anchor="middle">の</text>
	<text x="336" y="50" font-family="メイリオ, sans-serif" font-weight="normal" font-size="16px" fill="#000" alignment-baseline="middle" text-anchor="middle">初</text>
	<text x="352" y="50" font-family="メイリオ, sans-serif" font-weight="normal" font-size="16px" fill="#000" alignment-baseline="middle" text-anchor="middle">期</text>
	<text x="368" y="50" font-family="メイリオ, sans-serif" font-weight="normal" font-size="16px" fill="#000" alignment-baseline="middle" text-anchor="middle">化</text>
	<text x="172" y="70" font-family="ＭＳ ゴシック, monospace" font-weight="normal" font-size="16px" fill="#000" alignment-baseline="middle" text-anchor="middle" dy="1.5px">}</text>
	<text x="56" y="90" font-family="メイリオ, sans-serif" font-weight="normal" font-size="16px" fill="#000" alignment-baseline="middle" text-anchor="middle">親</text>
	<text x="72" y="90" font-family="メイリオ, sans-serif" font-weight="normal" font-size="16px" fill="#000" alignment-baseline="middle" text-anchor="middle">ク</text>
	<text x="88" y="90" font-family="メイリオ, sans-serif" font-weight="normal" font-size="16px" fill="#000" alignment-baseline="middle" text-anchor="middle">ラ</text>
	<text x="104" y="90" font-family="メイリオ, sans-serif" font-weight="normal" font-size="16px" fill="#000" alignment-baseline="middle" text-anchor="middle">ス</text>
	<text x="176" y="110" font-family="メイリオ, sans-serif" font-weight="normal" font-size="16px" fill="#000" alignment-baseline="middle" text-anchor="middle">メ</text>
	<text x="192" y="110" font-family="メイリオ, sans-serif" font-weight="normal" font-size="16px" fill="#000" alignment-baseline="middle" text-anchor="middle">ソ</text>
	<text x="208" y="110" font-family="メイリオ, sans-serif" font-weight="normal" font-size="16px" fill="#000" alignment-baseline="middle" text-anchor="middle">ッ</text>
	<text x="224" y="110" font-family="メイリオ, sans-serif" font-weight="normal" font-size="16px" fill="#000" alignment-baseline="middle" text-anchor="middle">ド</text>
	<text x="236" y="110" font-family="ＭＳ ゴシック, monospace" font-weight="normal" font-size="16px" fill="#000" alignment-baseline="middle" text-anchor="middle" dy="1.5px">A</text>
	<text x="244" y="110" font-family="ＭＳ ゴシック, monospace" font-weight="normal" font-size="16px" fill="#000" alignment-baseline="middle" text-anchor="middle" dy="1.5px">(</text>
	<text x="256" y="110" font-family="メイリオ, sans-serif" font-weight="normal" font-size="16px" fill="#000" alignment-baseline="middle" text-anchor="middle">引</text>
	<text x="272" y="110" font-family="メイリオ, sans-serif" font-weight="normal" font-size="16px" fill="#000" alignment-baseline="middle" text-anchor="middle">数</text>
	<text x="284" y="110" font-family="ＭＳ ゴシック, monospace" font-weight="normal" font-size="16px" fill="#000" alignment-baseline="middle" text-anchor="middle" dy="1.5px">)</text>
	<text x="300" y="110" font-family="ＭＳ ゴシック, monospace" font-weight="normal" font-size="16px" fill="#000" alignment-baseline="middle" text-anchor="middle" dy="1.5px">{</text>
	<text x="320" y="110" font-family="メイリオ, sans-serif" font-weight="normal" font-size="16px" fill="#000" alignment-baseline="middle" text-anchor="middle">処</text>
	<text x="336" y="110" font-family="メイリオ, sans-serif" font-weight="normal" font-size="16px" fill="#000" alignment-baseline="middle" text-anchor="middle">理</text>
	<text x="356" y="110" font-family="ＭＳ ゴシック, monospace" font-weight="normal" font-size="16px" fill="#000" alignment-baseline="middle" text-anchor="middle" dy="1.5px">}</text>
	<text x="176" y="150" font-family="メイリオ, sans-serif" font-weight="normal" font-size="16px" fill="#000" alignment-baseline="middle" text-anchor="middle">メ</text>
	<text x="192" y="150" font-family="メイリオ, sans-serif" font-weight="normal" font-size="16px" fill="#000" alignment-baseline="middle" text-anchor="middle">ソ</text>
	<text x="208" y="150" font-family="メイリオ, sans-serif" font-weight="normal" font-size="16px" fill="#000" alignment-baseline="middle" text-anchor="middle">ッ</text>
	<text x="224" y="150" font-family="メイリオ, sans-serif" font-weight="normal" font-size="16px" fill="#000" alignment-baseline="middle" text-anchor="middle">ド</text>
	<text x="236" y="150" font-family="ＭＳ ゴシック, monospace" font-weight="normal" font-size="16px" fill="#000" alignment-baseline="middle" text-anchor="middle" dy="1.5px">B</text>
	<text x="244" y="150" font-family="ＭＳ ゴシック, monospace" font-weight="normal" font-size="16px" fill="#000" alignment-baseline="middle" text-anchor="middle" dy="1.5px">(</text>
	<text x="256" y="150" font-family="メイリオ, sans-serif" font-weight="normal" font-size="16px" fill="#000" alignment-baseline="middle" text-anchor="middle">引</text>
	<text x="272" y="150" font-family="メイリオ, sans-serif" font-weight="normal" font-size="16px" fill="#000" alignment-baseline="middle" text-anchor="middle">数</text>
	<text x="284" y="150" font-family="ＭＳ ゴシック, monospace" font-weight="normal" font-size="16px" fill="#000" alignment-baseline="middle" text-anchor="middle" dy="1.5px">)</text>
	<text x="300" y="150" font-family="ＭＳ ゴシック, monospace" font-weight="normal" font-size="16px" fill="#000" alignment-baseline="middle" text-anchor="middle" dy="1.5px">{</text>
	<text x="320" y="150" font-family="メイリオ, sans-serif" font-weight="normal" font-size="16px" fill="#000" alignment-baseline="middle" text-anchor="middle">処</text>
	<text x="336" y="150" font-family="メイリオ, sans-serif" font-weight="normal" font-size="16px" fill="#000" alignment-baseline="middle" text-anchor="middle">理</text>
	<text x="356" y="150" font-family="ＭＳ ゴシック, monospace" font-weight="normal" font-size="16px" fill="#000" alignment-baseline="middle" text-anchor="middle" dy="1.5px">}</text>
	<text x="72" y="230" font-family="メイリオ, sans-serif" font-weight="normal" font-size="16px" fill="#000" alignment-baseline="middle" text-anchor="middle">継</text>
	<text x="88" y="230" font-family="メイリオ, sans-serif" font-weight="normal" font-size="16px" fill="#000" alignment-baseline="middle" text-anchor="middle">承</text>
	<text x="80" y="310" font-family="メイリオ, sans-serif" font-weight="normal" font-size="16px" fill="#000" alignment-baseline="middle" text-anchor="middle">子</text>
	<text x="96" y="310" font-family="メイリオ, sans-serif" font-weight="normal" font-size="16px" fill="#000" alignment-baseline="middle" text-anchor="middle">ク</text>
	<text x="112" y="310" font-family="メイリオ, sans-serif" font-weight="normal" font-size="16px" fill="#000" alignment-baseline="middle" text-anchor="middle">ラ</text>
	<text x="128" y="310" font-family="メイリオ, sans-serif" font-weight="normal" font-size="16px" fill="#000" alignment-baseline="middle" text-anchor="middle">ス</text>
	<text x="196" y="350" font-family="ＭＳ ゴシック, monospace" font-weight="normal" font-size="16px" fill="#000" alignment-baseline="middle" text-anchor="middle" dy="1.5px">c</text>
	<text x="204" y="350" font-family="ＭＳ ゴシック, monospace" font-weight="normal" font-size="16px" fill="#000" alignment-baseline="middle" text-anchor="middle" dy="1.5px">o</text>
	<text x="212" y="350" font-family="ＭＳ ゴシック, monospace" font-weight="normal" font-size="16px" fill="#000" alignment-baseline="middle" text-anchor="middle" dy="1.5px">n</text>
	<text x="220" y="350" font-family="ＭＳ ゴシック, monospace" font-weight="normal" font-size="16px" fill="#000" alignment-baseline="middle" text-anchor="middle" dy="1.5px">s</text>
	<text x="228" y="350" font-family="ＭＳ ゴシック, monospace" font-weight="normal" font-size="16px" fill="#000" alignment-baseline="middle" text-anchor="middle" dy="1.5px">t</text>
	<text x="236" y="350" font-family="ＭＳ ゴシック, monospace" font-weight="normal" font-size="16px" fill="#000" alignment-baseline="middle" text-anchor="middle" dy="1.5px">r</text>
	<text x="244" y="350" font-family="ＭＳ ゴシック, monospace" font-weight="normal" font-size="16px" fill="#000" alignment-baseline="middle" text-anchor="middle" dy="1.5px">u</text>
	<text x="252" y="350" font-family="ＭＳ ゴシック, monospace" font-weight="normal" font-size="16px" fill="#000" alignment-baseline="middle" text-anchor="middle" dy="1.5px">c</text>
	<text x="260" y="350" font-family="ＭＳ ゴシック, monospace" font-weight="normal" font-size="16px" fill="#000" alignment-baseline="middle" text-anchor="middle" dy="1.5px">t</text>
	<text x="268" y="350" font-family="ＭＳ ゴシック, monospace" font-weight="normal" font-size="16px" fill="#000" alignment-baseline="middle" text-anchor="middle" dy="1.5px">o</text>
	<text x="276" y="350" font-family="ＭＳ ゴシック, monospace" font-weight="normal" font-size="16px" fill="#000" alignment-baseline="middle" text-anchor="middle" dy="1.5px">r</text>
	<text x="284" y="350" font-family="ＭＳ ゴシック, monospace" font-weight="normal" font-size="16px" fill="#000" alignment-baseline="middle" text-anchor="middle" dy="1.5px">(</text>
	<text x="296" y="350" font-family="メイリオ, sans-serif" font-weight="normal" font-size="16px" fill="#000" alignment-baseline="middle" text-anchor="middle">引</text>
	<text x="312" y="350" font-family="メイリオ, sans-serif" font-weight="normal" font-size="16px" fill="#000" alignment-baseline="middle" text-anchor="middle">数</text>
	<text x="324" y="350" font-family="ＭＳ ゴシック, monospace" font-weight="normal" font-size="16px" fill="#000" alignment-baseline="middle" text-anchor="middle" dy="1.5px">)</text>
	<text x="340" y="350" font-family="ＭＳ ゴシック, monospace" font-weight="normal" font-size="16px" fill="#000" alignment-baseline="middle" text-anchor="middle" dy="1.5px">{</text>
	<text x="516" y="350" font-family="ＭＳ ゴシック, monospace" font-weight="normal" font-size="16px" fill="#000" alignment-baseline="middle" text-anchor="middle" dy="1.5px">c</text>
	<text x="524" y="350" font-family="ＭＳ ゴシック, monospace" font-weight="normal" font-size="16px" fill="#000" alignment-baseline="middle" text-anchor="middle" dy="1.5px">o</text>
	<text x="532" y="350" font-family="ＭＳ ゴシック, monospace" font-weight="normal" font-size="16px" fill="#000" alignment-baseline="middle" text-anchor="middle" dy="1.5px">n</text>
	<text x="540" y="350" font-family="ＭＳ ゴシック, monospace" font-weight="normal" font-size="16px" fill="#000" alignment-baseline="middle" text-anchor="middle" dy="1.5px">s</text>
	<text x="548" y="350" font-family="ＭＳ ゴシック, monospace" font-weight="normal" font-size="16px" fill="#000" alignment-baseline="middle" text-anchor="middle" dy="1.5px">t</text>
	<text x="556" y="350" font-family="ＭＳ ゴシック, monospace" font-weight="normal" font-size="16px" fill="#000" alignment-baseline="middle" text-anchor="middle" dy="1.5px">r</text>
	<text x="564" y="350" font-family="ＭＳ ゴシック, monospace" font-weight="normal" font-size="16px" fill="#000" alignment-baseline="middle" text-anchor="middle" dy="1.5px">u</text>
	<text x="572" y="350" font-family="ＭＳ ゴシック, monospace" font-weight="normal" font-size="16px" fill="#000" alignment-baseline="middle" text-anchor="middle" dy="1.5px">c</text>
	<text x="580" y="350" font-family="ＭＳ ゴシック, monospace" font-weight="normal" font-size="16px" fill="#000" alignment-baseline="middle" text-anchor="middle" dy="1.5px">t</text>
	<text x="588" y="350" font-family="ＭＳ ゴシック, monospace" font-weight="normal" font-size="16px" fill="#000" alignment-baseline="middle" text-anchor="middle" dy="1.5px">o</text>
	<text x="596" y="350" font-family="ＭＳ ゴシック, monospace" font-weight="normal" font-size="16px" fill="#000" alignment-baseline="middle" text-anchor="middle" dy="1.5px">r</text>
	<text x="604" y="350" font-family="ＭＳ ゴシック, monospace" font-weight="normal" font-size="16px" fill="#000" alignment-baseline="middle" text-anchor="middle" dy="1.5px">(</text>
	<text x="616" y="350" font-family="メイリオ, sans-serif" font-weight="normal" font-size="16px" fill="#000" alignment-baseline="middle" text-anchor="middle">引</text>
	<text x="632" y="350" font-family="メイリオ, sans-serif" font-weight="normal" font-size="16px" fill="#000" alignment-baseline="middle" text-anchor="middle">数</text>
	<text x="644" y="350" font-family="ＭＳ ゴシック, monospace" font-weight="normal" font-size="16px" fill="#000" alignment-baseline="middle" text-anchor="middle" dy="1.5px">)</text>
	<text x="660" y="350" font-family="ＭＳ ゴシック, monospace" font-weight="normal" font-size="16px" fill="#000" alignment-baseline="middle" text-anchor="middle" dy="1.5px">{</text>
	<text x="232" y="370" font-family="メイリオ, sans-serif" font-weight="normal" font-size="16px" fill="#000" alignment-baseline="middle" text-anchor="middle">プ</text>
	<text x="248" y="370" font-family="メイリオ, sans-serif" font-weight="normal" font-size="16px" fill="#000" alignment-baseline="middle" text-anchor="middle">ロ</text>
	<text x="264" y="370" font-family="メイリオ, sans-serif" font-weight="normal" font-size="16px" fill="#000" alignment-baseline="middle" text-anchor="middle">パ</text>
	<text x="280" y="370" font-family="メイリオ, sans-serif" font-weight="normal" font-size="16px" fill="#000" alignment-baseline="middle" text-anchor="middle">テ</text>
	<text x="296" y="370" font-family="メイリオ, sans-serif" font-weight="normal" font-size="16px" fill="#000" alignment-baseline="middle" text-anchor="middle">ィ</text>
	<text x="312" y="370" font-family="メイリオ, sans-serif" font-weight="normal" font-size="16px" fill="#000" alignment-baseline="middle" text-anchor="middle">な</text>
	<text x="328" y="370" font-family="メイリオ, sans-serif" font-weight="normal" font-size="16px" fill="#000" alignment-baseline="middle" text-anchor="middle">ど</text>
	<text x="344" y="370" font-family="メイリオ, sans-serif" font-weight="normal" font-size="16px" fill="#000" alignment-baseline="middle" text-anchor="middle">の</text>
	<text x="360" y="370" font-family="メイリオ, sans-serif" font-weight="normal" font-size="16px" fill="#000" alignment-baseline="middle" text-anchor="middle">初</text>
	<text x="376" y="370" font-family="メイリオ, sans-serif" font-weight="normal" font-size="16px" fill="#000" alignment-baseline="middle" text-anchor="middle">期</text>
	<text x="392" y="370" font-family="メイリオ, sans-serif" font-weight="normal" font-size="16px" fill="#000" alignment-baseline="middle" text-anchor="middle">化</text>
	<text x="448" y="370" font-family="メイリオ, sans-serif" font-weight="normal" font-size="16px" fill="#000" alignment-baseline="middle" text-anchor="middle">変</text>
	<text x="464" y="370" font-family="メイリオ, sans-serif" font-weight="normal" font-size="16px" fill="#000" alignment-baseline="middle" text-anchor="middle">更</text>
	<text x="552" y="370" font-family="メイリオ, sans-serif" font-weight="normal" font-size="16px" fill="#000" alignment-baseline="middle" text-anchor="middle">プ</text>
	<text x="568" y="370" font-family="メイリオ, sans-serif" font-weight="normal" font-size="16px" fill="#000" alignment-baseline="middle" text-anchor="middle">ロ</text>
	<text x="584" y="370" font-family="メイリオ, sans-serif" font-weight="normal" font-size="16px" fill="#000" alignment-baseline="middle" text-anchor="middle">パ</text>
	<text x="600" y="370" font-family="メイリオ, sans-serif" font-weight="normal" font-size="16px" fill="#000" alignment-baseline="middle" text-anchor="middle">テ</text>
	<text x="616" y="370" font-family="メイリオ, sans-serif" font-weight="normal" font-size="16px" fill="#000" alignment-baseline="middle" text-anchor="middle">ィ</text>
	<text x="632" y="370" font-family="メイリオ, sans-serif" font-weight="normal" font-size="16px" fill="#000" alignment-baseline="middle" text-anchor="middle">の</text>
	<text x="648" y="370" font-family="メイリオ, sans-serif" font-weight="normal" font-size="16px" fill="#000" alignment-baseline="middle" text-anchor="middle">変</text>
	<text x="664" y="370" font-family="メイリオ, sans-serif" font-weight="normal" font-size="16px" fill="#000" alignment-baseline="middle" text-anchor="middle">更</text>
	<text x="680" y="370" font-family="メイリオ, sans-serif" font-weight="normal" font-size="16px" fill="#000" alignment-baseline="middle" text-anchor="middle">や</text>
	<text x="696" y="370" font-family="メイリオ, sans-serif" font-weight="normal" font-size="16px" fill="#000" alignment-baseline="middle" text-anchor="middle">追</text>
	<text x="712" y="370" font-family="メイリオ, sans-serif" font-weight="normal" font-size="16px" fill="#000" alignment-baseline="middle" text-anchor="middle">加</text>
	<text x="196" y="390" font-family="ＭＳ ゴシック, monospace" font-weight="normal" font-size="16px" fill="#000" alignment-baseline="middle" text-anchor="middle" dy="1.5px">}</text>
	<text x="516" y="390" font-family="ＭＳ ゴシック, monospace" font-weight="normal" font-size="16px" fill="#000" alignment-baseline="middle" text-anchor="middle" dy="1.5px">}</text>
	<text x="80" y="410" font-family="メイリオ, sans-serif" font-weight="normal" font-size="16px" fill="#000" alignment-baseline="middle" text-anchor="middle">親</text>
	<text x="96" y="410" font-family="メイリオ, sans-serif" font-weight="normal" font-size="16px" fill="#000" alignment-baseline="middle" text-anchor="middle">ク</text>
	<text x="112" y="410" font-family="メイリオ, sans-serif" font-weight="normal" font-size="16px" fill="#000" alignment-baseline="middle" text-anchor="middle">ラ</text>
	<text x="128" y="410" font-family="メイリオ, sans-serif" font-weight="normal" font-size="16px" fill="#000" alignment-baseline="middle" text-anchor="middle">ス</text>
	<text x="200" y="430" font-family="メイリオ, sans-serif" font-weight="normal" font-size="16px" fill="#000" alignment-baseline="middle" text-anchor="middle">メ</text>
	<text x="216" y="430" font-family="メイリオ, sans-serif" font-weight="normal" font-size="16px" fill="#000" alignment-baseline="middle" text-anchor="middle">ソ</text>
	<text x="232" y="430" font-family="メイリオ, sans-serif" font-weight="normal" font-size="16px" fill="#000" alignment-baseline="middle" text-anchor="middle">ッ</text>
	<text x="248" y="430" font-family="メイリオ, sans-serif" font-weight="normal" font-size="16px" fill="#000" alignment-baseline="middle" text-anchor="middle">ド</text>
	<text x="260" y="430" font-family="ＭＳ ゴシック, monospace" font-weight="normal" font-size="16px" fill="#000" alignment-baseline="middle" text-anchor="middle" dy="1.5px">A</text>
	<text x="268" y="430" font-family="ＭＳ ゴシック, monospace" font-weight="normal" font-size="16px" fill="#000" alignment-baseline="middle" text-anchor="middle" dy="1.5px">(</text>
	<text x="280" y="430" font-family="メイリオ, sans-serif" font-weight="normal" font-size="16px" fill="#000" alignment-baseline="middle" text-anchor="middle">引</text>
	<text x="296" y="430" font-family="メイリオ, sans-serif" font-weight="normal" font-size="16px" fill="#000" alignment-baseline="middle" text-anchor="middle">数</text>
	<text x="308" y="430" font-family="ＭＳ ゴシック, monospace" font-weight="normal" font-size="16px" fill="#000" alignment-baseline="middle" text-anchor="middle" dy="1.5px">)</text>
	<text x="324" y="430" font-family="ＭＳ ゴシック, monospace" font-weight="normal" font-size="16px" fill="#000" alignment-baseline="middle" text-anchor="middle" dy="1.5px">{</text>
	<text x="344" y="430" font-family="メイリオ, sans-serif" font-weight="normal" font-size="16px" fill="#000" alignment-baseline="middle" text-anchor="middle">処</text>
	<text x="360" y="430" font-family="メイリオ, sans-serif" font-weight="normal" font-size="16px" fill="#000" alignment-baseline="middle" text-anchor="middle">理</text>
	<text x="380" y="430" font-family="ＭＳ ゴシック, monospace" font-weight="normal" font-size="16px" fill="#000" alignment-baseline="middle" text-anchor="middle" dy="1.5px">}</text>
	<text x="448" y="430" font-family="メイリオ, sans-serif" font-weight="normal" font-size="16px" fill="#000" alignment-baseline="middle" text-anchor="middle">変</text>
	<text x="464" y="430" font-family="メイリオ, sans-serif" font-weight="normal" font-size="16px" fill="#000" alignment-baseline="middle" text-anchor="middle">更</text>
	<text x="520" y="430" font-family="メイリオ, sans-serif" font-weight="normal" font-size="16px" fill="#000" alignment-baseline="middle" text-anchor="middle">メ</text>
	<text x="536" y="430" font-family="メイリオ, sans-serif" font-weight="normal" font-size="16px" fill="#000" alignment-baseline="middle" text-anchor="middle">ソ</text>
	<text x="552" y="430" font-family="メイリオ, sans-serif" font-weight="normal" font-size="16px" fill="#000" alignment-baseline="middle" text-anchor="middle">ッ</text>
	<text x="568" y="430" font-family="メイリオ, sans-serif" font-weight="normal" font-size="16px" fill="#000" alignment-baseline="middle" text-anchor="middle">ド</text>
	<text x="580" y="430" font-family="ＭＳ ゴシック, monospace" font-weight="normal" font-size="16px" fill="#000" alignment-baseline="middle" text-anchor="middle" dy="1.5px">A</text>
	<text x="588" y="430" font-family="ＭＳ ゴシック, monospace" font-weight="normal" font-size="16px" fill="#000" alignment-baseline="middle" text-anchor="middle" dy="1.5px">(</text>
	<text x="600" y="430" font-family="メイリオ, sans-serif" font-weight="normal" font-size="16px" fill="#000" alignment-baseline="middle" text-anchor="middle">引</text>
	<text x="616" y="430" font-family="メイリオ, sans-serif" font-weight="normal" font-size="16px" fill="#000" alignment-baseline="middle" text-anchor="middle">数</text>
	<text x="628" y="430" font-family="ＭＳ ゴシック, monospace" font-weight="normal" font-size="16px" fill="#000" alignment-baseline="middle" text-anchor="middle" dy="1.5px">)</text>
	<text x="644" y="430" font-family="ＭＳ ゴシック, monospace" font-weight="normal" font-size="16px" fill="#000" alignment-baseline="middle" text-anchor="middle" dy="1.5px">{</text>
	<text x="664" y="430" font-family="メイリオ, sans-serif" font-weight="normal" font-size="16px" fill="#000" alignment-baseline="middle" text-anchor="middle">処</text>
	<text x="680" y="430" font-family="メイリオ, sans-serif" font-weight="normal" font-size="16px" fill="#000" alignment-baseline="middle" text-anchor="middle">理</text>
	<text x="696" y="430" font-family="メイリオ, sans-serif" font-weight="normal" font-size="16px" fill="#000" alignment-baseline="middle" text-anchor="middle">の</text>
	<text x="712" y="430" font-family="メイリオ, sans-serif" font-weight="normal" font-size="16px" fill="#000" alignment-baseline="middle" text-anchor="middle">変</text>
	<text x="728" y="430" font-family="メイリオ, sans-serif" font-weight="normal" font-size="16px" fill="#000" alignment-baseline="middle" text-anchor="middle">更</text>
	<text x="748" y="430" font-family="ＭＳ ゴシック, monospace" font-weight="normal" font-size="16px" fill="#000" alignment-baseline="middle" text-anchor="middle" dy="1.5px">}</text>
	<text x="200" y="470" font-family="メイリオ, sans-serif" font-weight="normal" font-size="16px" fill="#000" alignment-baseline="middle" text-anchor="middle">メ</text>
	<text x="216" y="470" font-family="メイリオ, sans-serif" font-weight="normal" font-size="16px" fill="#000" alignment-baseline="middle" text-anchor="middle">ソ</text>
	<text x="232" y="470" font-family="メイリオ, sans-serif" font-weight="normal" font-size="16px" fill="#000" alignment-baseline="middle" text-anchor="middle">ッ</text>
	<text x="248" y="470" font-family="メイリオ, sans-serif" font-weight="normal" font-size="16px" fill="#000" alignment-baseline="middle" text-anchor="middle">ド</text>
	<text x="260" y="470" font-family="ＭＳ ゴシック, monospace" font-weight="normal" font-size="16px" fill="#000" alignment-baseline="middle" text-anchor="middle" dy="1.5px">B</text>
	<text x="268" y="470" font-family="ＭＳ ゴシック, monospace" font-weight="normal" font-size="16px" fill="#000" alignment-baseline="middle" text-anchor="middle" dy="1.5px">(</text>
	<text x="280" y="470" font-family="メイリオ, sans-serif" font-weight="normal" font-size="16px" fill="#000" alignment-baseline="middle" text-anchor="middle">引</text>
	<text x="296" y="470" font-family="メイリオ, sans-serif" font-weight="normal" font-size="16px" fill="#000" alignment-baseline="middle" text-anchor="middle">数</text>
	<text x="308" y="470" font-family="ＭＳ ゴシック, monospace" font-weight="normal" font-size="16px" fill="#000" alignment-baseline="middle" text-anchor="middle" dy="1.5px">)</text>
	<text x="324" y="470" font-family="ＭＳ ゴシック, monospace" font-weight="normal" font-size="16px" fill="#000" alignment-baseline="middle" text-anchor="middle" dy="1.5px">{</text>
	<text x="344" y="470" font-family="メイリオ, sans-serif" font-weight="normal" font-size="16px" fill="#000" alignment-baseline="middle" text-anchor="middle">処</text>
	<text x="360" y="470" font-family="メイリオ, sans-serif" font-weight="normal" font-size="16px" fill="#000" alignment-baseline="middle" text-anchor="middle">理</text>
	<text x="380" y="470" font-family="ＭＳ ゴシック, monospace" font-weight="normal" font-size="16px" fill="#000" alignment-baseline="middle" text-anchor="middle" dy="1.5px">}</text>
	<text x="520" y="470" font-family="メイリオ, sans-serif" font-weight="normal" font-size="16px" fill="#000" alignment-baseline="middle" text-anchor="middle">メ</text>
	<text x="536" y="470" font-family="メイリオ, sans-serif" font-weight="normal" font-size="16px" fill="#000" alignment-baseline="middle" text-anchor="middle">ソ</text>
	<text x="552" y="470" font-family="メイリオ, sans-serif" font-weight="normal" font-size="16px" fill="#000" alignment-baseline="middle" text-anchor="middle">ッ</text>
	<text x="568" y="470" font-family="メイリオ, sans-serif" font-weight="normal" font-size="16px" fill="#000" alignment-baseline="middle" text-anchor="middle">ド</text>
	<text x="580" y="470" font-family="ＭＳ ゴシック, monospace" font-weight="normal" font-size="16px" fill="#000" alignment-baseline="middle" text-anchor="middle" dy="1.5px">B</text>
	<text x="600" y="470" font-family="メイリオ, sans-serif" font-weight="normal" font-size="16px" fill="#000" alignment-baseline="middle" text-anchor="middle">は</text>
	<text x="616" y="470" font-family="メイリオ, sans-serif" font-weight="normal" font-size="16px" fill="#000" alignment-baseline="middle" text-anchor="middle">そ</text>
	<text x="632" y="470" font-family="メイリオ, sans-serif" font-weight="normal" font-size="16px" fill="#000" alignment-baseline="middle" text-anchor="middle">の</text>
	<text x="648" y="470" font-family="メイリオ, sans-serif" font-weight="normal" font-size="16px" fill="#000" alignment-baseline="middle" text-anchor="middle">ま</text>
	<text x="664" y="470" font-family="メイリオ, sans-serif" font-weight="normal" font-size="16px" fill="#000" alignment-baseline="middle" text-anchor="middle">ま</text>
	<text x="448" y="510" font-family="メイリオ, sans-serif" font-weight="normal" font-size="16px" fill="#000" alignment-baseline="middle" text-anchor="middle">追</text>
	<text x="464" y="510" font-family="メイリオ, sans-serif" font-weight="normal" font-size="16px" fill="#000" alignment-baseline="middle" text-anchor="middle">加</text>
	<text x="520" y="510" font-family="メイリオ, sans-serif" font-weight="normal" font-size="16px" fill="#000" alignment-baseline="middle" text-anchor="middle">メ</text>
	<text x="536" y="510" font-family="メイリオ, sans-serif" font-weight="normal" font-size="16px" fill="#000" alignment-baseline="middle" text-anchor="middle">ソ</text>
	<text x="552" y="510" font-family="メイリオ, sans-serif" font-weight="normal" font-size="16px" fill="#000" alignment-baseline="middle" text-anchor="middle">ッ</text>
	<text x="568" y="510" font-family="メイリオ, sans-serif" font-weight="normal" font-size="16px" fill="#000" alignment-baseline="middle" text-anchor="middle">ド</text>
	<text x="580" y="510" font-family="ＭＳ ゴシック, monospace" font-weight="normal" font-size="16px" fill="#000" alignment-baseline="middle" text-anchor="middle" dy="1.5px">C</text>
	<text x="588" y="510" font-family="ＭＳ ゴシック, monospace" font-weight="normal" font-size="16px" fill="#000" alignment-baseline="middle" text-anchor="middle" dy="1.5px">(</text>
	<text x="600" y="510" font-family="メイリオ, sans-serif" font-weight="normal" font-size="16px" fill="#000" alignment-baseline="middle" text-anchor="middle">引</text>
	<text x="616" y="510" font-family="メイリオ, sans-serif" font-weight="normal" font-size="16px" fill="#000" alignment-baseline="middle" text-anchor="middle">数</text>
	<text x="628" y="510" font-family="ＭＳ ゴシック, monospace" font-weight="normal" font-size="16px" fill="#000" alignment-baseline="middle" text-anchor="middle" dy="1.5px">)</text>
	<text x="644" y="510" font-family="ＭＳ ゴシック, monospace" font-weight="normal" font-size="16px" fill="#000" alignment-baseline="middle" text-anchor="middle" dy="1.5px">{</text>
	<text x="664" y="510" font-family="メイリオ, sans-serif" font-weight="normal" font-size="16px" fill="#000" alignment-baseline="middle" text-anchor="middle">処</text>
	<text x="680" y="510" font-family="メイリオ, sans-serif" font-weight="normal" font-size="16px" fill="#000" alignment-baseline="middle" text-anchor="middle">理</text>
	<text x="700" y="510" font-family="ＭＳ ゴシック, monospace" font-weight="normal" font-size="16px" fill="#000" alignment-baseline="middle" text-anchor="middle" dy="1.5px">}</text>
	<path d="M11,9 L11,11 L13,11 L13,9 Z M11,10 L11,20 L13,20 L13,10 Z M12,9 L12,11 L16,11 L16,9 Z M16,9 L16,11 L24,11 L24,9 Z M24,9 L24,11 L32,11 L32,9 Z M32,9 L32,11 L40,11 L40,9 Z M40,9 L40,11 L48,11 L48,9 Z M48,9 L48,11 L56,11 L56,9 Z M56,9 L56,11 L64,11 L64,9 Z M64,9 L64,11 L72,11 L72,9 Z M72,9 L72,11 L80,11 L80,9 Z M80,9 L80,11 L88,11 L88,9 Z M88,9 L88,11 L96,11 L96,9 Z M96,9 L96,11 L104,11 L104,9 Z M104,9 L104,11 L112,11 L112,9 Z M112,9 L112,11 L120,11 L120,9 Z M120,9 L120,11 L128,11 L128,9 Z M128,9 L128,11 L136,11 L136,9 Z M136,9 L136,11 L144,11 L144,9 Z M147,9 L147,11 L149,11 L149,9 Z M147,10 L147,20 L149,20 L149,10 Z M144,9 L144,11 L148,11 L148,9 Z M148,9 L148,11 L152,11 L152,9 Z M152,9 L152,11 L160,11 L160,9 Z M160,9 L160,11 L168,11 L168,9 Z M168,9 L168,11 L176,11 L176,9 Z M176,9 L176,11 L184,11 L184,9 Z M184,9 L184,11 L192,11 L192,9 Z M192,9 L192,11 L200,11 L200,9 Z M200,9 L200,11 L208,11 L208,9 Z M208,9 L208,11 L216,11 L216,9 Z M216,9 L216,11 L224,11 L224,9 Z M224,9 L224,11 L232,11 L232,9 Z M232,9 L232,11 L240,11 L240,9 Z M240,9 L240,11 L248,11 L248,9 Z M248,9 L248,11 L256,11 L256,9 Z M256,9 L256,11 L264,11 L264,9 Z M264,9 L264,11 L272,11 L272,9 Z M272,9 L272,11 L280,11 L280,9 Z M280,9 L280,11 L288,11 L288,9 Z M288,9 L288,11 L296,11 L296,9 Z M296,9 L296,11 L304,11 L304,9 Z M304,9 L304,11 L312,11 L312,9 Z M312,9 L312,11 L320,11 L320,9 Z M320,9 L320,11 L328,11 L328,9 Z M328,9 L328,11 L336,11 L336,9 Z M336,9 L336,11 L344,11 L344,9 Z M344,9 L344,11 L352,11 L352,9 Z M352,9 L352,11 L360,11 L360,9 Z M360,9 L360,11 L368,11 L368,9 Z M368,9 L368,11 L376,11 L376,9 Z M376,9 L376,11 L384,11 L384,9 Z M384,9 L384,11 L392,11 L392,9 Z M395,9 L395,11 L397,11 L397,9 Z M395,10 L395,20 L397,20 L397,10 Z M392,9 L392,11 L396,11 L396,9 Z M11,20 L11,40 L13,40 L13,20 Z M147,20 L147,40 L149,40 L149,20 Z M395,20 L395,40 L397,40 L397,20 Z M11,40 L11,60 L13,60 L13,40 Z M147,40 L147,60 L149,60 L149,40 Z M395,40 L395,60 L397,60 L397,40 Z M11,60 L11,80 L13,80 L13,60 Z M147,60 L147,80 L149,80 L149,60 Z M395,60 L395,80 L397,80 L397,60 Z M11,80 L11,100 L13,100 L13,80 Z M147,89 L147,91 L149,91 L149,89 Z M147,80 L147,90 L149,90 L149,80 Z M147,90 L147,100 L149,100 L149,90 Z M148,89 L148,91 L152,91 L152,89 Z M152,89 L152,91 L160,91 L160,89 Z M160,89 L160,91 L168,91 L168,89 Z M168,89 L168,91 L176,91 L176,89 Z M176,89 L176,91 L184,91 L184,89 Z M184,89 L184,91 L192,91 L192,89 Z M192,89 L192,91 L200,91 L200,89 Z M200,89 L200,91 L208,91 L208,89 Z M208,89 L208,91 L216,91 L216,89 Z M216,89 L216,91 L224,91 L224,89 Z M224,89 L224,91 L232,91 L232,89 Z M232,89 L232,91 L240,91 L240,89 Z M240,89 L240,91 L248,91 L248,89 Z M248,89 L248,91 L256,91 L256,89 Z M256,89 L256,91 L264,91 L264,89 Z M264,89 L264,91 L272,91 L272,89 Z M272,89 L272,91 L280,91 L280,89 Z M280,89 L280,91 L288,91 L288,89 Z M288,89 L288,91 L296,91 L296,89 Z M296,89 L296,91 L304,91 L304,89 Z M304,89 L304,91 L312,91 L312,89 Z M312,89 L312,91 L320,91 L320,89 Z M320,89 L320,91 L328,91 L328,89 Z M328,89 L328,91 L336,91 L336,89 Z M336,89 L336,91 L344,91 L344,89 Z M344,89 L344,91 L352,91 L352,89 Z M352,89 L352,91 L360,91 L360,89 Z M360,89 L360,91 L368,91 L368,89 Z M368,89 L368,91 L376,91 L376,89 Z M376,89 L376,91 L384,91 L384,89 Z M384,89 L384,91 L392,91 L392,89 Z M395,89 L395,91 L397,91 L397,89 Z M395,80 L395,90 L397,90 L397,80 Z M395,90 L395,100 L397,100 L397,90 Z M392,89 L392,91 L396,91 L396,89 Z M11,100 L11,120 L13,120 L13,100 Z M147,100 L147,120 L149,120 L149,100 Z M395,100 L395,120 L397,120 L397,100 Z M11,120 L11,140 L13,140 L13,120 Z M147,129 L147,131 L149,131 L149,129 Z M147,120 L147,130 L149,130 L149,120 Z M147,130 L147,140 L149,140 L149,130 Z M148,129 L148,131 L152,131 L152,129 Z M152,129 L152,131 L160,131 L160,129 Z M160,129 L160,131 L168,131 L168,129 Z M168,129 L168,131 L176,131 L176,129 Z M176,129 L176,131 L184,131 L184,129 Z M184,129 L184,131 L192,131 L192,129 Z M192,129 L192,131 L200,131 L200,129 Z M200,129 L200,131 L208,131 L208,129 Z M208,129 L208,131 L216,131 L216,129 Z M216,129 L216,131 L224,131 L224,129 Z M224,129 L224,131 L232,131 L232,129 Z M232,129 L232,131 L240,131 L240,129 Z M240,129 L240,131 L248,131 L248,129 Z M248,129 L248,131 L256,131 L256,129 Z M256,129 L256,131 L264,131 L264,129 Z M264,129 L264,131 L272,131 L272,129 Z M272,129 L272,131 L280,131 L280,129 Z M280,129 L280,131 L288,131 L288,129 Z M288,129 L288,131 L296,131 L296,129 Z M296,129 L296,131 L304,131 L304,129 Z M304,129 L304,131 L312,131 L312,129 Z M312,129 L312,131 L320,131 L320,129 Z M320,129 L320,131 L328,131 L328,129 Z M328,129 L328,131 L336,131 L336,129 Z M336,129 L336,131 L344,131 L344,129 Z M344,129 L344,131 L352,131 L352,129 Z M352,129 L352,131 L360,131 L360,129 Z M360,129 L360,131 L368,131 L368,129 Z M368,129 L368,131 L376,131 L376,129 Z M376,129 L376,131 L384,131 L384,129 Z M384,129 L384,131 L392,131 L392,129 Z M395,129 L395,131 L397,131 L397,129 Z M395,120 L395,130 L397,130 L397,120 Z M395,130 L395,140 L397,140 L397,130 Z M392,129 L392,131 L396,131 L396,129 Z M11,140 L11,160 L13,160 L13,140 Z M147,140 L147,160 L149,160 L149,140 Z M395,140 L395,160 L397,160 L397,140 Z M11,169 L11,171 L13,171 L13,169 Z M11,160 L11,170 L13,170 L13,160 Z M12,169 L12,171 L16,171 L16,169 Z M16,169 L16,171 L24,171 L24,169 Z M24,169 L24,171 L32,171 L32,169 Z M32,169 L32,171 L40,171 L40,169 Z M40,169 L40,171 L48,171 L48,169 Z M48,169 L48,171 L56,171 L56,169 Z M56,169 L56,171 L64,171 L64,169 Z M64,169 L64,171 L72,171 L72,169 Z M72,169 L72,171 L80,171 L80,169 Z M80,169 L80,171 L88,171 L88,169 Z M88,169 L88,171 L96,171 L96,169 Z M96,169 L96,171 L104,171 L104,169 Z M104,169 L104,171 L112,171 L112,169 Z M112,169 L112,171 L120,171 L120,169 Z M120,169 L120,171 L128,171 L128,169 Z M128,169 L128,171 L136,171 L136,169 Z M136,169 L136,171 L144,171 L144,169 Z M147,169 L147,171 L149,171 L149,169 Z M147,160 L147,170 L149,170 L149,160 Z M144,169 L144,171 L148,171 L148,169 Z M148,169 L148,171 L152,171 L152,169 Z M152,169 L152,171 L160,171 L160,169 Z M160,169 L160,171 L168,171 L168,169 Z M168,169 L168,171 L176,171 L176,169 Z M176,169 L176,171 L184,171 L184,169 Z M184,169 L184,171 L192,171 L192,169 Z M192,169 L192,171 L200,171 L200,169 Z M200,169 L200,171 L208,171 L208,169 Z M208,169 L208,171 L216,171 L216,169 Z M216,169 L216,171 L224,171 L224,169 Z M224,169 L224,171 L232,171 L232,169 Z M232,169 L232,171 L240,171 L240,169 Z M240,169 L240,171 L248,171 L248,169 Z M248,169 L248,171 L256,171 L256,169 Z M256,169 L256,171 L264,171 L264,169 Z M264,169 L264,171 L272,171 L272,169 Z M272,169 L272,171 L280,171 L280,169 Z M280,169 L280,171 L288,171 L288,169 Z M288,169 L288,171 L296,171 L296,169 Z M296,169 L296,171 L304,171 L304,169 Z M304,169 L304,171 L312,171 L312,169 Z M312,169 L312,171 L320,171 L320,169 Z M320,169 L320,171 L328,171 L328,169 Z M328,169 L328,171 L336,171 L336,169 Z M336,169 L336,171 L344,171 L344,169 Z M344,169 L344,171 L352,171 L352,169 Z M352,169 L352,171 L360,171 L360,169 Z M360,169 L360,171 L368,171 L368,169 Z M368,169 L368,171 L376,171 L376,169 Z M376,169 L376,171 L384,171 L384,169 Z M384,169 L384,171 L392,171 L392,169 Z M395,169 L395,171 L397,171 L397,169 Z M395,160 L395,170 L397,170 L397,160 Z M392,169 L392,171 L396,171 L396,169 Z M75,180 L75,200 L77,200 L77,180 Z M76,220 L72,210 L80,210 Z M75,200 L75,210 L77,210 L77,200 Z M75,240 L75,260 L77,260 L77,240 Z M76,280 L72,270 L80,270 Z M75,260 L75,270 L77,270 L77,260 Z M11,289 L11,291 L13,291 L13,289 Z M11,290 L11,300 L13,300 L13,290 Z M12,289 L12,291 L16,291 L16,289 Z M16,289 L16,291 L24,291 L24,289 Z M24,289 L24,291 L32,291 L32,289 Z M32,289 L32,291 L40,291 L40,289 Z M40,289 L40,291 L48,291 L48,289 Z M48,289 L48,291 L56,291 L56,289 Z M56,289 L56,291 L64,291 L64,289 Z M64,289 L64,291 L72,291 L72,289 Z M72,289 L72,291 L80,291 L80,289 Z M80,289 L80,291 L88,291 L88,289 Z M88,289 L88,291 L96,291 L96,289 Z M96,289 L96,291 L104,291 L104,289 Z M104,289 L104,291 L112,291 L112,289 Z M112,289 L112,291 L120,291 L120,289 Z M120,289 L120,291 L128,291 L128,289 Z M128,289 L128,291 L136,291 L136,289 Z M136,289 L136,291 L144,291 L144,289 Z M144,289 L144,291 L152,291 L152,289 Z M152,289 L152,291 L160,291 L160,289 Z M160,289 L160,291 L168,291 L168,289 Z M168,289 L168,291 L176,291 L176,289 Z M176,289 L176,291 L184,291 L184,289 Z M184,289 L184,291 L192,291 L192,289 Z M192,289 L192,291 L200,291 L200,289 Z M200,289 L200,291 L208,291 L208,289 Z M208,289 L208,291 L216,291 L216,289 Z M216,289 L216,291 L224,291 L224,289 Z M224,289 L224,291 L232,291 L232,289 Z M232,289 L232,291 L240,291 L240,289 Z M240,289 L240,291 L248,291 L248,289 Z M248,289 L248,291 L256,291 L256,289 Z M256,289 L256,291 L264,291 L264,289 Z M264,289 L264,291 L272,291 L272,289 Z M272,289 L272,291 L280,291 L280,289 Z M280,289 L280,291 L288,291 L288,289 Z M288,289 L288,291 L296,291 L296,289 Z M296,289 L296,291 L304,291 L304,289 Z M304,289 L304,291 L312,291 L312,289 Z M312,289 L312,291 L320,291 L320,289 Z M320,289 L320,291 L328,291 L328,289 Z M328,289 L328,291 L336,291 L336,289 Z M336,289 L336,291 L344,291 L344,289 Z M344,289 L344,291 L352,291 L352,289 Z M352,289 L352,291 L360,291 L360,289 Z M360,289 L360,291 L368,291 L368,289 Z M368,289 L368,291 L376,291 L376,289 Z M376,289 L376,291 L384,291 L384,289 Z M384,289 L384,291 L392,291 L392,289 Z M392,289 L392,291 L400,291 L400,289 Z M400,289 L400,291 L408,291 L408,289 Z M408,289 L408,291 L416,291 L416,289 Z M416,289 L416,291 L424,291 L424,289 Z M424,289 L424,291 L432,291 L432,289 Z M432,289 L432,291 L440,291 L440,289 Z M440,289 L440,291 L448,291 L448,289 Z M448,289 L448,291 L456,291 L456,289 Z M456,289 L456,291 L464,291 L464,289 Z M464,289 L464,291 L472,291 L472,289 Z M472,289 L472,291 L480,291 L480,289 Z M480,289 L480,291 L488,291 L488,289 Z M488,289 L488,291 L496,291 L496,289 Z M496,289 L496,291 L504,291 L504,289 Z M504,289 L504,291 L512,291 L512,289 Z M512,289 L512,291 L520,291 L520,289 Z M520,289 L520,291 L528,291 L528,289 Z M528,289 L528,291 L536,291 L536,289 Z M536,289 L536,291 L544,291 L544,289 Z M544,289 L544,291 L552,291 L552,289 Z M552,289 L552,291 L560,291 L560,289 Z M560,289 L560,291 L568,291 L568,289 Z M568,289 L568,291 L576,291 L576,289 Z M576,289 L576,291 L584,291 L584,289 Z M584,289 L584,291 L592,291 L592,289 Z M592,289 L592,291 L600,291 L600,289 Z M600,289 L600,291 L608,291 L608,289 Z M608,289 L608,291 L616,291 L616,289 Z M616,289 L616,291 L624,291 L624,289 Z M624,289 L624,291 L632,291 L632,289 Z M632,289 L632,291 L640,291 L640,289 Z M640,289 L640,291 L648,291 L648,289 Z M648,289 L648,291 L656,291 L656,289 Z M656,289 L656,291 L664,291 L664,289 Z M664,289 L664,291 L672,291 L672,289 Z M672,289 L672,291 L680,291 L680,289 Z M680,289 L680,291 L688,291 L688,289 Z M688,289 L688,291 L696,291 L696,289 Z M696,289 L696,291 L704,291 L704,289 Z M704,289 L704,291 L712,291 L712,289 Z M712,289 L712,291 L720,291 L720,289 Z M720,289 L720,291 L728,291 L728,289 Z M728,289 L728,291 L736,291 L736,289 Z M736,289 L736,291 L744,291 L744,289 Z M744,289 L744,291 L752,291 L752,289 Z M752,289 L752,291 L760,291 L760,289 Z M760,289 L760,291 L768,291 L768,289 Z M768,289 L768,291 L776,291 L776,289 Z M776,289 L776,291 L784,291 L784,289 Z M784,289 L784,291 L792,291 L792,289 Z M795,289 L795,291 L797,291 L797,289 Z M795,290 L795,300 L797,300 L797,290 Z M792,289 L792,291 L796,291 L796,289 Z M11,300 L11,320 L13,320 L13,300 Z M795,300 L795,320 L797,320 L797,300 Z M11,320 L11,340 L13,340 L13,320 Z M35,329 L35,331 L37,331 L37,329 Z M35,330 L35,340 L37,340 L37,330 Z M36,329 L36,331 L40,331 L40,329 Z M40,329 L40,331 L48,331 L48,329 Z M48,329 L48,331 L56,331 L56,329 Z M56,329 L56,331 L64,331 L64,329 Z M64,329 L64,331 L72,331 L72,329 Z M72,329 L72,331 L80,331 L80,329 Z M80,329 L80,331 L88,331 L88,329 Z M88,329 L88,331 L96,331 L96,329 Z M96,329 L96,331 L104,331 L104,329 Z M104,329 L104,331 L112,331 L112,329 Z M112,329 L112,331 L120,331 L120,329 Z M120,329 L120,331 L128,331 L128,329 Z M128,329 L128,331 L136,331 L136,329 Z M136,329 L136,331 L144,331 L144,329 Z M144,329 L144,331 L152,331 L152,329 Z M152,329 L152,331 L160,331 L160,329 Z M160,329 L160,331 L168,331 L168,329 Z M171,329 L171,331 L173,331 L173,329 Z M171,330 L171,340 L173,340 L173,330 Z M168,329 L168,331 L172,331 L172,329 Z M172,329 L172,331 L176,331 L176,329 Z M176,329 L176,331 L184,331 L184,329 Z M184,329 L184,331 L192,331 L192,329 Z M192,329 L192,331 L200,331 L200,329 Z M200,329 L200,331 L208,331 L208,329 Z M208,329 L208,331 L216,331 L216,329 Z M216,329 L216,331 L224,331 L224,329 Z M224,329 L224,331 L232,331 L232,329 Z M232,329 L232,331 L240,331 L240,329 Z M240,329 L240,331 L248,331 L248,329 Z M248,329 L248,331 L256,331 L256,329 Z M256,329 L256,331 L264,331 L264,329 Z M264,329 L264,331 L272,331 L272,329 Z M272,329 L272,331 L280,331 L280,329 Z M280,329 L280,331 L288,331 L288,329 Z M288,329 L288,331 L296,331 L296,329 Z M296,329 L296,331 L304,331 L304,329 Z M304,329 L304,331 L312,331 L312,329 Z M312,329 L312,331 L320,331 L320,329 Z M320,329 L320,331 L328,331 L328,329 Z M328,329 L328,331 L336,331 L336,329 Z M336,329 L336,331 L344,331 L344,329 Z M344,329 L344,331 L352,331 L352,329 Z M352,329 L352,331 L360,331 L360,329 Z M360,329 L360,331 L368,331 L368,329 Z M368,329 L368,331 L376,331 L376,329 Z M376,329 L376,331 L384,331 L384,329 Z M384,329 L384,331 L392,331 L392,329 Z M392,329 L392,331 L400,331 L400,329 Z M400,329 L400,331 L408,331 L408,329 Z M408,329 L408,331 L416,331 L416,329 Z M419,329 L419,331 L421,331 L421,329 Z M419,330 L419,340 L421,340 L421,330 Z M416,329 L416,331 L420,331 L420,329 Z M491,329 L491,331 L493,331 L493,329 Z M491,330 L491,340 L493,340 L493,330 Z M492,329 L492,331 L496,331 L496,329 Z M496,329 L496,331 L504,331 L504,329 Z M504,329 L504,331 L512,331 L512,329 Z M512,329 L512,331 L520,331 L520,329 Z M520,329 L520,331 L528,331 L528,329 Z M528,329 L528,331 L536,331 L536,329 Z M536,329 L536,331 L544,331 L544,329 Z M544,329 L544,331 L552,331 L552,329 Z M552,329 L552,331 L560,331 L560,329 Z M560,329 L560,331 L568,331 L568,329 Z M568,329 L568,331 L576,331 L576,329 Z M576,329 L576,331 L584,331 L584,329 Z M584,329 L584,331 L592,331 L592,329 Z M592,329 L592,331 L600,331 L600,329 Z M600,329 L600,331 L608,331 L608,329 Z M608,329 L608,331 L616,331 L616,329 Z M616,329 L616,331 L624,331 L624,329 Z M624,329 L624,331 L632,331 L632,329 Z M632,329 L632,331 L640,331 L640,329 Z M640,329 L640,331 L648,331 L648,329 Z M648,329 L648,331 L656,331 L656,329 Z M656,329 L656,331 L664,331 L664,329 Z M664,329 L664,331 L672,331 L672,329 Z M672,329 L672,331 L680,331 L680,329 Z M680,329 L680,331 L688,331 L688,329 Z M688,329 L688,331 L696,331 L696,329 Z M696,329 L696,331 L704,331 L704,329 Z M704,329 L704,331 L712,331 L712,329 Z M712,329 L712,331 L720,331 L720,329 Z M720,329 L720,331 L728,331 L728,329 Z M728,329 L728,331 L736,331 L736,329 Z M736,329 L736,331 L744,331 L744,329 Z M744,329 L744,331 L752,331 L752,329 Z M752,329 L752,331 L760,331 L760,329 Z M760,329 L760,331 L768,331 L768,329 Z M771,329 L771,331 L773,331 L773,329 Z M771,330 L771,340 L773,340 L773,330 Z M768,329 L768,331 L772,331 L772,329 Z M795,320 L795,340 L797,340 L797,320 Z M11,340 L11,360 L13,360 L13,340 Z M35,340 L35,360 L37,360 L37,340 Z M171,340 L171,360 L173,360 L173,340 Z M419,340 L419,360 L421,360 L421,340 Z M491,340 L491,360 L493,360 L493,340 Z M771,340 L771,360 L773,360 L773,340 Z M795,340 L795,360 L797,360 L797,340 Z M11,360 L11,380 L13,380 L13,360 Z M35,360 L35,380 L37,380 L37,360 Z M171,360 L171,380 L173,380 L173,360 Z M419,360 L419,380 L421,380 L421,360 Z M424,369 L424,371 L432,371 L432,369 Z M440,370 L432,375 L432,365 Z M472,369 L472,371 L480,371 L480,369 Z M488,370 L480,375 L480,365 Z M491,360 L491,380 L493,380 L493,360 Z M771,360 L771,380 L773,380 L773,360 Z M795,360 L795,380 L797,380 L797,360 Z M11,380 L11,400 L13,400 L13,380 Z M35,380 L35,400 L37,400 L37,380 Z M171,380 L171,400 L173,400 L173,380 Z M419,380 L419,400 L421,400 L421,380 Z M491,380 L491,400 L493,400 L493,380 Z M771,380 L771,400 L773,400 L773,380 Z M795,380 L795,400 L797,400 L797,380 Z M11,400 L11,420 L13,420 L13,400 Z M35,400 L35,420 L37,420 L37,400 Z M171,409 L171,411 L173,411 L173,409 Z M171,400 L171,410 L173,410 L173,400 Z M171,410 L171,420 L173,420 L173,410 Z M172,409 L172,411 L176,411 L176,409 Z M176,409 L176,411 L184,411 L184,409 Z M184,409 L184,411 L192,411 L192,409 Z M192,409 L192,411 L200,411 L200,409 Z M200,409 L200,411 L208,411 L208,409 Z M208,409 L208,411 L216,411 L216,409 Z M216,409 L216,411 L224,411 L224,409 Z M224,409 L224,411 L232,411 L232,409 Z M232,409 L232,411 L240,411 L240,409 Z M240,409 L240,411 L248,411 L248,409 Z M248,409 L248,411 L256,411 L256,409 Z M256,409 L256,411 L264,411 L264,409 Z M264,409 L264,411 L272,411 L272,409 Z M272,409 L272,411 L280,411 L280,409 Z M280,409 L280,411 L288,411 L288,409 Z M288,409 L288,411 L296,411 L296,409 Z M296,409 L296,411 L304,411 L304,409 Z M304,409 L304,411 L312,411 L312,409 Z M312,409 L312,411 L320,411 L320,409 Z M320,409 L320,411 L328,411 L328,409 Z M328,409 L328,411 L336,411 L336,409 Z M336,409 L336,411 L344,411 L344,409 Z M344,409 L344,411 L352,411 L352,409 Z M352,409 L352,411 L360,411 L360,409 Z M360,409 L360,411 L368,411 L368,409 Z M368,409 L368,411 L376,411 L376,409 Z M376,409 L376,411 L384,411 L384,409 Z M384,409 L384,411 L392,411 L392,409 Z M392,409 L392,411 L400,411 L400,409 Z M400,409 L400,411 L408,411 L408,409 Z M408,409 L408,411 L416,411 L416,409 Z M419,409 L419,411 L421,411 L421,409 Z M419,400 L419,410 L421,410 L421,400 Z M419,410 L419,420 L421,420 L421,410 Z M416,409 L416,411 L420,411 L420,409 Z M491,409 L491,411 L493,411 L493,409 Z M491,400 L491,410 L493,410 L493,400 Z M491,410 L491,420 L493,420 L493,410 Z M492,409 L492,411 L496,411 L496,409 Z M496,409 L496,411 L504,411 L504,409 Z M504,409 L504,411 L512,411 L512,409 Z M512,409 L512,411 L520,411 L520,409 Z M520,409 L520,411 L528,411 L528,409 Z M528,409 L528,411 L536,411 L536,409 Z M536,409 L536,411 L544,411 L544,409 Z M544,409 L544,411 L552,411 L552,409 Z M552,409 L552,411 L560,411 L560,409 Z M560,409 L560,411 L568,411 L568,409 Z M568,409 L568,411 L576,411 L576,409 Z M576,409 L576,411 L584,411 L584,409 Z M584,409 L584,411 L592,411 L592,409 Z M592,409 L592,411 L600,411 L600,409 Z M600,409 L600,411 L608,411 L608,409 Z M608,409 L608,411 L616,411 L616,409 Z M616,409 L616,411 L624,411 L624,409 Z M624,409 L624,411 L632,411 L632,409 Z M632,409 L632,411 L640,411 L640,409 Z M640,409 L640,411 L648,411 L648,409 Z M648,409 L648,411 L656,411 L656,409 Z M656,409 L656,411 L664,411 L664,409 Z M664,409 L664,411 L672,411 L672,409 Z M672,409 L672,411 L680,411 L680,409 Z M680,409 L680,411 L688,411 L688,409 Z M688,409 L688,411 L696,411 L696,409 Z M696,409 L696,411 L704,411 L704,409 Z M704,409 L704,411 L712,411 L712,409 Z M712,409 L712,411 L720,411 L720,409 Z M720,409 L720,411 L728,411 L728,409 Z M728,409 L728,411 L736,411 L736,409 Z M736,409 L736,411 L744,411 L744,409 Z M744,409 L744,411 L752,411 L752,409 Z M752,409 L752,411 L760,411 L760,409 Z M760,409 L760,411 L768,411 L768,409 Z M771,409 L771,411 L773,411 L773,409 Z M771,400 L771,410 L773,410 L773,400 Z M771,410 L771,420 L773,420 L773,410 Z M768,409 L768,411 L772,411 L772,409 Z M795,400 L795,420 L797,420 L797,400 Z M11,420 L11,440 L13,440 L13,420 Z M35,420 L35,440 L37,440 L37,420 Z M171,420 L171,440 L173,440 L173,420 Z M419,420 L419,440 L421,440 L421,420 Z M424,429 L424,431 L432,431 L432,429 Z M440,430 L432,435 L432,425 Z M472,429 L472,431 L480,431 L480,429 Z M488,430 L480,435 L480,425 Z M491,420 L491,440 L493,440 L493,420 Z M771,420 L771,440 L773,440 L773,420 Z M795,420 L795,440 L797,440 L797,420 Z M11,440 L11,460 L13,460 L13,440 Z M35,440 L35,460 L37,460 L37,440 Z M171,449 L171,451 L173,451 L173,449 Z M171,440 L171,450 L173,450 L173,440 Z M171,450 L171,460 L173,460 L173,450 Z M172,449 L172,451 L176,451 L176,449 Z M176,449 L176,451 L184,451 L184,449 Z M184,449 L184,451 L192,451 L192,449 Z M192,449 L192,451 L200,451 L200,449 Z M200,449 L200,451 L208,451 L208,449 Z M208,449 L208,451 L216,451 L216,449 Z M216,449 L216,451 L224,451 L224,449 Z M224,449 L224,451 L232,451 L232,449 Z M232,449 L232,451 L240,451 L240,449 Z M240,449 L240,451 L248,451 L248,449 Z M248,449 L248,451 L256,451 L256,449 Z M256,449 L256,451 L264,451 L264,449 Z M264,449 L264,451 L272,451 L272,449 Z M272,449 L272,451 L280,451 L280,449 Z M280,449 L280,451 L288,451 L288,449 Z M288,449 L288,451 L296,451 L296,449 Z M296,449 L296,451 L304,451 L304,449 Z M304,449 L304,451 L312,451 L312,449 Z M312,449 L312,451 L320,451 L320,449 Z M320,449 L320,451 L328,451 L328,449 Z M328,449 L328,451 L336,451 L336,449 Z M336,449 L336,451 L344,451 L344,449 Z M344,449 L344,451 L352,451 L352,449 Z M352,449 L352,451 L360,451 L360,449 Z M360,449 L360,451 L368,451 L368,449 Z M368,449 L368,451 L376,451 L376,449 Z M376,449 L376,451 L384,451 L384,449 Z M384,449 L384,451 L392,451 L392,449 Z M392,449 L392,451 L400,451 L400,449 Z M400,449 L400,451 L408,451 L408,449 Z M408,449 L408,451 L416,451 L416,449 Z M419,449 L419,451 L421,451 L421,449 Z M419,440 L419,450 L421,450 L421,440 Z M419,450 L419,460 L421,460 L421,450 Z M416,449 L416,451 L420,451 L420,449 Z M491,449 L491,451 L493,451 L493,449 Z M491,440 L491,450 L493,450 L493,440 Z M492,449 L492,451 L496,451 L496,449 Z M496,449 L496,451 L504,451 L504,449 Z M504,449 L504,451 L512,451 L512,449 Z M512,449 L512,451 L520,451 L520,449 Z M520,449 L520,451 L528,451 L528,449 Z M528,449 L528,451 L536,451 L536,449 Z M536,449 L536,451 L544,451 L544,449 Z M544,449 L544,451 L552,451 L552,449 Z M552,449 L552,451 L560,451 L560,449 Z M560,449 L560,451 L568,451 L568,449 Z M568,449 L568,451 L576,451 L576,449 Z M576,449 L576,451 L584,451 L584,449 Z M584,449 L584,451 L592,451 L592,449 Z M592,449 L592,451 L600,451 L600,449 Z M600,449 L600,451 L608,451 L608,449 Z M608,449 L608,451 L616,451 L616,449 Z M616,449 L616,451 L624,451 L624,449 Z M624,449 L624,451 L632,451 L632,449 Z M632,449 L632,451 L640,451 L640,449 Z M640,449 L640,451 L648,451 L648,449 Z M648,449 L648,451 L656,451 L656,449 Z M656,449 L656,451 L664,451 L664,449 Z M664,449 L664,451 L672,451 L672,449 Z M672,449 L672,451 L680,451 L680,449 Z M680,449 L680,451 L688,451 L688,449 Z M688,449 L688,451 L696,451 L696,449 Z M696,449 L696,451 L704,451 L704,449 Z M704,449 L704,451 L712,451 L712,449 Z M712,449 L712,451 L720,451 L720,449 Z M720,449 L720,451 L728,451 L728,449 Z M728,449 L728,451 L736,451 L736,449 Z M736,449 L736,451 L744,451 L744,449 Z M744,449 L744,451 L752,451 L752,449 Z M752,449 L752,451 L760,451 L760,449 Z M760,449 L760,451 L768,451 L768,449 Z M771,449 L771,451 L773,451 L773,449 Z M771,440 L771,450 L773,450 L773,440 Z M768,449 L768,451 L772,451 L772,449 Z M795,440 L795,460 L797,460 L797,440 Z M11,460 L11,480 L13,480 L13,460 Z M35,460 L35,480 L37,480 L37,460 Z M171,460 L171,480 L173,480 L173,460 Z M419,460 L419,480 L421,480 L421,460 Z M424,469 L424,471 L432,471 L432,469 Z M432,469 L432,471 L440,471 L440,469 Z M440,469 L440,471 L448,471 L448,469 Z M448,469 L448,471 L456,471 L456,469 Z M456,469 L456,471 L464,471 L464,469 Z M464,469 L464,471 L472,471 L472,469 Z M472,469 L472,471 L480,471 L480,469 Z M488,470 L480,475 L480,465 Z M795,460 L795,480 L797,480 L797,460 Z M11,480 L11,500 L13,500 L13,480 Z M35,489 L35,491 L37,491 L37,489 Z M35,480 L35,490 L37,490 L37,480 Z M36,489 L36,491 L40,491 L40,489 Z M40,489 L40,491 L48,491 L48,489 Z M48,489 L48,491 L56,491 L56,489 Z M56,489 L56,491 L64,491 L64,489 Z M64,489 L64,491 L72,491 L72,489 Z M72,489 L72,491 L80,491 L80,489 Z M80,489 L80,491 L88,491 L88,489 Z M88,489 L88,491 L96,491 L96,489 Z M96,489 L96,491 L104,491 L104,489 Z M104,489 L104,491 L112,491 L112,489 Z M112,489 L112,491 L120,491 L120,489 Z M120,489 L120,491 L128,491 L128,489 Z M128,489 L128,491 L136,491 L136,489 Z M136,489 L136,491 L144,491 L144,489 Z M144,489 L144,491 L152,491 L152,489 Z M152,489 L152,491 L160,491 L160,489 Z M160,489 L160,491 L168,491 L168,489 Z M171,489 L171,491 L173,491 L173,489 Z M171,480 L171,490 L173,490 L173,480 Z M168,489 L168,491 L172,491 L172,489 Z M172,489 L172,491 L176,491 L176,489 Z M176,489 L176,491 L184,491 L184,489 Z M184,489 L184,491 L192,491 L192,489 Z M192,489 L192,491 L200,491 L200,489 Z M200,489 L200,491 L208,491 L208,489 Z M208,489 L208,491 L216,491 L216,489 Z M216,489 L216,491 L224,491 L224,489 Z M224,489 L224,491 L232,491 L232,489 Z M232,489 L232,491 L240,491 L240,489 Z M240,489 L240,491 L248,491 L248,489 Z M248,489 L248,491 L256,491 L256,489 Z M256,489 L256,491 L264,491 L264,489 Z M264,489 L264,491 L272,491 L272,489 Z M272,489 L272,491 L280,491 L280,489 Z M280,489 L280,491 L288,491 L288,489 Z M288,489 L288,491 L296,491 L296,489 Z M296,489 L296,491 L304,491 L304,489 Z M304,489 L304,491 L312,491 L312,489 Z M312,489 L312,491 L320,491 L320,489 Z M320,489 L320,491 L328,491 L328,489 Z M328,489 L328,491 L336,491 L336,489 Z M336,489 L336,491 L344,491 L344,489 Z M344,489 L344,491 L352,491 L352,489 Z M352,489 L352,491 L360,491 L360,489 Z M360,489 L360,491 L368,491 L368,489 Z M368,489 L368,491 L376,491 L376,489 Z M376,489 L376,491 L384,491 L384,489 Z M384,489 L384,491 L392,491 L392,489 Z M392,489 L392,491 L400,491 L400,489 Z M400,489 L400,491 L408,491 L408,489 Z M408,489 L408,491 L416,491 L416,489 Z M419,489 L419,491 L421,491 L421,489 Z M419,480 L419,490 L421,490 L421,480 Z M416,489 L416,491 L420,491 L420,489 Z M491,489 L491,491 L493,491 L493,489 Z M491,490 L491,500 L493,500 L493,490 Z M492,489 L492,491 L496,491 L496,489 Z M496,489 L496,491 L504,491 L504,489 Z M504,489 L504,491 L512,491 L512,489 Z M512,489 L512,491 L520,491 L520,489 Z M520,489 L520,491 L528,491 L528,489 Z M528,489 L528,491 L536,491 L536,489 Z M536,489 L536,491 L544,491 L544,489 Z M544,489 L544,491 L552,491 L552,489 Z M552,489 L552,491 L560,491 L560,489 Z M560,489 L560,491 L568,491 L568,489 Z M568,489 L568,491 L576,491 L576,489 Z M576,489 L576,491 L584,491 L584,489 Z M584,489 L584,491 L592,491 L592,489 Z M592,489 L592,491 L600,491 L600,489 Z M600,489 L600,491 L608,491 L608,489 Z M608,489 L608,491 L616,491 L616,489 Z M616,489 L616,491 L624,491 L624,489 Z M624,489 L624,491 L632,491 L632,489 Z M632,489 L632,491 L640,491 L640,489 Z M640,489 L640,491 L648,491 L648,489 Z M648,489 L648,491 L656,491 L656,489 Z M656,489 L656,491 L664,491 L664,489 Z M664,489 L664,491 L672,491 L672,489 Z M672,489 L672,491 L680,491 L680,489 Z M680,489 L680,491 L688,491 L688,489 Z M688,489 L688,491 L696,491 L696,489 Z M696,489 L696,491 L704,491 L704,489 Z M704,489 L704,491 L712,491 L712,489 Z M712,489 L712,491 L720,491 L720,489 Z M720,489 L720,491 L728,491 L728,489 Z M728,489 L728,491 L736,491 L736,489 Z M736,489 L736,491 L744,491 L744,489 Z M744,489 L744,491 L752,491 L752,489 Z M752,489 L752,491 L760,491 L760,489 Z M760,489 L760,491 L768,491 L768,489 Z M771,489 L771,491 L773,491 L773,489 Z M771,490 L771,500 L773,500 L773,490 Z M768,489 L768,491 L772,491 L772,489 Z M795,480 L795,500 L797,500 L797,480 Z M11,500 L11,520 L13,520 L13,500 Z M491,500 L491,520 L493,520 L493,500 Z M771,500 L771,520 L773,520 L773,500 Z M795,500 L795,520 L797,520 L797,500 Z M11,520 L11,540 L13,540 L13,520 Z M491,529 L491,531 L493,531 L493,529 Z M491,520 L491,530 L493,530 L493,520 Z M492,529 L492,531 L496,531 L496,529 Z M496,529 L496,531 L504,531 L504,529 Z M504,529 L504,531 L512,531 L512,529 Z M512,529 L512,531 L520,531 L520,529 Z M520,529 L520,531 L528,531 L528,529 Z M528,529 L528,531 L536,531 L536,529 Z M536,529 L536,531 L544,531 L544,529 Z M544,529 L544,531 L552,531 L552,529 Z M552,529 L552,531 L560,531 L560,529 Z M560,529 L560,531 L568,531 L568,529 Z M568,529 L568,531 L576,531 L576,529 Z M576,529 L576,531 L584,531 L584,529 Z M584,529 L584,531 L592,531 L592,529 Z M592,529 L592,531 L600,531 L600,529 Z M600,529 L600,531 L608,531 L608,529 Z M608,529 L608,531 L616,531 L616,529 Z M616,529 L616,531 L624,531 L624,529 Z M624,529 L624,531 L632,531 L632,529 Z M632,529 L632,531 L640,531 L640,529 Z M640,529 L640,531 L648,531 L648,529 Z M648,529 L648,531 L656,531 L656,529 Z M656,529 L656,531 L664,531 L664,529 Z M664,529 L664,531 L672,531 L672,529 Z M672,529 L672,531 L680,531 L680,529 Z M680,529 L680,531 L688,531 L688,529 Z M688,529 L688,531 L696,531 L696,529 Z M696,529 L696,531 L704,531 L704,529 Z M704,529 L704,531 L712,531 L712,529 Z M712,529 L712,531 L720,531 L720,529 Z M720,529 L720,531 L728,531 L728,529 Z M728,529 L728,531 L736,531 L736,529 Z M736,529 L736,531 L744,531 L744,529 Z M744,529 L744,531 L752,531 L752,529 Z M752,529 L752,531 L760,531 L760,529 Z M760,529 L760,531 L768,531 L768,529 Z M771,529 L771,531 L773,531 L773,529 Z M771,520 L771,530 L773,530 L773,520 Z M768,529 L768,531 L772,531 L772,529 Z M795,520 L795,540 L797,540 L797,520 Z M11,549 L11,551 L13,551 L13,549 Z M11,540 L11,550 L13,550 L13,540 Z M12,549 L12,551 L16,551 L16,549 Z M16,549 L16,551 L24,551 L24,549 Z M24,549 L24,551 L32,551 L32,549 Z M32,549 L32,551 L40,551 L40,549 Z M40,549 L40,551 L48,551 L48,549 Z M48,549 L48,551 L56,551 L56,549 Z M56,549 L56,551 L64,551 L64,549 Z M64,549 L64,551 L72,551 L72,549 Z M72,549 L72,551 L80,551 L80,549 Z M80,549 L80,551 L88,551 L88,549 Z M88,549 L88,551 L96,551 L96,549 Z M96,549 L96,551 L104,551 L104,549 Z M104,549 L104,551 L112,551 L112,549 Z M112,549 L112,551 L120,551 L120,549 Z M120,549 L120,551 L128,551 L128,549 Z M128,549 L128,551 L136,551 L136,549 Z M136,549 L136,551 L144,551 L144,549 Z M144,549 L144,551 L152,551 L152,549 Z M152,549 L152,551 L160,551 L160,549 Z M160,549 L160,551 L168,551 L168,549 Z M168,549 L168,551 L176,551 L176,549 Z M176,549 L176,551 L184,551 L184,549 Z M184,549 L184,551 L192,551 L192,549 Z M192,549 L192,551 L200,551 L200,549 Z M200,549 L200,551 L208,551 L208,549 Z M208,549 L208,551 L216,551 L216,549 Z M216,549 L216,551 L224,551 L224,549 Z M224,549 L224,551 L232,551 L232,549 Z M232,549 L232,551 L240,551 L240,549 Z M240,549 L240,551 L248,551 L248,549 Z M248,549 L248,551 L256,551 L256,549 Z M256,549 L256,551 L264,551 L264,549 Z M264,549 L264,551 L272,551 L272,549 Z M272,549 L272,551 L280,551 L280,549 Z M280,549 L280,551 L288,551 L288,549 Z M288,549 L288,551 L296,551 L296,549 Z M296,549 L296,551 L304,551 L304,549 Z M304,549 L304,551 L312,551 L312,549 Z M312,549 L312,551 L320,551 L320,549 Z M320,549 L320,551 L328,551 L328,549 Z M328,549 L328,551 L336,551 L336,549 Z M336,549 L336,551 L344,551 L344,549 Z M344,549 L344,551 L352,551 L352,549 Z M352,549 L352,551 L360,551 L360,549 Z M360,549 L360,551 L368,551 L368,549 Z M368,549 L368,551 L376,551 L376,549 Z M376,549 L376,551 L384,551 L384,549 Z M384,549 L384,551 L392,551 L392,549 Z M392,549 L392,551 L400,551 L400,549 Z M400,549 L400,551 L408,551 L408,549 Z M408,549 L408,551 L416,551 L416,549 Z M416,549 L416,551 L424,551 L424,549 Z M424,549 L424,551 L432,551 L432,549 Z M432,549 L432,551 L440,551 L440,549 Z M440,549 L440,551 L448,551 L448,549 Z M448,549 L448,551 L456,551 L456,549 Z M456,549 L456,551 L464,551 L464,549 Z M464,549 L464,551 L472,551 L472,549 Z M472,549 L472,551 L480,551 L480,549 Z M480,549 L480,551 L488,551 L488,549 Z M488,549 L488,551 L496,551 L496,549 Z M496,549 L496,551 L504,551 L504,549 Z M504,549 L504,551 L512,551 L512,549 Z M512,549 L512,551 L520,551 L520,549 Z M520,549 L520,551 L528,551 L528,549 Z M528,549 L528,551 L536,551 L536,549 Z M536,549 L536,551 L544,551 L544,549 Z M544,549 L544,551 L552,551 L552,549 Z M552,549 L552,551 L560,551 L560,549 Z M560,549 L560,551 L568,551 L568,549 Z M568,549 L568,551 L576,551 L576,549 Z M576,549 L576,551 L584,551 L584,549 Z M584,549 L584,551 L592,551 L592,549 Z M592,549 L592,551 L600,551 L600,549 Z M600,549 L600,551 L608,551 L608,549 Z M608,549 L608,551 L616,551 L616,549 Z M616,549 L616,551 L624,551 L624,549 Z M624,549 L624,551 L632,551 L632,549 Z M632,549 L632,551 L640,551 L640,549 Z M640,549 L640,551 L648,551 L648,549 Z M648,549 L648,551 L656,551 L656,549 Z M656,549 L656,551 L664,551 L664,549 Z M664,549 L664,551 L672,551 L672,549 Z M672,549 L672,551 L680,551 L680,549 Z M680,549 L680,551 L688,551 L688,549 Z M688,549 L688,551 L696,551 L696,549 Z M696,549 L696,551 L704,551 L704,549 Z M704,549 L704,551 L712,551 L712,549 Z M712,549 L712,551 L720,551 L720,549 Z M720,549 L720,551 L728,551 L728,549 Z M728,549 L728,551 L736,551 L736,549 Z M736,549 L736,551 L744,551 L744,549 Z M744,549 L744,551 L752,551 L752,549 Z M752,549 L752,551 L760,551 L760,549 Z M760,549 L760,551 L768,551 L768,549 Z M768,549 L768,551 L776,551 L776,549 Z M776,549 L776,551 L784,551 L784,549 Z M784,549 L784,551 L792,551 L792,549 Z M795,549 L795,551 L797,551 L797,549 Z M795,540 L795,550 L797,550 L797,540 Z M792,549 L792,551 L796,551 L796,549 Z " fill="#000" stroke="#000" stroke-width="0.1px" />
</svg>