<?xml version="1.0"?>
<svg width="448" height="540" viewBox="0 0 448 540"
    xmlns="http://www.w3.org/2000/svg" version="1.1">
	<text x="184" y="50" font-family="メイリオ, sans-serif" font-weight="normal" font-size="16px" fill="#000" alignment-baseline="middle" text-anchor="middle">イ</text>
	<text x="200" y="50" font-family="メイリオ, sans-serif" font-weight="normal" font-size="16px" fill="#000" alignment-baseline="middle" text-anchor="middle">ベ</text>
	<text x="216" y="50" font-family="メイリオ, sans-serif" font-weight="normal" font-size="16px" fill="#000" alignment-baseline="middle" text-anchor="middle">ン</text>
	<text x="232" y="50" font-family="メイリオ, sans-serif" font-weight="normal" font-size="16px" fill="#000" alignment-baseline="middle" text-anchor="middle">ト</text>
	<text x="248" y="50" font-family="メイリオ, sans-serif" font-weight="normal" font-size="16px" fill="#000" alignment-baseline="middle" text-anchor="middle">登</text>
	<text x="264" y="50" font-family="メイリオ, sans-serif" font-weight="normal" font-size="16px" fill="#000" alignment-baseline="middle" text-anchor="middle">録</text>
	<text x="64" y="70" font-family="メイリオ, sans-serif" font-weight="normal" font-size="16px" fill="#000" alignment-baseline="middle" text-anchor="middle">要</text>
	<text x="80" y="70" font-family="メイリオ, sans-serif" font-weight="normal" font-size="16px" fill="#000" alignment-baseline="middle" text-anchor="middle">素</text>
	<text x="184" y="70" font-family="メイリオ, sans-serif" font-weight="normal" font-size="16px" fill="#000" alignment-baseline="middle" text-anchor="middle">・</text>
	<text x="196" y="70" font-family="ＭＳ ゴシック, monospace" font-weight="normal" font-size="16px" fill="#000" alignment-baseline="middle" text-anchor="middle" dy="1.5px">'</text>
	<text x="204" y="70" font-family="ＭＳ ゴシック, monospace" font-weight="normal" font-size="16px" fill="#000" alignment-baseline="middle" text-anchor="middle" dy="1.5px">c</text>
	<text x="212" y="70" font-family="ＭＳ ゴシック, monospace" font-weight="normal" font-size="16px" fill="#000" alignment-baseline="middle" text-anchor="middle" dy="1.5px">l</text>
	<text x="220" y="70" font-family="ＭＳ ゴシック, monospace" font-weight="normal" font-size="16px" fill="#000" alignment-baseline="middle" text-anchor="middle" dy="1.5px">i</text>
	<text x="228" y="70" font-family="ＭＳ ゴシック, monospace" font-weight="normal" font-size="16px" fill="#000" alignment-baseline="middle" text-anchor="middle" dy="1.5px">c</text>
	<text x="236" y="70" font-family="ＭＳ ゴシック, monospace" font-weight="normal" font-size="16px" fill="#000" alignment-baseline="middle" text-anchor="middle" dy="1.5px">k</text>
	<text x="244" y="70" font-family="ＭＳ ゴシック, monospace" font-weight="normal" font-size="16px" fill="#000" alignment-baseline="middle" text-anchor="middle" dy="1.5px">'</text>
	<text x="264" y="70" font-family="メイリオ, sans-serif" font-weight="normal" font-size="16px" fill="#000" alignment-baseline="middle" text-anchor="middle">時</text>
	<text x="280" y="70" font-family="メイリオ, sans-serif" font-weight="normal" font-size="16px" fill="#000" alignment-baseline="middle" text-anchor="middle">の</text>
	<text x="296" y="70" font-family="メイリオ, sans-serif" font-weight="normal" font-size="16px" fill="#000" alignment-baseline="middle" text-anchor="middle">イ</text>
	<text x="312" y="70" font-family="メイリオ, sans-serif" font-weight="normal" font-size="16px" fill="#000" alignment-baseline="middle" text-anchor="middle">ベ</text>
	<text x="328" y="70" font-family="メイリオ, sans-serif" font-weight="normal" font-size="16px" fill="#000" alignment-baseline="middle" text-anchor="middle">ン</text>
	<text x="344" y="70" font-family="メイリオ, sans-serif" font-weight="normal" font-size="16px" fill="#000" alignment-baseline="middle" text-anchor="middle">ト</text>
	<text x="184" y="90" font-family="メイリオ, sans-serif" font-weight="normal" font-size="16px" fill="#000" alignment-baseline="middle" text-anchor="middle">・</text>
	<text x="196" y="90" font-family="ＭＳ ゴシック, monospace" font-weight="normal" font-size="16px" fill="#000" alignment-baseline="middle" text-anchor="middle" dy="1.5px">f</text>
	<text x="204" y="90" font-family="ＭＳ ゴシック, monospace" font-weight="normal" font-size="16px" fill="#000" alignment-baseline="middle" text-anchor="middle" dy="1.5px">u</text>
	<text x="212" y="90" font-family="ＭＳ ゴシック, monospace" font-weight="normal" font-size="16px" fill="#000" alignment-baseline="middle" text-anchor="middle" dy="1.5px">n</text>
	<text x="220" y="90" font-family="ＭＳ ゴシック, monospace" font-weight="normal" font-size="16px" fill="#000" alignment-baseline="middle" text-anchor="middle" dy="1.5px">c</text>
	<text x="228" y="90" font-family="ＭＳ ゴシック, monospace" font-weight="normal" font-size="16px" fill="#000" alignment-baseline="middle" text-anchor="middle" dy="1.5px">t</text>
	<text x="236" y="90" font-family="ＭＳ ゴシック, monospace" font-weight="normal" font-size="16px" fill="#000" alignment-baseline="middle" text-anchor="middle" dy="1.5px">i</text>
	<text x="244" y="90" font-family="ＭＳ ゴシック, monospace" font-weight="normal" font-size="16px" fill="#000" alignment-baseline="middle" text-anchor="middle" dy="1.5px">o</text>
	<text x="252" y="90" font-family="ＭＳ ゴシック, monospace" font-weight="normal" font-size="16px" fill="#000" alignment-baseline="middle" text-anchor="middle" dy="1.5px">n</text>
	<text x="260" y="90" font-family="ＭＳ ゴシック, monospace" font-weight="normal" font-size="16px" fill="#000" alignment-baseline="middle" text-anchor="middle" dy="1.5px">(</text>
	<text x="268" y="90" font-family="ＭＳ ゴシック, monospace" font-weight="normal" font-size="16px" fill="#000" alignment-baseline="middle" text-anchor="middle" dy="1.5px">)</text>
	<text x="284" y="90" font-family="ＭＳ ゴシック, monospace" font-weight="normal" font-size="16px" fill="#000" alignment-baseline="middle" text-anchor="middle" dy="1.5px">{</text>
	<text x="300" y="90" font-family="ＭＳ ゴシック, monospace" font-weight="normal" font-size="16px" fill="#000" alignment-baseline="middle" text-anchor="middle" dy="1.5px">}</text>
	<text x="320" y="90" font-family="メイリオ, sans-serif" font-weight="normal" font-size="16px" fill="#000" alignment-baseline="middle" text-anchor="middle">コ</text>
	<text x="336" y="90" font-family="メイリオ, sans-serif" font-weight="normal" font-size="16px" fill="#000" alignment-baseline="middle" text-anchor="middle">ー</text>
	<text x="352" y="90" font-family="メイリオ, sans-serif" font-weight="normal" font-size="16px" fill="#000" alignment-baseline="middle" text-anchor="middle">ル</text>
	<text x="368" y="90" font-family="メイリオ, sans-serif" font-weight="normal" font-size="16px" fill="#000" alignment-baseline="middle" text-anchor="middle">バ</text>
	<text x="384" y="90" font-family="メイリオ, sans-serif" font-weight="normal" font-size="16px" fill="#000" alignment-baseline="middle" text-anchor="middle">ッ</text>
	<text x="400" y="90" font-family="メイリオ, sans-serif" font-weight="normal" font-size="16px" fill="#000" alignment-baseline="middle" text-anchor="middle">ク</text>
	<text x="416" y="90" font-family="メイリオ, sans-serif" font-weight="normal" font-size="16px" fill="#000" alignment-baseline="middle" text-anchor="middle">関</text>
	<text x="432" y="90" font-family="メイリオ, sans-serif" font-weight="normal" font-size="16px" fill="#000" alignment-baseline="middle" text-anchor="middle">数</text>
	<text x="72" y="170" font-family="メイリオ, sans-serif" font-weight="normal" font-size="16px" fill="#000" alignment-baseline="middle" text-anchor="middle">▼</text>
	<text x="140" y="250" font-family="ＭＳ ゴシック, monospace" font-weight="normal" font-size="16px" fill="#000" alignment-baseline="middle" text-anchor="middle" dy="1.5px">c</text>
	<text x="148" y="250" font-family="ＭＳ ゴシック, monospace" font-weight="normal" font-size="16px" fill="#000" alignment-baseline="middle" text-anchor="middle" dy="1.5px">l</text>
	<text x="156" y="250" font-family="ＭＳ ゴシック, monospace" font-weight="normal" font-size="16px" fill="#000" alignment-baseline="middle" text-anchor="middle" dy="1.5px">i</text>
	<text x="164" y="250" font-family="ＭＳ ゴシック, monospace" font-weight="normal" font-size="16px" fill="#000" alignment-baseline="middle" text-anchor="middle" dy="1.5px">c</text>
	<text x="172" y="250" font-family="ＭＳ ゴシック, monospace" font-weight="normal" font-size="16px" fill="#000" alignment-baseline="middle" text-anchor="middle" dy="1.5px">k</text>
	<text x="64" y="270" font-family="メイリオ, sans-serif" font-weight="normal" font-size="16px" fill="#000" alignment-baseline="middle" text-anchor="middle">要</text>
	<text x="80" y="270" font-family="メイリオ, sans-serif" font-weight="normal" font-size="16px" fill="#000" alignment-baseline="middle" text-anchor="middle">素</text>
	<text x="140" y="290" font-family="ＭＳ ゴシック, monospace" font-weight="normal" font-size="16px" fill="#000" alignment-baseline="middle" text-anchor="middle" dy="1.5px">f</text>
	<text x="148" y="290" font-family="ＭＳ ゴシック, monospace" font-weight="normal" font-size="16px" fill="#000" alignment-baseline="middle" text-anchor="middle" dy="1.5px">u</text>
	<text x="156" y="290" font-family="ＭＳ ゴシック, monospace" font-weight="normal" font-size="16px" fill="#000" alignment-baseline="middle" text-anchor="middle" dy="1.5px">n</text>
	<text x="164" y="290" font-family="ＭＳ ゴシック, monospace" font-weight="normal" font-size="16px" fill="#000" alignment-baseline="middle" text-anchor="middle" dy="1.5px">c</text>
	<text x="172" y="290" font-family="ＭＳ ゴシック, monospace" font-weight="normal" font-size="16px" fill="#000" alignment-baseline="middle" text-anchor="middle" dy="1.5px">t</text>
	<text x="180" y="290" font-family="ＭＳ ゴシック, monospace" font-weight="normal" font-size="16px" fill="#000" alignment-baseline="middle" text-anchor="middle" dy="1.5px">i</text>
	<text x="188" y="290" font-family="ＭＳ ゴシック, monospace" font-weight="normal" font-size="16px" fill="#000" alignment-baseline="middle" text-anchor="middle" dy="1.5px">o</text>
	<text x="196" y="290" font-family="ＭＳ ゴシック, monospace" font-weight="normal" font-size="16px" fill="#000" alignment-baseline="middle" text-anchor="middle" dy="1.5px">n</text>
	<text x="204" y="290" font-family="ＭＳ ゴシック, monospace" font-weight="normal" font-size="16px" fill="#000" alignment-baseline="middle" text-anchor="middle" dy="1.5px">(</text>
	<text x="212" y="290" font-family="ＭＳ ゴシック, monospace" font-weight="normal" font-size="16px" fill="#000" alignment-baseline="middle" text-anchor="middle" dy="1.5px">)</text>
	<text x="228" y="290" font-family="ＭＳ ゴシック, monospace" font-weight="normal" font-size="16px" fill="#000" alignment-baseline="middle" text-anchor="middle" dy="1.5px">{</text>
	<text x="244" y="290" font-family="ＭＳ ゴシック, monospace" font-weight="normal" font-size="16px" fill="#000" alignment-baseline="middle" text-anchor="middle" dy="1.5px">}</text>
	<text x="264" y="290" font-family="メイリオ, sans-serif" font-weight="normal" font-size="16px" fill="#000" alignment-baseline="middle" text-anchor="middle">コ</text>
	<text x="280" y="290" font-family="メイリオ, sans-serif" font-weight="normal" font-size="16px" fill="#000" alignment-baseline="middle" text-anchor="middle">ー</text>
	<text x="296" y="290" font-family="メイリオ, sans-serif" font-weight="normal" font-size="16px" fill="#000" alignment-baseline="middle" text-anchor="middle">ル</text>
	<text x="312" y="290" font-family="メイリオ, sans-serif" font-weight="normal" font-size="16px" fill="#000" alignment-baseline="middle" text-anchor="middle">バ</text>
	<text x="328" y="290" font-family="メイリオ, sans-serif" font-weight="normal" font-size="16px" fill="#000" alignment-baseline="middle" text-anchor="middle">ッ</text>
	<text x="344" y="290" font-family="メイリオ, sans-serif" font-weight="normal" font-size="16px" fill="#000" alignment-baseline="middle" text-anchor="middle">ク</text>
	<text x="360" y="290" font-family="メイリオ, sans-serif" font-weight="normal" font-size="16px" fill="#000" alignment-baseline="middle" text-anchor="middle">関</text>
	<text x="376" y="290" font-family="メイリオ, sans-serif" font-weight="normal" font-size="16px" fill="#000" alignment-baseline="middle" text-anchor="middle">数</text>
	<text x="72" y="370" font-family="メイリオ, sans-serif" font-weight="normal" font-size="16px" fill="#000" alignment-baseline="middle" text-anchor="middle">▼</text>
	<text x="160" y="410" font-family="メイリオ, sans-serif" font-weight="normal" font-size="16px" fill="#000" alignment-baseline="middle" text-anchor="middle">ク</text>
	<text x="176" y="410" font-family="メイリオ, sans-serif" font-weight="normal" font-size="16px" fill="#000" alignment-baseline="middle" text-anchor="middle">リ</text>
	<text x="192" y="410" font-family="メイリオ, sans-serif" font-weight="normal" font-size="16px" fill="#000" alignment-baseline="middle" text-anchor="middle">ッ</text>
	<text x="208" y="410" font-family="メイリオ, sans-serif" font-weight="normal" font-size="16px" fill="#000" alignment-baseline="middle" text-anchor="middle">ク</text>
	<text x="224" y="410" font-family="メイリオ, sans-serif" font-weight="normal" font-size="16px" fill="#000" alignment-baseline="middle" text-anchor="middle">さ</text>
	<text x="240" y="410" font-family="メイリオ, sans-serif" font-weight="normal" font-size="16px" fill="#000" alignment-baseline="middle" text-anchor="middle">れ</text>
	<text x="256" y="410" font-family="メイリオ, sans-serif" font-weight="normal" font-size="16px" fill="#000" alignment-baseline="middle" text-anchor="middle">る</text>
	<text x="272" y="410" font-family="メイリオ, sans-serif" font-weight="normal" font-size="16px" fill="#000" alignment-baseline="middle" text-anchor="middle">と</text>
	<text x="288" y="410" font-family="メイリオ, sans-serif" font-weight="normal" font-size="16px" fill="#000" alignment-baseline="middle" text-anchor="middle">…</text>
	<text x="304" y="410" font-family="メイリオ, sans-serif" font-weight="normal" font-size="16px" fill="#000" alignment-baseline="middle" text-anchor="middle">…</text>
	<text x="140" y="450" font-family="ＭＳ ゴシック, monospace" font-weight="normal" font-size="16px" fill="#000" alignment-baseline="middle" text-anchor="middle" dy="1.5px">c</text>
	<text x="148" y="450" font-family="ＭＳ ゴシック, monospace" font-weight="normal" font-size="16px" fill="#000" alignment-baseline="middle" text-anchor="middle" dy="1.5px">l</text>
	<text x="156" y="450" font-family="ＭＳ ゴシック, monospace" font-weight="normal" font-size="16px" fill="#000" alignment-baseline="middle" text-anchor="middle" dy="1.5px">i</text>
	<text x="164" y="450" font-family="ＭＳ ゴシック, monospace" font-weight="normal" font-size="16px" fill="#000" alignment-baseline="middle" text-anchor="middle" dy="1.5px">c</text>
	<text x="172" y="450" font-family="ＭＳ ゴシック, monospace" font-weight="normal" font-size="16px" fill="#000" alignment-baseline="middle" text-anchor="middle" dy="1.5px">k</text>
	<text x="64" y="470" font-family="メイリオ, sans-serif" font-weight="normal" font-size="16px" fill="#000" alignment-baseline="middle" text-anchor="middle">要</text>
	<text x="80" y="470" font-family="メイリオ, sans-serif" font-weight="normal" font-size="16px" fill="#000" alignment-baseline="middle" text-anchor="middle">素</text>
	<text x="140" y="490" font-family="ＭＳ ゴシック, monospace" font-weight="normal" font-size="16px" fill="#000" alignment-baseline="middle" text-anchor="middle" dy="1.5px">f</text>
	<text x="148" y="490" font-family="ＭＳ ゴシック, monospace" font-weight="normal" font-size="16px" fill="#000" alignment-baseline="middle" text-anchor="middle" dy="1.5px">u</text>
	<text x="156" y="490" font-family="ＭＳ ゴシック, monospace" font-weight="normal" font-size="16px" fill="#000" alignment-baseline="middle" text-anchor="middle" dy="1.5px">n</text>
	<text x="164" y="490" font-family="ＭＳ ゴシック, monospace" font-weight="normal" font-size="16px" fill="#000" alignment-baseline="middle" text-anchor="middle" dy="1.5px">c</text>
	<text x="172" y="490" font-family="ＭＳ ゴシック, monospace" font-weight="normal" font-size="16px" fill="#000" alignment-baseline="middle" text-anchor="middle" dy="1.5px">t</text>
	<text x="180" y="490" font-family="ＭＳ ゴシック, monospace" font-weight="normal" font-size="16px" fill="#000" alignment-baseline="middle" text-anchor="middle" dy="1.5px">i</text>
	<text x="188" y="490" font-family="ＭＳ ゴシック, monospace" font-weight="normal" font-size="16px" fill="#000" alignment-baseline="middle" text-anchor="middle" dy="1.5px">o</text>
	<text x="196" y="490" font-family="ＭＳ ゴシック, monospace" font-weight="normal" font-size="16px" fill="#000" alignment-baseline="middle" text-anchor="middle" dy="1.5px">n</text>
	<text x="204" y="490" font-family="ＭＳ ゴシック, monospace" font-weight="normal" font-size="16px" fill="#000" alignment-baseline="middle" text-anchor="middle" dy="1.5px">(</text>
	<text x="212" y="490" font-family="ＭＳ ゴシック, monospace" font-weight="normal" font-size="16px" fill="#000" alignment-baseline="middle" text-anchor="middle" dy="1.5px">)</text>
	<text x="228" y="490" font-family="ＭＳ ゴシック, monospace" font-weight="normal" font-size="16px" fill="#000" alignment-baseline="middle" text-anchor="middle" dy="1.5px">{</text>
	<text x="244" y="490" font-family="ＭＳ ゴシック, monospace" font-weight="normal" font-size="16px" fill="#000" alignment-baseline="middle" text-anchor="middle" dy="1.5px">}</text>
	<text x="264" y="490" font-family="メイリオ, sans-serif" font-weight="normal" font-size="16px" fill="#000" alignment-baseline="middle" text-anchor="middle">コ</text>
	<text x="280" y="490" font-family="メイリオ, sans-serif" font-weight="normal" font-size="16px" fill="#000" alignment-baseline="middle" text-anchor="middle">ー</text>
	<text x="296" y="490" font-family="メイリオ, sans-serif" font-weight="normal" font-size="16px" fill="#000" alignment-baseline="middle" text-anchor="middle">ル</text>
	<text x="312" y="490" font-family="メイリオ, sans-serif" font-weight="normal" font-size="16px" fill="#000" alignment-baseline="middle" text-anchor="middle">バ</text>
	<text x="328" y="490" font-family="メイリオ, sans-serif" font-weight="normal" font-size="16px" fill="#000" alignment-baseline="middle" text-anchor="middle">ッ</text>
	<text x="344" y="490" font-family="メイリオ, sans-serif" font-weight="normal" font-size="16px" fill="#000" alignment-baseline="middle" text-anchor="middle">ク</text>
	<text x="360" y="490" font-family="メイリオ, sans-serif" font-weight="normal" font-size="16px" fill="#000" alignment-baseline="middle" text-anchor="middle">関</text>
	<text x="376" y="490" font-family="メイリオ, sans-serif" font-weight="normal" font-size="16px" fill="#000" alignment-baseline="middle" text-anchor="middle">数</text>
	<text x="160" y="530" font-family="メイリオ, sans-serif" font-weight="normal" font-size="16px" fill="#000" alignment-baseline="middle" text-anchor="middle">…</text>
	<text x="176" y="530" font-family="メイリオ, sans-serif" font-weight="normal" font-size="16px" fill="#000" alignment-baseline="middle" text-anchor="middle">…</text>
	<text x="192" y="530" font-family="メイリオ, sans-serif" font-weight="normal" font-size="16px" fill="#000" alignment-baseline="middle" text-anchor="middle">コ</text>
	<text x="208" y="530" font-family="メイリオ, sans-serif" font-weight="normal" font-size="16px" fill="#000" alignment-baseline="middle" text-anchor="middle">ー</text>
	<text x="224" y="530" font-family="メイリオ, sans-serif" font-weight="normal" font-size="16px" fill="#000" alignment-baseline="middle" text-anchor="middle">ル</text>
	<text x="240" y="530" font-family="メイリオ, sans-serif" font-weight="normal" font-size="16px" fill="#000" alignment-baseline="middle" text-anchor="middle">バ</text>
	<text x="256" y="530" font-family="メイリオ, sans-serif" font-weight="normal" font-size="16px" fill="#000" alignment-baseline="middle" text-anchor="middle">ッ</text>
	<text x="272" y="530" font-family="メイリオ, sans-serif" font-weight="normal" font-size="16px" fill="#000" alignment-baseline="middle" text-anchor="middle">ク</text>
	<text x="288" y="530" font-family="メイリオ, sans-serif" font-weight="normal" font-size="16px" fill="#000" alignment-baseline="middle" text-anchor="middle">関</text>
	<text x="304" y="530" font-family="メイリオ, sans-serif" font-weight="normal" font-size="16px" fill="#000" alignment-baseline="middle" text-anchor="middle">数</text>
	<text x="320" y="530" font-family="メイリオ, sans-serif" font-weight="normal" font-size="16px" fill="#000" alignment-baseline="middle" text-anchor="middle">が</text>
	<text x="336" y="530" font-family="メイリオ, sans-serif" font-weight="normal" font-size="16px" fill="#000" alignment-baseline="middle" text-anchor="middle">実</text>
	<text x="352" y="530" font-family="メイリオ, sans-serif" font-weight="normal" font-size="16px" fill="#000" alignment-baseline="middle" text-anchor="middle">行</text>
	<text x="368" y="530" font-family="メイリオ, sans-serif" font-weight="normal" font-size="16px" fill="#000" alignment-baseline="middle" text-anchor="middle">さ</text>
	<text x="384" y="530" font-family="メイリオ, sans-serif" font-weight="normal" font-size="16px" fill="#000" alignment-baseline="middle" text-anchor="middle">れ</text>
	<text x="400" y="530" font-family="メイリオ, sans-serif" font-weight="normal" font-size="16px" fill="#000" alignment-baseline="middle" text-anchor="middle">る</text>
	<path d="M11,9 L11,11 L13,11 L13,9 Z M11,10 L11,20 L13,20 L13,10 Z M12,9 L12,11 L16,11 L16,9 Z M16,9 L16,11 L24,11 L24,9 Z M24,9 L24,11 L32,11 L32,9 Z M32,9 L32,11 L40,11 L40,9 Z M40,9 L40,11 L48,11 L48,9 Z M48,9 L48,11 L56,11 L56,9 Z M56,9 L56,11 L64,11 L64,9 Z M64,9 L64,11 L72,11 L72,9 Z M72,9 L72,11 L80,11 L80,9 Z M80,9 L80,11 L88,11 L88,9 Z M88,9 L88,11 L96,11 L96,9 Z M96,9 L96,11 L104,11 L104,9 Z M104,9 L104,11 L112,11 L112,9 Z M112,9 L112,11 L120,11 L120,9 Z M120,9 L120,11 L128,11 L128,9 Z M131,9 L131,11 L133,11 L133,9 Z M131,10 L131,20 L133,20 L133,10 Z M128,9 L128,11 L132,11 L132,9 Z M11,20 L11,40 L13,40 L13,20 Z M131,20 L131,40 L133,40 L133,20 Z M11,40 L11,60 L13,60 L13,40 Z M131,40 L131,60 L133,60 L133,40 Z M136,50 L144,55 L144,45 Z M144,49 L144,51 L152,51 L152,49 Z M152,49 L152,51 L160,51 L160,49 Z M160,49 L160,51 L168,51 L168,49 Z M11,60 L11,80 L13,80 L13,60 Z M131,60 L131,80 L133,80 L133,60 Z M11,80 L11,100 L13,100 L13,80 Z M131,80 L131,100 L133,100 L133,80 Z M11,100 L11,120 L13,120 L13,100 Z M131,100 L131,120 L133,120 L133,100 Z M11,129 L11,131 L13,131 L13,129 Z M11,120 L11,130 L13,130 L13,120 Z M12,129 L12,131 L16,131 L16,129 Z M16,129 L16,131 L24,131 L24,129 Z M24,129 L24,131 L32,131 L32,129 Z M32,129 L32,131 L40,131 L40,129 Z M40,129 L40,131 L48,131 L48,129 Z M48,129 L48,131 L56,131 L56,129 Z M56,129 L56,131 L64,131 L64,129 Z M64,129 L64,131 L72,131 L72,129 Z M72,129 L72,131 L80,131 L80,129 Z M80,129 L80,131 L88,131 L88,129 Z M88,129 L88,131 L96,131 L96,129 Z M96,129 L96,131 L104,131 L104,129 Z M104,129 L104,131 L112,131 L112,129 Z M112,129 L112,131 L120,131 L120,129 Z M120,129 L120,131 L128,131 L128,129 Z M131,129 L131,131 L133,131 L133,129 Z M131,120 L131,130 L133,130 L133,120 Z M128,129 L128,131 L132,131 L132,129 Z M11,209 L11,211 L13,211 L13,209 Z M11,210 L11,220 L13,220 L13,210 Z M12,209 L12,211 L16,211 L16,209 Z M16,209 L16,211 L24,211 L24,209 Z M24,209 L24,211 L32,211 L32,209 Z M32,209 L32,211 L40,211 L40,209 Z M40,209 L40,211 L48,211 L48,209 Z M48,209 L48,211 L56,211 L56,209 Z M56,209 L56,211 L64,211 L64,209 Z M64,209 L64,211 L72,211 L72,209 Z M72,209 L72,211 L80,211 L80,209 Z M80,209 L80,211 L88,211 L88,209 Z M88,209 L88,211 L96,211 L96,209 Z M96,209 L96,211 L104,211 L104,209 Z M104,209 L104,211 L112,211 L112,209 Z M112,209 L112,211 L120,211 L120,209 Z M120,209 L120,211 L128,211 L128,209 Z M131,209 L131,211 L133,211 L133,209 Z M131,210 L131,220 L133,220 L133,210 Z M128,209 L128,211 L132,211 L132,209 Z M11,220 L11,240 L13,240 L13,220 Z M115,229 L115,231 L117,231 L117,229 Z M115,230 L115,240 L117,240 L117,230 Z M116,229 L116,231 L120,231 L120,229 Z M120,229 L120,231 L128,231 L128,229 Z M131,229 L131,231 L133,231 L133,229 Z M131,220 L131,230 L133,230 L133,220 Z M128,229 L128,231 L132,231 L132,229 Z M132,229 L132,231 L136,231 L136,229 Z M136,229 L136,231 L144,231 L144,229 Z M144,229 L144,231 L152,231 L152,229 Z M152,229 L152,231 L160,231 L160,229 Z M160,229 L160,231 L168,231 L168,229 Z M168,229 L168,231 L176,231 L176,229 Z M176,229 L176,231 L184,231 L184,229 Z M184,229 L184,231 L192,231 L192,229 Z M192,229 L192,231 L200,231 L200,229 Z M200,229 L200,231 L208,231 L208,229 Z M208,229 L208,231 L216,231 L216,229 Z M216,229 L216,231 L224,231 L224,229 Z M224,229 L224,231 L232,231 L232,229 Z M232,229 L232,231 L240,231 L240,229 Z M240,229 L240,231 L248,231 L248,229 Z M248,229 L248,231 L256,231 L256,229 Z M256,229 L256,231 L264,231 L264,229 Z M264,229 L264,231 L272,231 L272,229 Z M272,229 L272,231 L280,231 L280,229 Z M280,229 L280,231 L288,231 L288,229 Z M288,229 L288,231 L296,231 L296,229 Z M296,229 L296,231 L304,231 L304,229 Z M304,229 L304,231 L312,231 L312,229 Z M312,229 L312,231 L320,231 L320,229 Z M320,229 L320,231 L328,231 L328,229 Z M328,229 L328,231 L336,231 L336,229 Z M336,229 L336,231 L344,231 L344,229 Z M344,229 L344,231 L352,231 L352,229 Z M352,229 L352,231 L360,231 L360,229 Z M360,229 L360,231 L368,231 L368,229 Z M368,229 L368,231 L376,231 L376,229 Z M376,229 L376,231 L384,231 L384,229 Z M384,229 L384,231 L392,231 L392,229 Z M392,229 L392,231 L400,231 L400,229 Z M403,229 L403,231 L405,231 L405,229 Z M403,230 L403,240 L405,240 L405,230 Z M400,229 L400,231 L404,231 L404,229 Z M11,240 L11,260 L13,260 L13,240 Z M115,240 L115,260 L117,260 L117,240 Z M403,240 L403,260 L405,260 L405,240 Z M11,260 L11,280 L13,280 L13,260 Z M115,269 L115,271 L117,271 L117,269 Z M115,260 L115,270 L117,270 L117,260 Z M115,270 L115,280 L117,280 L117,270 Z M116,269 L116,271 L120,271 L120,269 Z M120,269 L120,271 L128,271 L128,269 Z M128,269 L128,271 L136,271 L136,269 Z M136,269 L136,271 L144,271 L144,269 Z M144,269 L144,271 L152,271 L152,269 Z M152,269 L152,271 L160,271 L160,269 Z M160,269 L160,271 L168,271 L168,269 Z M168,269 L168,271 L176,271 L176,269 Z M176,269 L176,271 L184,271 L184,269 Z M184,269 L184,271 L192,271 L192,269 Z M192,269 L192,271 L200,271 L200,269 Z M200,269 L200,271 L208,271 L208,269 Z M208,269 L208,271 L216,271 L216,269 Z M216,269 L216,271 L224,271 L224,269 Z M224,269 L224,271 L232,271 L232,269 Z M232,269 L232,271 L240,271 L240,269 Z M240,269 L240,271 L248,271 L248,269 Z M248,269 L248,271 L256,271 L256,269 Z M256,269 L256,271 L264,271 L264,269 Z M264,269 L264,271 L272,271 L272,269 Z M272,269 L272,271 L280,271 L280,269 Z M280,269 L280,271 L288,271 L288,269 Z M288,269 L288,271 L296,271 L296,269 Z M296,269 L296,271 L304,271 L304,269 Z M304,269 L304,271 L312,271 L312,269 Z M312,269 L312,271 L320,271 L320,269 Z M320,269 L320,271 L328,271 L328,269 Z M328,269 L328,271 L336,271 L336,269 Z M336,269 L336,271 L344,271 L344,269 Z M344,269 L344,271 L352,271 L352,269 Z M352,269 L352,271 L360,271 L360,269 Z M360,269 L360,271 L368,271 L368,269 Z M368,269 L368,271 L376,271 L376,269 Z M376,269 L376,271 L384,271 L384,269 Z M384,269 L384,271 L392,271 L392,269 Z M392,269 L392,271 L400,271 L400,269 Z M403,269 L403,271 L405,271 L405,269 Z M403,260 L403,270 L405,270 L405,260 Z M403,270 L403,280 L405,280 L405,270 Z M400,269 L400,271 L404,271 L404,269 Z M11,280 L11,300 L13,300 L13,280 Z M115,280 L115,300 L117,300 L117,280 Z M403,280 L403,300 L405,300 L405,280 Z M11,300 L11,320 L13,320 L13,300 Z M115,309 L115,311 L117,311 L117,309 Z M115,300 L115,310 L117,310 L117,300 Z M116,309 L116,311 L120,311 L120,309 Z M120,309 L120,311 L128,311 L128,309 Z M131,309 L131,311 L133,311 L133,309 Z M131,310 L131,320 L133,320 L133,310 Z M128,309 L128,311 L132,311 L132,309 Z M132,309 L132,311 L136,311 L136,309 Z M136,309 L136,311 L144,311 L144,309 Z M144,309 L144,311 L152,311 L152,309 Z M152,309 L152,311 L160,311 L160,309 Z M160,309 L160,311 L168,311 L168,309 Z M168,309 L168,311 L176,311 L176,309 Z M176,309 L176,311 L184,311 L184,309 Z M184,309 L184,311 L192,311 L192,309 Z M192,309 L192,311 L200,311 L200,309 Z M200,309 L200,311 L208,311 L208,309 Z M208,309 L208,311 L216,311 L216,309 Z M216,309 L216,311 L224,311 L224,309 Z M224,309 L224,311 L232,311 L232,309 Z M232,309 L232,311 L240,311 L240,309 Z M240,309 L240,311 L248,311 L248,309 Z M248,309 L248,311 L256,311 L256,309 Z M256,309 L256,311 L264,311 L264,309 Z M264,309 L264,311 L272,311 L272,309 Z M272,309 L272,311 L280,311 L280,309 Z M280,309 L280,311 L288,311 L288,309 Z M288,309 L288,311 L296,311 L296,309 Z M296,309 L296,311 L304,311 L304,309 Z M304,309 L304,311 L312,311 L312,309 Z M312,309 L312,311 L320,311 L320,309 Z M320,309 L320,311 L328,311 L328,309 Z M328,309 L328,311 L336,311 L336,309 Z M336,309 L336,311 L344,311 L344,309 Z M344,309 L344,311 L352,311 L352,309 Z M352,309 L352,311 L360,311 L360,309 Z M360,309 L360,311 L368,311 L368,309 Z M368,309 L368,311 L376,311 L376,309 Z M376,309 L376,311 L384,311 L384,309 Z M384,309 L384,311 L392,311 L392,309 Z M392,309 L392,311 L400,311 L400,309 Z M403,309 L403,311 L405,311 L405,309 Z M403,300 L403,310 L405,310 L405,300 Z M400,309 L400,311 L404,311 L404,309 Z M11,329 L11,331 L13,331 L13,329 Z M11,320 L11,330 L13,330 L13,320 Z M12,329 L12,331 L16,331 L16,329 Z M16,329 L16,331 L24,331 L24,329 Z M24,329 L24,331 L32,331 L32,329 Z M32,329 L32,331 L40,331 L40,329 Z M40,329 L40,331 L48,331 L48,329 Z M48,329 L48,331 L56,331 L56,329 Z M56,329 L56,331 L64,331 L64,329 Z M64,329 L64,331 L72,331 L72,329 Z M72,329 L72,331 L80,331 L80,329 Z M80,329 L80,331 L88,331 L88,329 Z M88,329 L88,331 L96,331 L96,329 Z M96,329 L96,331 L104,331 L104,329 Z M104,329 L104,331 L112,331 L112,329 Z M112,329 L112,331 L120,331 L120,329 Z M120,329 L120,331 L128,331 L128,329 Z M131,329 L131,331 L133,331 L133,329 Z M131,320 L131,330 L133,330 L133,320 Z M128,329 L128,331 L132,331 L132,329 Z M11,409 L11,411 L13,411 L13,409 Z M11,410 L11,420 L13,420 L13,410 Z M12,409 L12,411 L16,411 L16,409 Z M16,409 L16,411 L24,411 L24,409 Z M24,409 L24,411 L32,411 L32,409 Z M32,409 L32,411 L40,411 L40,409 Z M40,409 L40,411 L48,411 L48,409 Z M48,409 L48,411 L56,411 L56,409 Z M56,409 L56,411 L64,411 L64,409 Z M64,409 L64,411 L72,411 L72,409 Z M72,409 L72,411 L80,411 L80,409 Z M80,409 L80,411 L88,411 L88,409 Z M88,409 L88,411 L96,411 L96,409 Z M96,409 L96,411 L104,411 L104,409 Z M104,409 L104,411 L112,411 L112,409 Z M112,409 L112,411 L120,411 L120,409 Z M120,409 L120,411 L128,411 L128,409 Z M131,409 L131,411 L133,411 L133,409 Z M131,410 L131,420 L133,420 L133,410 Z M128,409 L128,411 L132,411 L132,409 Z M11,420 L11,440 L13,440 L13,420 Z M115,429 L115,431 L117,431 L117,429 Z M115,430 L115,440 L117,440 L117,430 Z M116,429 L116,431 L120,431 L120,429 Z M120,429 L120,431 L128,431 L128,429 Z M131,429 L131,431 L133,431 L133,429 Z M131,420 L131,430 L133,430 L133,420 Z M128,429 L128,431 L132,431 L132,429 Z M132,429 L132,431 L136,431 L136,429 Z M136,429 L136,431 L144,431 L144,429 Z M144,429 L144,431 L152,431 L152,429 Z M152,429 L152,431 L160,431 L160,429 Z M160,429 L160,431 L168,431 L168,429 Z M168,429 L168,431 L176,431 L176,429 Z M176,429 L176,431 L184,431 L184,429 Z M184,429 L184,431 L192,431 L192,429 Z M192,429 L192,431 L200,431 L200,429 Z M200,429 L200,431 L208,431 L208,429 Z M208,429 L208,431 L216,431 L216,429 Z M216,429 L216,431 L224,431 L224,429 Z M224,429 L224,431 L232,431 L232,429 Z M232,429 L232,431 L240,431 L240,429 Z M240,429 L240,431 L248,431 L248,429 Z M248,429 L248,431 L256,431 L256,429 Z M256,429 L256,431 L264,431 L264,429 Z M264,429 L264,431 L272,431 L272,429 Z M272,429 L272,431 L280,431 L280,429 Z M280,429 L280,431 L288,431 L288,429 Z M288,429 L288,431 L296,431 L296,429 Z M296,429 L296,431 L304,431 L304,429 Z M304,429 L304,431 L312,431 L312,429 Z M312,429 L312,431 L320,431 L320,429 Z M320,429 L320,431 L328,431 L328,429 Z M328,429 L328,431 L336,431 L336,429 Z M336,429 L336,431 L344,431 L344,429 Z M344,429 L344,431 L352,431 L352,429 Z M352,429 L352,431 L360,431 L360,429 Z M360,429 L360,431 L368,431 L368,429 Z M368,429 L368,431 L376,431 L376,429 Z M376,429 L376,431 L384,431 L384,429 Z M384,429 L384,431 L392,431 L392,429 Z M392,429 L392,431 L400,431 L400,429 Z M403,429 L403,431 L405,431 L405,429 Z M403,430 L403,440 L405,440 L405,430 Z M400,429 L400,431 L404,431 L404,429 Z M11,440 L11,460 L13,460 L13,440 Z M115,440 L115,460 L117,460 L117,440 Z M403,440 L403,460 L405,460 L405,440 Z M11,460 L11,480 L13,480 L13,460 Z M115,469 L115,471 L117,471 L117,469 Z M115,460 L115,470 L117,470 L117,460 Z M115,470 L115,480 L117,480 L117,470 Z M116,469 L116,471 L120,471 L120,469 Z M120,469 L120,471 L128,471 L128,469 Z M128,469 L128,471 L136,471 L136,469 Z M136,469 L136,471 L144,471 L144,469 Z M144,469 L144,471 L152,471 L152,469 Z M152,469 L152,471 L160,471 L160,469 Z M160,469 L160,471 L168,471 L168,469 Z M168,469 L168,471 L176,471 L176,469 Z M176,469 L176,471 L184,471 L184,469 Z M184,469 L184,471 L192,471 L192,469 Z M192,469 L192,471 L200,471 L200,469 Z M200,469 L200,471 L208,471 L208,469 Z M208,469 L208,471 L216,471 L216,469 Z M216,469 L216,471 L224,471 L224,469 Z M224,469 L224,471 L232,471 L232,469 Z M232,469 L232,471 L240,471 L240,469 Z M240,469 L240,471 L248,471 L248,469 Z M248,469 L248,471 L256,471 L256,469 Z M256,469 L256,471 L264,471 L264,469 Z M264,469 L264,471 L272,471 L272,469 Z M272,469 L272,471 L280,471 L280,469 Z M280,469 L280,471 L288,471 L288,469 Z M288,469 L288,471 L296,471 L296,469 Z M296,469 L296,471 L304,471 L304,469 Z M304,469 L304,471 L312,471 L312,469 Z M312,469 L312,471 L320,471 L320,469 Z M320,469 L320,471 L328,471 L328,469 Z M328,469 L328,471 L336,471 L336,469 Z M336,469 L336,471 L344,471 L344,469 Z M344,469 L344,471 L352,471 L352,469 Z M352,469 L352,471 L360,471 L360,469 Z M360,469 L360,471 L368,471 L368,469 Z M368,469 L368,471 L376,471 L376,469 Z M376,469 L376,471 L384,471 L384,469 Z M384,469 L384,471 L392,471 L392,469 Z M392,469 L392,471 L400,471 L400,469 Z M403,469 L403,471 L405,471 L405,469 Z M403,460 L403,470 L405,470 L405,460 Z M403,470 L403,480 L405,480 L405,470 Z M400,469 L400,471 L404,471 L404,469 Z M11,480 L11,500 L13,500 L13,480 Z M115,480 L115,500 L117,500 L117,480 Z M403,480 L403,500 L405,500 L405,480 Z M11,500 L11,520 L13,520 L13,500 Z M115,509 L115,511 L117,511 L117,509 Z M115,500 L115,510 L117,510 L117,500 Z M116,509 L116,511 L120,511 L120,509 Z M120,509 L120,511 L128,511 L128,509 Z M131,509 L131,511 L133,511 L133,509 Z M131,510 L131,520 L133,520 L133,510 Z M128,509 L128,511 L132,511 L132,509 Z M132,509 L132,511 L136,511 L136,509 Z M136,509 L136,511 L144,511 L144,509 Z M144,509 L144,511 L152,511 L152,509 Z M152,509 L152,511 L160,511 L160,509 Z M160,509 L160,511 L168,511 L168,509 Z M168,509 L168,511 L176,511 L176,509 Z M176,509 L176,511 L184,511 L184,509 Z M184,509 L184,511 L192,511 L192,509 Z M192,509 L192,511 L200,511 L200,509 Z M200,509 L200,511 L208,511 L208,509 Z M208,509 L208,511 L216,511 L216,509 Z M216,509 L216,511 L224,511 L224,509 Z M224,509 L224,511 L232,511 L232,509 Z M232,509 L232,511 L240,511 L240,509 Z M240,509 L240,511 L248,511 L248,509 Z M248,509 L248,511 L256,511 L256,509 Z M256,509 L256,511 L264,511 L264,509 Z M264,509 L264,511 L272,511 L272,509 Z M272,509 L272,511 L280,511 L280,509 Z M280,509 L280,511 L288,511 L288,509 Z M288,509 L288,511 L296,511 L296,509 Z M296,509 L296,511 L304,511 L304,509 Z M304,509 L304,511 L312,511 L312,509 Z M312,509 L312,511 L320,511 L320,509 Z M320,509 L320,511 L328,511 L328,509 Z M328,509 L328,511 L336,511 L336,509 Z M336,509 L336,511 L344,511 L344,509 Z M344,509 L344,511 L352,511 L352,509 Z M352,509 L352,511 L360,511 L360,509 Z M360,509 L360,511 L368,511 L368,509 Z M368,509 L368,511 L376,511 L376,509 Z M376,509 L376,511 L384,511 L384,509 Z M384,509 L384,511 L392,511 L392,509 Z M392,509 L392,511 L400,511 L400,509 Z M403,509 L403,511 L405,511 L405,509 Z M403,500 L403,510 L405,510 L405,500 Z M400,509 L400,511 L404,511 L404,509 Z M11,529 L11,531 L13,531 L13,529 Z M11,520 L11,530 L13,530 L13,520 Z M12,529 L12,531 L16,531 L16,529 Z M16,529 L16,531 L24,531 L24,529 Z M24,529 L24,531 L32,531 L32,529 Z M32,529 L32,531 L40,531 L40,529 Z M40,529 L40,531 L48,531 L48,529 Z M48,529 L48,531 L56,531 L56,529 Z M56,529 L56,531 L64,531 L64,529 Z M64,529 L64,531 L72,531 L72,529 Z M72,529 L72,531 L80,531 L80,529 Z M80,529 L80,531 L88,531 L88,529 Z M88,529 L88,531 L96,531 L96,529 Z M96,529 L96,531 L104,531 L104,529 Z M104,529 L104,531 L112,531 L112,529 Z M112,529 L112,531 L120,531 L120,529 Z M120,529 L120,531 L128,531 L128,529 Z M131,529 L131,531 L133,531 L133,529 Z M131,520 L131,530 L133,530 L133,520 Z M128,529 L128,531 L132,531 L132,529 Z " fill="#000" stroke="#000" stroke-width="0.1px" />
</svg>