<?xml version="1.0"?>
<svg width="472" height="320" viewBox="0 0 472 320"
    xmlns="http://www.w3.org/2000/svg" version="1.1">
	<text x="208" y="30" font-family="Meiryo, sans-serif" font-weight="normal" font-size="16px" fill="#000" dominant-baseline="central" text-anchor="middle">ラ</text>
	<text x="224" y="30" font-family="Meiryo, sans-serif" font-weight="normal" font-size="16px" fill="#000" dominant-baseline="central" text-anchor="middle">イ</text>
	<text x="240" y="30" font-family="Meiryo, sans-serif" font-weight="normal" font-size="16px" fill="#000" dominant-baseline="central" text-anchor="middle">ブ</text>
	<text x="256" y="30" font-family="Meiryo, sans-serif" font-weight="normal" font-size="16px" fill="#000" dominant-baseline="central" text-anchor="middle">ラ</text>
	<text x="272" y="30" font-family="Meiryo, sans-serif" font-weight="normal" font-size="16px" fill="#000" dominant-baseline="central" text-anchor="middle">リ</text>
	<text x="288" y="30" font-family="Meiryo, sans-serif" font-weight="normal" font-size="16px" fill="#000" dominant-baseline="central" text-anchor="middle">の</text>
	<text x="304" y="30" font-family="Meiryo, sans-serif" font-weight="normal" font-size="16px" fill="#000" dominant-baseline="central" text-anchor="middle">場</text>
	<text x="320" y="30" font-family="Meiryo, sans-serif" font-weight="normal" font-size="16px" fill="#000" dominant-baseline="central" text-anchor="middle">合</text>
	<text x="24" y="70" font-family="Meiryo, sans-serif" font-weight="normal" font-size="16px" fill="#000" dominant-baseline="central" text-anchor="middle">自</text>
	<text x="40" y="70" font-family="Meiryo, sans-serif" font-weight="normal" font-size="16px" fill="#000" dominant-baseline="central" text-anchor="middle">分</text>
	<text x="56" y="70" font-family="Meiryo, sans-serif" font-weight="normal" font-size="16px" fill="#000" dominant-baseline="central" text-anchor="middle">が</text>
	<text x="72" y="70" font-family="Meiryo, sans-serif" font-weight="normal" font-size="16px" fill="#000" dominant-baseline="central" text-anchor="middle">書</text>
	<text x="88" y="70" font-family="Meiryo, sans-serif" font-weight="normal" font-size="16px" fill="#000" dominant-baseline="central" text-anchor="middle">く</text>
	<text x="104" y="70" font-family="Meiryo, sans-serif" font-weight="normal" font-size="16px" fill="#000" dominant-baseline="central" text-anchor="middle">プ</text>
	<text x="120" y="70" font-family="Meiryo, sans-serif" font-weight="normal" font-size="16px" fill="#000" dominant-baseline="central" text-anchor="middle">ロ</text>
	<text x="136" y="70" font-family="Meiryo, sans-serif" font-weight="normal" font-size="16px" fill="#000" dominant-baseline="central" text-anchor="middle">グ</text>
	<text x="152" y="70" font-family="Meiryo, sans-serif" font-weight="normal" font-size="16px" fill="#000" dominant-baseline="central" text-anchor="middle">ラ</text>
	<text x="168" y="70" font-family="Meiryo, sans-serif" font-weight="normal" font-size="16px" fill="#000" dominant-baseline="central" text-anchor="middle">ム</text>
	<text x="368" y="70" font-family="Meiryo, sans-serif" font-weight="normal" font-size="16px" fill="#000" dominant-baseline="central" text-anchor="middle">ラ</text>
	<text x="384" y="70" font-family="Meiryo, sans-serif" font-weight="normal" font-size="16px" fill="#000" dominant-baseline="central" text-anchor="middle">イ</text>
	<text x="400" y="70" font-family="Meiryo, sans-serif" font-weight="normal" font-size="16px" fill="#000" dominant-baseline="central" text-anchor="middle">ブ</text>
	<text x="416" y="70" font-family="Meiryo, sans-serif" font-weight="normal" font-size="16px" fill="#000" dominant-baseline="central" text-anchor="middle">ラ</text>
	<text x="432" y="70" font-family="Meiryo, sans-serif" font-weight="normal" font-size="16px" fill="#000" dominant-baseline="central" text-anchor="middle">リ</text>
	<text x="200" y="110" font-family="Meiryo, sans-serif" font-weight="normal" font-size="16px" fill="#000" dominant-baseline="central" text-anchor="middle">必</text>
	<text x="216" y="110" font-family="Meiryo, sans-serif" font-weight="normal" font-size="16px" fill="#000" dominant-baseline="central" text-anchor="middle">要</text>
	<text x="232" y="110" font-family="Meiryo, sans-serif" font-weight="normal" font-size="16px" fill="#000" dominant-baseline="central" text-anchor="middle">に</text>
	<text x="248" y="110" font-family="Meiryo, sans-serif" font-weight="normal" font-size="16px" fill="#000" dominant-baseline="central" text-anchor="middle">応</text>
	<text x="264" y="110" font-family="Meiryo, sans-serif" font-weight="normal" font-size="16px" fill="#000" dominant-baseline="central" text-anchor="middle">じ</text>
	<text x="280" y="110" font-family="Meiryo, sans-serif" font-weight="normal" font-size="16px" fill="#000" dominant-baseline="central" text-anchor="middle">て</text>
	<text x="200" y="130" font-family="Meiryo, sans-serif" font-weight="normal" font-size="16px" fill="#000" dominant-baseline="central" text-anchor="middle">機</text>
	<text x="216" y="130" font-family="Meiryo, sans-serif" font-weight="normal" font-size="16px" fill="#000" dominant-baseline="central" text-anchor="middle">能</text>
	<text x="232" y="130" font-family="Meiryo, sans-serif" font-weight="normal" font-size="16px" fill="#000" dominant-baseline="central" text-anchor="middle">を</text>
	<text x="248" y="130" font-family="Meiryo, sans-serif" font-weight="normal" font-size="16px" fill="#000" dominant-baseline="central" text-anchor="middle">呼</text>
	<text x="264" y="130" font-family="Meiryo, sans-serif" font-weight="normal" font-size="16px" fill="#000" dominant-baseline="central" text-anchor="middle">び</text>
	<text x="280" y="130" font-family="Meiryo, sans-serif" font-weight="normal" font-size="16px" fill="#000" dominant-baseline="central" text-anchor="middle">出</text>
	<text x="296" y="130" font-family="Meiryo, sans-serif" font-weight="normal" font-size="16px" fill="#000" dominant-baseline="central" text-anchor="middle">す</text>
	<text x="200" y="190" font-family="Meiryo, sans-serif" font-weight="normal" font-size="16px" fill="#000" dominant-baseline="central" text-anchor="middle">必</text>
	<text x="216" y="190" font-family="Meiryo, sans-serif" font-weight="normal" font-size="16px" fill="#000" dominant-baseline="central" text-anchor="middle">要</text>
	<text x="232" y="190" font-family="Meiryo, sans-serif" font-weight="normal" font-size="16px" fill="#000" dominant-baseline="central" text-anchor="middle">に</text>
	<text x="248" y="190" font-family="Meiryo, sans-serif" font-weight="normal" font-size="16px" fill="#000" dominant-baseline="central" text-anchor="middle">応</text>
	<text x="264" y="190" font-family="Meiryo, sans-serif" font-weight="normal" font-size="16px" fill="#000" dominant-baseline="central" text-anchor="middle">じ</text>
	<text x="280" y="190" font-family="Meiryo, sans-serif" font-weight="normal" font-size="16px" fill="#000" dominant-baseline="central" text-anchor="middle">て</text>
	<text x="200" y="210" font-family="Meiryo, sans-serif" font-weight="normal" font-size="16px" fill="#000" dominant-baseline="central" text-anchor="middle">機</text>
	<text x="216" y="210" font-family="Meiryo, sans-serif" font-weight="normal" font-size="16px" fill="#000" dominant-baseline="central" text-anchor="middle">能</text>
	<text x="232" y="210" font-family="Meiryo, sans-serif" font-weight="normal" font-size="16px" fill="#000" dominant-baseline="central" text-anchor="middle">を</text>
	<text x="248" y="210" font-family="Meiryo, sans-serif" font-weight="normal" font-size="16px" fill="#000" dominant-baseline="central" text-anchor="middle">呼</text>
	<text x="264" y="210" font-family="Meiryo, sans-serif" font-weight="normal" font-size="16px" fill="#000" dominant-baseline="central" text-anchor="middle">び</text>
	<text x="280" y="210" font-family="Meiryo, sans-serif" font-weight="normal" font-size="16px" fill="#000" dominant-baseline="central" text-anchor="middle">出</text>
	<text x="296" y="210" font-family="Meiryo, sans-serif" font-weight="normal" font-size="16px" fill="#000" dominant-baseline="central" text-anchor="middle">す</text>
	<path d="M91,80 L91,100 L93,100 L93,80 Z M331,89 L331,91 L333,91 L333,89 Z M331,90 L331,100 L333,100 L333,90 Z M332,89 L332,91 L336,91 L336,89 Z M336,89 L336,91 L344,91 L344,89 Z M344,89 L344,91 L352,91 L352,89 Z M352,89 L352,91 L360,91 L360,89 Z M360,89 L360,91 L368,91 L368,89 Z M368,89 L368,91 L376,91 L376,89 Z M376,89 L376,91 L384,91 L384,89 Z M384,89 L384,91 L392,91 L392,89 Z M392,89 L392,91 L400,91 L400,89 Z M400,89 L400,91 L408,91 L408,89 Z M408,89 L408,91 L416,91 L416,89 Z M416,89 L416,91 L424,91 L424,89 Z M424,89 L424,91 L432,91 L432,89 Z M432,89 L432,91 L440,91 L440,89 Z M440,89 L440,91 L448,91 L448,89 Z M451,89 L451,91 L453,91 L453,89 Z M451,90 L451,100 L453,100 L453,90 Z M448,89 L448,91 L452,91 L452,89 Z M91,100 L91,120 L93,120 L93,100 Z M331,100 L331,120 L333,120 L333,100 Z M451,100 L451,120 L453,120 L453,100 Z M19,129 L19,131 L21,131 L21,129 Z M19,130 L19,140 L21,140 L21,130 Z M20,129 L20,131 L24,131 L24,129 Z M24,129 L24,131 L32,131 L32,129 Z M32,129 L32,131 L40,131 L40,129 Z M40,129 L40,131 L48,131 L48,129 Z M48,129 L48,131 L56,131 L56,129 Z M56,129 L56,131 L64,131 L64,129 Z M64,129 L64,131 L72,131 L72,129 Z M72,129 L72,131 L80,131 L80,129 Z M80,129 L80,131 L88,131 L88,129 Z M91,129 L91,131 L93,131 L93,129 Z M91,120 L91,130 L93,130 L93,120 Z M88,129 L88,131 L92,131 L92,129 Z M92,129 L92,131 L96,131 L96,129 Z M96,129 L96,131 L104,131 L104,129 Z M104,129 L104,131 L112,131 L112,129 Z M112,129 L112,131 L120,131 L120,129 Z M120,129 L120,131 L128,131 L128,129 Z M128,129 L128,131 L136,131 L136,129 Z M136,129 L136,131 L144,131 L144,129 Z M144,129 L144,131 L152,131 L152,129 Z M152,129 L152,131 L160,131 L160,129 Z M160,129 L160,131 L168,131 L168,129 Z M171,129 L171,131 L173,131 L173,129 Z M171,130 L171,140 L173,140 L173,130 Z M168,129 L168,131 L172,131 L172,129 Z M331,120 L331,140 L333,140 L333,120 Z M451,120 L451,140 L453,140 L453,120 Z M19,140 L19,160 L21,160 L21,140 Z M171,140 L171,160 L173,160 L173,140 Z M176,149 L176,151 L184,151 L184,149 Z M184,149 L184,151 L192,151 L192,149 Z M192,149 L192,151 L200,151 L200,149 Z M200,149 L200,151 L208,151 L208,149 Z M208,149 L208,151 L216,151 L216,149 Z M216,149 L216,151 L224,151 L224,149 Z M224,149 L224,151 L232,151 L232,149 Z M232,149 L232,151 L240,151 L240,149 Z M240,149 L240,151 L248,151 L248,149 Z M248,149 L248,151 L256,151 L256,149 Z M256,149 L256,151 L264,151 L264,149 Z M264,149 L264,151 L272,151 L272,149 Z M272,149 L272,151 L280,151 L280,149 Z M280,149 L280,151 L288,151 L288,149 Z M288,149 L288,151 L296,151 L296,149 Z M296,149 L296,151 L304,151 L304,149 Z M304,149 L304,151 L312,151 L312,149 Z M312,149 L312,151 L320,151 L320,149 Z M328,150 L320,155 L320,145 Z M331,140 L331,160 L333,160 L333,140 Z M451,140 L451,160 L453,160 L453,140 Z M19,169 L19,171 L21,171 L21,169 Z M19,160 L19,170 L21,170 L21,160 Z M20,169 L20,171 L24,171 L24,169 Z M24,169 L24,171 L32,171 L32,169 Z M32,169 L32,171 L40,171 L40,169 Z M40,169 L40,171 L48,171 L48,169 Z M48,169 L48,171 L56,171 L56,169 Z M56,169 L56,171 L64,171 L64,169 Z M64,169 L64,171 L72,171 L72,169 Z M72,169 L72,171 L80,171 L80,169 Z M80,169 L80,171 L88,171 L88,169 Z M91,169 L91,171 L93,171 L93,169 Z M91,170 L91,180 L93,180 L93,170 Z M88,169 L88,171 L92,171 L92,169 Z M92,169 L92,171 L96,171 L96,169 Z M96,169 L96,171 L104,171 L104,169 Z M104,169 L104,171 L112,171 L112,169 Z M112,169 L112,171 L120,171 L120,169 Z M120,169 L120,171 L128,171 L128,169 Z M128,169 L128,171 L136,171 L136,169 Z M136,169 L136,171 L144,171 L144,169 Z M144,169 L144,171 L152,171 L152,169 Z M152,169 L152,171 L160,171 L160,169 Z M160,169 L160,171 L168,171 L168,169 Z M171,169 L171,171 L173,171 L173,169 Z M171,160 L171,170 L173,170 L173,160 Z M168,169 L168,171 L172,171 L172,169 Z M331,160 L331,180 L333,180 L333,160 Z M451,160 L451,180 L453,180 L453,160 Z M91,180 L91,200 L93,200 L93,180 Z M331,180 L331,200 L333,200 L333,180 Z M451,180 L451,200 L453,200 L453,180 Z M19,209 L19,211 L21,211 L21,209 Z M19,210 L19,220 L21,220 L21,210 Z M20,209 L20,211 L24,211 L24,209 Z M24,209 L24,211 L32,211 L32,209 Z M32,209 L32,211 L40,211 L40,209 Z M40,209 L40,211 L48,211 L48,209 Z M48,209 L48,211 L56,211 L56,209 Z M56,209 L56,211 L64,211 L64,209 Z M64,209 L64,211 L72,211 L72,209 Z M72,209 L72,211 L80,211 L80,209 Z M80,209 L80,211 L88,211 L88,209 Z M91,209 L91,211 L93,211 L93,209 Z M91,200 L91,210 L93,210 L93,200 Z M88,209 L88,211 L92,211 L92,209 Z M92,209 L92,211 L96,211 L96,209 Z M96,209 L96,211 L104,211 L104,209 Z M104,209 L104,211 L112,211 L112,209 Z M112,209 L112,211 L120,211 L120,209 Z M120,209 L120,211 L128,211 L128,209 Z M128,209 L128,211 L136,211 L136,209 Z M136,209 L136,211 L144,211 L144,209 Z M144,209 L144,211 L152,211 L152,209 Z M152,209 L152,211 L160,211 L160,209 Z M160,209 L160,211 L168,211 L168,209 Z M171,209 L171,211 L173,211 L173,209 Z M171,210 L171,220 L173,220 L173,210 Z M168,209 L168,211 L172,211 L172,209 Z M331,200 L331,220 L333,220 L333,200 Z M451,200 L451,220 L453,220 L453,200 Z M19,220 L19,240 L21,240 L21,220 Z M171,220 L171,240 L173,240 L173,220 Z M176,229 L176,231 L184,231 L184,229 Z M184,229 L184,231 L192,231 L192,229 Z M192,229 L192,231 L200,231 L200,229 Z M200,229 L200,231 L208,231 L208,229 Z M208,229 L208,231 L216,231 L216,229 Z M216,229 L216,231 L224,231 L224,229 Z M224,229 L224,231 L232,231 L232,229 Z M232,229 L232,231 L240,231 L240,229 Z M240,229 L240,231 L248,231 L248,229 Z M248,229 L248,231 L256,231 L256,229 Z M256,229 L256,231 L264,231 L264,229 Z M264,229 L264,231 L272,231 L272,229 Z M272,229 L272,231 L280,231 L280,229 Z M280,229 L280,231 L288,231 L288,229 Z M288,229 L288,231 L296,231 L296,229 Z M296,229 L296,231 L304,231 L304,229 Z M304,229 L304,231 L312,231 L312,229 Z M312,229 L312,231 L320,231 L320,229 Z M328,230 L320,235 L320,225 Z M331,220 L331,240 L333,240 L333,220 Z M451,220 L451,240 L453,240 L453,220 Z M19,249 L19,251 L21,251 L21,249 Z M19,240 L19,250 L21,250 L21,240 Z M20,249 L20,251 L24,251 L24,249 Z M24,249 L24,251 L32,251 L32,249 Z M32,249 L32,251 L40,251 L40,249 Z M40,249 L40,251 L48,251 L48,249 Z M48,249 L48,251 L56,251 L56,249 Z M56,249 L56,251 L64,251 L64,249 Z M64,249 L64,251 L72,251 L72,249 Z M72,249 L72,251 L80,251 L80,249 Z M80,249 L80,251 L88,251 L88,249 Z M91,249 L91,251 L93,251 L93,249 Z M91,250 L91,260 L93,260 L93,250 Z M88,249 L88,251 L92,251 L92,249 Z M92,249 L92,251 L96,251 L96,249 Z M96,249 L96,251 L104,251 L104,249 Z M104,249 L104,251 L112,251 L112,249 Z M112,249 L112,251 L120,251 L120,249 Z M120,249 L120,251 L128,251 L128,249 Z M128,249 L128,251 L136,251 L136,249 Z M136,249 L136,251 L144,251 L144,249 Z M144,249 L144,251 L152,251 L152,249 Z M152,249 L152,251 L160,251 L160,249 Z M160,249 L160,251 L168,251 L168,249 Z M171,249 L171,251 L173,251 L173,249 Z M171,240 L171,250 L173,250 L173,240 Z M168,249 L168,251 L172,251 L172,249 Z M331,240 L331,260 L333,260 L333,240 Z M451,240 L451,260 L453,260 L453,240 Z M91,260 L91,280 L93,280 L93,260 Z M331,260 L331,280 L333,280 L333,260 Z M451,260 L451,280 L453,280 L453,260 Z M92,300 L88,290 L96,290 Z M91,280 L91,290 L93,290 L93,280 Z M331,289 L331,291 L333,291 L333,289 Z M331,280 L331,290 L333,290 L333,280 Z M332,289 L332,291 L336,291 L336,289 Z M336,289 L336,291 L344,291 L344,289 Z M344,289 L344,291 L352,291 L352,289 Z M352,289 L352,291 L360,291 L360,289 Z M360,289 L360,291 L368,291 L368,289 Z M368,289 L368,291 L376,291 L376,289 Z M376,289 L376,291 L384,291 L384,289 Z M384,289 L384,291 L392,291 L392,289 Z M392,289 L392,291 L400,291 L400,289 Z M400,289 L400,291 L408,291 L408,289 Z M408,289 L408,291 L416,291 L416,289 Z M416,289 L416,291 L424,291 L424,289 Z M424,289 L424,291 L432,291 L432,289 Z M432,289 L432,291 L440,291 L440,289 Z M440,289 L440,291 L448,291 L448,289 Z M451,289 L451,291 L453,291 L453,289 Z M451,280 L451,290 L453,290 L453,280 Z M448,289 L448,291 L452,291 L452,289 Z " fill="#000" stroke="#000" stroke-width="0.1px" />
</svg>