<?xml version="1.0"?>
<svg width="368" height="620" viewBox="0 0 368 620"
    xmlns="http://www.w3.org/2000/svg" version="1.1">
	<text x="24" y="30" font-family="Meiryo, sans-serif" font-weight="normal" font-size="16px" fill="#000" dominant-baseline="central" text-anchor="middle">ク</text>
	<text x="40" y="30" font-family="Meiryo, sans-serif" font-weight="normal" font-size="16px" fill="#000" dominant-baseline="central" text-anchor="middle">ラ</text>
	<text x="56" y="30" font-family="Meiryo, sans-serif" font-weight="normal" font-size="16px" fill="#000" dominant-baseline="central" text-anchor="middle">ス</text>
	<text x="72" y="30" font-family="Meiryo, sans-serif" font-weight="normal" font-size="16px" fill="#000" dominant-baseline="central" text-anchor="middle">の</text>
	<text x="88" y="30" font-family="Meiryo, sans-serif" font-weight="normal" font-size="16px" fill="#000" dominant-baseline="central" text-anchor="middle">設</text>
	<text x="104" y="30" font-family="Meiryo, sans-serif" font-weight="normal" font-size="16px" fill="#000" dominant-baseline="central" text-anchor="middle">計</text>
	<text x="120" y="30" font-family="Meiryo, sans-serif" font-weight="normal" font-size="16px" fill="#000" dominant-baseline="central" text-anchor="middle">図</text>
	<text x="44" y="70" font-family="MS Gothic, monospace" font-weight="normal" font-size="16px" fill="#000" dominant-baseline="central" text-anchor="middle">c</text>
	<text x="52" y="70" font-family="MS Gothic, monospace" font-weight="normal" font-size="16px" fill="#000" dominant-baseline="central" text-anchor="middle">o</text>
	<text x="60" y="70" font-family="MS Gothic, monospace" font-weight="normal" font-size="16px" fill="#000" dominant-baseline="central" text-anchor="middle">n</text>
	<text x="68" y="70" font-family="MS Gothic, monospace" font-weight="normal" font-size="16px" fill="#000" dominant-baseline="central" text-anchor="middle">s</text>
	<text x="76" y="70" font-family="MS Gothic, monospace" font-weight="normal" font-size="16px" fill="#000" dominant-baseline="central" text-anchor="middle">t</text>
	<text x="84" y="70" font-family="MS Gothic, monospace" font-weight="normal" font-size="16px" fill="#000" dominant-baseline="central" text-anchor="middle">r</text>
	<text x="92" y="70" font-family="MS Gothic, monospace" font-weight="normal" font-size="16px" fill="#000" dominant-baseline="central" text-anchor="middle">u</text>
	<text x="100" y="70" font-family="MS Gothic, monospace" font-weight="normal" font-size="16px" fill="#000" dominant-baseline="central" text-anchor="middle">c</text>
	<text x="108" y="70" font-family="MS Gothic, monospace" font-weight="normal" font-size="16px" fill="#000" dominant-baseline="central" text-anchor="middle">t</text>
	<text x="116" y="70" font-family="MS Gothic, monospace" font-weight="normal" font-size="16px" fill="#000" dominant-baseline="central" text-anchor="middle">o</text>
	<text x="124" y="70" font-family="MS Gothic, monospace" font-weight="normal" font-size="16px" fill="#000" dominant-baseline="central" text-anchor="middle">r</text>
	<text x="132" y="70" font-family="MS Gothic, monospace" font-weight="normal" font-size="16px" fill="#000" dominant-baseline="central" text-anchor="middle">(</text>
	<text x="144" y="70" font-family="Meiryo, sans-serif" font-weight="normal" font-size="16px" fill="#000" dominant-baseline="central" text-anchor="middle">引</text>
	<text x="160" y="70" font-family="Meiryo, sans-serif" font-weight="normal" font-size="16px" fill="#000" dominant-baseline="central" text-anchor="middle">数</text>
	<text x="172" y="70" font-family="MS Gothic, monospace" font-weight="normal" font-size="16px" fill="#000" dominant-baseline="central" text-anchor="middle">)</text>
	<text x="188" y="70" font-family="MS Gothic, monospace" font-weight="normal" font-size="16px" fill="#000" dominant-baseline="central" text-anchor="middle">{</text>
	<text x="80" y="90" font-family="Meiryo, sans-serif" font-weight="normal" font-size="16px" fill="#000" dominant-baseline="central" text-anchor="middle">プ</text>
	<text x="96" y="90" font-family="Meiryo, sans-serif" font-weight="normal" font-size="16px" fill="#000" dominant-baseline="central" text-anchor="middle">ロ</text>
	<text x="112" y="90" font-family="Meiryo, sans-serif" font-weight="normal" font-size="16px" fill="#000" dominant-baseline="central" text-anchor="middle">パ</text>
	<text x="128" y="90" font-family="Meiryo, sans-serif" font-weight="normal" font-size="16px" fill="#000" dominant-baseline="central" text-anchor="middle">テ</text>
	<text x="144" y="90" font-family="Meiryo, sans-serif" font-weight="normal" font-size="16px" fill="#000" dominant-baseline="central" text-anchor="middle">ィ</text>
	<text x="160" y="90" font-family="Meiryo, sans-serif" font-weight="normal" font-size="16px" fill="#000" dominant-baseline="central" text-anchor="middle">な</text>
	<text x="176" y="90" font-family="Meiryo, sans-serif" font-weight="normal" font-size="16px" fill="#000" dominant-baseline="central" text-anchor="middle">ど</text>
	<text x="192" y="90" font-family="Meiryo, sans-serif" font-weight="normal" font-size="16px" fill="#000" dominant-baseline="central" text-anchor="middle">の</text>
	<text x="208" y="90" font-family="Meiryo, sans-serif" font-weight="normal" font-size="16px" fill="#000" dominant-baseline="central" text-anchor="middle">初</text>
	<text x="224" y="90" font-family="Meiryo, sans-serif" font-weight="normal" font-size="16px" fill="#000" dominant-baseline="central" text-anchor="middle">期</text>
	<text x="240" y="90" font-family="Meiryo, sans-serif" font-weight="normal" font-size="16px" fill="#000" dominant-baseline="central" text-anchor="middle">化</text>
	<text x="256" y="90" font-family="Meiryo, sans-serif" font-weight="normal" font-size="16px" fill="#000" dominant-baseline="central" text-anchor="middle">を</text>
	<text x="272" y="90" font-family="Meiryo, sans-serif" font-weight="normal" font-size="16px" fill="#000" dominant-baseline="central" text-anchor="middle">お</text>
	<text x="288" y="90" font-family="Meiryo, sans-serif" font-weight="normal" font-size="16px" fill="#000" dominant-baseline="central" text-anchor="middle">こ</text>
	<text x="304" y="90" font-family="Meiryo, sans-serif" font-weight="normal" font-size="16px" fill="#000" dominant-baseline="central" text-anchor="middle">な</text>
	<text x="320" y="90" font-family="Meiryo, sans-serif" font-weight="normal" font-size="16px" fill="#000" dominant-baseline="central" text-anchor="middle">う</text>
	<text x="80" y="110" font-family="Meiryo, sans-serif" font-weight="normal" font-size="16px" fill="#000" dominant-baseline="central" text-anchor="middle">・</text>
	<text x="96" y="110" font-family="Meiryo, sans-serif" font-weight="normal" font-size="16px" fill="#000" dominant-baseline="central" text-anchor="middle">プ</text>
	<text x="112" y="110" font-family="Meiryo, sans-serif" font-weight="normal" font-size="16px" fill="#000" dominant-baseline="central" text-anchor="middle">ロ</text>
	<text x="128" y="110" font-family="Meiryo, sans-serif" font-weight="normal" font-size="16px" fill="#000" dominant-baseline="central" text-anchor="middle">パ</text>
	<text x="144" y="110" font-family="Meiryo, sans-serif" font-weight="normal" font-size="16px" fill="#000" dominant-baseline="central" text-anchor="middle">テ</text>
	<text x="160" y="110" font-family="Meiryo, sans-serif" font-weight="normal" font-size="16px" fill="#000" dominant-baseline="central" text-anchor="middle">ィ</text>
	<text x="80" y="130" font-family="Meiryo, sans-serif" font-weight="normal" font-size="16px" fill="#000" dominant-baseline="central" text-anchor="middle">・</text>
	<text x="96" y="130" font-family="Meiryo, sans-serif" font-weight="normal" font-size="16px" fill="#000" dominant-baseline="central" text-anchor="middle">プ</text>
	<text x="112" y="130" font-family="Meiryo, sans-serif" font-weight="normal" font-size="16px" fill="#000" dominant-baseline="central" text-anchor="middle">ロ</text>
	<text x="128" y="130" font-family="Meiryo, sans-serif" font-weight="normal" font-size="16px" fill="#000" dominant-baseline="central" text-anchor="middle">パ</text>
	<text x="144" y="130" font-family="Meiryo, sans-serif" font-weight="normal" font-size="16px" fill="#000" dominant-baseline="central" text-anchor="middle">テ</text>
	<text x="160" y="130" font-family="Meiryo, sans-serif" font-weight="normal" font-size="16px" fill="#000" dominant-baseline="central" text-anchor="middle">ィ</text>
	<text x="80" y="150" font-family="Meiryo, sans-serif" font-weight="normal" font-size="16px" fill="#000" dominant-baseline="central" text-anchor="middle">・</text>
	<text x="96" y="150" font-family="Meiryo, sans-serif" font-weight="normal" font-size="16px" fill="#000" dominant-baseline="central" text-anchor="middle">プ</text>
	<text x="112" y="150" font-family="Meiryo, sans-serif" font-weight="normal" font-size="16px" fill="#000" dominant-baseline="central" text-anchor="middle">ロ</text>
	<text x="128" y="150" font-family="Meiryo, sans-serif" font-weight="normal" font-size="16px" fill="#000" dominant-baseline="central" text-anchor="middle">パ</text>
	<text x="144" y="150" font-family="Meiryo, sans-serif" font-weight="normal" font-size="16px" fill="#000" dominant-baseline="central" text-anchor="middle">テ</text>
	<text x="160" y="150" font-family="Meiryo, sans-serif" font-weight="normal" font-size="16px" fill="#000" dominant-baseline="central" text-anchor="middle">ィ</text>
	<text x="44" y="170" font-family="MS Gothic, monospace" font-weight="normal" font-size="16px" fill="#000" dominant-baseline="central" text-anchor="middle">}</text>
	<text x="48" y="210" font-family="Meiryo, sans-serif" font-weight="normal" font-size="16px" fill="#000" dominant-baseline="central" text-anchor="middle">メ</text>
	<text x="64" y="210" font-family="Meiryo, sans-serif" font-weight="normal" font-size="16px" fill="#000" dominant-baseline="central" text-anchor="middle">ソ</text>
	<text x="80" y="210" font-family="Meiryo, sans-serif" font-weight="normal" font-size="16px" fill="#000" dominant-baseline="central" text-anchor="middle">ッ</text>
	<text x="96" y="210" font-family="Meiryo, sans-serif" font-weight="normal" font-size="16px" fill="#000" dominant-baseline="central" text-anchor="middle">ド</text>
	<text x="108" y="210" font-family="MS Gothic, monospace" font-weight="normal" font-size="16px" fill="#000" dominant-baseline="central" text-anchor="middle">(</text>
	<text x="120" y="210" font-family="Meiryo, sans-serif" font-weight="normal" font-size="16px" fill="#000" dominant-baseline="central" text-anchor="middle">引</text>
	<text x="136" y="210" font-family="Meiryo, sans-serif" font-weight="normal" font-size="16px" fill="#000" dominant-baseline="central" text-anchor="middle">数</text>
	<text x="148" y="210" font-family="MS Gothic, monospace" font-weight="normal" font-size="16px" fill="#000" dominant-baseline="central" text-anchor="middle">)</text>
	<text x="164" y="210" font-family="MS Gothic, monospace" font-weight="normal" font-size="16px" fill="#000" dominant-baseline="central" text-anchor="middle">{</text>
	<text x="184" y="210" font-family="Meiryo, sans-serif" font-weight="normal" font-size="16px" fill="#000" dominant-baseline="central" text-anchor="middle">処</text>
	<text x="200" y="210" font-family="Meiryo, sans-serif" font-weight="normal" font-size="16px" fill="#000" dominant-baseline="central" text-anchor="middle">理</text>
	<text x="220" y="210" font-family="MS Gothic, monospace" font-weight="normal" font-size="16px" fill="#000" dominant-baseline="central" text-anchor="middle">}</text>
	<text x="48" y="250" font-family="Meiryo, sans-serif" font-weight="normal" font-size="16px" fill="#000" dominant-baseline="central" text-anchor="middle">メ</text>
	<text x="64" y="250" font-family="Meiryo, sans-serif" font-weight="normal" font-size="16px" fill="#000" dominant-baseline="central" text-anchor="middle">ソ</text>
	<text x="80" y="250" font-family="Meiryo, sans-serif" font-weight="normal" font-size="16px" fill="#000" dominant-baseline="central" text-anchor="middle">ッ</text>
	<text x="96" y="250" font-family="Meiryo, sans-serif" font-weight="normal" font-size="16px" fill="#000" dominant-baseline="central" text-anchor="middle">ド</text>
	<text x="108" y="250" font-family="MS Gothic, monospace" font-weight="normal" font-size="16px" fill="#000" dominant-baseline="central" text-anchor="middle">(</text>
	<text x="120" y="250" font-family="Meiryo, sans-serif" font-weight="normal" font-size="16px" fill="#000" dominant-baseline="central" text-anchor="middle">引</text>
	<text x="136" y="250" font-family="Meiryo, sans-serif" font-weight="normal" font-size="16px" fill="#000" dominant-baseline="central" text-anchor="middle">数</text>
	<text x="148" y="250" font-family="MS Gothic, monospace" font-weight="normal" font-size="16px" fill="#000" dominant-baseline="central" text-anchor="middle">)</text>
	<text x="164" y="250" font-family="MS Gothic, monospace" font-weight="normal" font-size="16px" fill="#000" dominant-baseline="central" text-anchor="middle">{</text>
	<text x="184" y="250" font-family="Meiryo, sans-serif" font-weight="normal" font-size="16px" fill="#000" dominant-baseline="central" text-anchor="middle">処</text>
	<text x="200" y="250" font-family="Meiryo, sans-serif" font-weight="normal" font-size="16px" fill="#000" dominant-baseline="central" text-anchor="middle">理</text>
	<text x="220" y="250" font-family="MS Gothic, monospace" font-weight="normal" font-size="16px" fill="#000" dominant-baseline="central" text-anchor="middle">}</text>
	<text x="20" y="330" font-family="MS Gothic, monospace" font-weight="normal" font-size="16px" fill="#000" dominant-baseline="central" text-anchor="middle">n</text>
	<text x="28" y="330" font-family="MS Gothic, monospace" font-weight="normal" font-size="16px" fill="#000" dominant-baseline="central" text-anchor="middle">e</text>
	<text x="36" y="330" font-family="MS Gothic, monospace" font-weight="normal" font-size="16px" fill="#000" dominant-baseline="central" text-anchor="middle">w</text>
	<text x="56" y="330" font-family="Meiryo, sans-serif" font-weight="normal" font-size="16px" fill="#000" dominant-baseline="central" text-anchor="middle">ク</text>
	<text x="72" y="330" font-family="Meiryo, sans-serif" font-weight="normal" font-size="16px" fill="#000" dominant-baseline="central" text-anchor="middle">ラ</text>
	<text x="88" y="330" font-family="Meiryo, sans-serif" font-weight="normal" font-size="16px" fill="#000" dominant-baseline="central" text-anchor="middle">ス</text>
	<text x="104" y="330" font-family="Meiryo, sans-serif" font-weight="normal" font-size="16px" fill="#000" dominant-baseline="central" text-anchor="middle">名</text>
	<text x="116" y="330" font-family="MS Gothic, monospace" font-weight="normal" font-size="16px" fill="#000" dominant-baseline="central" text-anchor="middle">(</text>
	<text x="128" y="330" font-family="Meiryo, sans-serif" font-weight="normal" font-size="16px" fill="#000" dominant-baseline="central" text-anchor="middle">引</text>
	<text x="144" y="330" font-family="Meiryo, sans-serif" font-weight="normal" font-size="16px" fill="#000" dominant-baseline="central" text-anchor="middle">数</text>
	<text x="156" y="330" font-family="MS Gothic, monospace" font-weight="normal" font-size="16px" fill="#000" dominant-baseline="central" text-anchor="middle">)</text>
	<text x="24" y="390" font-family="Meiryo, sans-serif" font-weight="normal" font-size="16px" fill="#000" dominant-baseline="central" text-anchor="middle">オ</text>
	<text x="40" y="390" font-family="Meiryo, sans-serif" font-weight="normal" font-size="16px" fill="#000" dominant-baseline="central" text-anchor="middle">ブ</text>
	<text x="56" y="390" font-family="Meiryo, sans-serif" font-weight="normal" font-size="16px" fill="#000" dominant-baseline="central" text-anchor="middle">ジ</text>
	<text x="72" y="390" font-family="Meiryo, sans-serif" font-weight="normal" font-size="16px" fill="#000" dominant-baseline="central" text-anchor="middle">ェ</text>
	<text x="88" y="390" font-family="Meiryo, sans-serif" font-weight="normal" font-size="16px" fill="#000" dominant-baseline="central" text-anchor="middle">ク</text>
	<text x="104" y="390" font-family="Meiryo, sans-serif" font-weight="normal" font-size="16px" fill="#000" dominant-baseline="central" text-anchor="middle">ト</text>
	<text x="48" y="450" font-family="Meiryo, sans-serif" font-weight="normal" font-size="16px" fill="#000" dominant-baseline="central" text-anchor="middle">オ</text>
	<text x="64" y="450" font-family="Meiryo, sans-serif" font-weight="normal" font-size="16px" fill="#000" dominant-baseline="central" text-anchor="middle">ブ</text>
	<text x="80" y="450" font-family="Meiryo, sans-serif" font-weight="normal" font-size="16px" fill="#000" dominant-baseline="central" text-anchor="middle">ジ</text>
	<text x="96" y="450" font-family="Meiryo, sans-serif" font-weight="normal" font-size="16px" fill="#000" dominant-baseline="central" text-anchor="middle">ェ</text>
	<text x="112" y="450" font-family="Meiryo, sans-serif" font-weight="normal" font-size="16px" fill="#000" dominant-baseline="central" text-anchor="middle">ク</text>
	<text x="128" y="450" font-family="Meiryo, sans-serif" font-weight="normal" font-size="16px" fill="#000" dominant-baseline="central" text-anchor="middle">ト</text>
	<text x="80" y="470" font-family="Meiryo, sans-serif" font-weight="normal" font-size="16px" fill="#000" dominant-baseline="central" text-anchor="middle">・</text>
	<text x="96" y="470" font-family="Meiryo, sans-serif" font-weight="normal" font-size="16px" fill="#000" dominant-baseline="central" text-anchor="middle">プ</text>
	<text x="112" y="470" font-family="Meiryo, sans-serif" font-weight="normal" font-size="16px" fill="#000" dominant-baseline="central" text-anchor="middle">ロ</text>
	<text x="128" y="470" font-family="Meiryo, sans-serif" font-weight="normal" font-size="16px" fill="#000" dominant-baseline="central" text-anchor="middle">パ</text>
	<text x="144" y="470" font-family="Meiryo, sans-serif" font-weight="normal" font-size="16px" fill="#000" dominant-baseline="central" text-anchor="middle">テ</text>
	<text x="160" y="470" font-family="Meiryo, sans-serif" font-weight="normal" font-size="16px" fill="#000" dominant-baseline="central" text-anchor="middle">ィ</text>
	<text x="180" y="470" font-family="MS Gothic, monospace" font-weight="normal" font-size="16px" fill="#000" dominant-baseline="central" text-anchor="middle">=</text>
	<text x="200" y="470" font-family="Meiryo, sans-serif" font-weight="normal" font-size="16px" fill="#000" dominant-baseline="central" text-anchor="middle">値</text>
	<text x="80" y="490" font-family="Meiryo, sans-serif" font-weight="normal" font-size="16px" fill="#000" dominant-baseline="central" text-anchor="middle">・</text>
	<text x="96" y="490" font-family="Meiryo, sans-serif" font-weight="normal" font-size="16px" fill="#000" dominant-baseline="central" text-anchor="middle">プ</text>
	<text x="112" y="490" font-family="Meiryo, sans-serif" font-weight="normal" font-size="16px" fill="#000" dominant-baseline="central" text-anchor="middle">ロ</text>
	<text x="128" y="490" font-family="Meiryo, sans-serif" font-weight="normal" font-size="16px" fill="#000" dominant-baseline="central" text-anchor="middle">パ</text>
	<text x="144" y="490" font-family="Meiryo, sans-serif" font-weight="normal" font-size="16px" fill="#000" dominant-baseline="central" text-anchor="middle">テ</text>
	<text x="160" y="490" font-family="Meiryo, sans-serif" font-weight="normal" font-size="16px" fill="#000" dominant-baseline="central" text-anchor="middle">ィ</text>
	<text x="180" y="490" font-family="MS Gothic, monospace" font-weight="normal" font-size="16px" fill="#000" dominant-baseline="central" text-anchor="middle">=</text>
	<text x="200" y="490" font-family="Meiryo, sans-serif" font-weight="normal" font-size="16px" fill="#000" dominant-baseline="central" text-anchor="middle">値</text>
	<text x="80" y="510" font-family="Meiryo, sans-serif" font-weight="normal" font-size="16px" fill="#000" dominant-baseline="central" text-anchor="middle">・</text>
	<text x="96" y="510" font-family="Meiryo, sans-serif" font-weight="normal" font-size="16px" fill="#000" dominant-baseline="central" text-anchor="middle">プ</text>
	<text x="112" y="510" font-family="Meiryo, sans-serif" font-weight="normal" font-size="16px" fill="#000" dominant-baseline="central" text-anchor="middle">ロ</text>
	<text x="128" y="510" font-family="Meiryo, sans-serif" font-weight="normal" font-size="16px" fill="#000" dominant-baseline="central" text-anchor="middle">パ</text>
	<text x="144" y="510" font-family="Meiryo, sans-serif" font-weight="normal" font-size="16px" fill="#000" dominant-baseline="central" text-anchor="middle">テ</text>
	<text x="160" y="510" font-family="Meiryo, sans-serif" font-weight="normal" font-size="16px" fill="#000" dominant-baseline="central" text-anchor="middle">ィ</text>
	<text x="180" y="510" font-family="MS Gothic, monospace" font-weight="normal" font-size="16px" fill="#000" dominant-baseline="central" text-anchor="middle">=</text>
	<text x="200" y="510" font-family="Meiryo, sans-serif" font-weight="normal" font-size="16px" fill="#000" dominant-baseline="central" text-anchor="middle">値</text>
	<text x="40" y="570" font-family="Meiryo, sans-serif" font-weight="normal" font-size="16px" fill="#000" dominant-baseline="central" text-anchor="middle">（</text>
	<text x="56" y="570" font-family="Meiryo, sans-serif" font-weight="normal" font-size="16px" fill="#000" dominant-baseline="central" text-anchor="middle">引</text>
	<text x="72" y="570" font-family="Meiryo, sans-serif" font-weight="normal" font-size="16px" fill="#000" dominant-baseline="central" text-anchor="middle">数</text>
	<text x="88" y="570" font-family="Meiryo, sans-serif" font-weight="normal" font-size="16px" fill="#000" dominant-baseline="central" text-anchor="middle">に</text>
	<text x="104" y="570" font-family="Meiryo, sans-serif" font-weight="normal" font-size="16px" fill="#000" dominant-baseline="central" text-anchor="middle">よ</text>
	<text x="120" y="570" font-family="Meiryo, sans-serif" font-weight="normal" font-size="16px" fill="#000" dominant-baseline="central" text-anchor="middle">っ</text>
	<text x="136" y="570" font-family="Meiryo, sans-serif" font-weight="normal" font-size="16px" fill="#000" dominant-baseline="central" text-anchor="middle">て</text>
	<text x="152" y="570" font-family="Meiryo, sans-serif" font-weight="normal" font-size="16px" fill="#000" dominant-baseline="central" text-anchor="middle">値</text>
	<text x="168" y="570" font-family="Meiryo, sans-serif" font-weight="normal" font-size="16px" fill="#000" dominant-baseline="central" text-anchor="middle">を</text>
	<text x="184" y="570" font-family="Meiryo, sans-serif" font-weight="normal" font-size="16px" fill="#000" dominant-baseline="central" text-anchor="middle">決</text>
	<text x="200" y="570" font-family="Meiryo, sans-serif" font-weight="normal" font-size="16px" fill="#000" dominant-baseline="central" text-anchor="middle">め</text>
	<text x="216" y="570" font-family="Meiryo, sans-serif" font-weight="normal" font-size="16px" fill="#000" dominant-baseline="central" text-anchor="middle">る</text>
	<text x="232" y="570" font-family="Meiryo, sans-serif" font-weight="normal" font-size="16px" fill="#000" dominant-baseline="central" text-anchor="middle">）</text>
	<text x="40" y="590" font-family="Meiryo, sans-serif" font-weight="normal" font-size="16px" fill="#000" dominant-baseline="central" text-anchor="middle">（</text>
	<text x="56" y="590" font-family="Meiryo, sans-serif" font-weight="normal" font-size="16px" fill="#000" dominant-baseline="central" text-anchor="middle">ク</text>
	<text x="72" y="590" font-family="Meiryo, sans-serif" font-weight="normal" font-size="16px" fill="#000" dominant-baseline="central" text-anchor="middle">ラ</text>
	<text x="88" y="590" font-family="Meiryo, sans-serif" font-weight="normal" font-size="16px" fill="#000" dominant-baseline="central" text-anchor="middle">ス</text>
	<text x="104" y="590" font-family="Meiryo, sans-serif" font-weight="normal" font-size="16px" fill="#000" dominant-baseline="central" text-anchor="middle">の</text>
	<text x="120" y="590" font-family="Meiryo, sans-serif" font-weight="normal" font-size="16px" fill="#000" dominant-baseline="central" text-anchor="middle">メ</text>
	<text x="136" y="590" font-family="Meiryo, sans-serif" font-weight="normal" font-size="16px" fill="#000" dominant-baseline="central" text-anchor="middle">ソ</text>
	<text x="152" y="590" font-family="Meiryo, sans-serif" font-weight="normal" font-size="16px" fill="#000" dominant-baseline="central" text-anchor="middle">ッ</text>
	<text x="168" y="590" font-family="Meiryo, sans-serif" font-weight="normal" font-size="16px" fill="#000" dominant-baseline="central" text-anchor="middle">ド</text>
	<text x="184" y="590" font-family="Meiryo, sans-serif" font-weight="normal" font-size="16px" fill="#000" dominant-baseline="central" text-anchor="middle">も</text>
	<text x="200" y="590" font-family="Meiryo, sans-serif" font-weight="normal" font-size="16px" fill="#000" dominant-baseline="central" text-anchor="middle">使</text>
	<text x="216" y="590" font-family="Meiryo, sans-serif" font-weight="normal" font-size="16px" fill="#000" dominant-baseline="central" text-anchor="middle">え</text>
	<text x="232" y="590" font-family="Meiryo, sans-serif" font-weight="normal" font-size="16px" fill="#000" dominant-baseline="central" text-anchor="middle">る</text>
	<text x="248" y="590" font-family="Meiryo, sans-serif" font-weight="normal" font-size="16px" fill="#000" dominant-baseline="central" text-anchor="middle">）</text>
	<path d="M83,340 L83,360 L85,360 L85,340 Z M84,380 L80,370 L88,370 Z M83,360 L83,370 L85,370 L85,360 Z M19,409 L19,411 L21,411 L21,409 Z M19,410 L19,420 L21,420 L21,410 Z M20,409 L20,411 L24,411 L24,409 Z M24,409 L24,411 L32,411 L32,409 Z M32,409 L32,411 L40,411 L40,409 Z M40,409 L40,411 L48,411 L48,409 Z M48,409 L48,411 L56,411 L56,409 Z M56,409 L56,411 L64,411 L64,409 Z M64,409 L64,411 L72,411 L72,409 Z M72,409 L72,411 L80,411 L80,409 Z M80,409 L80,411 L88,411 L88,409 Z M88,409 L88,411 L96,411 L96,409 Z M96,409 L96,411 L104,411 L104,409 Z M104,409 L104,411 L112,411 L112,409 Z M112,409 L112,411 L120,411 L120,409 Z M120,409 L120,411 L128,411 L128,409 Z M128,409 L128,411 L136,411 L136,409 Z M136,409 L136,411 L144,411 L144,409 Z M144,409 L144,411 L152,411 L152,409 Z M152,409 L152,411 L160,411 L160,409 Z M160,409 L160,411 L168,411 L168,409 Z M168,409 L168,411 L176,411 L176,409 Z M176,409 L176,411 L184,411 L184,409 Z M184,409 L184,411 L192,411 L192,409 Z M192,409 L192,411 L200,411 L200,409 Z M200,409 L200,411 L208,411 L208,409 Z M208,409 L208,411 L216,411 L216,409 Z M216,409 L216,411 L224,411 L224,409 Z M224,409 L224,411 L232,411 L232,409 Z M232,409 L232,411 L240,411 L240,409 Z M240,409 L240,411 L248,411 L248,409 Z M248,409 L248,411 L256,411 L256,409 Z M256,409 L256,411 L264,411 L264,409 Z M264,409 L264,411 L272,411 L272,409 Z M272,409 L272,411 L280,411 L280,409 Z M280,409 L280,411 L288,411 L288,409 Z M288,409 L288,411 L296,411 L296,409 Z M296,409 L296,411 L304,411 L304,409 Z M304,409 L304,411 L312,411 L312,409 Z M312,409 L312,411 L320,411 L320,409 Z M320,409 L320,411 L328,411 L328,409 Z M328,409 L328,411 L336,411 L336,409 Z M336,409 L336,411 L344,411 L344,409 Z M347,409 L347,411 L349,411 L349,409 Z M347,410 L347,420 L349,420 L349,410 Z M344,409 L344,411 L348,411 L348,409 Z M19,420 L19,440 L21,440 L21,420 Z M347,420 L347,440 L349,440 L349,420 Z M19,440 L19,460 L21,460 L21,440 Z M347,440 L347,460 L349,460 L349,440 Z M19,460 L19,480 L21,480 L21,460 Z M347,460 L347,480 L349,480 L349,460 Z M19,480 L19,500 L21,500 L21,480 Z M347,480 L347,500 L349,500 L349,480 Z M19,500 L19,520 L21,520 L21,500 Z M347,500 L347,520 L349,520 L349,500 Z M19,520 L19,540 L21,540 L21,520 Z M347,520 L347,540 L349,540 L349,520 Z M19,549 L19,551 L21,551 L21,549 Z M19,540 L19,550 L21,550 L21,540 Z M20,549 L20,551 L24,551 L24,549 Z M24,549 L24,551 L32,551 L32,549 Z M32,549 L32,551 L40,551 L40,549 Z M40,549 L40,551 L48,551 L48,549 Z M48,549 L48,551 L56,551 L56,549 Z M56,549 L56,551 L64,551 L64,549 Z M64,549 L64,551 L72,551 L72,549 Z M72,549 L72,551 L80,551 L80,549 Z M80,549 L80,551 L88,551 L88,549 Z M88,549 L88,551 L96,551 L96,549 Z M96,549 L96,551 L104,551 L104,549 Z M104,549 L104,551 L112,551 L112,549 Z M112,549 L112,551 L120,551 L120,549 Z M120,549 L120,551 L128,551 L128,549 Z M128,549 L128,551 L136,551 L136,549 Z M136,549 L136,551 L144,551 L144,549 Z M144,549 L144,551 L152,551 L152,549 Z M152,549 L152,551 L160,551 L160,549 Z M160,549 L160,551 L168,551 L168,549 Z M168,549 L168,551 L176,551 L176,549 Z M176,549 L176,551 L184,551 L184,549 Z M184,549 L184,551 L192,551 L192,549 Z M192,549 L192,551 L200,551 L200,549 Z M200,549 L200,551 L208,551 L208,549 Z M208,549 L208,551 L216,551 L216,549 Z M216,549 L216,551 L224,551 L224,549 Z M224,549 L224,551 L232,551 L232,549 Z M232,549 L232,551 L240,551 L240,549 Z M240,549 L240,551 L248,551 L248,549 Z M248,549 L248,551 L256,551 L256,549 Z M256,549 L256,551 L264,551 L264,549 Z M264,549 L264,551 L272,551 L272,549 Z M272,549 L272,551 L280,551 L280,549 Z M280,549 L280,551 L288,551 L288,549 Z M288,549 L288,551 L296,551 L296,549 Z M296,549 L296,551 L304,551 L304,549 Z M304,549 L304,551 L312,551 L312,549 Z M312,549 L312,551 L320,551 L320,549 Z M320,549 L320,551 L328,551 L328,549 Z M328,549 L328,551 L336,551 L336,549 Z M336,549 L336,551 L344,551 L344,549 Z M347,549 L347,551 L349,551 L349,549 Z M347,540 L347,550 L349,550 L349,540 Z M344,549 L344,551 L348,551 L348,549 Z " fill="#000" stroke="#000" stroke-width="0.1px" />
	<path d="M19,49 L19,51 L21,51 L21,49 Z M19,50 L19,60 L21,60 L21,50 Z M20,49 L20,51 L24,51 L24,49 Z M24,49 L24,51 L32,51 L32,49 Z M32,49 L32,51 L40,51 L40,49 Z M40,49 L40,51 L48,51 L48,49 Z M48,49 L48,51 L56,51 L56,49 Z M56,49 L56,51 L64,51 L64,49 Z M64,49 L64,51 L72,51 L72,49 Z M72,49 L72,51 L80,51 L80,49 Z M80,49 L80,51 L88,51 L88,49 Z M88,49 L88,51 L96,51 L96,49 Z M96,49 L96,51 L104,51 L104,49 Z M104,49 L104,51 L112,51 L112,49 Z M112,49 L112,51 L120,51 L120,49 Z M120,49 L120,51 L128,51 L128,49 Z M128,49 L128,51 L136,51 L136,49 Z M136,49 L136,51 L144,51 L144,49 Z M144,49 L144,51 L152,51 L152,49 Z M152,49 L152,51 L160,51 L160,49 Z M160,49 L160,51 L168,51 L168,49 Z M168,49 L168,51 L176,51 L176,49 Z M176,49 L176,51 L184,51 L184,49 Z M184,49 L184,51 L192,51 L192,49 Z M192,49 L192,51 L200,51 L200,49 Z M200,49 L200,51 L208,51 L208,49 Z M208,49 L208,51 L216,51 L216,49 Z M216,49 L216,51 L224,51 L224,49 Z M224,49 L224,51 L232,51 L232,49 Z M232,49 L232,51 L240,51 L240,49 Z M240,49 L240,51 L248,51 L248,49 Z M248,49 L248,51 L256,51 L256,49 Z M256,49 L256,51 L264,51 L264,49 Z M264,49 L264,51 L272,51 L272,49 Z M272,49 L272,51 L280,51 L280,49 Z M280,49 L280,51 L288,51 L288,49 Z M288,49 L288,51 L296,51 L296,49 Z M296,49 L296,51 L304,51 L304,49 Z M304,49 L304,51 L312,51 L312,49 Z M312,49 L312,51 L320,51 L320,49 Z M320,49 L320,51 L328,51 L328,49 Z M328,49 L328,51 L336,51 L336,49 Z M336,49 L336,51 L344,51 L344,49 Z M347,49 L347,51 L349,51 L349,49 Z M347,50 L347,60 L349,60 L349,50 Z M344,49 L344,51 L348,51 L348,49 Z M19,60 L19,80 L21,80 L21,60 Z M347,60 L347,80 L349,80 L349,60 Z M19,80 L19,100 L21,100 L21,80 Z M347,80 L347,100 L349,100 L349,80 Z M19,100 L19,120 L21,120 L21,100 Z M347,100 L347,120 L349,120 L349,100 Z M19,120 L19,140 L21,140 L21,120 Z M347,120 L347,140 L349,140 L349,120 Z M19,140 L19,160 L21,160 L21,140 Z M347,140 L347,160 L349,160 L349,140 Z M19,160 L19,180 L21,180 L21,160 Z M347,160 L347,180 L349,180 L349,160 Z M19,189 L19,191 L21,191 L21,189 Z M19,180 L19,190 L21,190 L21,180 Z M19,190 L19,200 L21,200 L21,190 Z M20,189 L20,191 L24,191 L24,189 Z M24,189 L24,191 L32,191 L32,189 Z M32,189 L32,191 L40,191 L40,189 Z M40,189 L40,191 L48,191 L48,189 Z M48,189 L48,191 L56,191 L56,189 Z M56,189 L56,191 L64,191 L64,189 Z M64,189 L64,191 L72,191 L72,189 Z M72,189 L72,191 L80,191 L80,189 Z M80,189 L80,191 L88,191 L88,189 Z M88,189 L88,191 L96,191 L96,189 Z M96,189 L96,191 L104,191 L104,189 Z M104,189 L104,191 L112,191 L112,189 Z M112,189 L112,191 L120,191 L120,189 Z M120,189 L120,191 L128,191 L128,189 Z M128,189 L128,191 L136,191 L136,189 Z M136,189 L136,191 L144,191 L144,189 Z M144,189 L144,191 L152,191 L152,189 Z M152,189 L152,191 L160,191 L160,189 Z M160,189 L160,191 L168,191 L168,189 Z M168,189 L168,191 L176,191 L176,189 Z M176,189 L176,191 L184,191 L184,189 Z M184,189 L184,191 L192,191 L192,189 Z M192,189 L192,191 L200,191 L200,189 Z M200,189 L200,191 L208,191 L208,189 Z M208,189 L208,191 L216,191 L216,189 Z M216,189 L216,191 L224,191 L224,189 Z M224,189 L224,191 L232,191 L232,189 Z M232,189 L232,191 L240,191 L240,189 Z M240,189 L240,191 L248,191 L248,189 Z M248,189 L248,191 L256,191 L256,189 Z M256,189 L256,191 L264,191 L264,189 Z M264,189 L264,191 L272,191 L272,189 Z M272,189 L272,191 L280,191 L280,189 Z M280,189 L280,191 L288,191 L288,189 Z M288,189 L288,191 L296,191 L296,189 Z M296,189 L296,191 L304,191 L304,189 Z M304,189 L304,191 L312,191 L312,189 Z M312,189 L312,191 L320,191 L320,189 Z M320,189 L320,191 L328,191 L328,189 Z M328,189 L328,191 L336,191 L336,189 Z M336,189 L336,191 L344,191 L344,189 Z M347,189 L347,191 L349,191 L349,189 Z M347,180 L347,190 L349,190 L349,180 Z M347,190 L347,200 L349,200 L349,190 Z M344,189 L344,191 L348,191 L348,189 Z M19,200 L19,220 L21,220 L21,200 Z M347,200 L347,220 L349,220 L349,200 Z M19,229 L19,231 L21,231 L21,229 Z M19,220 L19,230 L21,230 L21,220 Z M19,230 L19,240 L21,240 L21,230 Z M20,229 L20,231 L24,231 L24,229 Z M24,229 L24,231 L32,231 L32,229 Z M32,229 L32,231 L40,231 L40,229 Z M40,229 L40,231 L48,231 L48,229 Z M48,229 L48,231 L56,231 L56,229 Z M56,229 L56,231 L64,231 L64,229 Z M64,229 L64,231 L72,231 L72,229 Z M72,229 L72,231 L80,231 L80,229 Z M80,229 L80,231 L88,231 L88,229 Z M88,229 L88,231 L96,231 L96,229 Z M96,229 L96,231 L104,231 L104,229 Z M104,229 L104,231 L112,231 L112,229 Z M112,229 L112,231 L120,231 L120,229 Z M120,229 L120,231 L128,231 L128,229 Z M128,229 L128,231 L136,231 L136,229 Z M136,229 L136,231 L144,231 L144,229 Z M144,229 L144,231 L152,231 L152,229 Z M152,229 L152,231 L160,231 L160,229 Z M160,229 L160,231 L168,231 L168,229 Z M168,229 L168,231 L176,231 L176,229 Z M176,229 L176,231 L184,231 L184,229 Z M184,229 L184,231 L192,231 L192,229 Z M192,229 L192,231 L200,231 L200,229 Z M200,229 L200,231 L208,231 L208,229 Z M208,229 L208,231 L216,231 L216,229 Z M216,229 L216,231 L224,231 L224,229 Z M224,229 L224,231 L232,231 L232,229 Z M232,229 L232,231 L240,231 L240,229 Z M240,229 L240,231 L248,231 L248,229 Z M248,229 L248,231 L256,231 L256,229 Z M256,229 L256,231 L264,231 L264,229 Z M264,229 L264,231 L272,231 L272,229 Z M272,229 L272,231 L280,231 L280,229 Z M280,229 L280,231 L288,231 L288,229 Z M288,229 L288,231 L296,231 L296,229 Z M296,229 L296,231 L304,231 L304,229 Z M304,229 L304,231 L312,231 L312,229 Z M312,229 L312,231 L320,231 L320,229 Z M320,229 L320,231 L328,231 L328,229 Z M328,229 L328,231 L336,231 L336,229 Z M336,229 L336,231 L344,231 L344,229 Z M347,229 L347,231 L349,231 L349,229 Z M347,220 L347,230 L349,230 L349,220 Z M347,230 L347,240 L349,240 L349,230 Z M344,229 L344,231 L348,231 L348,229 Z M19,240 L19,260 L21,260 L21,240 Z M347,240 L347,260 L349,260 L349,240 Z M19,269 L19,271 L21,271 L21,269 Z M19,260 L19,270 L21,270 L21,260 Z M20,269 L20,271 L24,271 L24,269 Z M24,269 L24,271 L32,271 L32,269 Z M32,269 L32,271 L40,271 L40,269 Z M40,269 L40,271 L48,271 L48,269 Z M48,269 L48,271 L56,271 L56,269 Z M56,269 L56,271 L64,271 L64,269 Z M64,269 L64,271 L72,271 L72,269 Z M72,269 L72,271 L80,271 L80,269 Z M80,269 L80,271 L88,271 L88,269 Z M88,269 L88,271 L96,271 L96,269 Z M96,269 L96,271 L104,271 L104,269 Z M104,269 L104,271 L112,271 L112,269 Z M112,269 L112,271 L120,271 L120,269 Z M120,269 L120,271 L128,271 L128,269 Z M128,269 L128,271 L136,271 L136,269 Z M136,269 L136,271 L144,271 L144,269 Z M144,269 L144,271 L152,271 L152,269 Z M152,269 L152,271 L160,271 L160,269 Z M160,269 L160,271 L168,271 L168,269 Z M168,269 L168,271 L176,271 L176,269 Z M176,269 L176,271 L184,271 L184,269 Z M184,269 L184,271 L192,271 L192,269 Z M192,269 L192,271 L200,271 L200,269 Z M200,269 L200,271 L208,271 L208,269 Z M208,269 L208,271 L216,271 L216,269 Z M216,269 L216,271 L224,271 L224,269 Z M224,269 L224,271 L232,271 L232,269 Z M232,269 L232,271 L240,271 L240,269 Z M240,269 L240,271 L248,271 L248,269 Z M248,269 L248,271 L256,271 L256,269 Z M256,269 L256,271 L264,271 L264,269 Z M264,269 L264,271 L272,271 L272,269 Z M272,269 L272,271 L280,271 L280,269 Z M280,269 L280,271 L288,271 L288,269 Z M288,269 L288,271 L296,271 L296,269 Z M296,269 L296,271 L304,271 L304,269 Z M304,269 L304,271 L312,271 L312,269 Z M312,269 L312,271 L320,271 L320,269 Z M320,269 L320,271 L328,271 L328,269 Z M328,269 L328,271 L336,271 L336,269 Z M336,269 L336,271 L344,271 L344,269 Z M347,269 L347,271 L349,271 L349,269 Z M347,260 L347,270 L349,270 L349,260 Z M344,269 L344,271 L348,271 L348,269 Z M83,280 L83,300 L85,300 L85,280 Z M84,320 L80,310 L88,310 Z M83,300 L83,310 L85,310 L85,300 Z " fill="#ccc" stroke="#ccc" stroke-width="0.1px" />
</svg>