<?xml version="1.0"?>
<svg width="176" height="420" viewBox="0 0 176 420"
    xmlns="http://www.w3.org/2000/svg" version="1.1">
	<text x="72" y="90" font-family="Meiryo, sans-serif" font-weight="normal" font-size="16px" fill="#000" dominant-baseline="central" text-anchor="middle">ク</text>
	<text x="88" y="90" font-family="Meiryo, sans-serif" font-weight="normal" font-size="16px" fill="#000" dominant-baseline="central" text-anchor="middle">ラ</text>
	<text x="104" y="90" font-family="Meiryo, sans-serif" font-weight="normal" font-size="16px" fill="#000" dominant-baseline="central" text-anchor="middle">ス</text>
	<text x="20" y="210" font-family="MS Gothic, monospace" font-weight="normal" font-size="16px" fill="#000" dominant-baseline="central" text-anchor="middle">n</text>
	<text x="28" y="210" font-family="MS Gothic, monospace" font-weight="normal" font-size="16px" fill="#000" dominant-baseline="central" text-anchor="middle">e</text>
	<text x="36" y="210" font-family="MS Gothic, monospace" font-weight="normal" font-size="16px" fill="#000" dominant-baseline="central" text-anchor="middle">w</text>
	<text x="56" y="210" font-family="Meiryo, sans-serif" font-weight="normal" font-size="16px" fill="#000" dominant-baseline="central" text-anchor="middle">ク</text>
	<text x="72" y="210" font-family="Meiryo, sans-serif" font-weight="normal" font-size="16px" fill="#000" dominant-baseline="central" text-anchor="middle">ラ</text>
	<text x="88" y="210" font-family="Meiryo, sans-serif" font-weight="normal" font-size="16px" fill="#000" dominant-baseline="central" text-anchor="middle">ス</text>
	<text x="104" y="210" font-family="Meiryo, sans-serif" font-weight="normal" font-size="16px" fill="#000" dominant-baseline="central" text-anchor="middle">名</text>
	<text x="116" y="210" font-family="MS Gothic, monospace" font-weight="normal" font-size="16px" fill="#000" dominant-baseline="central" text-anchor="middle">(</text>
	<text x="128" y="210" font-family="Meiryo, sans-serif" font-weight="normal" font-size="16px" fill="#000" dominant-baseline="central" text-anchor="middle">引</text>
	<text x="144" y="210" font-family="Meiryo, sans-serif" font-weight="normal" font-size="16px" fill="#000" dominant-baseline="central" text-anchor="middle">数</text>
	<text x="156" y="210" font-family="MS Gothic, monospace" font-weight="normal" font-size="16px" fill="#000" dominant-baseline="central" text-anchor="middle">)</text>
	<text x="48" y="330" font-family="Meiryo, sans-serif" font-weight="normal" font-size="16px" fill="#000" dominant-baseline="central" text-anchor="middle">オ</text>
	<text x="64" y="330" font-family="Meiryo, sans-serif" font-weight="normal" font-size="16px" fill="#000" dominant-baseline="central" text-anchor="middle">ブ</text>
	<text x="80" y="330" font-family="Meiryo, sans-serif" font-weight="normal" font-size="16px" fill="#000" dominant-baseline="central" text-anchor="middle">ジ</text>
	<text x="96" y="330" font-family="Meiryo, sans-serif" font-weight="normal" font-size="16px" fill="#000" dominant-baseline="central" text-anchor="middle">ェ</text>
	<text x="112" y="330" font-family="Meiryo, sans-serif" font-weight="normal" font-size="16px" fill="#000" dominant-baseline="central" text-anchor="middle">ク</text>
	<text x="128" y="330" font-family="Meiryo, sans-serif" font-weight="normal" font-size="16px" fill="#000" dominant-baseline="central" text-anchor="middle">ト</text>
	<path d="M83,220 L83,240 L85,240 L85,220 Z M84,260 L80,250 L88,250 Z M83,240 L83,250 L85,250 L85,240 Z M19,269 L19,271 L21,271 L21,269 Z M19,270 L19,280 L21,280 L21,270 Z M20,269 L20,271 L24,271 L24,269 Z M24,269 L24,271 L32,271 L32,269 Z M32,269 L32,271 L40,271 L40,269 Z M40,269 L40,271 L48,271 L48,269 Z M48,269 L48,271 L56,271 L56,269 Z M56,269 L56,271 L64,271 L64,269 Z M64,269 L64,271 L72,271 L72,269 Z M72,269 L72,271 L80,271 L80,269 Z M80,269 L80,271 L88,271 L88,269 Z M88,269 L88,271 L96,271 L96,269 Z M96,269 L96,271 L104,271 L104,269 Z M104,269 L104,271 L112,271 L112,269 Z M112,269 L112,271 L120,271 L120,269 Z M120,269 L120,271 L128,271 L128,269 Z M128,269 L128,271 L136,271 L136,269 Z M136,269 L136,271 L144,271 L144,269 Z M144,269 L144,271 L152,271 L152,269 Z M155,269 L155,271 L157,271 L157,269 Z M155,270 L155,280 L157,280 L157,270 Z M152,269 L152,271 L156,271 L156,269 Z M19,280 L19,300 L21,300 L21,280 Z M155,280 L155,300 L157,300 L157,280 Z M19,300 L19,320 L21,320 L21,300 Z M155,300 L155,320 L157,320 L157,300 Z M19,320 L19,340 L21,340 L21,320 Z M155,320 L155,340 L157,340 L157,320 Z M19,340 L19,360 L21,360 L21,340 Z M155,340 L155,360 L157,360 L157,340 Z M19,360 L19,380 L21,380 L21,360 Z M155,360 L155,380 L157,380 L157,360 Z M19,389 L19,391 L21,391 L21,389 Z M19,380 L19,390 L21,390 L21,380 Z M20,389 L20,391 L24,391 L24,389 Z M24,389 L24,391 L32,391 L32,389 Z M32,389 L32,391 L40,391 L40,389 Z M40,389 L40,391 L48,391 L48,389 Z M48,389 L48,391 L56,391 L56,389 Z M56,389 L56,391 L64,391 L64,389 Z M64,389 L64,391 L72,391 L72,389 Z M72,389 L72,391 L80,391 L80,389 Z M80,389 L80,391 L88,391 L88,389 Z M88,389 L88,391 L96,391 L96,389 Z M96,389 L96,391 L104,391 L104,389 Z M104,389 L104,391 L112,391 L112,389 Z M112,389 L112,391 L120,391 L120,389 Z M120,389 L120,391 L128,391 L128,389 Z M128,389 L128,391 L136,391 L136,389 Z M136,389 L136,391 L144,391 L144,389 Z M144,389 L144,391 L152,391 L152,389 Z M155,389 L155,391 L157,391 L157,389 Z M155,380 L155,390 L157,390 L157,380 Z M152,389 L152,391 L156,391 L156,389 Z " fill="#000" stroke="#000" stroke-width="0.1px" />
	<path d="M19,29 L19,31 L21,31 L21,29 Z M19,30 L19,40 L21,40 L21,30 Z M20,29 L20,31 L24,31 L24,29 Z M24,29 L24,31 L32,31 L32,29 Z M32,29 L32,31 L40,31 L40,29 Z M40,29 L40,31 L48,31 L48,29 Z M48,29 L48,31 L56,31 L56,29 Z M56,29 L56,31 L64,31 L64,29 Z M64,29 L64,31 L72,31 L72,29 Z M72,29 L72,31 L80,31 L80,29 Z M80,29 L80,31 L88,31 L88,29 Z M88,29 L88,31 L96,31 L96,29 Z M96,29 L96,31 L104,31 L104,29 Z M104,29 L104,31 L112,31 L112,29 Z M112,29 L112,31 L120,31 L120,29 Z M120,29 L120,31 L128,31 L128,29 Z M128,29 L128,31 L136,31 L136,29 Z M136,29 L136,31 L144,31 L144,29 Z M144,29 L144,31 L152,31 L152,29 Z M155,29 L155,31 L157,31 L157,29 Z M155,30 L155,40 L157,40 L157,30 Z M152,29 L152,31 L156,31 L156,29 Z M19,40 L19,60 L21,60 L21,40 Z M155,40 L155,60 L157,60 L157,40 Z M19,60 L19,80 L21,80 L21,60 Z M155,60 L155,80 L157,80 L157,60 Z M19,80 L19,100 L21,100 L21,80 Z M155,80 L155,100 L157,100 L157,80 Z M19,100 L19,120 L21,120 L21,100 Z M155,100 L155,120 L157,120 L157,100 Z M19,120 L19,140 L21,140 L21,120 Z M155,120 L155,140 L157,140 L157,120 Z M19,149 L19,151 L21,151 L21,149 Z M19,140 L19,150 L21,150 L21,140 Z M20,149 L20,151 L24,151 L24,149 Z M24,149 L24,151 L32,151 L32,149 Z M32,149 L32,151 L40,151 L40,149 Z M40,149 L40,151 L48,151 L48,149 Z M48,149 L48,151 L56,151 L56,149 Z M56,149 L56,151 L64,151 L64,149 Z M64,149 L64,151 L72,151 L72,149 Z M72,149 L72,151 L80,151 L80,149 Z M80,149 L80,151 L88,151 L88,149 Z M88,149 L88,151 L96,151 L96,149 Z M96,149 L96,151 L104,151 L104,149 Z M104,149 L104,151 L112,151 L112,149 Z M112,149 L112,151 L120,151 L120,149 Z M120,149 L120,151 L128,151 L128,149 Z M128,149 L128,151 L136,151 L136,149 Z M136,149 L136,151 L144,151 L144,149 Z M144,149 L144,151 L152,151 L152,149 Z M155,149 L155,151 L157,151 L157,149 Z M155,140 L155,150 L157,150 L157,140 Z M152,149 L152,151 L156,151 L156,149 Z M83,160 L83,180 L85,180 L85,160 Z M84,200 L80,190 L88,190 Z M83,180 L83,190 L85,190 L85,180 Z " fill="#ccc" stroke="#ccc" stroke-width="0.1px" />
</svg>