<?xml version="1.0"?>
<svg width="512" height="360" viewBox="0 0 512 360"
    xmlns="http://www.w3.org/2000/svg" version="1.1">
	<text x="184" y="30" font-family="Meiryo, sans-serif" font-weight="normal" font-size="16px" fill="#000" dominant-baseline="central" text-anchor="middle">フ</text>
	<text x="200" y="30" font-family="Meiryo, sans-serif" font-weight="normal" font-size="16px" fill="#000" dominant-baseline="central" text-anchor="middle">レ</text>
	<text x="216" y="30" font-family="Meiryo, sans-serif" font-weight="normal" font-size="16px" fill="#000" dominant-baseline="central" text-anchor="middle">ー</text>
	<text x="232" y="30" font-family="Meiryo, sans-serif" font-weight="normal" font-size="16px" fill="#000" dominant-baseline="central" text-anchor="middle">ム</text>
	<text x="248" y="30" font-family="Meiryo, sans-serif" font-weight="normal" font-size="16px" fill="#000" dominant-baseline="central" text-anchor="middle">ワ</text>
	<text x="264" y="30" font-family="Meiryo, sans-serif" font-weight="normal" font-size="16px" fill="#000" dominant-baseline="central" text-anchor="middle">ー</text>
	<text x="280" y="30" font-family="Meiryo, sans-serif" font-weight="normal" font-size="16px" fill="#000" dominant-baseline="central" text-anchor="middle">ク</text>
	<text x="296" y="30" font-family="Meiryo, sans-serif" font-weight="normal" font-size="16px" fill="#000" dominant-baseline="central" text-anchor="middle">の</text>
	<text x="312" y="30" font-family="Meiryo, sans-serif" font-weight="normal" font-size="16px" fill="#000" dominant-baseline="central" text-anchor="middle">場</text>
	<text x="328" y="30" font-family="Meiryo, sans-serif" font-weight="normal" font-size="16px" fill="#000" dominant-baseline="central" text-anchor="middle">合</text>
	<text x="48" y="70" font-family="Meiryo, sans-serif" font-weight="normal" font-size="16px" fill="#000" dominant-baseline="central" text-anchor="middle">フ</text>
	<text x="64" y="70" font-family="Meiryo, sans-serif" font-weight="normal" font-size="16px" fill="#000" dominant-baseline="central" text-anchor="middle">レ</text>
	<text x="80" y="70" font-family="Meiryo, sans-serif" font-weight="normal" font-size="16px" fill="#000" dominant-baseline="central" text-anchor="middle">ー</text>
	<text x="96" y="70" font-family="Meiryo, sans-serif" font-weight="normal" font-size="16px" fill="#000" dominant-baseline="central" text-anchor="middle">ム</text>
	<text x="112" y="70" font-family="Meiryo, sans-serif" font-weight="normal" font-size="16px" fill="#000" dominant-baseline="central" text-anchor="middle">ワ</text>
	<text x="128" y="70" font-family="Meiryo, sans-serif" font-weight="normal" font-size="16px" fill="#000" dominant-baseline="central" text-anchor="middle">ー</text>
	<text x="144" y="70" font-family="Meiryo, sans-serif" font-weight="normal" font-size="16px" fill="#000" dominant-baseline="central" text-anchor="middle">ク</text>
	<text x="344" y="70" font-family="Meiryo, sans-serif" font-weight="normal" font-size="16px" fill="#000" dominant-baseline="central" text-anchor="middle">自</text>
	<text x="360" y="70" font-family="Meiryo, sans-serif" font-weight="normal" font-size="16px" fill="#000" dominant-baseline="central" text-anchor="middle">分</text>
	<text x="376" y="70" font-family="Meiryo, sans-serif" font-weight="normal" font-size="16px" fill="#000" dominant-baseline="central" text-anchor="middle">が</text>
	<text x="392" y="70" font-family="Meiryo, sans-serif" font-weight="normal" font-size="16px" fill="#000" dominant-baseline="central" text-anchor="middle">書</text>
	<text x="408" y="70" font-family="Meiryo, sans-serif" font-weight="normal" font-size="16px" fill="#000" dominant-baseline="central" text-anchor="middle">く</text>
	<text x="424" y="70" font-family="Meiryo, sans-serif" font-weight="normal" font-size="16px" fill="#000" dominant-baseline="central" text-anchor="middle">プ</text>
	<text x="440" y="70" font-family="Meiryo, sans-serif" font-weight="normal" font-size="16px" fill="#000" dominant-baseline="central" text-anchor="middle">ロ</text>
	<text x="456" y="70" font-family="Meiryo, sans-serif" font-weight="normal" font-size="16px" fill="#000" dominant-baseline="central" text-anchor="middle">グ</text>
	<text x="472" y="70" font-family="Meiryo, sans-serif" font-weight="normal" font-size="16px" fill="#000" dominant-baseline="central" text-anchor="middle">ラ</text>
	<text x="488" y="70" font-family="Meiryo, sans-serif" font-weight="normal" font-size="16px" fill="#000" dominant-baseline="central" text-anchor="middle">ム</text>
	<text x="200" y="130" font-family="Meiryo, sans-serif" font-weight="normal" font-size="16px" fill="#000" dominant-baseline="central" text-anchor="middle">枠</text>
	<text x="216" y="130" font-family="Meiryo, sans-serif" font-weight="normal" font-size="16px" fill="#000" dominant-baseline="central" text-anchor="middle">組</text>
	<text x="232" y="130" font-family="Meiryo, sans-serif" font-weight="normal" font-size="16px" fill="#000" dominant-baseline="central" text-anchor="middle">み</text>
	<text x="248" y="130" font-family="Meiryo, sans-serif" font-weight="normal" font-size="16px" fill="#000" dominant-baseline="central" text-anchor="middle">に</text>
	<text x="264" y="130" font-family="Meiryo, sans-serif" font-weight="normal" font-size="16px" fill="#000" dominant-baseline="central" text-anchor="middle">合</text>
	<text x="280" y="130" font-family="Meiryo, sans-serif" font-weight="normal" font-size="16px" fill="#000" dominant-baseline="central" text-anchor="middle">わ</text>
	<text x="296" y="130" font-family="Meiryo, sans-serif" font-weight="normal" font-size="16px" fill="#000" dominant-baseline="central" text-anchor="middle">せ</text>
	<text x="312" y="130" font-family="Meiryo, sans-serif" font-weight="normal" font-size="16px" fill="#000" dominant-baseline="central" text-anchor="middle">て</text>
	<text x="200" y="150" font-family="Meiryo, sans-serif" font-weight="normal" font-size="16px" fill="#000" dominant-baseline="central" text-anchor="middle">部</text>
	<text x="216" y="150" font-family="Meiryo, sans-serif" font-weight="normal" font-size="16px" fill="#000" dominant-baseline="central" text-anchor="middle">品</text>
	<text x="232" y="150" font-family="Meiryo, sans-serif" font-weight="normal" font-size="16px" fill="#000" dominant-baseline="central" text-anchor="middle">を</text>
	<text x="248" y="150" font-family="Meiryo, sans-serif" font-weight="normal" font-size="16px" fill="#000" dominant-baseline="central" text-anchor="middle">作</text>
	<text x="264" y="150" font-family="Meiryo, sans-serif" font-weight="normal" font-size="16px" fill="#000" dominant-baseline="central" text-anchor="middle">る</text>
	<text x="200" y="210" font-family="Meiryo, sans-serif" font-weight="normal" font-size="16px" fill="#000" dominant-baseline="central" text-anchor="middle">枠</text>
	<text x="216" y="210" font-family="Meiryo, sans-serif" font-weight="normal" font-size="16px" fill="#000" dominant-baseline="central" text-anchor="middle">組</text>
	<text x="232" y="210" font-family="Meiryo, sans-serif" font-weight="normal" font-size="16px" fill="#000" dominant-baseline="central" text-anchor="middle">み</text>
	<text x="248" y="210" font-family="Meiryo, sans-serif" font-weight="normal" font-size="16px" fill="#000" dominant-baseline="central" text-anchor="middle">に</text>
	<text x="264" y="210" font-family="Meiryo, sans-serif" font-weight="normal" font-size="16px" fill="#000" dominant-baseline="central" text-anchor="middle">合</text>
	<text x="280" y="210" font-family="Meiryo, sans-serif" font-weight="normal" font-size="16px" fill="#000" dominant-baseline="central" text-anchor="middle">わ</text>
	<text x="296" y="210" font-family="Meiryo, sans-serif" font-weight="normal" font-size="16px" fill="#000" dominant-baseline="central" text-anchor="middle">せ</text>
	<text x="312" y="210" font-family="Meiryo, sans-serif" font-weight="normal" font-size="16px" fill="#000" dominant-baseline="central" text-anchor="middle">て</text>
	<text x="200" y="230" font-family="Meiryo, sans-serif" font-weight="normal" font-size="16px" fill="#000" dominant-baseline="central" text-anchor="middle">部</text>
	<text x="216" y="230" font-family="Meiryo, sans-serif" font-weight="normal" font-size="16px" fill="#000" dominant-baseline="central" text-anchor="middle">品</text>
	<text x="232" y="230" font-family="Meiryo, sans-serif" font-weight="normal" font-size="16px" fill="#000" dominant-baseline="central" text-anchor="middle">を</text>
	<text x="248" y="230" font-family="Meiryo, sans-serif" font-weight="normal" font-size="16px" fill="#000" dominant-baseline="central" text-anchor="middle">作</text>
	<text x="264" y="230" font-family="Meiryo, sans-serif" font-weight="normal" font-size="16px" fill="#000" dominant-baseline="central" text-anchor="middle">る</text>
	<path d="M19,89 L19,91 L21,91 L21,89 Z M19,90 L19,100 L21,100 L21,90 Z M20,89 L20,91 L24,91 L24,89 Z M24,89 L24,91 L32,91 L32,89 Z M32,89 L32,91 L40,91 L40,89 Z M40,89 L40,91 L48,91 L48,89 Z M48,89 L48,91 L56,91 L56,89 Z M56,89 L56,91 L64,91 L64,89 Z M64,89 L64,91 L72,91 L72,89 Z M72,89 L72,91 L80,91 L80,89 Z M80,89 L80,91 L88,91 L88,89 Z M88,89 L88,91 L96,91 L96,89 Z M96,89 L96,91 L104,91 L104,89 Z M104,89 L104,91 L112,91 L112,89 Z M112,89 L112,91 L120,91 L120,89 Z M120,89 L120,91 L128,91 L128,89 Z M128,89 L128,91 L136,91 L136,89 Z M136,89 L136,91 L144,91 L144,89 Z M144,89 L144,91 L152,91 L152,89 Z M152,89 L152,91 L160,91 L160,89 Z M160,89 L160,91 L168,91 L168,89 Z M171,89 L171,91 L173,91 L173,89 Z M171,90 L171,100 L173,100 L173,90 Z M168,89 L168,91 L172,91 L172,89 Z M19,100 L19,120 L21,120 L21,100 Z M91,100 L91,120 L93,120 L93,100 Z M171,100 L171,120 L173,120 L173,100 Z M19,120 L19,140 L21,140 L21,120 Z M91,120 L91,140 L93,140 L93,120 Z M171,120 L171,140 L173,140 L173,120 Z M19,140 L19,160 L21,160 L21,140 Z M43,149 L43,151 L45,151 L45,149 Z M43,150 L43,160 L45,160 L45,150 Z M44,149 L44,151 L48,151 L48,149 Z M48,149 L48,151 L56,151 L56,149 Z M56,149 L56,151 L64,151 L64,149 Z M64,149 L64,151 L72,151 L72,149 Z M72,149 L72,151 L80,151 L80,149 Z M80,149 L80,151 L88,151 L88,149 Z M91,149 L91,151 L93,151 L93,149 Z M91,140 L91,150 L93,150 L93,140 Z M88,149 L88,151 L92,151 L92,149 Z M92,149 L92,151 L96,151 L96,149 Z M96,149 L96,151 L104,151 L104,149 Z M104,149 L104,151 L112,151 L112,149 Z M112,149 L112,151 L120,151 L120,149 Z M120,149 L120,151 L128,151 L128,149 Z M128,149 L128,151 L136,151 L136,149 Z M136,149 L136,151 L144,151 L144,149 Z M147,149 L147,151 L149,151 L149,149 Z M147,150 L147,160 L149,160 L149,150 Z M144,149 L144,151 L148,151 L148,149 Z M171,140 L171,160 L173,160 L173,140 Z M339,149 L339,151 L341,151 L341,149 Z M339,150 L339,160 L341,160 L341,150 Z M340,149 L340,151 L344,151 L344,149 Z M344,149 L344,151 L352,151 L352,149 Z M352,149 L352,151 L360,151 L360,149 Z M360,149 L360,151 L368,151 L368,149 Z M368,149 L368,151 L376,151 L376,149 Z M376,149 L376,151 L384,151 L384,149 Z M384,149 L384,151 L392,151 L392,149 Z M392,149 L392,151 L400,151 L400,149 Z M400,149 L400,151 L408,151 L408,149 Z M408,149 L408,151 L416,151 L416,149 Z M416,149 L416,151 L424,151 L424,149 Z M424,149 L424,151 L432,151 L432,149 Z M432,149 L432,151 L440,151 L440,149 Z M440,149 L440,151 L448,151 L448,149 Z M448,149 L448,151 L456,151 L456,149 Z M456,149 L456,151 L464,151 L464,149 Z M464,149 L464,151 L472,151 L472,149 Z M472,149 L472,151 L480,151 L480,149 Z M480,149 L480,151 L488,151 L488,149 Z M491,149 L491,151 L493,151 L493,149 Z M491,150 L491,160 L493,160 L493,150 Z M488,149 L488,151 L492,151 L492,149 Z M19,160 L19,180 L21,180 L21,160 Z M43,160 L43,180 L45,180 L45,160 Z M147,160 L147,180 L149,180 L149,160 Z M152,170 L160,175 L160,165 Z M160,169 L160,171 L168,171 L168,169 Z M168,169 L168,171 L176,171 L176,169 Z M176,169 L176,171 L184,171 L184,169 Z M184,169 L184,171 L192,171 L192,169 Z M192,169 L192,171 L200,171 L200,169 Z M200,169 L200,171 L208,171 L208,169 Z M208,169 L208,171 L216,171 L216,169 Z M216,169 L216,171 L224,171 L224,169 Z M224,169 L224,171 L232,171 L232,169 Z M232,169 L232,171 L240,171 L240,169 Z M240,169 L240,171 L248,171 L248,169 Z M248,169 L248,171 L256,171 L256,169 Z M256,169 L256,171 L264,171 L264,169 Z M264,169 L264,171 L272,171 L272,169 Z M272,169 L272,171 L280,171 L280,169 Z M280,169 L280,171 L288,171 L288,169 Z M288,169 L288,171 L296,171 L296,169 Z M296,169 L296,171 L304,171 L304,169 Z M304,169 L304,171 L312,171 L312,169 Z M312,169 L312,171 L320,171 L320,169 Z M320,169 L320,171 L328,171 L328,169 Z M328,169 L328,171 L336,171 L336,169 Z M339,160 L339,180 L341,180 L341,160 Z M491,160 L491,180 L493,180 L493,160 Z M19,180 L19,200 L21,200 L21,180 Z M43,189 L43,191 L45,191 L45,189 Z M43,180 L43,190 L45,190 L45,180 Z M44,189 L44,191 L48,191 L48,189 Z M48,189 L48,191 L56,191 L56,189 Z M56,189 L56,191 L64,191 L64,189 Z M64,189 L64,191 L72,191 L72,189 Z M72,189 L72,191 L80,191 L80,189 Z M80,189 L80,191 L88,191 L88,189 Z M91,189 L91,191 L93,191 L93,189 Z M91,190 L91,200 L93,200 L93,190 Z M88,189 L88,191 L92,191 L92,189 Z M92,189 L92,191 L96,191 L96,189 Z M96,189 L96,191 L104,191 L104,189 Z M104,189 L104,191 L112,191 L112,189 Z M112,189 L112,191 L120,191 L120,189 Z M120,189 L120,191 L128,191 L128,189 Z M128,189 L128,191 L136,191 L136,189 Z M136,189 L136,191 L144,191 L144,189 Z M147,189 L147,191 L149,191 L149,189 Z M147,180 L147,190 L149,190 L149,180 Z M144,189 L144,191 L148,191 L148,189 Z M171,180 L171,200 L173,200 L173,180 Z M339,189 L339,191 L341,191 L341,189 Z M339,180 L339,190 L341,190 L341,180 Z M340,189 L340,191 L344,191 L344,189 Z M344,189 L344,191 L352,191 L352,189 Z M352,189 L352,191 L360,191 L360,189 Z M360,189 L360,191 L368,191 L368,189 Z M368,189 L368,191 L376,191 L376,189 Z M376,189 L376,191 L384,191 L384,189 Z M384,189 L384,191 L392,191 L392,189 Z M392,189 L392,191 L400,191 L400,189 Z M400,189 L400,191 L408,191 L408,189 Z M408,189 L408,191 L416,191 L416,189 Z M416,189 L416,191 L424,191 L424,189 Z M424,189 L424,191 L432,191 L432,189 Z M432,189 L432,191 L440,191 L440,189 Z M440,189 L440,191 L448,191 L448,189 Z M448,189 L448,191 L456,191 L456,189 Z M456,189 L456,191 L464,191 L464,189 Z M464,189 L464,191 L472,191 L472,189 Z M472,189 L472,191 L480,191 L480,189 Z M480,189 L480,191 L488,191 L488,189 Z M491,189 L491,191 L493,191 L493,189 Z M491,180 L491,190 L493,190 L493,180 Z M488,189 L488,191 L492,191 L492,189 Z M19,200 L19,220 L21,220 L21,200 Z M91,200 L91,220 L93,220 L93,200 Z M171,200 L171,220 L173,220 L173,200 Z M19,220 L19,240 L21,240 L21,220 Z M43,229 L43,231 L45,231 L45,229 Z M43,230 L43,240 L45,240 L45,230 Z M44,229 L44,231 L48,231 L48,229 Z M48,229 L48,231 L56,231 L56,229 Z M56,229 L56,231 L64,231 L64,229 Z M64,229 L64,231 L72,231 L72,229 Z M72,229 L72,231 L80,231 L80,229 Z M80,229 L80,231 L88,231 L88,229 Z M91,229 L91,231 L93,231 L93,229 Z M91,220 L91,230 L93,230 L93,220 Z M88,229 L88,231 L92,231 L92,229 Z M92,229 L92,231 L96,231 L96,229 Z M96,229 L96,231 L104,231 L104,229 Z M104,229 L104,231 L112,231 L112,229 Z M112,229 L112,231 L120,231 L120,229 Z M120,229 L120,231 L128,231 L128,229 Z M128,229 L128,231 L136,231 L136,229 Z M136,229 L136,231 L144,231 L144,229 Z M147,229 L147,231 L149,231 L149,229 Z M147,230 L147,240 L149,240 L149,230 Z M144,229 L144,231 L148,231 L148,229 Z M171,220 L171,240 L173,240 L173,220 Z M339,229 L339,231 L341,231 L341,229 Z M339,230 L339,240 L341,240 L341,230 Z M340,229 L340,231 L344,231 L344,229 Z M344,229 L344,231 L352,231 L352,229 Z M352,229 L352,231 L360,231 L360,229 Z M360,229 L360,231 L368,231 L368,229 Z M368,229 L368,231 L376,231 L376,229 Z M376,229 L376,231 L384,231 L384,229 Z M384,229 L384,231 L392,231 L392,229 Z M392,229 L392,231 L400,231 L400,229 Z M400,229 L400,231 L408,231 L408,229 Z M408,229 L408,231 L416,231 L416,229 Z M416,229 L416,231 L424,231 L424,229 Z M424,229 L424,231 L432,231 L432,229 Z M432,229 L432,231 L440,231 L440,229 Z M440,229 L440,231 L448,231 L448,229 Z M448,229 L448,231 L456,231 L456,229 Z M456,229 L456,231 L464,231 L464,229 Z M464,229 L464,231 L472,231 L472,229 Z M472,229 L472,231 L480,231 L480,229 Z M480,229 L480,231 L488,231 L488,229 Z M491,229 L491,231 L493,231 L493,229 Z M491,230 L491,240 L493,240 L493,230 Z M488,229 L488,231 L492,231 L492,229 Z M19,240 L19,260 L21,260 L21,240 Z M43,240 L43,260 L45,260 L45,240 Z M147,240 L147,260 L149,260 L149,240 Z M152,250 L160,255 L160,245 Z M160,249 L160,251 L168,251 L168,249 Z M168,249 L168,251 L176,251 L176,249 Z M176,249 L176,251 L184,251 L184,249 Z M184,249 L184,251 L192,251 L192,249 Z M192,249 L192,251 L200,251 L200,249 Z M200,249 L200,251 L208,251 L208,249 Z M208,249 L208,251 L216,251 L216,249 Z M216,249 L216,251 L224,251 L224,249 Z M224,249 L224,251 L232,251 L232,249 Z M232,249 L232,251 L240,251 L240,249 Z M240,249 L240,251 L248,251 L248,249 Z M248,249 L248,251 L256,251 L256,249 Z M256,249 L256,251 L264,251 L264,249 Z M264,249 L264,251 L272,251 L272,249 Z M272,249 L272,251 L280,251 L280,249 Z M280,249 L280,251 L288,251 L288,249 Z M288,249 L288,251 L296,251 L296,249 Z M296,249 L296,251 L304,251 L304,249 Z M304,249 L304,251 L312,251 L312,249 Z M312,249 L312,251 L320,251 L320,249 Z M320,249 L320,251 L328,251 L328,249 Z M328,249 L328,251 L336,251 L336,249 Z M339,240 L339,260 L341,260 L341,240 Z M491,240 L491,260 L493,260 L493,240 Z M19,260 L19,280 L21,280 L21,260 Z M43,269 L43,271 L45,271 L45,269 Z M43,260 L43,270 L45,270 L45,260 Z M44,269 L44,271 L48,271 L48,269 Z M48,269 L48,271 L56,271 L56,269 Z M56,269 L56,271 L64,271 L64,269 Z M64,269 L64,271 L72,271 L72,269 Z M72,269 L72,271 L80,271 L80,269 Z M80,269 L80,271 L88,271 L88,269 Z M91,269 L91,271 L93,271 L93,269 Z M91,270 L91,280 L93,280 L93,270 Z M88,269 L88,271 L92,271 L92,269 Z M92,269 L92,271 L96,271 L96,269 Z M96,269 L96,271 L104,271 L104,269 Z M104,269 L104,271 L112,271 L112,269 Z M112,269 L112,271 L120,271 L120,269 Z M120,269 L120,271 L128,271 L128,269 Z M128,269 L128,271 L136,271 L136,269 Z M136,269 L136,271 L144,271 L144,269 Z M147,269 L147,271 L149,271 L149,269 Z M147,260 L147,270 L149,270 L149,260 Z M144,269 L144,271 L148,271 L148,269 Z M171,260 L171,280 L173,280 L173,260 Z M339,269 L339,271 L341,271 L341,269 Z M339,260 L339,270 L341,270 L341,260 Z M340,269 L340,271 L344,271 L344,269 Z M344,269 L344,271 L352,271 L352,269 Z M352,269 L352,271 L360,271 L360,269 Z M360,269 L360,271 L368,271 L368,269 Z M368,269 L368,271 L376,271 L376,269 Z M376,269 L376,271 L384,271 L384,269 Z M384,269 L384,271 L392,271 L392,269 Z M392,269 L392,271 L400,271 L400,269 Z M400,269 L400,271 L408,271 L408,269 Z M408,269 L408,271 L416,271 L416,269 Z M416,269 L416,271 L424,271 L424,269 Z M424,269 L424,271 L432,271 L432,269 Z M432,269 L432,271 L440,271 L440,269 Z M440,269 L440,271 L448,271 L448,269 Z M448,269 L448,271 L456,271 L456,269 Z M456,269 L456,271 L464,271 L464,269 Z M464,269 L464,271 L472,271 L472,269 Z M472,269 L472,271 L480,271 L480,269 Z M480,269 L480,271 L488,271 L488,269 Z M491,269 L491,271 L493,271 L493,269 Z M491,260 L491,270 L493,270 L493,260 Z M488,269 L488,271 L492,271 L492,269 Z M19,280 L19,300 L21,300 L21,280 Z M91,280 L91,300 L93,300 L93,280 Z M171,280 L171,300 L173,300 L173,280 Z M19,300 L19,320 L21,320 L21,300 Z M92,320 L88,310 L96,310 Z M91,300 L91,310 L93,310 L93,300 Z M171,300 L171,320 L173,320 L173,300 Z M19,329 L19,331 L21,331 L21,329 Z M19,320 L19,330 L21,330 L21,320 Z M20,329 L20,331 L24,331 L24,329 Z M24,329 L24,331 L32,331 L32,329 Z M32,329 L32,331 L40,331 L40,329 Z M40,329 L40,331 L48,331 L48,329 Z M48,329 L48,331 L56,331 L56,329 Z M56,329 L56,331 L64,331 L64,329 Z M64,329 L64,331 L72,331 L72,329 Z M72,329 L72,331 L80,331 L80,329 Z M80,329 L80,331 L88,331 L88,329 Z M88,329 L88,331 L96,331 L96,329 Z M96,329 L96,331 L104,331 L104,329 Z M104,329 L104,331 L112,331 L112,329 Z M112,329 L112,331 L120,331 L120,329 Z M120,329 L120,331 L128,331 L128,329 Z M128,329 L128,331 L136,331 L136,329 Z M136,329 L136,331 L144,331 L144,329 Z M144,329 L144,331 L152,331 L152,329 Z M152,329 L152,331 L160,331 L160,329 Z M160,329 L160,331 L168,331 L168,329 Z M171,329 L171,331 L173,331 L173,329 Z M171,320 L171,330 L173,330 L173,320 Z M168,329 L168,331 L172,331 L172,329 Z " fill="#000" stroke="#000" stroke-width="0.1px" />
</svg>